# 3ds Max Wavefront OBJ Exporter v0.97b - (c)2007 guruware
# File Created: 18.03.2016 20:28:40

#
# object 3039
#

v  -20.0000 10.0000 -24.0000
v  20.0000 10.0000 -24.0000
v  -20.0000 -10.0000 0.0000
v  20.0000 -10.0000 0.0000
v  -20.0000 10.0000 0.0000
v  20.0000 10.0000 0.0000
v  -16.0000 6.0000 -24.0000
v  16.0000 6.0000 -24.0000
v  -16.0000 -10.0000 -4.0000
v  -16.0000 6.0000 -4.0000
v  16.0000 6.0000 -4.0000
v  16.0000 -10.0000 -4.0000
v  -20.0000 -30.0000 -24.0000
v  20.0000 -30.0000 -24.0000
v  20.0000 -30.0000 -20.0000
v  -20.0000 -30.0000 -20.0000
v  16.0000 -26.0000 -24.0000
v  -16.0000 -26.0000 -24.0000
v  -16.0000 -26.0000 -20.0000
v  16.0000 -26.0000 -20.0000
v  -4.0000 0.0000 0.0000
v  -4.8038 3.0000 0.0000
v  -7.0000 5.1962 0.0000
v  -10.0000 6.0000 0.0000
v  -13.0000 5.1962 0.0000
v  -15.1961 3.0000 0.0000
v  -16.0000 0.0000 0.0000
v  -15.1961 -3.0000 0.0000
v  -13.0000 -5.1961 0.0000
v  -10.0000 -6.0000 0.0000
v  -7.0000 -5.1962 0.0000
v  -4.8038 -3.0000 0.0000
v  -4.0000 0.0000 4.0000
v  -4.8038 3.0000 4.0000
v  -7.0000 5.1962 4.0000
v  -10.0000 6.0000 4.0000
v  -13.0000 5.1962 4.0000
v  -15.1961 3.0000 4.0000
v  -16.0000 0.0000 4.0000
v  -15.1961 -3.0000 4.0000
v  -13.0000 -5.1961 4.0000
v  -10.0000 -6.0000 4.0000
v  -7.0000 -5.1962 4.0000
v  -4.8038 -3.0000 4.0000
v  -10.0000 0.0000 4.0000
v  16.0000 0.0000 0.0000
v  15.1962 3.0000 0.0000
v  15.1962 3.0000 4.0000
v  16.0000 0.0000 4.0000
v  13.0000 5.1962 0.0000
v  13.0000 5.1962 4.0000
v  10.0000 6.0000 0.0000
v  10.0000 6.0000 4.0000
v  7.0000 5.1962 0.0000
v  7.0000 5.1962 4.0000
v  4.8039 3.0000 0.0000
v  4.8039 3.0000 4.0000
v  4.0000 0.0000 0.0000
v  4.0000 0.0000 4.0000
v  4.8039 -3.0000 0.0000
v  4.8039 -3.0000 4.0000
v  7.0000 -5.1961 0.0000
v  7.0000 -5.1961 4.0000
v  10.0000 -6.0000 0.0000
v  10.0000 -6.0000 4.0000
v  13.0000 -5.1962 0.0000
v  13.0000 -5.1962 4.0000
v  15.1962 -3.0000 0.0000
v  15.1962 -3.0000 4.0000
v  10.0000 0.0000 4.0000
v  0.0000 -2.0000 -24.0000
v  0.0000 -2.0000 -4.0000
v  0.0000 -4.0000 -4.0000
v  0.0000 -4.0000 -24.0000
v  4.0000 -3.0718 -24.0000
v  4.0000 -3.0718 -4.0000
v  3.0000 -4.8038 -4.0000
v  3.0000 -4.8038 -24.0000
v  6.9282 -6.0000 -24.0000
v  6.9282 -6.0000 -4.0000
v  5.1962 -7.0000 -4.0000
v  5.1962 -7.0000 -24.0000
v  8.0000 -10.0000 -24.0000
v  8.0000 -10.0000 -4.0000
v  6.0000 -10.0000 -4.0000
v  6.0000 -10.0000 -24.0000
v  6.9282 -14.0000 -24.0000
v  6.9282 -14.0000 -5.7392
v  5.1962 -13.0000 -5.7392
v  5.1962 -13.0000 -24.0000
v  4.0000 -16.9282 -24.0000
v  4.0000 -16.9282 -7.9093
v  3.0000 -15.1961 -7.9093
v  3.0000 -15.1961 -24.0000
v  0.0000 -18.0000 -24.0000
v  0.0000 -18.0000 -9.0352
v  0.0000 -16.0000 -9.0352
v  0.0000 -16.0000 -24.0000
v  -4.0000 -16.9282 -24.0000
v  -4.0000 -16.9282 -7.9093
v  -3.0000 -15.1961 -7.9093
v  -3.0000 -15.1961 -24.0000
v  -6.9282 -14.0000 -24.0000
v  -6.9282 -14.0000 -5.7392
v  -5.1962 -13.0000 -5.7392
v  -5.1962 -13.0000 -24.0000
v  -8.0000 -10.0000 -24.0000
v  -8.0000 -10.0000 -4.0000
v  -6.0000 -10.0000 -4.0000
v  -6.0000 -10.0000 -24.0000
v  -6.9282 -6.0000 -24.0000
v  -6.9282 -6.0000 -4.0000
v  -5.1962 -7.0000 -4.0000
v  -5.1962 -7.0000 -24.0000
v  -4.0000 -3.0718 -24.0000
v  -4.0000 -3.0718 -4.0000
v  -3.0000 -4.8038 -4.0000
v  -3.0000 -4.8038 -24.0000
# 118 vertices

vn 0.0000 0.0000 -1.0000
vn 0.0000 0.0000 -1.0000
vn 0.0000 0.0000 -1.0000
vn 0.0000 0.0000 -1.0000
vn 0.0000 0.0000 1.0000
vn 0.0000 0.0000 1.0000
vn 0.0000 0.0000 1.0000
vn 0.0000 0.0000 1.0000
vn 0.0000 -1.0000 0.0000
vn 0.0000 -1.0000 0.0000
vn 0.0000 -1.0000 0.0000
vn 0.0000 -1.0000 0.0000
vn 1.0000 0.0000 0.0000
vn 1.0000 0.0000 0.0000
vn 1.0000 0.0000 0.0000
vn 0.0000 1.0000 0.0000
vn 0.0000 1.0000 0.0000
vn 0.0000 1.0000 0.0000
vn 0.0000 1.0000 0.0000
vn -1.0000 0.0000 0.0000
vn -1.0000 0.0000 0.0000
vn -1.0000 0.0000 0.0000
vn 0.0000 0.0000 -1.0000
vn 0.0000 0.0000 -1.0000
vn 0.0000 0.0000 -1.0000
vn 0.0000 0.0000 -1.0000
vn 1.0000 0.0000 0.0000
vn 1.0000 0.0000 0.0000
vn 1.0000 0.0000 0.0000
vn 0.0000 -1.0000 0.0000
vn 0.0000 -1.0000 0.0000
vn 0.0000 -1.0000 0.0000
vn 0.0000 -1.0000 0.0000
vn -1.0000 0.0000 0.0000
vn -1.0000 0.0000 0.0000
vn -1.0000 0.0000 0.0000
vn 1.0000 0.0000 0.0000
vn 1.0000 0.0000 0.0000
vn 1.0000 0.0000 0.0000
vn 1.0000 0.0000 0.0000
vn 0.0000 -0.7071 0.7071
vn 0.0000 -0.7071 0.7071
vn 0.0000 -0.7071 0.7071
vn 0.0000 -0.7071 0.7071
vn -1.0000 0.0000 0.0000
vn -1.0000 0.0000 0.0000
vn -1.0000 0.0000 0.0000
vn -1.0000 0.0000 0.0000
vn 0.0000 0.0000 -1.0000
vn 0.0000 0.0000 -1.0000
vn 0.0000 0.0000 -1.0000
vn 0.0000 0.0000 -1.0000
vn 0.0000 0.0000 -1.0000
vn 0.0000 0.0000 -1.0000
vn 0.0000 0.0000 -1.0000
vn 0.0000 0.0000 -1.0000
vn 0.0000 0.0000 -1.0000
vn 0.0000 0.0000 -1.0000
vn 0.0000 0.0000 -1.0000
vn 0.0000 0.0000 -1.0000
vn -1.0000 0.0000 0.0000
vn -1.0000 0.0000 0.0000
vn -1.0000 0.0000 0.0000
vn -1.0000 0.0000 0.0000
vn 0.0000 1.0000 0.0000
vn 0.0000 1.0000 0.0000
vn 0.0000 1.0000 0.0000
vn 0.0000 1.0000 0.0000
vn 1.0000 0.0000 0.0000
vn 1.0000 0.0000 0.0000
vn 1.0000 0.0000 0.0000
vn 1.0000 0.0000 0.0000
vn 0.0000 0.7071 -0.7071
vn 0.0000 0.7071 -0.7071
vn 0.0000 0.7071 -0.7071
vn 0.0000 0.7071 -0.7071
vn 0.8660 0.5000 0.0000
vn 1.0000 0.0000 0.0000
vn 1.0000 0.0000 0.0000
vn 0.8660 0.5000 0.0000
vn 0.5000 0.8660 0.0000
vn 0.8660 0.5000 0.0000
vn 0.8660 0.5000 0.0000
vn 0.5000 0.8660 0.0000
vn 0.0000 1.0000 0.0000
vn 0.5000 0.8660 0.0000
vn 0.5000 0.8660 0.0000
vn 0.0000 1.0000 0.0000
vn -0.5000 0.8660 0.0000
vn 0.0000 1.0000 0.0000
vn 0.0000 1.0000 0.0000
vn -0.5000 0.8660 0.0000
vn -0.8660 0.5000 0.0000
vn -0.5000 0.8660 0.0000
vn -0.5000 0.8660 0.0000
vn -0.8660 0.5000 0.0000
vn -1.0000 0.0000 0.0000
vn -0.8660 0.5000 0.0000
vn -0.8660 0.5000 0.0000
vn -1.0000 0.0000 0.0000
vn -0.8660 -0.5000 0.0000
vn -1.0000 0.0000 0.0000
vn -1.0000 0.0000 0.0000
vn -0.8660 -0.5000 0.0000
vn -0.5000 -0.8660 0.0000
vn -0.8660 -0.5000 0.0000
vn -0.8660 -0.5000 0.0000
vn -0.5000 -0.8660 0.0000
vn -0.0000 -1.0000 0.0000
vn -0.5000 -0.8660 0.0000
vn -0.5000 -0.8660 0.0000
vn -0.0000 -1.0000 0.0000
vn 0.5000 -0.8660 0.0000
vn -0.0000 -1.0000 0.0000
vn -0.0000 -1.0000 0.0000
vn 0.5000 -0.8660 0.0000
vn 0.8660 -0.5000 0.0000
vn 0.5000 -0.8660 0.0000
vn 0.5000 -0.8660 0.0000
vn 0.8660 -0.5000 0.0000
vn 1.0000 0.0000 0.0000
vn 0.8660 -0.5000 0.0000
vn 0.8660 -0.5000 0.0000
vn 1.0000 0.0000 0.0000
vn 0.0000 0.0000 1.0000
vn 0.0000 0.0000 1.0000
vn 0.0000 0.0000 1.0000
vn 0.0000 0.0000 1.0000
vn 0.0000 0.0000 1.0000
vn 0.0000 0.0000 1.0000
vn 0.0000 0.0000 1.0000
vn 0.0000 0.0000 1.0000
vn 0.0000 0.0000 1.0000
vn 0.0000 0.0000 1.0000
vn 0.0000 0.0000 1.0000
vn 0.0000 0.0000 1.0000
vn 0.0000 0.0000 1.0000
vn 0.0000 0.0000 1.0000
vn 0.0000 0.0000 1.0000
vn 0.0000 0.0000 1.0000
vn 0.0000 0.0000 1.0000
vn 0.0000 0.0000 1.0000
vn 0.0000 0.0000 1.0000
vn 0.0000 0.0000 1.0000
vn 0.0000 0.0000 1.0000
vn 0.0000 0.0000 1.0000
vn 0.0000 0.0000 1.0000
vn 0.0000 0.0000 1.0000
vn 0.0000 0.0000 1.0000
vn 0.0000 0.0000 1.0000
vn 0.0000 0.0000 1.0000
vn 0.0000 0.0000 1.0000
vn 0.0000 0.0000 1.0000
vn 0.0000 0.0000 1.0000
vn 0.0000 0.0000 1.0000
vn 0.0000 0.0000 1.0000
vn 0.0000 0.0000 1.0000
vn 0.0000 0.0000 1.0000
vn 0.0000 0.0000 1.0000
vn 0.0000 0.0000 1.0000
vn 0.8660 0.5000 0.0000
vn 1.0000 0.0000 0.0000
vn 1.0000 0.0000 0.0000
vn 0.8660 0.5000 0.0000
vn 0.5000 0.8660 0.0000
vn 0.8660 0.5000 0.0000
vn 0.8660 0.5000 0.0000
vn 0.5000 0.8660 0.0000
vn 0.0000 1.0000 0.0000
vn 0.5000 0.8660 0.0000
vn 0.5000 0.8660 0.0000
vn 0.0000 1.0000 0.0000
vn -0.5000 0.8660 0.0000
vn 0.0000 1.0000 0.0000
vn 0.0000 1.0000 0.0000
vn -0.5000 0.8660 0.0000
vn -0.8660 0.5000 0.0000
vn -0.5000 0.8660 0.0000
vn -0.5000 0.8660 0.0000
vn -0.8660 0.5000 0.0000
vn -1.0000 0.0000 0.0000
vn -0.8660 0.5000 0.0000
vn -0.8660 0.5000 0.0000
vn -1.0000 0.0000 0.0000
vn -0.8660 -0.5000 0.0000
vn -1.0000 0.0000 0.0000
vn -1.0000 0.0000 0.0000
vn -0.8660 -0.5000 0.0000
vn -0.5000 -0.8660 0.0000
vn -0.8660 -0.5000 0.0000
vn -0.8660 -0.5000 0.0000
vn -0.5000 -0.8660 0.0000
vn -0.0000 -1.0000 0.0000
vn -0.5000 -0.8660 0.0000
vn -0.5000 -0.8660 0.0000
vn -0.0000 -1.0000 0.0000
vn 0.5000 -0.8660 0.0000
vn -0.0000 -1.0000 0.0000
vn -0.0000 -1.0000 0.0000
vn 0.5000 -0.8660 0.0000
vn 0.8660 -0.5000 0.0000
vn 0.5000 -0.8660 0.0000
vn 0.5000 -0.8660 0.0000
vn 0.8660 -0.5000 0.0000
vn 1.0000 0.0000 0.0000
vn 0.8660 -0.5000 0.0000
vn 0.8660 -0.5000 0.0000
vn 1.0000 0.0000 0.0000
vn 0.0000 0.0000 1.0000
vn 0.0000 0.0000 1.0000
vn 0.0000 0.0000 1.0000
vn 0.0000 0.0000 1.0000
vn 0.0000 0.0000 1.0000
vn 0.0000 0.0000 1.0000
vn 0.0000 0.0000 1.0000
vn 0.0000 0.0000 1.0000
vn 0.0000 0.0000 1.0000
vn 0.0000 0.0000 1.0000
vn 0.0000 0.0000 1.0000
vn 0.0000 0.0000 1.0000
vn 0.0000 0.0000 1.0000
vn 0.0000 0.0000 1.0000
vn 0.0000 0.0000 1.0000
vn 0.0000 0.0000 1.0000
vn 0.0000 0.0000 1.0000
vn 0.0000 0.0000 1.0000
vn 0.0000 0.0000 1.0000
vn 0.0000 0.0000 1.0000
vn 0.0000 0.0000 1.0000
vn 0.0000 0.0000 1.0000
vn 0.0000 0.0000 1.0000
vn 0.0000 0.0000 1.0000
vn 0.0000 0.0000 1.0000
vn 0.0000 0.0000 1.0000
vn 0.0000 0.0000 1.0000
vn 0.0000 0.0000 1.0000
vn 0.0000 0.0000 1.0000
vn 0.0000 0.0000 1.0000
vn 0.0000 0.0000 1.0000
vn 0.0000 0.0000 1.0000
vn 0.0000 0.0000 1.0000
vn 0.0000 0.0000 1.0000
vn 0.0000 0.0000 1.0000
vn 0.0000 0.0000 1.0000
vn 0.5000 0.8660 0.0000
vn 0.5000 0.8660 0.0000
vn 0.0000 1.0000 0.0000
vn 0.0000 1.0000 0.0000
vn -0.5000 -0.8660 0.0000
vn -0.5000 -0.8660 0.0000
vn 0.0000 -1.0000 0.0000
vn 0.0000 -1.0000 0.0000
vn 0.0000 0.0000 -1.0000
vn 0.0000 0.0000 -1.0000
vn 0.0000 0.0000 -1.0000
vn 0.0000 0.0000 -1.0000
vn 0.8660 0.5000 0.0000
vn 0.8660 0.5000 0.0000
vn 0.5000 0.8660 0.0000
vn 0.5000 0.8660 0.0000
vn -0.8660 -0.5000 0.0000
vn -0.8660 -0.5000 0.0000
vn -0.5000 -0.8660 0.0000
vn -0.5000 -0.8660 0.0000
vn 0.0000 0.0000 -1.0000
vn 0.0000 0.0000 -1.0000
vn 0.0000 0.0000 -1.0000
vn 0.0000 0.0000 -1.0000
vn 0.9992 0.0388 0.0000
vn 1.0000 0.0000 0.0000
vn 0.8660 0.5000 0.0000
vn 0.8660 0.5000 0.0000
vn -1.0000 0.0000 0.0000
vn -0.9987 -0.0519 0.0000
vn -0.8660 -0.5000 0.0000
vn -0.8660 -0.5000 0.0000
vn 0.0000 0.0000 -1.0000
vn 0.0000 0.0000 -1.0000
vn 0.0000 0.0000 -1.0000
vn 0.0000 0.0000 -1.0000
vn 0.9019 -0.4319 0.0000
vn 0.8660 -0.5000 0.0000
vn 1.0000 0.0000 0.0000
vn 0.9992 0.0388 0.0000
vn -0.8660 0.5000 0.0000
vn -0.9109 0.4125 0.0000
vn -0.9987 -0.0519 0.0000
vn -1.0000 0.0000 0.0000
vn 0.0000 0.0000 -1.0000
vn 0.0000 0.0000 -1.0000
vn 0.0000 0.0000 -1.0000
vn 0.0000 0.0000 -1.0000
vn 0.5507 -0.8347 0.0000
vn 0.5000 -0.8660 0.0000
vn 0.8660 -0.5000 0.0000
vn 0.9019 -0.4319 0.0000
vn -0.5000 0.8660 0.0000
vn -0.5637 0.8260 0.0000
vn -0.9109 0.4125 0.0000
vn -0.8660 0.5000 0.0000
vn 0.0000 0.0000 -1.0000
vn 0.0000 0.0000 -1.0000
vn 0.0000 0.0000 -1.0000
vn 0.0000 0.0000 -1.0000
vn 0.0000 -1.0000 0.0000
vn 0.0000 -1.0000 0.0000
vn 0.5000 -0.8660 0.0000
vn 0.5507 -0.8347 0.0000
vn -0.0000 1.0000 0.0000
vn -0.0000 1.0000 0.0000
vn -0.5637 0.8260 0.0000
vn -0.5000 0.8660 0.0000
vn 0.0000 0.0000 -1.0000
vn 0.0000 0.0000 -1.0000
vn 0.0000 0.0000 -1.0000
vn 0.0000 0.0000 -1.0000
vn -0.5507 -0.8347 0.0000
vn -0.5000 -0.8660 0.0000
vn 0.0000 -1.0000 0.0000
vn 0.0000 -1.0000 0.0000
vn 0.5000 0.8660 0.0000
vn 0.5637 0.8260 0.0000
vn -0.0000 1.0000 0.0000
vn -0.0000 1.0000 0.0000
vn 0.0000 0.0000 -1.0000
vn 0.0000 0.0000 -1.0000
vn 0.0000 0.0000 -1.0000
vn 0.0000 0.0000 -1.0000
vn -0.9019 -0.4319 0.0000
vn -0.8660 -0.5000 0.0000
vn -0.5000 -0.8660 0.0000
vn -0.5507 -0.8347 0.0000
vn 0.8660 0.5000 0.0000
vn 0.9109 0.4125 0.0000
vn 0.5637 0.8260 0.0000
vn 0.5000 0.8660 0.0000
vn 0.0000 0.0000 -1.0000
vn 0.0000 0.0000 -1.0000
vn 0.0000 0.0000 -1.0000
vn 0.0000 0.0000 -1.0000
vn -0.9992 0.0388 0.0000
vn -1.0000 0.0000 0.0000
vn -0.8660 -0.5000 0.0000
vn -0.9019 -0.4319 0.0000
vn 1.0000 0.0000 0.0000
vn 0.9987 -0.0519 0.0000
vn 0.9109 0.4125 0.0000
vn 0.8660 0.5000 0.0000
vn 0.0000 0.0000 -1.0000
vn 0.0000 0.0000 -1.0000
vn 0.0000 0.0000 -1.0000
vn 0.0000 0.0000 -1.0000
vn -0.8660 0.5000 0.0000
vn -0.8660 0.5000 0.0000
vn -1.0000 0.0000 0.0000
vn -0.9992 0.0388 0.0000
vn 0.8660 -0.5000 0.0000
vn 0.8660 -0.5000 0.0000
vn 0.9987 -0.0519 0.0000
vn 1.0000 0.0000 0.0000
vn 0.0000 0.0000 -1.0000
vn 0.0000 0.0000 -1.0000
vn 0.0000 0.0000 -1.0000
vn 0.0000 0.0000 -1.0000
vn -0.5000 0.8660 0.0000
vn -0.5000 0.8660 0.0000
vn -0.8660 0.5000 0.0000
vn -0.8660 0.5000 0.0000
vn 0.5000 -0.8660 0.0000
vn 0.5000 -0.8660 0.0000
vn 0.8660 -0.5000 0.0000
vn 0.8660 -0.5000 0.0000
vn 0.0000 0.0000 -1.0000
vn 0.0000 0.0000 -1.0000
vn 0.0000 0.0000 -1.0000
vn 0.0000 0.0000 -1.0000
vn 0.0000 1.0000 0.0000
vn 0.0000 1.0000 0.0000
vn -0.5000 0.8660 0.0000
vn -0.5000 0.8660 0.0000
vn 0.0000 -1.0000 0.0000
vn 0.0000 -1.0000 0.0000
vn 0.5000 -0.8660 0.0000
vn 0.5000 -0.8660 0.0000
vn 0.0000 0.0000 -1.0000
vn 0.0000 0.0000 -1.0000
vn 0.0000 0.0000 -1.0000
vn 0.0000 0.0000 -1.0000
# 388 vertex normals

vt 0.0429 0.9571 0.0000
vt 0.9571 0.9571 0.0000
vt 0.0429 0.5000 0.8571
vt 0.9571 0.5000 0.8571
vt 0.0429 0.9571 0.8571
vt 0.9571 0.9571 0.8571
vt 0.1343 0.8657 0.0000
vt 0.8657 0.8657 0.0000
vt 0.1343 0.5000 0.7143
vt 0.1343 0.8657 0.7143
vt 0.8657 0.8657 0.7143
vt 0.8657 0.5000 0.7143
vt 0.0429 0.0429 0.0000
vt 0.9571 0.0429 0.0000
vt 0.9571 0.0429 0.1429
vt 0.0429 0.0429 0.1429
vt 0.8657 0.1343 0.0000
vt 0.1343 0.1343 0.0000
vt 0.1343 0.1343 0.1429
vt 0.8657 0.1343 0.1429
vt 0.4086 0.7286 0.8571
vt 0.3902 0.7971 0.8571
vt 0.3400 0.8473 0.8571
vt 0.2714 0.8657 0.8571
vt 0.2029 0.8473 0.8571
vt 0.1527 0.7971 0.8571
vt 0.1343 0.7286 0.8571
vt 0.1527 0.6600 0.8571
vt 0.2029 0.6098 0.8571
vt 0.2714 0.5914 0.8571
vt 0.3400 0.6098 0.8571
vt 0.3902 0.6600 0.8571
vt 0.4086 0.7286 1.0000
vt 0.3902 0.7971 1.0000
vt 0.3400 0.8473 1.0000
vt 0.2714 0.8657 1.0000
vt 0.2029 0.8473 1.0000
vt 0.1527 0.7971 1.0000
vt 0.1343 0.7286 1.0000
vt 0.1527 0.6600 1.0000
vt 0.2029 0.6098 1.0000
vt 0.2714 0.5914 1.0000
vt 0.3400 0.6098 1.0000
vt 0.3902 0.6600 1.0000
vt 0.2714 0.7286 1.0000
vt 0.8657 0.7286 0.8571
vt 0.8473 0.7971 0.8571
vt 0.8473 0.7971 1.0000
vt 0.8657 0.7286 1.0000
vt 0.7971 0.8473 0.8571
vt 0.7971 0.8473 1.0000
vt 0.7286 0.8657 0.8571
vt 0.7286 0.8657 1.0000
vt 0.6600 0.8473 0.8571
vt 0.6600 0.8473 1.0000
vt 0.6098 0.7971 0.8571
vt 0.6098 0.7971 1.0000
vt 0.5914 0.7286 0.8571
vt 0.5914 0.7286 1.0000
vt 0.6098 0.6600 0.8571
vt 0.6098 0.6600 1.0000
vt 0.6600 0.6098 0.8571
vt 0.6600 0.6098 1.0000
vt 0.7286 0.5914 0.8571
vt 0.7286 0.5914 1.0000
vt 0.7971 0.6098 0.8571
vt 0.7971 0.6098 1.0000
vt 0.8473 0.6600 0.8571
vt 0.8473 0.6600 1.0000
vt 0.7286 0.7286 1.0000
vt 0.5000 0.6829 0.0000
vt 0.5000 0.6829 0.7143
vt 0.5000 0.6371 0.7143
vt 0.5000 0.6371 0.0000
vt 0.5914 0.6584 0.0000
vt 0.5914 0.6584 0.7143
vt 0.5686 0.6188 0.7143
vt 0.5686 0.6188 0.0000
vt 0.6584 0.5914 0.0000
vt 0.6584 0.5914 0.7143
vt 0.6188 0.5686 0.7143
vt 0.6188 0.5686 0.0000
vt 0.6829 0.5000 0.0000
vt 0.6829 0.5000 0.7143
vt 0.6371 0.5000 0.7143
vt 0.6371 0.5000 0.0000
vt 0.6584 0.4086 0.0000
vt 0.6584 0.4086 0.6522
vt 0.6188 0.4314 0.6522
vt 0.6188 0.4314 0.0000
vt 0.5914 0.3416 0.0000
vt 0.5914 0.3416 0.5747
vt 0.5686 0.3812 0.5747
vt 0.5686 0.3812 0.0000
vt 0.5000 0.3171 0.0000
vt 0.5000 0.3171 0.5345
vt 0.5000 0.3629 0.5345
vt 0.5000 0.3629 0.0000
vt 0.4086 0.3416 0.0000
vt 0.4086 0.3416 0.5747
vt 0.4314 0.3812 0.5747
vt 0.4314 0.3812 0.0000
vt 0.3416 0.4086 0.0000
vt 0.3416 0.4086 0.6522
vt 0.3812 0.4314 0.6522
vt 0.3812 0.4314 0.0000
vt 0.3171 0.5000 0.0000
vt 0.3171 0.5000 0.7143
vt 0.3629 0.5000 0.7143
vt 0.3629 0.5000 0.0000
vt 0.3416 0.5914 0.0000
vt 0.3416 0.5914 0.7143
vt 0.3812 0.5686 0.7143
vt 0.3812 0.5686 0.0000
vt 0.4086 0.6584 0.0000
vt 0.4086 0.6584 0.7143
vt 0.4314 0.6188 0.7143
vt 0.4314 0.6188 0.0000
# 118 texture coords

g 3039
s 8
f 11/11/1 12/12/2 9/9/3 10/10/4 
f 6/6/5 5/5/6 3/3/7 4/4/8 
s 2
f 15/15/9 16/16/10 13/13/11 14/14/12 
s 4
f 2/2/13 6/6/14 4/4/15 
s 2
f 5/5/16 6/6/17 2/2/18 1/1/19 
s 4
f 1/1/20 3/3/21 5/5/22 
s 1
f 8/8/23 7/7/24 1/1/25 2/2/26 
s 2
f 7/7/27 10/10/28 9/9/29 
s 4
f 11/11/30 10/10/31 7/7/32 8/8/33 
s 2
f 8/8/34 12/12/35 11/11/36 
s 4
f 15/15/37 14/14/38 2/2/39 4/4/40 
s 1
f 16/16/41 15/15/42 4/4/43 3/3/44 
s 4
f 13/13/45 16/16/46 3/3/47 1/1/48 
s 1
f 17/17/49 8/8/50 2/2/51 14/14/52 
f 18/18/53 17/17/54 14/14/55 13/13/56 
f 7/7/57 18/18/58 13/13/59 1/1/60 
s 2
f 20/20/61 12/12/62 8/8/63 17/17/64 
s 4
f 19/19/65 20/20/66 17/17/67 18/18/68 
s 2
f 19/19/69 18/18/70 7/7/71 9/9/72 
s 1
f 19/19/73 9/9/74 12/12/75 20/20/76 
f 34/34/77 33/33/78 21/21/79 22/22/80 
f 35/35/81 34/34/82 22/22/83 23/23/84 
f 36/36/85 35/35/86 23/23/87 24/24/88 
f 37/37/89 36/36/90 24/24/91 25/25/92 
f 38/38/93 37/37/94 25/25/95 26/26/96 
f 39/39/97 38/38/98 26/26/99 27/27/100 
f 40/40/101 39/39/102 27/27/103 28/28/104 
f 41/41/105 40/40/106 28/28/107 29/29/108 
f 42/42/109 41/41/110 29/29/111 30/30/112 
f 43/43/113 42/42/114 30/30/115 31/31/116 
f 44/44/117 43/43/118 31/31/119 32/32/120 
f 33/33/121 44/44/122 32/32/123 21/21/124 
s 2
f 33/33/125 34/34/126 45/45/127 
f 34/34/128 35/35/129 45/45/130 
f 35/35/131 36/36/132 45/45/133 
f 36/36/134 37/37/135 45/45/136 
f 37/37/137 38/38/138 45/45/139 
f 38/38/140 39/39/141 45/45/142 
f 39/39/143 40/40/144 45/45/145 
f 40/40/146 41/41/147 45/45/148 
f 41/41/149 42/42/150 45/45/151 
f 42/42/152 43/43/153 45/45/154 
f 43/43/155 44/44/156 45/45/157 
f 44/44/158 33/33/159 45/45/160 
s 1
f 48/48/161 49/49/162 46/46/163 47/47/164 
f 51/51/165 48/48/166 47/47/167 50/50/168 
f 53/53/169 51/51/170 50/50/171 52/52/172 
f 55/55/173 53/53/174 52/52/175 54/54/176 
f 57/57/177 55/55/178 54/54/179 56/56/180 
f 59/59/181 57/57/182 56/56/183 58/58/184 
f 61/61/185 59/59/186 58/58/187 60/60/188 
f 63/63/189 61/61/190 60/60/191 62/62/192 
f 65/65/193 63/63/194 62/62/195 64/64/196 
f 67/67/197 65/65/198 64/64/199 66/66/200 
f 69/69/201 67/67/202 66/66/203 68/68/204 
f 49/49/205 69/69/206 68/68/207 46/46/208 
s 2
f 49/49/209 48/48/210 70/70/211 
f 48/48/212 51/51/213 70/70/214 
f 51/51/215 53/53/216 70/70/217 
f 53/53/218 55/55/219 70/70/220 
f 55/55/221 57/57/222 70/70/223 
f 57/57/224 59/59/225 70/70/226 
f 59/59/227 61/61/228 70/70/229 
f 61/61/230 63/63/231 70/70/232 
f 63/63/233 65/65/234 70/70/235 
f 65/65/236 67/67/237 70/70/238 
f 67/67/239 69/69/240 70/70/241 
f 69/69/242 49/49/243 70/70/244 
f 76/76/245 75/75/246 71/71/247 72/72/248 
f 78/78/249 77/77/250 73/73/251 74/74/252 
s 4
f 75/75/253 78/78/254 74/74/255 71/71/256 
s 2
f 80/80/257 79/79/258 75/75/259 76/76/260 
f 82/82/261 81/81/262 77/77/263 78/78/264 
s 4
f 79/79/265 82/82/266 78/78/267 75/75/268 
s 2
f 84/84/269 83/83/270 79/79/271 80/80/272 
f 86/86/273 85/85/274 81/81/275 82/82/276 
s 4
f 83/83/277 86/86/278 82/82/279 79/79/280 
s 2
f 88/88/281 87/87/282 83/83/283 84/84/284 
f 90/90/285 89/89/286 85/85/287 86/86/288 
s 4
f 87/87/289 90/90/290 86/86/291 83/83/292 
s 2
f 92/92/293 91/91/294 87/87/295 88/88/296 
f 94/94/297 93/93/298 89/89/299 90/90/300 
s 4
f 91/91/301 94/94/302 90/90/303 87/87/304 
s 2
f 96/96/305 95/95/306 91/91/307 92/92/308 
f 98/98/309 97/97/310 93/93/311 94/94/312 
s 4
f 95/95/313 98/98/314 94/94/315 91/91/316 
s 2
f 100/100/317 99/99/318 95/95/319 96/96/320 
f 102/102/321 101/101/322 97/97/323 98/98/324 
s 4
f 99/99/325 102/102/326 98/98/327 95/95/328 
s 2
f 104/104/329 103/103/330 99/99/331 100/100/332 
f 106/106/333 105/105/334 101/101/335 102/102/336 
s 4
f 103/103/337 106/106/338 102/102/339 99/99/340 
s 2
f 108/108/341 107/107/342 103/103/343 104/104/344 
f 110/110/345 109/109/346 105/105/347 106/106/348 
s 4
f 107/107/349 110/110/350 106/106/351 103/103/352 
s 2
f 112/112/353 111/111/354 107/107/355 108/108/356 
f 114/114/357 113/113/358 109/109/359 110/110/360 
s 4
f 111/111/361 114/114/362 110/110/363 107/107/364 
s 2
f 116/116/365 115/115/366 111/111/367 112/112/368 
f 118/118/369 117/117/370 113/113/371 114/114/372 
s 4
f 115/115/373 118/118/374 114/114/375 111/111/376 
s 2
f 72/72/377 71/71/378 115/115/379 116/116/380 
f 74/74/381 73/73/382 117/117/383 118/118/384 
s 4
f 71/71/385 74/74/386 118/118/387 115/115/388 
# 76 polygons - 28 triangles

