# 3ds Max Wavefront OBJ Exporter v0.97b - (c)2007 guruware
# File Created: 20.03.2016 12:49:25

#
# object 14719
#

v  -10.0000 -10.0000 0.0000
v  30.0000 -10.0000 0.0000
v  30.0000 10.0000 0.0000
v  -6.0000 -6.0000 -8.0000
v  26.0000 6.0000 -8.0000
v  26.0000 -6.0000 -8.0000
v  -6.0000 -6.0000 -4.0000
v  26.0000 6.0000 -4.0000
v  26.0000 -6.0000 -4.0000
v  30.0000 -10.0000 -7.0000
v  -10.0000 -10.0000 -7.0000
v  30.0000 10.0000 -7.0000
v  29.0000 9.0000 -8.0000
v  29.0000 -9.0000 -8.0000
v  29.0000 9.0000 -7.0000
v  29.0000 -9.0000 -7.0000
v  14.0000 -0.0000 -8.0000
v  13.4641 2.0000 -8.0000
v  12.0000 3.4641 -8.0000
v  10.0000 4.0000 -8.0000
v  8.0000 3.4641 -8.0000
v  6.5359 2.0000 -8.0000
v  6.0000 -0.0000 -8.0000
v  6.5359 -2.0000 -8.0000
v  8.0000 -3.4641 -8.0000
v  10.0000 -4.0000 -8.0000
v  12.0000 -3.4641 -8.0000
v  13.4641 -2.0000 -8.0000
v  14.0000 -0.0000 -4.0000
v  13.4641 2.0000 -4.0000
v  12.0000 3.4641 -4.0000
v  10.0000 4.0000 -4.0000
v  8.0000 3.4641 -4.0000
v  6.5359 2.0000 -4.0000
v  6.0000 -0.0000 -4.0000
v  6.5359 -2.0000 -4.0000
v  8.0000 -3.4641 -4.0000
v  10.0000 -4.0000 -4.0000
v  12.0000 -3.4641 -4.0000
v  13.4641 -2.0000 -4.0000
v  10.0000 -0.0000 -8.0000
v  10.0000 10.0000 0.0000
v  6.0000 6.0000 -8.0000
v  6.0000 6.0000 -4.0000
v  10.0000 10.0000 -7.0000
v  9.0000 9.0000 -8.0000
v  9.0000 9.0000 -7.0000
v  6.0000 26.0000 -4.0000
v  -6.0000 26.0000 -4.0000
v  6.0000 26.0000 -8.0000
v  -6.0000 26.0000 -8.0000
v  -10.0000 30.0000 -7.0000
v  -10.0000 30.0000 0.0000
v  10.0000 30.0000 -7.0000
v  10.0000 30.0000 0.0000
v  9.0000 29.0000 -8.0000
v  -9.0000 29.0000 -8.0000
v  -9.0000 -9.0000 -8.0000
v  9.0000 29.0000 -7.0000
v  -9.0000 29.0000 -7.0000
v  -9.0000 -9.0000 -7.0000
v  -0.0000 14.0000 -8.0000
v  2.0000 13.4641 -8.0000
v  2.0000 13.4641 -4.0000
v  -0.0000 14.0000 -4.0000
v  3.4641 12.0000 -8.0000
v  3.4641 12.0000 -4.0000
v  4.0000 10.0000 -8.0000
v  4.0000 10.0000 -4.0000
v  3.4641 8.0000 -8.0000
v  3.4641 8.0000 -4.0000
v  2.0000 6.5359 -8.0000
v  2.0000 6.5359 -4.0000
v  -0.0000 6.0000 -8.0000
v  -0.0000 6.0000 -4.0000
v  -2.0000 6.5359 -8.0000
v  -2.0000 6.5359 -4.0000
v  -3.4641 8.0000 -8.0000
v  -3.4641 8.0000 -4.0000
v  -4.0000 10.0000 -8.0000
v  -4.0000 10.0000 -4.0000
v  -3.4641 12.0000 -8.0000
v  -3.4641 12.0000 -4.0000
v  -2.0000 13.4641 -8.0000
v  -2.0000 13.4641 -4.0000
v  -0.0000 10.0000 -8.0000
# 86 vertices

vn 0.0000 0.0000 -1.0000
vn 0.0000 0.0000 -1.0000
vn 0.0000 0.0000 -1.0000
vn 0.0000 0.0000 -1.0000
vn -1.0000 0.0000 0.0000
vn -1.0000 0.0000 0.0000
vn -1.0000 0.0000 0.0000
vn -1.0000 0.0000 0.0000
vn -0.0000 1.0000 -0.0000
vn -0.0000 1.0000 0.0000
vn -0.0000 1.0000 -0.0000
vn -0.0000 1.0000 -0.0000
vn 0.0000 -1.0000 -0.0000
vn 0.0000 -1.0000 -0.0000
vn 0.0000 -1.0000 -0.0000
vn 0.0000 -1.0000 0.0000
vn 1.0000 0.0000 0.0000
vn 1.0000 0.0000 0.0000
vn 1.0000 0.0000 0.0000
vn 1.0000 0.0000 0.0000
vn 0.0000 0.0000 -1.0000
vn 0.0000 0.0000 -1.0000
vn 0.0000 0.0000 -1.0000
vn 0.0000 0.0000 -1.0000
vn 0.0000 0.0000 -1.0000
vn 0.0000 0.0000 -1.0000
vn 0.0000 0.0000 -1.0000
vn 0.0000 0.0000 -1.0000
vn 0.0000 0.0000 -1.0000
vn 0.0000 0.0000 -1.0000
vn 0.0000 0.0000 -1.0000
vn 0.0000 0.0000 -1.0000
vn -0.0000 1.0000 0.0000
vn -0.0000 1.0000 0.0000
vn -0.0000 1.0000 0.0000
vn -0.0000 1.0000 0.0000
vn 1.0000 0.0000 0.0000
vn 1.0000 0.0000 0.0000
vn 1.0000 0.0000 0.0000
vn 1.0000 0.0000 0.0000
vn 0.0000 -1.0000 0.0000
vn 0.0000 -1.0000 0.0000
vn 0.0000 -1.0000 0.0000
vn 0.0000 -1.0000 0.0000
vn 0.0000 0.0000 -1.0000
vn 0.0000 -0.0000 -1.0000
vn 0.0000 -0.0000 -1.0000
vn 0.0000 0.0000 -1.0000
vn 0.0000 -0.0000 -1.0000
vn -0.0000 -0.0000 -1.0000
vn -0.0000 -0.0000 -1.0000
vn 0.0000 -0.0000 -1.0000
vn 1.0000 -0.0000 0.0000
vn 0.8660 0.5000 0.0000
vn 0.8660 0.5000 0.0000
vn 1.0000 -0.0000 0.0000
vn 0.8660 0.5000 0.0000
vn 0.5000 0.8660 0.0000
vn 0.5000 0.8660 0.0000
vn 0.8660 0.5000 0.0000
vn 0.5000 0.8660 0.0000
vn 0.0000 1.0000 0.0000
vn 0.0000 1.0000 0.0000
vn 0.5000 0.8660 0.0000
vn 0.0000 1.0000 0.0000
vn -0.5000 0.8660 0.0000
vn -0.5000 0.8660 0.0000
vn 0.0000 1.0000 0.0000
vn -0.5000 0.8660 0.0000
vn -0.8660 0.5000 0.0000
vn -0.8660 0.5000 0.0000
vn -0.5000 0.8660 0.0000
vn -0.8660 0.5000 0.0000
vn -1.0000 0.0000 0.0000
vn -1.0000 0.0000 0.0000
vn -0.8660 0.5000 0.0000
vn -1.0000 0.0000 0.0000
vn -0.8660 -0.5000 0.0000
vn -0.8660 -0.5000 0.0000
vn -1.0000 0.0000 0.0000
vn -0.8660 -0.5000 0.0000
vn -0.5000 -0.8660 0.0000
vn -0.5000 -0.8660 0.0000
vn -0.8660 -0.5000 0.0000
vn -0.5000 -0.8660 0.0000
vn -0.0000 -1.0000 0.0000
vn -0.0000 -1.0000 0.0000
vn -0.5000 -0.8660 0.0000
vn -0.0000 -1.0000 0.0000
vn 0.5000 -0.8660 0.0000
vn 0.5000 -0.8660 0.0000
vn -0.0000 -1.0000 0.0000
vn 0.5000 -0.8660 0.0000
vn 0.8660 -0.5000 0.0000
vn 0.8660 -0.5000 0.0000
vn 0.5000 -0.8660 0.0000
vn 0.8660 -0.5000 0.0000
vn 1.0000 -0.0000 0.0000
vn 1.0000 -0.0000 0.0000
vn 0.8660 -0.5000 0.0000
vn 0.0000 0.0000 -1.0000
vn 0.0000 0.0000 -1.0000
vn 0.0000 0.0000 -1.0000
vn 0.0000 0.0000 -1.0000
vn 0.0000 0.0000 -1.0000
vn 0.0000 0.0000 -1.0000
vn 0.0000 0.0000 -1.0000
vn 0.0000 0.0000 -1.0000
vn 0.0000 0.0000 -1.0000
vn 0.0000 0.0000 -1.0000
vn 0.0000 0.0000 -1.0000
vn 0.0000 0.0000 -1.0000
vn 0.0000 0.0000 -1.0000
vn 0.0000 0.0000 -1.0000
vn 0.0000 0.0000 -1.0000
vn 0.0000 0.0000 -1.0000
vn 0.0000 0.0000 -1.0000
vn 0.0000 0.0000 -1.0000
vn 0.0000 0.0000 -1.0000
vn 0.0000 0.0000 -1.0000
vn 0.0000 0.0000 -1.0000
vn 0.0000 0.0000 -1.0000
vn 0.0000 0.0000 -1.0000
vn 0.0000 0.0000 -1.0000
vn 0.0000 0.0000 -1.0000
vn 0.0000 0.0000 -1.0000
vn 0.0000 0.0000 -1.0000
vn 0.0000 0.0000 -1.0000
vn 0.0000 0.0000 -1.0000
vn 0.0000 0.0000 -1.0000
vn 0.0000 0.0000 -1.0000
vn 0.0000 0.0000 -1.0000
vn 0.0000 0.0000 -1.0000
vn 0.0000 0.0000 -1.0000
vn 0.0000 0.0000 -1.0000
vn 0.0000 0.0000 -1.0000
vn 0.0000 0.0000 1.0000
vn 0.0000 0.0000 1.0000
vn 0.0000 0.0000 1.0000
vn 0.0000 0.0000 1.0000
vn 0.0000 -1.0000 0.0000
vn 0.0000 -1.0000 0.0000
vn 0.0000 -1.0000 0.0000
vn 0.0000 -1.0000 0.0000
vn -0.0000 1.0000 -0.0000
vn -0.0000 1.0000 -0.0000
vn -0.0000 1.0000 -0.0000
vn -0.0000 1.0000 -0.0000
vn 0.0000 0.0000 -1.0000
vn 0.0000 0.0000 -1.0000
vn 0.0000 0.0000 -1.0000
vn 0.0000 0.0000 -1.0000
vn 0.0000 0.0000 -1.0000
vn 0.0000 0.0000 -1.0000
vn 0.0000 0.0000 -1.0000
vn 0.0000 0.0000 -1.0000
vn 0.0000 -1.0000 -0.0000
vn 0.0000 -1.0000 -0.0000
vn 0.0000 -1.0000 -0.0000
vn 0.0000 -1.0000 0.0000
vn 1.0000 0.0000 0.0000
vn 1.0000 0.0000 0.0000
vn 1.0000 0.0000 0.0000
vn 1.0000 0.0000 0.0000
vn -1.0000 -0.0000 0.0000
vn -1.0000 0.0000 0.0000
vn -1.0000 -0.0000 0.0000
vn -1.0000 -0.0000 0.0000
vn 0.0000 1.0000 0.0000
vn 0.0000 1.0000 0.0000
vn 0.0000 1.0000 0.0000
vn 0.0000 1.0000 0.0000
vn 0.0000 0.0000 -1.0000
vn 0.0000 0.0000 -1.0000
vn 0.0000 0.0000 -1.0000
vn 0.0000 0.0000 -1.0000
vn 0.0000 0.0000 -1.0000
vn 0.0000 0.0000 -1.0000
vn 0.0000 0.0000 -1.0000
vn 0.0000 0.0000 -1.0000
vn 0.0000 0.0000 -1.0000
vn 0.0000 0.0000 -1.0000
vn 0.0000 0.0000 -1.0000
vn 0.0000 0.0000 -1.0000
vn 1.0000 -0.0000 0.0000
vn 1.0000 -0.0000 0.0000
vn 1.0000 -0.0000 0.0000
vn 1.0000 -0.0000 0.0000
vn -0.0000 1.0000 0.0000
vn -0.0000 1.0000 0.0000
vn -0.0000 1.0000 0.0000
vn -0.0000 1.0000 0.0000
vn -1.0000 0.0000 0.0000
vn -1.0000 0.0000 0.0000
vn -1.0000 0.0000 0.0000
vn -1.0000 0.0000 0.0000
vn 0.0000 0.0000 -1.0000
vn 0.0000 0.0000 -1.0000
vn -0.0000 0.0000 -1.0000
vn -0.0000 0.0000 -1.0000
vn -0.0000 0.0000 -1.0000
vn -0.0000 0.0000 -1.0000
vn -0.0000 -0.0000 -1.0000
vn -0.0000 -0.0000 -1.0000
vn 0.0000 1.0000 0.0000
vn 0.0000 1.0000 0.0000
vn 0.5000 0.8660 0.0000
vn 0.5000 0.8660 0.0000
vn 0.5000 0.8660 0.0000
vn 0.5000 0.8660 0.0000
vn 0.8660 0.5000 0.0000
vn 0.8660 0.5000 0.0000
vn 0.8660 0.5000 0.0000
vn 0.8660 0.5000 0.0000
vn 1.0000 -0.0000 0.0000
vn 1.0000 -0.0000 0.0000
vn 1.0000 -0.0000 0.0000
vn 1.0000 -0.0000 0.0000
vn 0.8660 -0.5000 0.0000
vn 0.8660 -0.5000 0.0000
vn 0.8660 -0.5000 0.0000
vn 0.8660 -0.5000 0.0000
vn 0.5000 -0.8660 0.0000
vn 0.5000 -0.8660 0.0000
vn 0.5000 -0.8660 0.0000
vn 0.5000 -0.8660 0.0000
vn 0.0000 -1.0000 0.0000
vn 0.0000 -1.0000 0.0000
vn 0.0000 -1.0000 0.0000
vn 0.0000 -1.0000 0.0000
vn -0.5000 -0.8660 0.0000
vn -0.5000 -0.8660 0.0000
vn -0.5000 -0.8660 0.0000
vn -0.5000 -0.8660 0.0000
vn -0.8660 -0.5000 0.0000
vn -0.8660 -0.5000 0.0000
vn -0.8660 -0.5000 0.0000
vn -0.8660 -0.5000 0.0000
vn -1.0000 -0.0000 0.0000
vn -1.0000 -0.0000 0.0000
vn -1.0000 -0.0000 0.0000
vn -1.0000 -0.0000 0.0000
vn -0.8660 0.5000 0.0000
vn -0.8660 0.5000 0.0000
vn -0.8660 0.5000 0.0000
vn -0.8660 0.5000 0.0000
vn -0.5000 0.8660 0.0000
vn -0.5000 0.8660 0.0000
vn -0.5000 0.8660 0.0000
vn -0.5000 0.8660 0.0000
vn 0.0000 1.0000 0.0000
vn 0.0000 1.0000 0.0000
vn 0.0000 0.0000 -1.0000
vn 0.0000 0.0000 -1.0000
vn 0.0000 0.0000 -1.0000
vn 0.0000 0.0000 -1.0000
vn 0.0000 0.0000 -1.0000
vn 0.0000 0.0000 -1.0000
vn 0.0000 0.0000 -1.0000
vn 0.0000 0.0000 -1.0000
vn 0.0000 0.0000 -1.0000
vn 0.0000 0.0000 -1.0000
vn 0.0000 0.0000 -1.0000
vn 0.0000 0.0000 -1.0000
vn 0.0000 0.0000 -1.0000
vn 0.0000 0.0000 -1.0000
vn 0.0000 0.0000 -1.0000
vn 0.0000 0.0000 -1.0000
vn 0.0000 0.0000 -1.0000
vn 0.0000 0.0000 -1.0000
vn 0.0000 0.0000 -1.0000
vn 0.0000 0.0000 -1.0000
vn 0.0000 0.0000 -1.0000
vn 0.0000 0.0000 -1.0000
vn 0.0000 0.0000 -1.0000
vn 0.0000 0.0000 -1.0000
vn 0.0000 0.0000 -1.0000
vn 0.0000 0.0000 -1.0000
vn 0.0000 0.0000 -1.0000
vn 0.0000 0.0000 -1.0000
vn 0.0000 0.0000 -1.0000
vn 0.0000 0.0000 -1.0000
vn 0.0000 0.0000 -1.0000
vn 0.0000 0.0000 -1.0000
vn 0.0000 0.0000 -1.0000
vn 0.0000 0.0000 -1.0000
vn 0.0000 0.0000 -1.0000
vn 0.0000 0.0000 -1.0000
vn 0.0000 0.0000 1.0000
vn 0.0000 0.0000 1.0000
vn 0.0000 0.0000 1.0000
vn 0.0000 0.0000 1.0000
vn -1.0000 0.0000 0.0000
vn -1.0000 0.0000 0.0000
vn -1.0000 0.0000 0.0000
vn -1.0000 0.0000 0.0000
vn 1.0000 -0.0000 0.0000
vn 1.0000 -0.0000 0.0000
vn 1.0000 -0.0000 0.0000
vn 1.0000 -0.0000 0.0000
vn 0.0000 0.0000 -1.0000
vn 0.0000 0.0000 -1.0000
vn 0.0000 0.0000 -1.0000
vn 0.0000 0.0000 -1.0000
# 304 vertex normals

vt 0.0429 0.0429 1.0000
vt 0.9571 0.0429 1.0000
vt 0.9571 0.5000 1.0000
vt 0.1343 0.1343 0.0000
vt 0.8657 0.4086 0.0000
vt 0.8657 0.1343 0.0000
vt 0.1343 0.1343 0.5000
vt 0.8657 0.4086 0.5000
vt 0.8657 0.1343 0.5000
vt 0.9571 0.0429 0.1250
vt 0.0429 0.0429 0.1250
vt 0.9571 0.5000 0.1250
vt 0.9343 0.4771 0.0000
vt 0.9343 0.0657 0.0000
vt 0.9343 0.4771 0.1250
vt 0.9343 0.0657 0.1250
vt 0.5914 0.2714 0.0000
vt 0.5792 0.3171 0.0000
vt 0.5457 0.3506 0.0000
vt 0.5000 0.3629 0.0000
vt 0.4543 0.3506 0.0000
vt 0.4208 0.3171 0.0000
vt 0.4086 0.2714 0.0000
vt 0.4208 0.2257 0.0000
vt 0.4543 0.1922 0.0000
vt 0.5000 0.1800 0.0000
vt 0.5457 0.1922 0.0000
vt 0.5792 0.2257 0.0000
vt 0.5914 0.2714 0.5000
vt 0.5792 0.3171 0.5000
vt 0.5457 0.3506 0.5000
vt 0.5000 0.3629 0.5000
vt 0.4543 0.3506 0.5000
vt 0.4208 0.3171 0.5000
vt 0.4086 0.2714 0.5000
vt 0.4208 0.2257 0.5000
vt 0.4543 0.1922 0.5000
vt 0.5000 0.1800 0.5000
vt 0.5457 0.1922 0.5000
vt 0.5792 0.2257 0.5000
vt 0.5000 0.2714 0.0000
vt 0.5000 0.5000 1.0000
vt 0.4086 0.4086 0.0000
vt 0.4086 0.4086 0.5000
vt 0.5000 0.5000 0.1250
vt 0.4771 0.4771 0.0000
vt 0.4771 0.4771 0.1250
vt 0.4086 0.8657 0.5000
vt 0.1343 0.8657 0.5000
vt 0.4086 0.8657 0.0000
vt 0.1343 0.8657 0.0000
vt 0.0429 0.9571 0.1250
vt 0.0429 0.9571 1.0000
vt 0.5000 0.9571 0.1250
vt 0.5000 0.9571 1.0000
vt 0.4771 0.9343 0.0000
vt 0.0657 0.9343 0.0000
vt 0.0657 0.0657 0.0000
vt 0.4771 0.9343 0.1250
vt 0.0657 0.9343 0.1250
vt 0.0657 0.0657 0.1250
vt 0.2714 0.5914 0.0000
vt 0.3171 0.5792 0.0000
vt 0.3171 0.5792 0.5000
vt 0.2714 0.5914 0.5000
vt 0.3506 0.5457 0.0000
vt 0.3506 0.5457 0.5000
vt 0.3629 0.5000 0.0000
vt 0.3629 0.5000 0.5000
vt 0.3506 0.4543 0.0000
vt 0.3506 0.4543 0.5000
vt 0.3171 0.4208 0.0000
vt 0.3171 0.4208 0.5000
vt 0.2714 0.4086 0.0000
vt 0.2714 0.4086 0.5000
vt 0.2257 0.4208 0.0000
vt 0.2257 0.4208 0.5000
vt 0.1922 0.4543 0.0000
vt 0.1922 0.4543 0.5000
vt 0.1800 0.5000 0.0000
vt 0.1800 0.5000 0.5000
vt 0.1922 0.5457 0.0000
vt 0.1922 0.5457 0.5000
vt 0.2257 0.5792 0.0000
vt 0.2257 0.5792 0.5000
vt 0.2714 0.5000 0.0000
# 86 texture coords

g 14719
s 1
f 7/7/1 44/44/2 8/8/3 9/9/4 
s 2
f 5/5/5 6/6/6 9/9/7 8/8/8 
s 4
f 6/6/9 4/4/10 7/7/11 9/9/12 
s 1
f 2/2/13 1/1/14 11/11/15 10/10/16 
s 2
f 3/3/17 2/2/18 10/10/19 12/12/20 
s 1
f 5/5/21 43/43/22 46/46/23 13/13/24 
f 6/6/25 5/5/26 13/13/27 14/14/28 
f 4/4/29 6/6/30 14/14/31 58/58/32 
s 2
f 46/46/33 47/47/34 15/15/35 13/13/36 
s 4
f 14/14/37 13/13/38 15/15/39 16/16/40 
s 2
f 58/58/41 14/14/42 16/16/43 61/61/44 
s 8
f 12/12/45 10/10/46 16/16/47 15/15/48 
f 10/10/49 11/11/50 61/61/51 16/16/52 
s 1
f 17/17/53 18/18/54 30/30/55 29/29/56 
f 18/18/57 19/19/58 31/31/59 30/30/60 
f 19/19/61 20/20/62 32/32/63 31/31/64 
f 20/20/65 21/21/66 33/33/67 32/32/68 
f 21/21/69 22/22/70 34/34/71 33/33/72 
f 22/22/73 23/23/74 35/35/75 34/34/76 
f 23/23/77 24/24/78 36/36/79 35/35/80 
f 24/24/81 25/25/82 37/37/83 36/36/84 
f 25/25/85 26/26/86 38/38/87 37/37/88 
f 26/26/89 27/27/90 39/39/91 38/38/92 
f 27/27/93 28/28/94 40/40/95 39/39/96 
f 28/28/97 17/17/98 29/29/99 40/40/100 
s 2
f 18/18/101 17/17/102 41/41/103 
f 17/17/104 28/28/105 41/41/106 
f 28/28/107 27/27/108 41/41/109 
f 27/27/110 26/26/111 41/41/112 
f 26/26/113 25/25/114 41/41/115 
f 25/25/116 24/24/117 41/41/118 
f 24/24/119 23/23/120 41/41/121 
f 23/23/122 22/22/123 41/41/124 
f 22/22/125 21/21/126 41/41/127 
f 21/21/128 20/20/129 41/41/130 
f 20/20/131 19/19/132 41/41/133 
f 19/19/134 18/18/135 41/41/136 
s 4
f 1/1/137 2/2/138 3/3/139 42/42/140 
f 5/5/141 8/8/142 44/44/143 43/43/144 
s 1
f 3/3/145 12/12/146 45/45/147 42/42/148 
s 8
f 45/45/149 12/12/150 15/15/151 47/47/152 
s 1
f 7/7/153 49/49/154 48/48/155 44/44/156 
s 2
f 50/50/157 48/48/158 49/49/159 51/51/160 
s 8
f 51/51/161 49/49/162 7/7/163 4/4/164 
s 2
f 53/53/165 52/52/166 11/11/167 1/1/168 
s 1
f 55/55/169 54/54/170 52/52/171 53/53/172 
f 50/50/173 56/56/174 46/46/175 43/43/176 
f 51/51/177 57/57/178 56/56/179 50/50/180 
f 4/4/181 58/58/182 57/57/183 51/51/184 
s 4
f 46/46/185 56/56/186 59/59/187 47/47/188 
s 2
f 57/57/189 60/60/190 59/59/191 56/56/192 
s 4
f 58/58/193 61/61/194 60/60/195 57/57/196 
s 8
f 54/54/197 59/59/198 60/60/199 52/52/200 
f 52/52/201 60/60/202 61/61/203 11/11/204 
s 1
f 62/62/205 65/65/206 64/64/207 63/63/208 
f 63/63/209 64/64/210 67/67/211 66/66/212 
f 66/66/213 67/67/214 69/69/215 68/68/216 
f 68/68/217 69/69/218 71/71/219 70/70/220 
f 70/70/221 71/71/222 73/73/223 72/72/224 
f 72/72/225 73/73/226 75/75/227 74/74/228 
f 74/74/229 75/75/230 77/77/231 76/76/232 
f 76/76/233 77/77/234 79/79/235 78/78/236 
f 78/78/237 79/79/238 81/81/239 80/80/240 
f 80/80/241 81/81/242 83/83/243 82/82/244 
f 82/82/245 83/83/246 85/85/247 84/84/248 
f 84/84/249 85/85/250 65/65/251 62/62/252 
s 2
f 63/63/253 86/86/254 62/62/255 
f 62/62/256 86/86/257 84/84/258 
f 84/84/259 86/86/260 82/82/261 
f 82/82/262 86/86/263 80/80/264 
f 80/80/265 86/86/266 78/78/267 
f 78/78/268 86/86/269 76/76/270 
f 76/76/271 86/86/272 74/74/273 
f 74/74/274 86/86/275 72/72/276 
f 72/72/277 86/86/278 70/70/279 
f 70/70/280 86/86/281 68/68/282 
f 68/68/283 86/86/284 66/66/285 
f 66/66/286 86/86/287 63/63/288 
s 4
f 1/1/289 42/42/290 55/55/291 53/53/292 
s 8
f 50/50/293 43/43/294 44/44/295 48/48/296 
s 2
f 55/55/297 42/42/298 45/45/299 54/54/300 
s 8
f 45/45/301 47/47/302 59/59/303 54/54/304 
# 58 polygons - 24 triangles

