# 3ds Max Wavefront OBJ Exporter v0.97b - (c)2007 guruware
# File Created: 18.03.2016 20:27:39

#
# object 2431
#

v  -40.0000 -10.0000 0.0000
v  40.0000 -10.0000 0.0000
v  -40.0000 10.0000 0.0000
v  40.0000 10.0000 0.0000
v  -36.0000 -6.0000 -8.0000
v  -36.0000 6.0000 -8.0000
v  36.0000 6.0000 -8.0000
v  36.0000 -6.0000 -8.0000
v  -36.0000 -6.0000 -4.0000
v  -36.0000 6.0000 -4.0000
v  36.0000 6.0000 -4.0000
v  36.0000 -6.0000 -4.0000
v  40.0000 -10.0000 -7.0000
v  -40.0000 -10.0000 -7.0000
v  40.0000 10.0000 -7.0000
v  -40.0000 10.0000 -7.0000
v  -39.0000 -9.0000 -8.0000
v  -39.0000 9.0000 -8.0000
v  39.0000 9.0000 -8.0000
v  39.0000 -9.0000 -8.0000
v  -39.0000 -9.0000 -7.0000
v  -39.0000 9.0000 -7.0000
v  39.0000 9.0000 -7.0000
v  39.0000 -9.0000 -7.0000
v  24.0000 0.0000 -8.0000
v  23.4641 2.0000 -8.0000
v  22.0000 3.4641 -8.0000
v  20.0000 4.0000 -8.0000
v  18.0000 3.4641 -8.0000
v  16.5359 2.0000 -8.0000
v  16.0000 0.0000 -8.0000
v  16.5359 -2.0000 -8.0000
v  18.0000 -3.4641 -8.0000
v  20.0000 -4.0000 -8.0000
v  22.0000 -3.4641 -8.0000
v  23.4641 -2.0000 -8.0000
v  24.0000 0.0000 -4.0000
v  23.4641 2.0000 -4.0000
v  22.0000 3.4641 -4.0000
v  20.0000 4.0000 -4.0000
v  18.0000 3.4641 -4.0000
v  16.5359 2.0000 -4.0000
v  16.0000 0.0000 -4.0000
v  16.5359 -2.0000 -4.0000
v  18.0000 -3.4641 -4.0000
v  20.0000 -4.0000 -4.0000
v  22.0000 -3.4641 -4.0000
v  23.4641 -2.0000 -4.0000
v  20.0000 0.0000 -8.0000
v  4.0000 0.0000 -8.0000
v  3.4641 2.0000 -8.0000
v  2.0000 3.4641 -8.0000
v  0.0000 4.0000 -8.0000
v  -2.0000 3.4641 -8.0000
v  -3.4641 2.0000 -8.0000
v  -4.0000 0.0000 -8.0000
v  -3.4641 -2.0000 -8.0000
v  -2.0000 -3.4641 -8.0000
v  0.0000 -4.0000 -8.0000
v  2.0000 -3.4641 -8.0000
v  3.4641 -2.0000 -8.0000
v  4.0000 0.0000 -4.0000
v  3.4641 2.0000 -4.0000
v  2.0000 3.4641 -4.0000
v  0.0000 4.0000 -4.0000
v  -2.0000 3.4641 -4.0000
v  -3.4641 2.0000 -4.0000
v  -4.0000 0.0000 -4.0000
v  -3.4641 -2.0000 -4.0000
v  -2.0000 -3.4641 -4.0000
v  0.0000 -4.0000 -4.0000
v  2.0000 -3.4641 -4.0000
v  3.4641 -2.0000 -4.0000
v  0.0000 0.0000 -8.0000
v  -16.0000 0.0000 -8.0000
v  -16.5359 2.0000 -8.0000
v  -16.5359 2.0000 -4.0000
v  -16.0000 0.0000 -4.0000
v  -18.0000 3.4641 -8.0000
v  -18.0000 3.4641 -4.0000
v  -20.0000 4.0000 -8.0000
v  -20.0000 4.0000 -4.0000
v  -22.0000 3.4641 -8.0000
v  -22.0000 3.4641 -4.0000
v  -23.4641 2.0000 -8.0000
v  -23.4641 2.0000 -4.0000
v  -24.0000 0.0000 -8.0000
v  -24.0000 0.0000 -4.0000
v  -23.4641 -2.0000 -8.0000
v  -23.4641 -2.0000 -4.0000
v  -22.0000 -3.4641 -8.0000
v  -22.0000 -3.4641 -4.0000
v  -20.0000 -4.0000 -8.0000
v  -20.0000 -4.0000 -4.0000
v  -18.0000 -3.4641 -8.0000
v  -18.0000 -3.4641 -4.0000
v  -16.5359 -2.0000 -8.0000
v  -16.5359 -2.0000 -4.0000
v  -20.0000 0.0000 -8.0000
# 99 vertices

vn 0.0000 0.0000 -1.0000
vn 0.0000 0.0000 -1.0000
vn 0.0000 0.0000 -1.0000
vn 0.0000 0.0000 -1.0000
vn 0.0000 0.0000 1.0000
vn 0.0000 0.0000 1.0000
vn 0.0000 0.0000 1.0000
vn 0.0000 0.0000 1.0000
vn 1.0000 0.0000 0.0000
vn 1.0000 0.0000 0.0000
vn 1.0000 0.0000 0.0000
vn 1.0000 0.0000 0.0000
vn 0.0000 -1.0000 0.0000
vn 0.0000 -1.0000 0.0000
vn 0.0000 -1.0000 0.0000
vn 0.0000 -1.0000 0.0000
vn -1.0000 0.0000 0.0000
vn -1.0000 0.0000 0.0000
vn -1.0000 0.0000 0.0000
vn -1.0000 0.0000 0.0000
vn 0.0000 1.0000 0.0000
vn 0.0000 1.0000 0.0000
vn 0.0000 1.0000 0.0000
vn 0.0000 1.0000 0.0000
vn 0.0000 -1.0000 0.0000
vn 0.0000 -1.0000 0.0000
vn 0.0000 -1.0000 0.0000
vn 0.0000 -1.0000 0.0000
vn 1.0000 0.0000 0.0000
vn 1.0000 0.0000 0.0000
vn 1.0000 0.0000 0.0000
vn 1.0000 0.0000 0.0000
vn 0.0000 1.0000 0.0000
vn 0.0000 1.0000 0.0000
vn 0.0000 1.0000 0.0000
vn 0.0000 1.0000 0.0000
vn -1.0000 0.0000 0.0000
vn -1.0000 0.0000 0.0000
vn -1.0000 0.0000 0.0000
vn -1.0000 0.0000 0.0000
vn 0.0000 0.0000 -1.0000
vn 0.0000 0.0000 -1.0000
vn 0.0000 0.0000 -1.0000
vn 0.0000 0.0000 -1.0000
vn 0.0000 0.0000 -1.0000
vn 0.0000 0.0000 -1.0000
vn 0.0000 0.0000 -1.0000
vn 0.0000 0.0000 -1.0000
vn 0.0000 0.0000 -1.0000
vn 0.0000 0.0000 -1.0000
vn 0.0000 0.0000 -1.0000
vn 0.0000 0.0000 -1.0000
vn 0.0000 0.0000 -1.0000
vn 0.0000 0.0000 -1.0000
vn 0.0000 0.0000 -1.0000
vn 0.0000 0.0000 -1.0000
vn -1.0000 0.0000 0.0000
vn -1.0000 0.0000 0.0000
vn -1.0000 0.0000 0.0000
vn -1.0000 0.0000 0.0000
vn 0.0000 1.0000 0.0000
vn 0.0000 1.0000 0.0000
vn 0.0000 1.0000 0.0000
vn 0.0000 1.0000 0.0000
vn 1.0000 0.0000 0.0000
vn 1.0000 0.0000 0.0000
vn 1.0000 0.0000 0.0000
vn 1.0000 0.0000 0.0000
vn 0.0000 -1.0000 0.0000
vn 0.0000 -1.0000 0.0000
vn 0.0000 -1.0000 0.0000
vn 0.0000 -1.0000 0.0000
vn 0.0000 0.0000 -1.0000
vn 0.0000 0.0000 -1.0000
vn 0.0000 0.0000 -1.0000
vn 0.0000 0.0000 -1.0000
vn 0.0000 0.0000 -1.0000
vn 0.0000 0.0000 -1.0000
vn 0.0000 0.0000 -1.0000
vn 0.0000 0.0000 -1.0000
vn 0.0000 0.0000 -1.0000
vn 0.0000 0.0000 -1.0000
vn 0.0000 0.0000 -1.0000
vn 0.0000 0.0000 -1.0000
vn 0.0000 0.0000 -1.0000
vn 0.0000 0.0000 -1.0000
vn 0.0000 0.0000 -1.0000
vn 0.0000 0.0000 -1.0000
vn 0.8660 0.5000 0.0000
vn 1.0000 0.0000 0.0000
vn 1.0000 0.0000 0.0000
vn 0.8660 0.5000 0.0000
vn 0.5000 0.8660 0.0000
vn 0.8660 0.5000 0.0000
vn 0.8660 0.5000 0.0000
vn 0.5000 0.8660 0.0000
vn 0.0000 1.0000 0.0000
vn 0.5000 0.8660 0.0000
vn 0.5000 0.8660 0.0000
vn 0.0000 1.0000 0.0000
vn -0.5000 0.8660 0.0000
vn 0.0000 1.0000 0.0000
vn 0.0000 1.0000 0.0000
vn -0.5000 0.8660 0.0000
vn -0.8660 0.5000 0.0000
vn -0.5000 0.8660 0.0000
vn -0.5000 0.8660 0.0000
vn -0.8660 0.5000 0.0000
vn -1.0000 0.0000 0.0000
vn -0.8660 0.5000 0.0000
vn -0.8660 0.5000 0.0000
vn -1.0000 0.0000 0.0000
vn -0.8660 -0.5000 0.0000
vn -1.0000 0.0000 0.0000
vn -1.0000 0.0000 0.0000
vn -0.8660 -0.5000 0.0000
vn -0.5000 -0.8660 0.0000
vn -0.8660 -0.5000 0.0000
vn -0.8660 -0.5000 0.0000
vn -0.5000 -0.8660 0.0000
vn 0.0000 -1.0000 0.0000
vn -0.5000 -0.8660 0.0000
vn -0.5000 -0.8660 0.0000
vn 0.0000 -1.0000 0.0000
vn 0.5000 -0.8660 0.0000
vn 0.0000 -1.0000 0.0000
vn 0.0000 -1.0000 0.0000
vn 0.5000 -0.8660 0.0000
vn 0.8660 -0.5000 0.0000
vn 0.5000 -0.8660 0.0000
vn 0.5000 -0.8660 0.0000
vn 0.8660 -0.5000 0.0000
vn 1.0000 0.0000 0.0000
vn 0.8660 -0.5000 0.0000
vn 0.8660 -0.5000 0.0000
vn 1.0000 0.0000 0.0000
vn 0.0000 0.0000 -1.0000
vn 0.0000 0.0000 -1.0000
vn 0.0000 0.0000 -1.0000
vn 0.0000 0.0000 -1.0000
vn 0.0000 0.0000 -1.0000
vn 0.0000 0.0000 -1.0000
vn 0.0000 0.0000 -1.0000
vn 0.0000 0.0000 -1.0000
vn 0.0000 0.0000 -1.0000
vn 0.0000 0.0000 -1.0000
vn 0.0000 0.0000 -1.0000
vn 0.0000 0.0000 -1.0000
vn 0.0000 0.0000 -1.0000
vn 0.0000 0.0000 -1.0000
vn 0.0000 0.0000 -1.0000
vn 0.0000 0.0000 -1.0000
vn 0.0000 0.0000 -1.0000
vn 0.0000 0.0000 -1.0000
vn 0.0000 0.0000 -1.0000
vn 0.0000 0.0000 -1.0000
vn 0.0000 0.0000 -1.0000
vn 0.0000 0.0000 -1.0000
vn 0.0000 0.0000 -1.0000
vn 0.0000 0.0000 -1.0000
vn 0.0000 0.0000 -1.0000
vn 0.0000 0.0000 -1.0000
vn 0.0000 0.0000 -1.0000
vn 0.0000 0.0000 -1.0000
vn 0.0000 0.0000 -1.0000
vn 0.0000 0.0000 -1.0000
vn 0.0000 0.0000 -1.0000
vn 0.0000 0.0000 -1.0000
vn 0.0000 0.0000 -1.0000
vn 0.0000 0.0000 -1.0000
vn 0.0000 0.0000 -1.0000
vn 0.0000 0.0000 -1.0000
vn 0.8660 0.5000 0.0000
vn 1.0000 0.0000 0.0000
vn 1.0000 0.0000 0.0000
vn 0.8660 0.5000 0.0000
vn 0.5000 0.8660 0.0000
vn 0.8660 0.5000 0.0000
vn 0.8660 0.5000 0.0000
vn 0.5000 0.8660 0.0000
vn 0.0000 1.0000 0.0000
vn 0.5000 0.8660 0.0000
vn 0.5000 0.8660 0.0000
vn 0.0000 1.0000 0.0000
vn -0.5000 0.8660 0.0000
vn 0.0000 1.0000 0.0000
vn 0.0000 1.0000 0.0000
vn -0.5000 0.8660 0.0000
vn -0.8660 0.5000 0.0000
vn -0.5000 0.8660 0.0000
vn -0.5000 0.8660 0.0000
vn -0.8660 0.5000 0.0000
vn -1.0000 0.0000 0.0000
vn -0.8660 0.5000 0.0000
vn -0.8660 0.5000 0.0000
vn -1.0000 0.0000 0.0000
vn -0.8660 -0.5000 0.0000
vn -1.0000 0.0000 0.0000
vn -1.0000 0.0000 0.0000
vn -0.8660 -0.5000 0.0000
vn -0.5000 -0.8660 0.0000
vn -0.8660 -0.5000 0.0000
vn -0.8660 -0.5000 0.0000
vn -0.5000 -0.8660 0.0000
vn 0.0000 -1.0000 0.0000
vn -0.5000 -0.8660 0.0000
vn -0.5000 -0.8660 0.0000
vn 0.0000 -1.0000 0.0000
vn 0.5000 -0.8660 0.0000
vn 0.0000 -1.0000 0.0000
vn 0.0000 -1.0000 0.0000
vn 0.5000 -0.8660 0.0000
vn 0.8660 -0.5000 0.0000
vn 0.5000 -0.8660 0.0000
vn 0.5000 -0.8660 0.0000
vn 0.8660 -0.5000 0.0000
vn 1.0000 0.0000 0.0000
vn 0.8660 -0.5000 0.0000
vn 0.8660 -0.5000 0.0000
vn 1.0000 0.0000 0.0000
vn 0.0000 0.0000 -1.0000
vn 0.0000 0.0000 -1.0000
vn 0.0000 0.0000 -1.0000
vn 0.0000 0.0000 -1.0000
vn 0.0000 0.0000 -1.0000
vn 0.0000 0.0000 -1.0000
vn 0.0000 0.0000 -1.0000
vn 0.0000 0.0000 -1.0000
vn 0.0000 0.0000 -1.0000
vn 0.0000 0.0000 -1.0000
vn 0.0000 0.0000 -1.0000
vn 0.0000 0.0000 -1.0000
vn 0.0000 0.0000 -1.0000
vn 0.0000 0.0000 -1.0000
vn 0.0000 0.0000 -1.0000
vn 0.0000 0.0000 -1.0000
vn 0.0000 0.0000 -1.0000
vn 0.0000 0.0000 -1.0000
vn 0.0000 0.0000 -1.0000
vn 0.0000 0.0000 -1.0000
vn 0.0000 0.0000 -1.0000
vn 0.0000 0.0000 -1.0000
vn 0.0000 0.0000 -1.0000
vn 0.0000 0.0000 -1.0000
vn 0.0000 0.0000 -1.0000
vn 0.0000 0.0000 -1.0000
vn 0.0000 0.0000 -1.0000
vn 0.0000 0.0000 -1.0000
vn 0.0000 0.0000 -1.0000
vn 0.0000 0.0000 -1.0000
vn 0.0000 0.0000 -1.0000
vn 0.0000 0.0000 -1.0000
vn 0.0000 0.0000 -1.0000
vn 0.0000 0.0000 -1.0000
vn 0.0000 0.0000 -1.0000
vn 0.0000 0.0000 -1.0000
vn 0.8660 0.5000 0.0000
vn 1.0000 0.0000 0.0000
vn 1.0000 0.0000 0.0000
vn 0.8660 0.5000 0.0000
vn 0.5000 0.8660 0.0000
vn 0.8660 0.5000 0.0000
vn 0.8660 0.5000 0.0000
vn 0.5000 0.8660 0.0000
vn 0.0000 1.0000 0.0000
vn 0.5000 0.8660 0.0000
vn 0.5000 0.8660 0.0000
vn 0.0000 1.0000 0.0000
vn -0.5000 0.8660 0.0000
vn 0.0000 1.0000 0.0000
vn 0.0000 1.0000 0.0000
vn -0.5000 0.8660 0.0000
vn -0.8660 0.5000 0.0000
vn -0.5000 0.8660 0.0000
vn -0.5000 0.8660 0.0000
vn -0.8660 0.5000 0.0000
vn -1.0000 0.0000 0.0000
vn -0.8660 0.5000 0.0000
vn -0.8660 0.5000 0.0000
vn -1.0000 0.0000 0.0000
vn -0.8660 -0.5000 0.0000
vn -1.0000 0.0000 0.0000
vn -1.0000 0.0000 0.0000
vn -0.8660 -0.5000 0.0000
vn -0.5000 -0.8660 0.0000
vn -0.8660 -0.5000 0.0000
vn -0.8660 -0.5000 0.0000
vn -0.5000 -0.8660 0.0000
vn 0.0000 -1.0000 0.0000
vn -0.5000 -0.8660 0.0000
vn -0.5000 -0.8660 0.0000
vn 0.0000 -1.0000 0.0000
vn 0.5000 -0.8660 0.0000
vn 0.0000 -1.0000 0.0000
vn 0.0000 -1.0000 0.0000
vn 0.5000 -0.8660 0.0000
vn 0.8660 -0.5000 0.0000
vn 0.5000 -0.8660 0.0000
vn 0.5000 -0.8660 0.0000
vn 0.8660 -0.5000 0.0000
vn 1.0000 0.0000 0.0000
vn 0.8660 -0.5000 0.0000
vn 0.8660 -0.5000 0.0000
vn 1.0000 0.0000 0.0000
vn 0.0000 0.0000 -1.0000
vn 0.0000 0.0000 -1.0000
vn 0.0000 0.0000 -1.0000
vn 0.0000 0.0000 -1.0000
vn 0.0000 0.0000 -1.0000
vn 0.0000 0.0000 -1.0000
vn 0.0000 0.0000 -1.0000
vn 0.0000 0.0000 -1.0000
vn 0.0000 0.0000 -1.0000
vn 0.0000 0.0000 -1.0000
vn 0.0000 0.0000 -1.0000
vn 0.0000 0.0000 -1.0000
vn 0.0000 0.0000 -1.0000
vn 0.0000 0.0000 -1.0000
vn 0.0000 0.0000 -1.0000
vn 0.0000 0.0000 -1.0000
vn 0.0000 0.0000 -1.0000
vn 0.0000 0.0000 -1.0000
vn 0.0000 0.0000 -1.0000
vn 0.0000 0.0000 -1.0000
vn 0.0000 0.0000 -1.0000
vn 0.0000 0.0000 -1.0000
vn 0.0000 0.0000 -1.0000
vn 0.0000 0.0000 -1.0000
vn 0.0000 0.0000 -1.0000
vn 0.0000 0.0000 -1.0000
vn 0.0000 0.0000 -1.0000
vn 0.0000 0.0000 -1.0000
vn 0.0000 0.0000 -1.0000
vn 0.0000 0.0000 -1.0000
vn 0.0000 0.0000 -1.0000
vn 0.0000 0.0000 -1.0000
vn 0.0000 0.0000 -1.0000
vn 0.0000 0.0000 -1.0000
vn 0.0000 0.0000 -1.0000
vn 0.0000 0.0000 -1.0000
# 340 vertex normals

vt 0.0429 0.1000 1.0000
vt 0.9571 0.1000 1.0000
vt 0.0429 0.9000 1.0000
vt 0.9571 0.9000 1.0000
vt 0.0886 0.2600 0.0000
vt 0.0886 0.7400 0.0000
vt 0.9114 0.7400 0.0000
vt 0.9114 0.2600 0.0000
vt 0.0886 0.2600 0.5000
vt 0.0886 0.7400 0.5000
vt 0.9114 0.7400 0.5000
vt 0.9114 0.2600 0.5000
vt 0.9571 0.1000 0.1250
vt 0.0429 0.1000 0.1250
vt 0.9571 0.9000 0.1250
vt 0.0429 0.9000 0.1250
vt 0.0543 0.1400 0.0000
vt 0.0543 0.8600 0.0000
vt 0.9457 0.8600 0.0000
vt 0.9457 0.1400 0.0000
vt 0.0543 0.1400 0.1250
vt 0.0543 0.8600 0.1250
vt 0.9457 0.8600 0.1250
vt 0.9457 0.1400 0.1250
vt 0.7743 0.5000 0.0000
vt 0.7682 0.5800 0.0000
vt 0.7514 0.6386 0.0000
vt 0.7286 0.6600 0.0000
vt 0.7057 0.6386 0.0000
vt 0.6890 0.5800 0.0000
vt 0.6829 0.5000 0.0000
vt 0.6890 0.4200 0.0000
vt 0.7057 0.3614 0.0000
vt 0.7286 0.3400 0.0000
vt 0.7514 0.3614 0.0000
vt 0.7682 0.4200 0.0000
vt 0.7743 0.5000 0.5000
vt 0.7682 0.5800 0.5000
vt 0.7514 0.6386 0.5000
vt 0.7286 0.6600 0.5000
vt 0.7057 0.6386 0.5000
vt 0.6890 0.5800 0.5000
vt 0.6829 0.5000 0.5000
vt 0.6890 0.4200 0.5000
vt 0.7057 0.3614 0.5000
vt 0.7286 0.3400 0.5000
vt 0.7514 0.3614 0.5000
vt 0.7682 0.4200 0.5000
vt 0.7286 0.5000 0.0000
vt 0.5457 0.5000 0.0000
vt 0.5396 0.5800 0.0000
vt 0.5229 0.6386 0.0000
vt 0.5000 0.6600 0.0000
vt 0.4771 0.6386 0.0000
vt 0.4604 0.5800 0.0000
vt 0.4543 0.5000 0.0000
vt 0.4604 0.4200 0.0000
vt 0.4771 0.3614 0.0000
vt 0.5000 0.3400 0.0000
vt 0.5229 0.3614 0.0000
vt 0.5396 0.4200 0.0000
vt 0.5457 0.5000 0.5000
vt 0.5396 0.5800 0.5000
vt 0.5229 0.6386 0.5000
vt 0.5000 0.6600 0.5000
vt 0.4771 0.6386 0.5000
vt 0.4604 0.5800 0.5000
vt 0.4543 0.5000 0.5000
vt 0.4604 0.4200 0.5000
vt 0.4771 0.3614 0.5000
vt 0.5000 0.3400 0.5000
vt 0.5229 0.3614 0.5000
vt 0.5396 0.4200 0.5000
vt 0.5000 0.5000 0.0000
vt 0.3171 0.5000 0.0000
vt 0.3110 0.5800 0.0000
vt 0.3110 0.5800 0.5000
vt 0.3171 0.5000 0.5000
vt 0.2943 0.6386 0.0000
vt 0.2943 0.6386 0.5000
vt 0.2714 0.6600 0.0000
vt 0.2714 0.6600 0.5000
vt 0.2486 0.6386 0.0000
vt 0.2486 0.6386 0.5000
vt 0.2318 0.5800 0.0000
vt 0.2318 0.5800 0.5000
vt 0.2257 0.5000 0.0000
vt 0.2257 0.5000 0.5000
vt 0.2318 0.4200 0.0000
vt 0.2318 0.4200 0.5000
vt 0.2486 0.3614 0.0000
vt 0.2486 0.3614 0.5000
vt 0.2714 0.3400 0.0000
vt 0.2714 0.3400 0.5000
vt 0.2943 0.3614 0.0000
vt 0.2943 0.3614 0.5000
vt 0.3110 0.4200 0.0000
vt 0.3110 0.4200 0.5000
vt 0.2714 0.5000 0.0000
# 99 texture coords

g 2431
s 1
f 11/11/1 12/12/2 9/9/3 10/10/4 
f 4/4/5 3/3/6 1/1/7 2/2/8 
s 2
f 10/10/9 9/9/10 5/5/11 6/6/12 
s 4
f 11/11/13 10/10/14 6/6/15 7/7/16 
s 2
f 12/12/17 11/11/18 7/7/19 8/8/20 
s 4
f 9/9/21 12/12/22 8/8/23 5/5/24 
s 2
f 14/14/25 13/13/26 2/2/27 1/1/28 
s 4
f 13/13/29 15/15/30 4/4/31 2/2/32 
s 2
f 15/15/33 16/16/34 3/3/35 4/4/36 
s 4
f 16/16/37 14/14/38 1/1/39 3/3/40 
s 1
f 17/17/41 18/18/42 6/6/43 5/5/44 
f 18/18/45 19/19/46 7/7/47 6/6/48 
f 19/19/49 20/20/50 8/8/51 7/7/52 
f 20/20/53 17/17/54 5/5/55 8/8/56 
s 2
f 21/21/57 22/22/58 18/18/59 17/17/60 
s 4
f 22/22/61 23/23/62 19/19/63 18/18/64 
s 2
f 23/23/65 24/24/66 20/20/67 19/19/68 
s 4
f 24/24/69 21/21/70 17/17/71 20/20/72 
s 1
f 22/22/73 21/21/74 14/14/75 16/16/76 
f 23/23/77 22/22/78 16/16/79 15/15/80 
f 24/24/81 23/23/82 15/15/83 13/13/84 
f 21/21/85 24/24/86 13/13/87 14/14/88 
f 38/38/89 37/37/90 25/25/91 26/26/92 
f 39/39/93 38/38/94 26/26/95 27/27/96 
f 40/40/97 39/39/98 27/27/99 28/28/100 
f 41/41/101 40/40/102 28/28/103 29/29/104 
f 42/42/105 41/41/106 29/29/107 30/30/108 
f 43/43/109 42/42/110 30/30/111 31/31/112 
f 44/44/113 43/43/114 31/31/115 32/32/116 
f 45/45/117 44/44/118 32/32/119 33/33/120 
f 46/46/121 45/45/122 33/33/123 34/34/124 
f 47/47/125 46/46/126 34/34/127 35/35/128 
f 48/48/129 47/47/130 35/35/131 36/36/132 
f 37/37/133 48/48/134 36/36/135 25/25/136 
s 2
f 26/26/137 25/25/138 49/49/139 
f 25/25/140 36/36/141 49/49/142 
f 36/36/143 35/35/144 49/49/145 
f 35/35/146 34/34/147 49/49/148 
f 34/34/149 33/33/150 49/49/151 
f 33/33/152 32/32/153 49/49/154 
f 32/32/155 31/31/156 49/49/157 
f 31/31/158 30/30/159 49/49/160 
f 30/30/161 29/29/162 49/49/163 
f 29/29/164 28/28/165 49/49/166 
f 28/28/167 27/27/168 49/49/169 
f 27/27/170 26/26/171 49/49/172 
s 1
f 63/63/173 62/62/174 50/50/175 51/51/176 
f 64/64/177 63/63/178 51/51/179 52/52/180 
f 65/65/181 64/64/182 52/52/183 53/53/184 
f 66/66/185 65/65/186 53/53/187 54/54/188 
f 67/67/189 66/66/190 54/54/191 55/55/192 
f 68/68/193 67/67/194 55/55/195 56/56/196 
f 69/69/197 68/68/198 56/56/199 57/57/200 
f 70/70/201 69/69/202 57/57/203 58/58/204 
f 71/71/205 70/70/206 58/58/207 59/59/208 
f 72/72/209 71/71/210 59/59/211 60/60/212 
f 73/73/213 72/72/214 60/60/215 61/61/216 
f 62/62/217 73/73/218 61/61/219 50/50/220 
s 2
f 51/51/221 50/50/222 74/74/223 
f 50/50/224 61/61/225 74/74/226 
f 61/61/227 60/60/228 74/74/229 
f 60/60/230 59/59/231 74/74/232 
f 59/59/233 58/58/234 74/74/235 
f 58/58/236 57/57/237 74/74/238 
f 57/57/239 56/56/240 74/74/241 
f 56/56/242 55/55/243 74/74/244 
f 55/55/245 54/54/246 74/74/247 
f 54/54/248 53/53/249 74/74/250 
f 53/53/251 52/52/252 74/74/253 
f 52/52/254 51/51/255 74/74/256 
s 1
f 77/77/257 78/78/258 75/75/259 76/76/260 
f 80/80/261 77/77/262 76/76/263 79/79/264 
f 82/82/265 80/80/266 79/79/267 81/81/268 
f 84/84/269 82/82/270 81/81/271 83/83/272 
f 86/86/273 84/84/274 83/83/275 85/85/276 
f 88/88/277 86/86/278 85/85/279 87/87/280 
f 90/90/281 88/88/282 87/87/283 89/89/284 
f 92/92/285 90/90/286 89/89/287 91/91/288 
f 94/94/289 92/92/290 91/91/291 93/93/292 
f 96/96/293 94/94/294 93/93/295 95/95/296 
f 98/98/297 96/96/298 95/95/299 97/97/300 
f 78/78/301 98/98/302 97/97/303 75/75/304 
s 2
f 76/76/305 75/75/306 99/99/307 
f 75/75/308 97/97/309 99/99/310 
f 97/97/311 95/95/312 99/99/313 
f 95/95/314 93/93/315 99/99/316 
f 93/93/317 91/91/318 99/99/319 
f 91/91/320 89/89/321 99/99/322 
f 89/89/323 87/87/324 99/99/325 
f 87/87/326 85/85/327 99/99/328 
f 85/85/329 83/83/330 99/99/331 
f 83/83/332 81/81/333 99/99/334 
f 81/81/335 79/79/336 99/99/337 
f 79/79/338 76/76/339 99/99/340 
# 58 polygons - 36 triangles

