# 3ds Max Wavefront OBJ Exporter v0.97b - (c)2007 guruware
# File Created: 20.03.2016 12:35:11

#
# object 3937
#

v  0.0000 -10.0000 -20.0000
v  -20.0000 -10.0000 -20.0000
v  -2.0000 -6.0000 -24.0000
v  -2.0000 6.0000 -24.0000
v  -20.0000 -10.0000 -24.0000
v  -20.0000 10.0000 -24.0000
v  -16.0000 6.0000 -24.0000
v  -16.0000 -6.0000 -24.0000
v  -2.0000 6.0000 -20.0000
v  -2.0000 -6.0000 -20.0000
v  -16.0000 -6.0000 -20.0000
v  -16.0000 6.0000 -20.0000
v  -20.0000 -8.0000 -20.0000
v  0.0000 -8.0000 -20.0000
v  0.0000 -8.0000 -16.0000
v  -16.0000 -8.0000 -16.0000
v  0.0000 6.0000 -16.0000
v  -16.0000 6.0000 -16.0000
v  -20.0000 4.0000 -10.0000
v  -20.0000 -4.0000 -10.0000
v  -20.0000 -3.4641 -12.0000
v  -20.0000 -2.0000 -13.4641
v  -20.0000 -0.0000 -14.0000
v  -20.0000 2.0000 -13.4641
v  -20.0000 3.4641 -12.0000
v  -16.0000 4.0000 -10.0000
v  -16.0000 -4.0000 -10.0000
v  -16.0000 -3.4641 -12.0000
v  -16.0000 -2.0000 -13.4641
v  -16.0000 -0.0000 -14.0000
v  -16.0000 2.0000 -13.4641
v  -16.0000 3.4641 -12.0000
v  -20.0000 4.0000 -2.0000
v  -16.0000 4.0000 -2.0000
v  -20.0000 -4.0000 -3.2400
v  -16.0000 -4.0000 -3.2400
v  -20.0000 -5.6600 -4.3400
v  -16.0000 -5.6600 -4.3400
v  -20.0000 -7.3900 -6.9400
v  -16.0000 -7.3900 -6.9400
v  -20.0000 -8.0000 -10.0000
v  -16.0000 -8.0000 -10.0000
v  -20.0000 10.0000 -2.0000
v  -16.0000 6.0000 -2.0000
v  0.0000 10.0000 -2.0000
v  0.0000 -10.0000 -24.0000
v  0.0000 10.0000 -24.0000
v  -2.0000 2.0000 -10.0000
v  -2.0000 1.3660 -8.6340
v  -2.0000 0.0000 -8.0000
v  -2.0000 -1.3660 -8.6340
v  -2.0000 -2.0000 -10.0000
v  -2.0000 2.0000 -16.0000
v  -2.0000 -2.0000 -16.0000
v  20.0000 -10.0000 -24.0000
v  20.0000 -8.0000 -20.0000
v  20.0000 10.0000 -24.0000
v  16.0000 6.0000 -24.0000
v  16.0000 -6.0000 -24.0000
v  20.0000 -10.0000 -20.0000
v  20.0000 10.0000 -2.0000
v  2.0000 -6.0000 -24.0000
v  16.0000 6.0000 -20.0000
v  2.0000 6.0000 -20.0000
v  2.0000 -6.0000 -20.0000
v  16.0000 -6.0000 -20.0000
v  2.0000 6.0000 -24.0000
v  20.0000 -0.0000 -14.0000
v  16.0000 6.0000 -16.0000
v  16.0000 -8.0000 -16.0000
v  20.0000 -4.0000 -10.0000
v  16.0000 -4.0000 -10.0000
v  16.0000 -3.4641 -12.0000
v  20.0000 -3.4641 -12.0000
v  16.0000 -2.0000 -13.4641
v  20.0000 -2.0000 -13.4641
v  16.0000 -0.0000 -14.0000
v  16.0000 2.0000 -13.4641
v  20.0000 2.0000 -13.4641
v  16.0000 3.4641 -12.0000
v  20.0000 3.4641 -12.0000
v  16.0000 4.0000 -10.0000
v  20.0000 4.0000 -10.0000
v  16.0000 4.0000 -2.0000
v  20.0000 4.0000 -2.0000
v  20.0000 -4.0000 -3.2400
v  16.0000 -4.0000 -3.2400
v  20.0000 -5.6600 -4.3400
v  16.0000 -5.6600 -4.3400
v  20.0000 -7.3900 -6.9400
v  16.0000 -7.3900 -6.9400
v  20.0000 -8.0000 -10.0000
v  16.0000 -8.0000 -10.0000
v  16.0000 6.0000 -2.0000
v  0.0000 6.0000 -2.0000
v  2.0000 2.0000 -10.0000
v  2.0000 1.3660 -8.6340
v  2.0000 0.0000 -8.0000
v  2.0000 -1.3660 -8.6340
v  2.0000 -2.0000 -10.0000
v  2.0000 2.0000 -16.0000
v  2.0000 -2.0000 -16.0000
# 102 vertices

vn -1.0000 0.0000 0.0000
vn -1.0000 -0.0000 -0.0000
vn -1.0000 0.0000 -0.0000
vn 0.0000 0.0000 -1.0000
vn 0.0000 0.0000 -1.0000
vn 0.0000 0.0000 -1.0000
vn 0.0000 0.0000 -1.0000
vn 0.0000 -1.0000 0.0000
vn 0.0000 -1.0000 0.0000
vn 0.0000 -1.0000 0.0000
vn 0.0000 -1.0000 0.0000
vn 0.0000 1.0000 0.0000
vn 0.0000 1.0000 0.0000
vn 0.0000 1.0000 0.0000
vn 0.0000 1.0000 0.0000
vn 0.0000 0.0000 -1.0000
vn 0.0000 0.0000 -1.0000
vn 0.0000 0.0000 -1.0000
vn 0.0000 0.0000 -1.0000
vn 0.0000 0.0000 -1.0000
vn 0.0000 0.0000 -1.0000
vn 0.0000 0.0000 -1.0000
vn 0.0000 0.0000 -1.0000
vn 0.0000 0.0000 -1.0000
vn 0.0000 0.0000 -1.0000
vn 0.0000 0.0000 -1.0000
vn 0.0000 0.0000 -1.0000
vn -1.0000 0.0000 0.0000
vn -1.0000 0.0000 0.0000
vn -1.0000 0.0000 0.0000
vn -1.0000 0.0000 0.0000
vn 0.0000 1.0000 0.0000
vn 0.0000 1.0000 0.0000
vn 0.0000 1.0000 0.0000
vn 0.0000 1.0000 0.0000
vn 1.0000 0.0000 0.0000
vn 1.0000 0.0000 0.0000
vn 1.0000 0.0000 0.0000
vn 1.0000 0.0000 0.0000
vn 0.0000 -1.0000 0.0000
vn 0.0000 -1.0000 0.0000
vn 0.0000 -1.0000 0.0000
vn 0.0000 -1.0000 0.0000
vn 0.0000 0.0000 1.0000
vn 0.0000 0.0000 1.0000
vn 0.0000 0.0000 1.0000
vn 0.0000 0.0000 1.0000
vn -1.0000 0.0000 0.0000
vn -1.0000 0.0000 0.0000
vn -1.0000 -0.0000 -0.0000
vn -1.0000 0.0000 -0.0000
vn -1.0000 -0.0000 -0.0000
vn -1.0000 -0.0000 -0.0000
vn -0.0000 -0.0000 1.0000
vn 0.0000 0.0000 1.0000
vn 0.0000 -0.0000 1.0000
vn 0.0000 -0.0000 1.0000
vn 0.0000 0.9914 0.1305
vn 0.0000 0.9914 0.1305
vn 0.0000 0.8660 0.5000
vn 0.0000 0.8660 0.5000
vn 0.0000 0.8660 0.5000
vn 0.0000 0.8660 0.5000
vn 0.0000 0.5000 0.8660
vn 0.0000 0.5000 0.8660
vn 0.0000 0.5000 0.8660
vn 0.0000 0.5000 0.8660
vn 0.0000 0.0000 1.0000
vn -0.0000 0.0000 1.0000
vn -0.0000 0.0000 1.0000
vn 0.0000 0.0000 1.0000
vn 0.0000 -0.5000 0.8660
vn 0.0000 -0.5000 0.8660
vn 0.0000 -0.5000 0.8660
vn 0.0000 -0.5000 0.8660
vn 0.0000 -0.8660 0.5000
vn 0.0000 -0.8660 0.5000
vn 0.0000 -0.8660 0.5000
vn 0.0000 -0.8660 0.5000
vn 0.0000 -0.9914 0.1305
vn 0.0000 -0.9914 0.1305
vn 0.0000 -0.9914 0.1305
vn 0.0000 -0.9914 0.1305
vn 0.0000 -1.0000 0.0000
vn 0.0000 -1.0000 0.0000
vn 0.0000 0.9914 0.1305
vn 0.0000 0.9914 0.1305
vn 0.0000 1.0000 0.0000
vn 0.0000 1.0000 0.0000
vn 0.0000 -0.5524 0.8336
vn 0.0000 -0.5524 0.8336
vn 0.0000 -0.7064 0.7078
vn 0.0000 -0.7064 0.7078
vn 0.0000 -0.7064 0.7078
vn 0.0000 -0.7064 0.7078
vn 0.0000 -0.9242 0.3820
vn 0.0000 -0.9242 0.3820
vn 0.0000 -0.9242 0.3820
vn 0.0000 -0.9242 0.3820
vn 0.0000 -0.9952 0.0982
vn 0.0000 -0.9952 0.0982
vn 0.0000 -0.9952 0.0982
vn 0.0000 -0.9952 0.0982
vn 0.0000 -1.0000 -0.0000
vn 0.0000 -1.0000 0.0000
vn 0.0000 0.0000 1.0000
vn 0.0000 0.0000 1.0000
vn 0.0000 0.0000 1.0000
vn 0.0000 0.0000 1.0000
vn 0.0000 0.0000 1.0000
vn 0.0000 0.0000 1.0000
vn 0.0000 0.0000 1.0000
vn 0.0000 0.0000 1.0000
vn 0.0000 0.0000 -1.0000
vn 0.0000 0.0000 -1.0000
vn 0.0000 0.0000 -1.0000
vn 0.0000 0.0000 -1.0000
vn 0.0000 0.0000 -1.0000
vn 0.0000 0.0000 -1.0000
vn 0.0000 0.0000 -1.0000
vn 0.0000 0.0000 -1.0000
vn 0.0000 -1.0000 0.0000
vn 0.0000 -1.0000 0.0000
vn 0.0000 -1.0000 0.0000
vn 0.0000 -1.0000 0.0000
vn 1.0000 0.0000 0.0000
vn 1.0000 0.0000 0.0000
vn 1.0000 0.0000 -0.0000
vn 1.0000 0.0000 0.0000
vn 1.0000 0.0000 0.0000
vn 1.0000 0.0000 0.0000
vn 1.0000 0.0000 0.0000
vn 1.0000 0.0000 0.0000
vn 1.0000 0.0000 0.0000
vn 1.0000 0.0000 0.0000
vn 1.0000 0.0000 0.0000
vn 1.0000 0.0000 0.0000
vn 1.0000 0.0000 0.0000
vn 1.0000 0.0000 -0.0000
vn 1.0000 0.0000 -0.0000
vn 1.0000 0.0000 -0.0000
vn 1.0000 0.0000 -0.0000
vn 1.0000 0.0000 0.0000
vn 1.0000 0.0000 -0.0000
vn 1.0000 0.0000 -0.0000
vn 1.0000 0.0000 0.0000
vn 1.0000 0.0000 0.0000
vn 1.0000 0.0000 -0.0000
vn 1.0000 0.0000 0.0000
vn 1.0000 0.0000 0.0000
vn 1.0000 0.0000 0.0000
vn 1.0000 0.0000 -0.0000
vn 1.0000 0.0000 0.0000
vn 1.0000 0.0000 -0.0000
vn 1.0000 0.0000 -0.0000
vn 1.0000 0.0000 0.0000
vn 1.0000 0.0000 0.0000
vn 1.0000 0.0000 -0.0000
vn 1.0000 0.0000 0.0000
vn 1.0000 0.0000 0.0000
vn -1.0000 0.0000 -0.0000
vn -1.0000 0.0000 0.0000
vn -1.0000 -0.0000 -0.0000
vn -1.0000 0.0000 0.0000
vn -1.0000 0.0000 0.0000
vn -1.0000 -0.0000 -0.0000
vn -1.0000 0.0000 0.0000
vn -1.0000 0.0000 0.0000
vn -1.0000 -0.0000 -0.0000
vn -1.0000 0.0000 -0.0000
vn -1.0000 0.0000 -0.0000
vn -1.0000 0.0000 -0.0000
vn -1.0000 0.0000 -0.0000
vn -1.0000 0.0000 0.0000
vn -1.0000 0.0000 -0.0000
vn -1.0000 0.0000 -0.0000
vn -1.0000 0.0000 -0.0000
vn -1.0000 0.0000 -0.0000
vn -1.0000 0.0000 -0.0000
vn -1.0000 -0.0000 -0.0000
vn -1.0000 0.0000 -0.0000
vn -1.0000 0.0000 -0.0000
vn -1.0000 -0.0000 -0.0000
vn -1.0000 -0.0000 -0.0000
vn -1.0000 -0.0000 -0.0000
vn -1.0000 -0.0000 -0.0000
vn -1.0000 -0.0000 -0.0000
vn -1.0000 -0.0000 -0.0000
vn -1.0000 -0.0000 -0.0000
vn -1.0000 0.0000 -0.0000
vn -1.0000 -0.0000 -0.0000
vn -1.0000 -0.0000 -0.0000
vn 0.0000 -1.0000 -0.0000
vn 0.0000 -1.0000 0.0000
vn 0.0000 -1.0000 0.0000
vn 0.0000 -1.0000 0.0000
vn -1.0000 -0.0000 0.0000
vn -1.0000 -0.0000 -0.0000
vn -1.0000 -0.0000 0.0000
vn -1.0000 -0.0000 0.0000
vn -1.0000 -0.0000 0.0000
vn -1.0000 -0.0000 0.0000
vn -1.0000 -0.0000 0.0000
vn -1.0000 -0.0000 -0.0000
vn -1.0000 -0.0000 0.0000
vn -1.0000 -0.0000 0.0000
vn -1.0000 -0.0000 0.0000
vn 1.0000 0.0000 0.0000
vn 1.0000 0.0000 -0.0000
vn 1.0000 -0.0000 -0.0000
vn 0.0000 0.0000 -1.0000
vn 0.0000 0.0000 -1.0000
vn 0.0000 0.0000 -1.0000
vn 0.0000 0.0000 -1.0000
vn 0.0000 -1.0000 0.0000
vn 0.0000 -1.0000 0.0000
vn 0.0000 -1.0000 0.0000
vn 0.0000 -1.0000 0.0000
vn 0.0000 1.0000 0.0000
vn 0.0000 1.0000 0.0000
vn 0.0000 1.0000 0.0000
vn 0.0000 1.0000 0.0000
vn 0.0000 0.0000 -1.0000
vn 0.0000 0.0000 -1.0000
vn 0.0000 0.0000 -1.0000
vn 0.0000 0.0000 -1.0000
vn 0.0000 0.0000 -1.0000
vn 0.0000 0.0000 -1.0000
vn 0.0000 0.0000 -1.0000
vn 0.0000 0.0000 -1.0000
vn 0.0000 0.0000 -1.0000
vn 0.0000 0.0000 -1.0000
vn 0.0000 0.0000 -1.0000
vn 0.0000 0.0000 -1.0000
vn 1.0000 0.0000 0.0000
vn 1.0000 0.0000 0.0000
vn 1.0000 0.0000 0.0000
vn 1.0000 0.0000 0.0000
vn 0.0000 1.0000 0.0000
vn 0.0000 1.0000 0.0000
vn 0.0000 1.0000 0.0000
vn 0.0000 1.0000 0.0000
vn -1.0000 0.0000 0.0000
vn -1.0000 0.0000 0.0000
vn -1.0000 0.0000 0.0000
vn -1.0000 0.0000 0.0000
vn 0.0000 -1.0000 0.0000
vn 0.0000 -1.0000 0.0000
vn 0.0000 -1.0000 0.0000
vn 0.0000 -1.0000 0.0000
vn 0.0000 0.0000 1.0000
vn 0.0000 0.0000 1.0000
vn 0.0000 0.0000 1.0000
vn 0.0000 0.0000 1.0000
vn 1.0000 0.0000 0.0000
vn 1.0000 -0.0000 -0.0000
vn 1.0000 0.0000 0.0000
vn 1.0000 0.0000 -0.0000
vn 1.0000 -0.0000 -0.0000
vn 1.0000 -0.0000 -0.0000
vn 0.0000 -0.0000 1.0000
vn 0.0000 -0.0000 1.0000
vn 0.0000 -0.0000 1.0000
vn 0.0000 0.0000 1.0000
vn 0.0000 0.9914 0.1305
vn -0.0000 0.8660 0.5000
vn 0.0000 0.8660 0.5000
vn 0.0000 0.9914 0.1305
vn -0.0000 0.8660 0.5000
vn -0.0000 0.5000 0.8660
vn -0.0000 0.5000 0.8660
vn 0.0000 0.8660 0.5000
vn -0.0000 0.5000 0.8660
vn 0.0000 0.0000 1.0000
vn -0.0000 0.0000 1.0000
vn -0.0000 0.5000 0.8660
vn 0.0000 0.0000 1.0000
vn -0.0000 -0.5000 0.8660
vn -0.0000 -0.5000 0.8660
vn -0.0000 0.0000 1.0000
vn -0.0000 -0.5000 0.8660
vn -0.0000 -0.8660 0.5000
vn -0.0000 -0.8660 0.5000
vn -0.0000 -0.5000 0.8660
vn -0.0000 -0.8660 0.5000
vn -0.0000 -0.9914 0.1305
vn -0.0000 -0.9914 0.1305
vn -0.0000 -0.8660 0.5000
vn -0.0000 -0.9914 0.1305
vn -0.0000 -1.0000 0.0000
vn -0.0000 -1.0000 0.0000
vn -0.0000 -0.9914 0.1305
vn 0.0000 0.9914 0.1305
vn 0.0000 1.0000 0.0000
vn 0.0000 1.0000 0.0000
vn 0.0000 0.9914 0.1305
vn -0.0000 -0.5524 0.8336
vn -0.0000 -0.7064 0.7078
vn -0.0000 -0.7064 0.7078
vn -0.0000 -0.5524 0.8336
vn -0.0000 -0.7064 0.7078
vn -0.0000 -0.9242 0.3820
vn -0.0000 -0.9242 0.3820
vn -0.0000 -0.7064 0.7078
vn -0.0000 -0.9242 0.3820
vn -0.0000 -0.9952 0.0982
vn -0.0000 -0.9952 0.0982
vn -0.0000 -0.9242 0.3820
vn -0.0000 -0.9952 0.0982
vn 0.0000 -1.0000 0.0000
vn -0.0000 -1.0000 -0.0000
vn -0.0000 -0.9952 0.0982
vn 0.0000 0.0000 1.0000
vn 0.0000 0.0000 1.0000
vn 0.0000 0.0000 1.0000
vn 0.0000 0.0000 1.0000
vn 0.0000 0.0000 1.0000
vn 0.0000 0.0000 1.0000
vn 0.0000 0.0000 1.0000
vn 0.0000 0.0000 1.0000
vn 0.0000 -1.0000 0.0000
vn 0.0000 -1.0000 0.0000
vn 0.0000 -1.0000 0.0000
vn 0.0000 -1.0000 0.0000
vn -1.0000 0.0000 0.0000
vn -1.0000 0.0000 -0.0000
vn -1.0000 0.0000 0.0000
vn -1.0000 0.0000 0.0000
vn -1.0000 0.0000 0.0000
vn -1.0000 0.0000 0.0000
vn -1.0000 0.0000 0.0000
vn -1.0000 0.0000 0.0000
vn -1.0000 0.0000 0.0000
vn -1.0000 0.0000 0.0000
vn -1.0000 0.0000 0.0000
vn -1.0000 0.0000 0.0000
vn -1.0000 0.0000 0.0000
vn -1.0000 0.0000 -0.0000
vn -1.0000 0.0000 -0.0000
vn -1.0000 0.0000 -0.0000
vn -1.0000 0.0000 -0.0000
vn -1.0000 0.0000 0.0000
vn -1.0000 0.0000 -0.0000
vn -1.0000 0.0000 -0.0000
vn -1.0000 0.0000 0.0000
vn -1.0000 0.0000 -0.0000
vn -1.0000 0.0000 0.0000
vn -1.0000 0.0000 0.0000
vn -1.0000 0.0000 0.0000
vn -1.0000 0.0000 0.0000
vn -1.0000 0.0000 -0.0000
vn -1.0000 0.0000 -0.0000
vn -1.0000 0.0000 0.0000
vn -1.0000 0.0000 -0.0000
vn -1.0000 0.0000 0.0000
vn -1.0000 0.0000 0.0000
vn -1.0000 0.0000 -0.0000
vn -1.0000 0.0000 0.0000
vn -1.0000 0.0000 0.0000
vn 1.0000 0.0000 -0.0000
vn 1.0000 -0.0000 -0.0000
vn 1.0000 0.0000 0.0000
vn 1.0000 0.0000 0.0000
vn 1.0000 -0.0000 -0.0000
vn 1.0000 0.0000 0.0000
vn 1.0000 0.0000 0.0000
vn 1.0000 -0.0000 -0.0000
vn 1.0000 0.0000 0.0000
vn 1.0000 0.0000 -0.0000
vn 1.0000 0.0000 -0.0000
vn 1.0000 0.0000 -0.0000
vn 1.0000 0.0000 -0.0000
vn 1.0000 0.0000 -0.0000
vn 1.0000 0.0000 -0.0000
vn 1.0000 0.0000 0.0000
vn 1.0000 0.0000 -0.0000
vn 1.0000 0.0000 -0.0000
vn 1.0000 0.0000 -0.0000
vn 1.0000 -0.0000 -0.0000
vn 1.0000 0.0000 -0.0000
vn 1.0000 0.0000 -0.0000
vn 1.0000 -0.0000 -0.0000
vn 1.0000 -0.0000 -0.0000
vn 1.0000 -0.0000 -0.0000
vn 1.0000 -0.0000 -0.0000
vn 1.0000 -0.0000 -0.0000
vn 1.0000 -0.0000 -0.0000
vn 1.0000 -0.0000 -0.0000
vn 1.0000 -0.0000 -0.0000
vn 1.0000 -0.0000 -0.0000
vn 1.0000 0.0000 -0.0000
vn -0.0000 -1.0000 -0.0000
vn 0.0000 -1.0000 0.0000
vn 0.0000 -1.0000 0.0000
vn 0.0000 -1.0000 0.0000
vn 0.0000 0.9765 0.2156
vn 0.0000 0.9765 0.2156
vn 0.0000 0.7071 0.7071
vn 0.0000 0.7071 0.7071
vn 0.0000 0.7071 0.7071
vn 0.0000 0.7071 0.7071
vn 0.0000 0.0000 1.0000
vn 0.0000 0.0000 1.0000
vn 0.0000 0.0000 1.0000
vn 0.0000 0.0000 1.0000
vn 0.0000 -0.7071 0.7071
vn 0.0000 -0.7071 0.7071
vn 0.0000 -0.7071 0.7071
vn 0.0000 -0.7071 0.7071
vn 0.0000 -0.9765 0.2156
vn 0.0000 -0.9765 0.2156
vn 0.0000 0.9765 0.2156
vn 0.0000 1.0000 0.0000
vn 0.0000 1.0000 0.0000
vn 0.0000 0.9765 0.2156
vn 0.0000 -0.9765 0.2156
vn 0.0000 -1.0000 0.0000
vn 0.0000 -1.0000 0.0000
vn 0.0000 -0.9765 0.2156
vn 1.0000 -0.0000 0.0000
vn 1.0000 -0.0000 0.0000
vn 1.0000 -0.0000 0.0000
vn 1.0000 -0.0000 -0.0000
vn 1.0000 -0.0000 0.0000
vn 1.0000 -0.0000 -0.0000
vn 1.0000 -0.0000 0.0000
vn 1.0000 -0.0000 0.0000
vn 1.0000 -0.0000 0.0000
vn 1.0000 -0.0000 0.0000
vn 1.0000 -0.0000 0.0000
# 430 vertex normals

vt 0.5000 0.1000 0.1818
vt 0.0429 0.1000 0.1818
vt 0.4543 0.2600 0.0000
vt 0.4543 0.7400 0.0000
vt 0.0429 0.1000 0.0000
vt 0.0429 0.9000 0.0000
vt 0.1343 0.7400 0.0000
vt 0.1343 0.2600 0.0000
vt 0.4543 0.7400 0.1818
vt 0.4543 0.2600 0.1818
vt 0.1343 0.2600 0.1818
vt 0.1343 0.7400 0.1818
vt 0.0429 0.1800 0.1818
vt 0.5000 0.1800 0.1818
vt 0.5000 0.1800 0.3636
vt 0.1343 0.1800 0.3636
vt 0.5000 0.7400 0.3636
vt 0.1343 0.7400 0.3636
vt 0.0429 0.6600 0.6364
vt 0.0429 0.3400 0.6364
vt 0.0429 0.3614 0.5455
vt 0.0429 0.4200 0.4789
vt 0.0429 0.5000 0.4545
vt 0.0429 0.5800 0.4789
vt 0.0429 0.6386 0.5455
vt 0.1343 0.6600 0.6364
vt 0.1343 0.3400 0.6364
vt 0.1343 0.3614 0.5455
vt 0.1343 0.4200 0.4789
vt 0.1343 0.5000 0.4545
vt 0.1343 0.5800 0.4789
vt 0.1343 0.6386 0.5455
vt 0.0429 0.6600 1.0000
vt 0.1343 0.6600 1.0000
vt 0.0429 0.3400 0.9436
vt 0.1343 0.3400 0.9436
vt 0.0429 0.2736 0.8936
vt 0.1343 0.2736 0.8936
vt 0.0429 0.2044 0.7755
vt 0.1343 0.2044 0.7755
vt 0.0429 0.1800 0.6364
vt 0.1343 0.1800 0.6364
vt 0.0429 0.9000 1.0000
vt 0.1343 0.7400 1.0000
vt 0.5000 0.9000 1.0000
vt 0.5000 0.1000 0.0000
vt 0.5000 0.9000 0.0000
vt 0.4543 0.5800 0.6364
vt 0.4543 0.5546 0.6985
vt 0.4543 0.5000 0.7273
vt 0.4543 0.4454 0.6985
vt 0.4543 0.4200 0.6364
vt 0.4543 0.5800 0.3636
vt 0.4543 0.4200 0.3636
vt 0.9571 0.1000 0.0000
vt 0.9571 0.1800 0.1818
vt 0.9571 0.9000 0.0000
vt 0.8657 0.7400 0.0000
vt 0.8657 0.2600 0.0000
vt 0.9571 0.1000 0.1818
vt 0.9571 0.9000 1.0000
vt 0.5457 0.2600 0.0000
vt 0.8657 0.7400 0.1818
vt 0.5457 0.7400 0.1818
vt 0.5457 0.2600 0.1818
vt 0.8657 0.2600 0.1818
vt 0.5457 0.7400 0.0000
vt 0.9571 0.5000 0.4545
vt 0.8657 0.7400 0.3636
vt 0.8657 0.1800 0.3636
vt 0.9571 0.3400 0.6364
vt 0.8657 0.3400 0.6364
vt 0.8657 0.3614 0.5455
vt 0.9571 0.3614 0.5455
vt 0.8657 0.4200 0.4789
vt 0.9571 0.4200 0.4789
vt 0.8657 0.5000 0.4545
vt 0.8657 0.5800 0.4789
vt 0.9571 0.5800 0.4789
vt 0.8657 0.6386 0.5455
vt 0.9571 0.6386 0.5455
vt 0.8657 0.6600 0.6364
vt 0.9571 0.6600 0.6364
vt 0.8657 0.6600 1.0000
vt 0.9571 0.6600 1.0000
vt 0.9571 0.3400 0.9436
vt 0.8657 0.3400 0.9436
vt 0.9571 0.2736 0.8936
vt 0.8657 0.2736 0.8936
vt 0.9571 0.2044 0.7755
vt 0.8657 0.2044 0.7755
vt 0.9571 0.1800 0.6364
vt 0.8657 0.1800 0.6364
vt 0.8657 0.7400 1.0000
vt 0.5000 0.7400 1.0000
vt 0.5457 0.5800 0.6364
vt 0.5457 0.5546 0.6985
vt 0.5457 0.5000 0.7273
vt 0.5457 0.4454 0.6985
vt 0.5457 0.4200 0.6364
vt 0.5457 0.5800 0.3636
vt 0.5457 0.4200 0.3636
# 102 texture coords

g 3937
s 1
f 5/5/1 13/13/2 6/6/3 
s 2
f 6/6/4 7/7/5 8/8/6 5/5/7 
s 4
f 2/2/8 5/5/9 46/46/10 1/1/11 
f 47/47/12 6/6/13 43/43/14 45/45/15 
s 2
f 46/46/16 5/5/17 8/8/18 3/3/19 
s 1
f 9/9/20 10/10/21 11/11/22 12/12/23 
s 2
f 47/47/24 4/4/25 7/7/26 6/6/27 
s 4
f 4/4/28 3/3/29 10/10/30 9/9/31 
s 8
f 3/3/32 8/8/33 11/11/34 10/10/35 
s 4
f 8/8/36 7/7/37 12/12/38 11/11/39 
s 8
f 7/7/40 4/4/41 9/9/42 12/12/43 
s 2
f 2/2/44 1/1/45 14/14/46 13/13/47 
s 1
f 5/5/48 2/2/49 13/13/50 
f 6/6/51 13/13/52 23/23/53 
f 16/16/54 15/15/55 17/17/56 18/18/57 
s 2
f 20/20/58 27/27/59 28/28/60 21/21/61 
f 21/21/62 28/28/63 29/29/64 22/22/65 
f 22/22/66 29/29/67 30/30/68 23/23/69 
f 23/23/70 30/30/71 31/31/72 24/24/73 
f 24/24/74 31/31/75 32/32/76 25/25/77 
f 25/25/78 32/32/79 26/26/80 19/19/81 
f 19/19/82 26/26/83 34/34/84 33/33/85 
f 27/27/86 20/20/87 35/35/88 36/36/89 
s 4
f 36/36/90 35/35/91 37/37/92 38/38/93 
f 38/38/94 37/37/95 39/39/96 40/40/97 
f 40/40/98 39/39/99 41/41/100 42/42/101 
f 42/42/102 41/41/103 13/13/104 16/16/105 
s 8
f 33/33/106 34/34/107 44/44/108 43/43/109 
f 43/43/110 44/44/111 95/95/112 45/45/113 
s 2
f 3/3/114 4/4/115 47/47/116 46/46/117 
f 47/47/118 67/67/119 62/62/120 46/46/121 
f 44/44/122 18/18/123 17/17/124 95/95/125 
s 16
f 18/18/126 30/30/127 16/16/128 
f 18/18/129 44/44/130 34/34/131 26/26/132 
f 18/18/133 26/26/134 32/32/135 
f 18/18/136 32/32/137 31/31/138 
f 27/27/139 42/42/140 16/16/141 28/28/142 
f 29/29/143 28/28/144 16/16/145 
f 30/30/146 29/29/147 16/16/148 
f 18/18/149 31/31/150 30/30/151 
f 27/27/152 40/40/153 42/42/154 
f 27/27/155 36/36/156 38/38/157 
f 27/27/158 38/38/159 40/40/160 
s 1
f 41/41/161 39/39/162 20/20/163 
f 39/39/164 37/37/165 20/20/166 
f 37/37/167 35/35/168 20/20/169 
f 25/25/170 19/19/171 6/6/172 
f 19/19/173 33/33/174 43/43/175 6/6/176 
f 24/24/177 25/25/178 6/6/179 
f 23/23/180 24/24/181 6/6/182 
f 13/13/183 21/21/184 22/22/185 
f 13/13/186 22/22/187 23/23/188 
f 13/13/189 41/41/190 20/20/191 21/21/192 
s 4
f 13/13/193 14/14/194 15/15/195 16/16/196 
s 2
f 52/52/197 48/48/198 53/53/199 54/54/200 
f 52/52/201 51/51/202 49/49/203 48/48/204 
f 51/51/205 50/50/206 49/49/207 
s 1
f 55/55/208 57/57/209 56/56/210 
s 2
f 57/57/211 55/55/212 59/59/213 58/58/214 
s 4
f 60/60/215 1/1/216 46/46/217 55/55/218 
f 47/47/219 45/45/220 61/61/221 57/57/222 
s 2
f 46/46/223 62/62/224 59/59/225 55/55/226 
s 1
f 64/64/227 63/63/228 66/66/229 65/65/230 
s 2
f 47/47/231 57/57/232 58/58/233 67/67/234 
s 4
f 67/67/235 64/64/236 65/65/237 62/62/238 
s 8
f 62/62/239 65/65/240 66/66/241 59/59/242 
s 4
f 59/59/243 66/66/244 63/63/245 58/58/246 
s 8
f 58/58/247 63/63/248 64/64/249 67/67/250 
s 2
f 60/60/251 56/56/252 14/14/253 1/1/254 
s 1
f 55/55/255 56/56/256 60/60/257 
f 57/57/258 68/68/259 56/56/260 
f 70/70/261 69/69/262 17/17/263 15/15/264 
s 2
f 71/71/265 74/74/266 73/73/267 72/72/268 
f 74/74/269 76/76/270 75/75/271 73/73/272 
f 76/76/273 68/68/274 77/77/275 75/75/276 
f 68/68/277 79/79/278 78/78/279 77/77/280 
f 79/79/281 81/81/282 80/80/283 78/78/284 
f 81/81/285 83/83/286 82/82/287 80/80/288 
f 83/83/289 85/85/290 84/84/291 82/82/292 
f 72/72/293 87/87/294 86/86/295 71/71/296 
s 4
f 87/87/297 89/89/298 88/88/299 86/86/300 
f 89/89/301 91/91/302 90/90/303 88/88/304 
f 91/91/305 93/93/306 92/92/307 90/90/308 
f 93/93/309 70/70/310 56/56/311 92/92/312 
s 8
f 85/85/313 61/61/314 94/94/315 84/84/316 
f 61/61/317 45/45/318 95/95/319 94/94/320 
s 2
f 94/94/321 95/95/322 17/17/323 69/69/324 
s 16
f 69/69/325 70/70/326 77/77/327 
f 69/69/328 82/82/329 84/84/330 94/94/331 
f 69/69/332 80/80/333 82/82/334 
f 69/69/335 78/78/336 80/80/337 
f 72/72/338 73/73/339 70/70/340 93/93/341 
f 75/75/342 70/70/343 73/73/344 
f 77/77/345 70/70/346 75/75/347 
f 69/69/348 77/77/349 78/78/350 
f 72/72/351 93/93/352 91/91/353 
f 72/72/354 89/89/355 87/87/356 
f 72/72/357 91/91/358 89/89/359 
s 1
f 92/92/360 71/71/361 90/90/362 
f 90/90/363 71/71/364 88/88/365 
f 88/88/366 71/71/367 86/86/368 
f 81/81/369 57/57/370 83/83/371 
f 83/83/372 57/57/373 61/61/374 85/85/375 
f 79/79/376 57/57/377 81/81/378 
f 68/68/379 57/57/380 79/79/381 
f 56/56/382 76/76/383 74/74/384 
f 56/56/385 68/68/386 76/76/387 
f 56/56/388 74/74/389 71/71/390 92/92/391 
s 4
f 56/56/392 70/70/393 15/15/394 14/14/395 
s 1
f 96/96/396 48/48/397 49/49/398 97/97/399 
f 97/97/400 49/49/401 50/50/402 98/98/403 
f 98/98/404 50/50/405 51/51/406 99/99/407 
f 99/99/408 51/51/409 52/52/410 100/100/411 
f 96/96/412 101/101/413 53/53/414 48/48/415 
f 52/52/416 54/54/417 102/102/418 100/100/419 
s 2
f 100/100/420 102/102/421 101/101/422 96/96/423 
f 100/100/424 96/96/425 97/97/426 99/99/427 
f 99/99/428 97/97/429 98/98/430 
# 76 polygons - 42 triangles

