# 3ds Max Wavefront OBJ Exporter v0.97b - (c)2007 guruware
# File Created: 18.03.2016 20:28:23

#
# object 3068b
#

v  -20.0000 -20.0000 0.0000
v  20.0000 -20.0000 0.0000
v  -20.0000 20.0000 0.0000
v  20.0000 20.0000 0.0000
v  -16.0000 -16.0000 -8.0000
v  -16.0000 16.0000 -8.0000
v  16.0000 16.0000 -8.0000
v  16.0000 -16.0000 -8.0000
v  -16.0000 -16.0000 -4.0000
v  -16.0000 16.0000 -4.0000
v  16.0000 16.0000 -4.0000
v  16.0000 -16.0000 -4.0000
v  20.0000 -20.0000 -7.0000
v  -20.0000 -20.0000 -7.0000
v  20.0000 20.0000 -7.0000
v  -20.0000 20.0000 -7.0000
v  -19.0000 -19.0000 -8.0000
v  -19.0000 19.0000 -8.0000
v  19.0000 19.0000 -8.0000
v  19.0000 -19.0000 -8.0000
v  -19.0000 -19.0000 -7.0000
v  -19.0000 19.0000 -7.0000
v  19.0000 19.0000 -7.0000
v  19.0000 -19.0000 -7.0000
v  0.0000 8.0000 -8.0000
v  0.0000 8.0000 -4.0000
v  0.0000 6.0000 -4.0000
v  0.0000 6.0000 -8.0000
v  4.0000 6.9282 -8.0000
v  4.0000 6.9282 -4.0000
v  3.0000 5.1962 -4.0000
v  3.0000 5.1961 -8.0000
v  6.9282 4.0000 -8.0000
v  6.9282 4.0000 -4.0000
v  5.1962 3.0000 -4.0000
v  5.1962 3.0000 -8.0000
v  8.0000 0.0000 -8.0000
v  8.0000 0.0000 -4.0000
v  6.0000 0.0000 -4.0000
v  6.0000 0.0000 -8.0000
v  6.9282 -4.0000 -8.0000
v  6.9282 -4.0000 -4.0000
v  5.1962 -3.0000 -4.0000
v  5.1962 -3.0000 -8.0000
v  4.0000 -6.9282 -8.0000
v  4.0000 -6.9282 -4.0000
v  3.0000 -5.1962 -4.0000
v  3.0000 -5.1962 -8.0000
v  0.0000 -8.0000 -8.0000
v  0.0000 -8.0000 -4.0000
v  0.0000 -6.0000 -4.0000
v  0.0000 -6.0000 -8.0000
v  -4.0000 -6.9282 -8.0000
v  -4.0000 -6.9282 -4.0000
v  -3.0000 -5.1962 -4.0000
v  -3.0000 -5.1962 -8.0000
v  -6.9282 -4.0000 -8.0000
v  -6.9282 -4.0000 -4.0000
v  -5.1962 -3.0000 -4.0000
v  -5.1962 -3.0000 -8.0000
v  -8.0000 0.0000 -8.0000
v  -8.0000 0.0000 -4.0000
v  -6.0000 0.0000 -4.0000
v  -6.0000 0.0000 -8.0000
v  -6.9282 4.0000 -8.0000
v  -6.9282 4.0000 -4.0000
v  -5.1962 3.0000 -4.0000
v  -5.1962 3.0000 -8.0000
v  -4.0000 6.9282 -8.0000
v  -4.0000 6.9282 -4.0000
v  -3.0000 5.1961 -4.0000
v  -3.0000 5.1961 -8.0000
# 72 vertices

vn 0.0000 0.0000 -1.0000
vn 0.0000 0.0000 -1.0000
vn 0.0000 0.0000 -1.0000
vn 0.0000 0.0000 -1.0000
vn 0.0000 0.0000 1.0000
vn 0.0000 0.0000 1.0000
vn 0.0000 0.0000 1.0000
vn 0.0000 0.0000 1.0000
vn 1.0000 0.0000 0.0000
vn 1.0000 0.0000 0.0000
vn 1.0000 0.0000 0.0000
vn 1.0000 0.0000 0.0000
vn 0.0000 -1.0000 0.0000
vn 0.0000 -1.0000 0.0000
vn 0.0000 -1.0000 0.0000
vn 0.0000 -1.0000 0.0000
vn -1.0000 0.0000 0.0000
vn -1.0000 0.0000 0.0000
vn -1.0000 0.0000 0.0000
vn -1.0000 0.0000 0.0000
vn 0.0000 1.0000 0.0000
vn 0.0000 1.0000 0.0000
vn 0.0000 1.0000 0.0000
vn 0.0000 1.0000 0.0000
vn 0.0000 -1.0000 0.0000
vn 0.0000 -1.0000 0.0000
vn 0.0000 -1.0000 0.0000
vn 0.0000 -1.0000 0.0000
vn 1.0000 0.0000 0.0000
vn 1.0000 0.0000 0.0000
vn 1.0000 0.0000 0.0000
vn 1.0000 0.0000 0.0000
vn 0.0000 1.0000 0.0000
vn 0.0000 1.0000 0.0000
vn 0.0000 1.0000 0.0000
vn 0.0000 1.0000 0.0000
vn -1.0000 0.0000 0.0000
vn -1.0000 0.0000 0.0000
vn -1.0000 0.0000 0.0000
vn -1.0000 0.0000 0.0000
vn 0.0000 0.0000 -1.0000
vn 0.0000 0.0000 -1.0000
vn 0.0000 0.0000 -1.0000
vn 0.0000 0.0000 -1.0000
vn 0.0000 0.0000 -1.0000
vn 0.0000 0.0000 -1.0000
vn 0.0000 0.0000 -1.0000
vn 0.0000 0.0000 -1.0000
vn 0.0000 0.0000 -1.0000
vn 0.0000 0.0000 -1.0000
vn 0.0000 0.0000 -1.0000
vn 0.0000 0.0000 -1.0000
vn 0.0000 0.0000 -1.0000
vn 0.0000 0.0000 -1.0000
vn 0.0000 0.0000 -1.0000
vn 0.0000 0.0000 -1.0000
vn -1.0000 0.0000 0.0000
vn -1.0000 0.0000 0.0000
vn -1.0000 0.0000 0.0000
vn -1.0000 0.0000 0.0000
vn 0.0000 1.0000 0.0000
vn 0.0000 1.0000 0.0000
vn 0.0000 1.0000 0.0000
vn 0.0000 1.0000 0.0000
vn 1.0000 0.0000 0.0000
vn 1.0000 0.0000 0.0000
vn 1.0000 0.0000 0.0000
vn 1.0000 0.0000 0.0000
vn 0.0000 -1.0000 0.0000
vn 0.0000 -1.0000 0.0000
vn 0.0000 -1.0000 0.0000
vn 0.0000 -1.0000 0.0000
vn 0.0000 0.0000 -1.0000
vn 0.0000 0.0000 -1.0000
vn 0.0000 0.0000 -1.0000
vn 0.0000 0.0000 -1.0000
vn 0.0000 0.0000 -1.0000
vn 0.0000 0.0000 -1.0000
vn 0.0000 0.0000 -1.0000
vn 0.0000 0.0000 -1.0000
vn 0.0000 0.0000 -1.0000
vn 0.0000 0.0000 -1.0000
vn 0.0000 0.0000 -1.0000
vn 0.0000 0.0000 -1.0000
vn 0.0000 0.0000 -1.0000
vn 0.0000 0.0000 -1.0000
vn 0.0000 0.0000 -1.0000
vn 0.0000 0.0000 -1.0000
vn 0.5000 0.8660 0.0000
vn 0.5000 0.8660 0.0000
vn 0.0000 1.0000 0.0000
vn 0.0000 1.0000 0.0000
vn -0.5000 -0.8660 0.0000
vn -0.5000 -0.8660 0.0000
vn 0.0000 -1.0000 0.0000
vn 0.0000 -1.0000 0.0000
vn 0.0000 0.0000 -1.0000
vn 0.0000 0.0000 -1.0000
vn 0.0000 0.0000 -1.0000
vn 0.0000 0.0000 -1.0000
vn 0.8660 0.5000 0.0000
vn 0.8660 0.5000 0.0000
vn 0.5000 0.8660 0.0000
vn 0.5000 0.8660 0.0000
vn -0.8660 -0.5000 0.0000
vn -0.8660 -0.5000 0.0000
vn -0.5000 -0.8660 0.0000
vn -0.5000 -0.8660 0.0000
vn 0.0000 0.0000 -1.0000
vn 0.0000 0.0000 -1.0000
vn 0.0000 0.0000 -1.0000
vn 0.0000 0.0000 -1.0000
vn 1.0000 0.0000 0.0000
vn 1.0000 0.0000 0.0000
vn 0.8660 0.5000 0.0000
vn 0.8660 0.5000 0.0000
vn -1.0000 0.0000 0.0000
vn -1.0000 0.0000 0.0000
vn -0.8660 -0.5000 0.0000
vn -0.8660 -0.5000 0.0000
vn 0.0000 0.0000 -1.0000
vn 0.0000 0.0000 -1.0000
vn 0.0000 0.0000 -1.0000
vn 0.0000 0.0000 -1.0000
vn 0.8660 -0.5000 0.0000
vn 0.8660 -0.5000 0.0000
vn 1.0000 0.0000 0.0000
vn 1.0000 0.0000 0.0000
vn -0.8660 0.5000 0.0000
vn -0.8660 0.5000 0.0000
vn -1.0000 0.0000 0.0000
vn -1.0000 0.0000 0.0000
vn 0.0000 0.0000 -1.0000
vn 0.0000 0.0000 -1.0000
vn 0.0000 0.0000 -1.0000
vn 0.0000 0.0000 -1.0000
vn 0.5000 -0.8660 0.0000
vn 0.5000 -0.8660 0.0000
vn 0.8660 -0.5000 0.0000
vn 0.8660 -0.5000 0.0000
vn -0.5000 0.8660 0.0000
vn -0.5000 0.8660 0.0000
vn -0.8660 0.5000 0.0000
vn -0.8660 0.5000 0.0000
vn 0.0000 0.0000 -1.0000
vn 0.0000 0.0000 -1.0000
vn 0.0000 0.0000 -1.0000
vn 0.0000 0.0000 -1.0000
vn 0.0000 -1.0000 0.0000
vn 0.0000 -1.0000 0.0000
vn 0.5000 -0.8660 0.0000
vn 0.5000 -0.8660 0.0000
vn 0.0000 1.0000 0.0000
vn 0.0000 1.0000 0.0000
vn -0.5000 0.8660 0.0000
vn -0.5000 0.8660 0.0000
vn 0.0000 0.0000 -1.0000
vn 0.0000 0.0000 -1.0000
vn 0.0000 0.0000 -1.0000
vn 0.0000 0.0000 -1.0000
vn -0.5000 -0.8660 0.0000
vn -0.5000 -0.8660 0.0000
vn 0.0000 -1.0000 0.0000
vn 0.0000 -1.0000 0.0000
vn 0.5000 0.8660 0.0000
vn 0.5000 0.8660 0.0000
vn 0.0000 1.0000 0.0000
vn 0.0000 1.0000 0.0000
vn 0.0000 0.0000 -1.0000
vn 0.0000 0.0000 -1.0000
vn 0.0000 0.0000 -1.0000
vn 0.0000 0.0000 -1.0000
vn -0.8660 -0.5000 0.0000
vn -0.8660 -0.5000 0.0000
vn -0.5000 -0.8660 0.0000
vn -0.5000 -0.8660 0.0000
vn 0.8660 0.5000 0.0000
vn 0.8660 0.5000 0.0000
vn 0.5000 0.8660 0.0000
vn 0.5000 0.8660 0.0000
vn 0.0000 0.0000 -1.0000
vn 0.0000 0.0000 -1.0000
vn 0.0000 0.0000 -1.0000
vn 0.0000 0.0000 -1.0000
vn -1.0000 0.0000 0.0000
vn -1.0000 0.0000 0.0000
vn -0.8660 -0.5000 0.0000
vn -0.8660 -0.5000 0.0000
vn 1.0000 0.0000 0.0000
vn 1.0000 0.0000 0.0000
vn 0.8660 0.5000 0.0000
vn 0.8660 0.5000 0.0000
vn 0.0000 0.0000 -1.0000
vn 0.0000 0.0000 -1.0000
vn 0.0000 0.0000 -1.0000
vn 0.0000 0.0000 -1.0000
vn -0.8660 0.5000 0.0000
vn -0.8660 0.5000 0.0000
vn -1.0000 0.0000 0.0000
vn -1.0000 0.0000 0.0000
vn 0.8660 -0.5000 0.0000
vn 0.8660 -0.5000 0.0000
vn 1.0000 0.0000 0.0000
vn 1.0000 0.0000 0.0000
vn 0.0000 0.0000 -1.0000
vn 0.0000 0.0000 -1.0000
vn 0.0000 0.0000 -1.0000
vn 0.0000 0.0000 -1.0000
vn -0.5000 0.8660 0.0000
vn -0.5000 0.8660 0.0000
vn -0.8660 0.5000 0.0000
vn -0.8660 0.5000 0.0000
vn 0.5000 -0.8660 0.0000
vn 0.5000 -0.8660 0.0000
vn 0.8660 -0.5000 0.0000
vn 0.8660 -0.5000 0.0000
vn 0.0000 0.0000 -1.0000
vn 0.0000 0.0000 -1.0000
vn 0.0000 0.0000 -1.0000
vn 0.0000 0.0000 -1.0000
vn 0.0000 1.0000 0.0000
vn 0.0000 1.0000 0.0000
vn -0.5000 0.8660 0.0000
vn -0.5000 0.8660 0.0000
vn 0.0000 -1.0000 0.0000
vn 0.0000 -1.0000 0.0000
vn 0.5000 -0.8660 0.0000
vn 0.5000 -0.8660 0.0000
vn 0.0000 0.0000 -1.0000
vn 0.0000 0.0000 -1.0000
vn 0.0000 0.0000 -1.0000
vn 0.0000 0.0000 -1.0000
# 232 vertex normals

vt 0.0429 0.0429 1.0000
vt 0.9571 0.0429 1.0000
vt 0.0429 0.9571 1.0000
vt 0.9571 0.9571 1.0000
vt 0.1343 0.1343 0.0000
vt 0.1343 0.8657 0.0000
vt 0.8657 0.8657 0.0000
vt 0.8657 0.1343 0.0000
vt 0.1343 0.1343 0.5000
vt 0.1343 0.8657 0.5000
vt 0.8657 0.8657 0.5000
vt 0.8657 0.1343 0.5000
vt 0.9571 0.0429 0.1250
vt 0.0429 0.0429 0.1250
vt 0.9571 0.9571 0.1250
vt 0.0429 0.9571 0.1250
vt 0.0657 0.0657 0.0000
vt 0.0657 0.9343 0.0000
vt 0.9343 0.9343 0.0000
vt 0.9343 0.0657 0.0000
vt 0.0657 0.0657 0.1250
vt 0.0657 0.9343 0.1250
vt 0.9343 0.9343 0.1250
vt 0.9343 0.0657 0.1250
vt 0.5000 0.6829 0.0000
vt 0.5000 0.6829 0.5000
vt 0.5000 0.6371 0.5000
vt 0.5000 0.6371 0.0000
vt 0.5914 0.6584 0.0000
vt 0.5914 0.6584 0.5000
vt 0.5686 0.6188 0.5000
vt 0.5686 0.6188 0.0000
vt 0.6584 0.5914 0.0000
vt 0.6584 0.5914 0.5000
vt 0.6188 0.5686 0.5000
vt 0.6188 0.5686 0.0000
vt 0.6829 0.5000 0.0000
vt 0.6829 0.5000 0.5000
vt 0.6371 0.5000 0.5000
vt 0.6371 0.5000 0.0000
vt 0.6584 0.4086 0.0000
vt 0.6584 0.4086 0.5000
vt 0.6188 0.4314 0.5000
vt 0.6188 0.4314 0.0000
vt 0.5914 0.3416 0.0000
vt 0.5914 0.3416 0.5000
vt 0.5686 0.3812 0.5000
vt 0.5686 0.3812 0.0000
vt 0.5000 0.3171 0.0000
vt 0.5000 0.3171 0.5000
vt 0.5000 0.3629 0.5000
vt 0.5000 0.3629 0.0000
vt 0.4086 0.3416 0.0000
vt 0.4086 0.3416 0.5000
vt 0.4314 0.3812 0.5000
vt 0.4314 0.3812 0.0000
vt 0.3416 0.4086 0.0000
vt 0.3416 0.4086 0.5000
vt 0.3812 0.4314 0.5000
vt 0.3812 0.4314 0.0000
vt 0.3171 0.5000 0.0000
vt 0.3171 0.5000 0.5000
vt 0.3629 0.5000 0.5000
vt 0.3629 0.5000 0.0000
vt 0.3416 0.5914 0.0000
vt 0.3416 0.5914 0.5000
vt 0.3812 0.5686 0.5000
vt 0.3812 0.5686 0.0000
vt 0.4086 0.6584 0.0000
vt 0.4086 0.6584 0.5000
vt 0.4314 0.6188 0.5000
vt 0.4314 0.6188 0.0000
# 72 texture coords

g 3068b
s 1
f 11/11/1 12/12/2 9/9/3 10/10/4 
f 4/4/5 3/3/6 1/1/7 2/2/8 
s 2
f 10/10/9 9/9/10 5/5/11 6/6/12 
s 4
f 11/11/13 10/10/14 6/6/15 7/7/16 
s 2
f 12/12/17 11/11/18 7/7/19 8/8/20 
s 4
f 9/9/21 12/12/22 8/8/23 5/5/24 
s 2
f 14/14/25 13/13/26 2/2/27 1/1/28 
s 4
f 13/13/29 15/15/30 4/4/31 2/2/32 
s 2
f 15/15/33 16/16/34 3/3/35 4/4/36 
s 4
f 16/16/37 14/14/38 1/1/39 3/3/40 
s 1
f 17/17/41 18/18/42 6/6/43 5/5/44 
f 18/18/45 19/19/46 7/7/47 6/6/48 
f 19/19/49 20/20/50 8/8/51 7/7/52 
f 20/20/53 17/17/54 5/5/55 8/8/56 
s 2
f 21/21/57 22/22/58 18/18/59 17/17/60 
s 4
f 22/22/61 23/23/62 19/19/63 18/18/64 
s 2
f 23/23/65 24/24/66 20/20/67 19/19/68 
s 4
f 24/24/69 21/21/70 17/17/71 20/20/72 
s 1
f 22/22/73 21/21/74 14/14/75 16/16/76 
f 23/23/77 22/22/78 16/16/79 15/15/80 
f 24/24/81 23/23/82 15/15/83 13/13/84 
f 21/21/85 24/24/86 13/13/87 14/14/88 
f 30/30/89 29/29/90 25/25/91 26/26/92 
f 32/32/93 31/31/94 27/27/95 28/28/96 
s 2
f 29/29/97 32/32/98 28/28/99 25/25/100 
s 1
f 34/34/101 33/33/102 29/29/103 30/30/104 
f 36/36/105 35/35/106 31/31/107 32/32/108 
s 2
f 33/33/109 36/36/110 32/32/111 29/29/112 
s 1
f 38/38/113 37/37/114 33/33/115 34/34/116 
f 40/40/117 39/39/118 35/35/119 36/36/120 
s 2
f 37/37/121 40/40/122 36/36/123 33/33/124 
s 1
f 42/42/125 41/41/126 37/37/127 38/38/128 
f 44/44/129 43/43/130 39/39/131 40/40/132 
s 2
f 41/41/133 44/44/134 40/40/135 37/37/136 
s 1
f 46/46/137 45/45/138 41/41/139 42/42/140 
f 48/48/141 47/47/142 43/43/143 44/44/144 
s 2
f 45/45/145 48/48/146 44/44/147 41/41/148 
s 1
f 50/50/149 49/49/150 45/45/151 46/46/152 
f 52/52/153 51/51/154 47/47/155 48/48/156 
s 2
f 49/49/157 52/52/158 48/48/159 45/45/160 
s 1
f 54/54/161 53/53/162 49/49/163 50/50/164 
f 56/56/165 55/55/166 51/51/167 52/52/168 
s 2
f 53/53/169 56/56/170 52/52/171 49/49/172 
s 1
f 58/58/173 57/57/174 53/53/175 54/54/176 
f 60/60/177 59/59/178 55/55/179 56/56/180 
s 2
f 57/57/181 60/60/182 56/56/183 53/53/184 
s 1
f 62/62/185 61/61/186 57/57/187 58/58/188 
f 64/64/189 63/63/190 59/59/191 60/60/192 
s 2
f 61/61/193 64/64/194 60/60/195 57/57/196 
s 1
f 66/66/197 65/65/198 61/61/199 62/62/200 
f 68/68/201 67/67/202 63/63/203 64/64/204 
s 2
f 65/65/205 68/68/206 64/64/207 61/61/208 
s 1
f 70/70/209 69/69/210 65/65/211 66/66/212 
f 72/72/213 71/71/214 67/67/215 68/68/216 
s 2
f 69/69/217 72/72/218 68/68/219 65/65/220 
s 1
f 26/26/221 25/25/222 69/69/223 70/70/224 
f 28/28/225 27/27/226 71/71/227 72/72/228 
s 2
f 25/25/229 28/28/230 72/72/231 69/69/232 
# 58 polygons

