# 3ds Max Wavefront OBJ Exporter v0.97b - (c)2007 guruware
# File Created: 20.03.2016 14:13:25

#
# object 63864
#

v  -30.0000 -10.0000 0.0000
v  30.0000 -10.0000 0.0000
v  -30.0000 10.0000 0.0000
v  30.0000 10.0000 0.0000
v  -26.0000 -6.0000 -8.0000
v  -26.0000 6.0000 -8.0000
v  26.0000 6.0000 -8.0000
v  26.0000 -6.0000 -8.0000
v  -26.0000 -6.0000 -4.0000
v  -26.0000 6.0000 -4.0000
v  26.0000 6.0000 -4.0000
v  26.0000 -6.0000 -4.0000
v  30.0000 -10.0000 -7.0000
v  -30.0000 -10.0000 -7.0000
v  30.0000 10.0000 -7.0000
v  -30.0000 10.0000 -7.0000
v  -29.0000 -9.0000 -8.0000
v  -29.0000 9.0000 -8.0000
v  29.0000 9.0000 -8.0000
v  29.0000 -9.0000 -8.0000
v  -29.0000 -9.0000 -7.0000
v  -29.0000 9.0000 -7.0000
v  29.0000 9.0000 -7.0000
v  29.0000 -9.0000 -7.0000
v  14.0000 -0.0000 -8.0000
v  13.4641 2.0000 -8.0000
v  12.0000 3.4641 -8.0000
v  10.0000 4.0000 -8.0000
v  8.0000 3.4641 -8.0000
v  6.5359 2.0000 -8.0000
v  6.0000 -0.0000 -8.0000
v  6.5359 -2.0000 -8.0000
v  8.0000 -3.4641 -8.0000
v  10.0000 -4.0000 -8.0000
v  12.0000 -3.4641 -8.0000
v  13.4641 -2.0000 -8.0000
v  14.0000 -0.0000 -4.0000
v  13.4641 2.0000 -4.0000
v  12.0000 3.4641 -4.0000
v  10.0000 4.0000 -4.0000
v  8.0000 3.4641 -4.0000
v  6.5359 2.0000 -4.0000
v  6.0000 -0.0000 -4.0000
v  6.5359 -2.0000 -4.0000
v  8.0000 -3.4641 -4.0000
v  10.0000 -4.0000 -4.0000
v  12.0000 -3.4641 -4.0000
v  13.4641 -2.0000 -4.0000
v  10.0000 -0.0000 -8.0000
v  -6.0000 -0.0000 -8.0000
v  -6.5359 2.0000 -8.0000
v  -8.0000 3.4641 -8.0000
v  -10.0000 4.0000 -8.0000
v  -12.0000 3.4641 -8.0000
v  -13.4641 2.0000 -8.0000
v  -14.0000 -0.0000 -8.0000
v  -13.4641 -2.0000 -8.0000
v  -12.0000 -3.4641 -8.0000
v  -10.0000 -4.0000 -8.0000
v  -8.0000 -3.4641 -8.0000
v  -6.5359 -2.0000 -8.0000
v  -6.0000 -0.0000 -4.0000
v  -6.5359 2.0000 -4.0000
v  -8.0000 3.4641 -4.0000
v  -10.0000 4.0000 -4.0000
v  -12.0000 3.4641 -4.0000
v  -13.4641 2.0000 -4.0000
v  -14.0000 -0.0000 -4.0000
v  -13.4641 -2.0000 -4.0000
v  -12.0000 -3.4641 -4.0000
v  -10.0000 -4.0000 -4.0000
v  -8.0000 -3.4641 -4.0000
v  -6.5359 -2.0000 -4.0000
v  -10.0000 -0.0000 -8.0000
# 74 vertices

vn 0.0000 0.0000 -1.0000
vn 0.0000 0.0000 -1.0000
vn 0.0000 0.0000 -1.0000
vn 0.0000 0.0000 -1.0000
vn 0.0000 0.0000 1.0000
vn 0.0000 0.0000 1.0000
vn 0.0000 0.0000 1.0000
vn 0.0000 0.0000 1.0000
vn 1.0000 0.0000 0.0000
vn 1.0000 0.0000 0.0000
vn 1.0000 0.0000 0.0000
vn 1.0000 0.0000 0.0000
vn 0.0000 -1.0000 0.0000
vn 0.0000 -1.0000 0.0000
vn 0.0000 -1.0000 0.0000
vn 0.0000 -1.0000 0.0000
vn -1.0000 0.0000 0.0000
vn -1.0000 0.0000 0.0000
vn -1.0000 0.0000 0.0000
vn -1.0000 0.0000 0.0000
vn 0.0000 1.0000 -0.0000
vn 0.0000 1.0000 -0.0000
vn 0.0000 1.0000 -0.0000
vn 0.0000 1.0000 -0.0000
vn 0.0000 -1.0000 0.0000
vn 0.0000 -1.0000 0.0000
vn 0.0000 -1.0000 0.0000
vn 0.0000 -1.0000 0.0000
vn 1.0000 0.0000 0.0000
vn 1.0000 0.0000 0.0000
vn 1.0000 0.0000 0.0000
vn 1.0000 0.0000 0.0000
vn 0.0000 1.0000 -0.0000
vn 0.0000 1.0000 -0.0000
vn 0.0000 1.0000 -0.0000
vn 0.0000 1.0000 -0.0000
vn -1.0000 0.0000 0.0000
vn -1.0000 0.0000 0.0000
vn -1.0000 0.0000 0.0000
vn -1.0000 0.0000 0.0000
vn 0.0000 0.0000 -1.0000
vn 0.0000 0.0000 -1.0000
vn 0.0000 0.0000 -1.0000
vn 0.0000 0.0000 -1.0000
vn 0.0000 0.0000 -1.0000
vn 0.0000 0.0000 -1.0000
vn 0.0000 0.0000 -1.0000
vn 0.0000 0.0000 -1.0000
vn 0.0000 0.0000 -1.0000
vn 0.0000 0.0000 -1.0000
vn 0.0000 0.0000 -1.0000
vn 0.0000 0.0000 -1.0000
vn 0.0000 0.0000 -1.0000
vn 0.0000 0.0000 -1.0000
vn 0.0000 0.0000 -1.0000
vn 0.0000 0.0000 -1.0000
vn -1.0000 0.0000 0.0000
vn -1.0000 0.0000 0.0000
vn -1.0000 0.0000 0.0000
vn -1.0000 0.0000 0.0000
vn 0.0000 1.0000 0.0000
vn 0.0000 1.0000 0.0000
vn 0.0000 1.0000 0.0000
vn 0.0000 1.0000 0.0000
vn 1.0000 0.0000 0.0000
vn 1.0000 0.0000 0.0000
vn 1.0000 0.0000 0.0000
vn 1.0000 0.0000 0.0000
vn 0.0000 -1.0000 0.0000
vn 0.0000 -1.0000 0.0000
vn 0.0000 -1.0000 0.0000
vn 0.0000 -1.0000 0.0000
vn -0.0000 -0.0000 -1.0000
vn -0.0000 0.0000 -1.0000
vn -0.0000 0.0000 -1.0000
vn -0.0000 -0.0000 -1.0000
vn -0.0000 0.0000 -1.0000
vn 0.0000 0.0000 -1.0000
vn 0.0000 0.0000 -1.0000
vn -0.0000 0.0000 -1.0000
vn 0.0000 0.0000 -1.0000
vn 0.0000 -0.0000 -1.0000
vn 0.0000 -0.0000 -1.0000
vn 0.0000 0.0000 -1.0000
vn 0.0000 -0.0000 -1.0000
vn -0.0000 -0.0000 -1.0000
vn -0.0000 -0.0000 -1.0000
vn 0.0000 -0.0000 -1.0000
vn 1.0000 -0.0000 0.0000
vn 0.8660 0.5000 0.0000
vn 0.8660 0.5000 0.0000
vn 1.0000 -0.0000 0.0000
vn 0.8660 0.5000 0.0000
vn 0.5000 0.8660 0.0000
vn 0.5000 0.8660 0.0000
vn 0.8660 0.5000 0.0000
vn 0.5000 0.8660 0.0000
vn 0.0000 1.0000 0.0000
vn 0.0000 1.0000 0.0000
vn 0.5000 0.8660 0.0000
vn 0.0000 1.0000 0.0000
vn -0.5000 0.8660 0.0000
vn -0.5000 0.8660 0.0000
vn 0.0000 1.0000 0.0000
vn -0.5000 0.8660 0.0000
vn -0.8660 0.5000 0.0000
vn -0.8660 0.5000 0.0000
vn -0.5000 0.8660 0.0000
vn -0.8660 0.5000 0.0000
vn -1.0000 0.0000 0.0000
vn -1.0000 0.0000 0.0000
vn -0.8660 0.5000 0.0000
vn -1.0000 0.0000 0.0000
vn -0.8660 -0.5000 0.0000
vn -0.8660 -0.5000 0.0000
vn -1.0000 0.0000 0.0000
vn -0.8660 -0.5000 0.0000
vn -0.5000 -0.8660 0.0000
vn -0.5000 -0.8660 0.0000
vn -0.8660 -0.5000 0.0000
vn -0.5000 -0.8660 0.0000
vn -0.0000 -1.0000 0.0000
vn -0.0000 -1.0000 0.0000
vn -0.5000 -0.8660 0.0000
vn -0.0000 -1.0000 0.0000
vn 0.5000 -0.8660 0.0000
vn 0.5000 -0.8660 0.0000
vn -0.0000 -1.0000 0.0000
vn 0.5000 -0.8660 0.0000
vn 0.8660 -0.5000 0.0000
vn 0.8660 -0.5000 0.0000
vn 0.5000 -0.8660 0.0000
vn 0.8660 -0.5000 0.0000
vn 1.0000 -0.0000 0.0000
vn 1.0000 -0.0000 0.0000
vn 0.8660 -0.5000 0.0000
vn 0.0000 0.0000 -1.0000
vn 0.0000 0.0000 -1.0000
vn 0.0000 0.0000 -1.0000
vn 0.0000 0.0000 -1.0000
vn 0.0000 0.0000 -1.0000
vn 0.0000 0.0000 -1.0000
vn 0.0000 0.0000 -1.0000
vn 0.0000 0.0000 -1.0000
vn 0.0000 0.0000 -1.0000
vn 0.0000 0.0000 -1.0000
vn 0.0000 0.0000 -1.0000
vn 0.0000 0.0000 -1.0000
vn 0.0000 0.0000 -1.0000
vn 0.0000 0.0000 -1.0000
vn 0.0000 0.0000 -1.0000
vn 0.0000 0.0000 -1.0000
vn 0.0000 0.0000 -1.0000
vn 0.0000 0.0000 -1.0000
vn 0.0000 0.0000 -1.0000
vn 0.0000 0.0000 -1.0000
vn 0.0000 0.0000 -1.0000
vn 0.0000 0.0000 -1.0000
vn 0.0000 0.0000 -1.0000
vn 0.0000 0.0000 -1.0000
vn 0.0000 0.0000 -1.0000
vn 0.0000 0.0000 -1.0000
vn 0.0000 0.0000 -1.0000
vn 0.0000 0.0000 -1.0000
vn 0.0000 0.0000 -1.0000
vn 0.0000 0.0000 -1.0000
vn 0.0000 0.0000 -1.0000
vn 0.0000 0.0000 -1.0000
vn 0.0000 0.0000 -1.0000
vn 0.0000 0.0000 -1.0000
vn 0.0000 0.0000 -1.0000
vn 0.0000 0.0000 -1.0000
vn 1.0000 0.0000 0.0000
vn 0.8660 0.5000 0.0000
vn 0.8660 0.5000 0.0000
vn 1.0000 0.0000 0.0000
vn 0.8660 0.5000 0.0000
vn 0.5000 0.8660 0.0000
vn 0.5000 0.8660 0.0000
vn 0.8660 0.5000 0.0000
vn 0.5000 0.8660 0.0000
vn -0.0000 1.0000 0.0000
vn -0.0000 1.0000 0.0000
vn 0.5000 0.8660 0.0000
vn -0.0000 1.0000 0.0000
vn -0.5000 0.8660 0.0000
vn -0.5000 0.8660 0.0000
vn -0.0000 1.0000 0.0000
vn -0.5000 0.8660 0.0000
vn -0.8660 0.5000 0.0000
vn -0.8660 0.5000 0.0000
vn -0.5000 0.8660 0.0000
vn -0.8660 0.5000 0.0000
vn -1.0000 0.0000 0.0000
vn -1.0000 0.0000 0.0000
vn -0.8660 0.5000 0.0000
vn -1.0000 0.0000 0.0000
vn -0.8660 -0.5000 0.0000
vn -0.8660 -0.5000 0.0000
vn -1.0000 0.0000 0.0000
vn -0.8660 -0.5000 0.0000
vn -0.5000 -0.8660 0.0000
vn -0.5000 -0.8660 0.0000
vn -0.8660 -0.5000 0.0000
vn -0.5000 -0.8660 0.0000
vn -0.0000 -1.0000 0.0000
vn -0.0000 -1.0000 0.0000
vn -0.5000 -0.8660 0.0000
vn -0.0000 -1.0000 0.0000
vn 0.5000 -0.8660 0.0000
vn 0.5000 -0.8660 0.0000
vn -0.0000 -1.0000 0.0000
vn 0.5000 -0.8660 0.0000
vn 0.8660 -0.5000 0.0000
vn 0.8660 -0.5000 0.0000
vn 0.5000 -0.8660 0.0000
vn 0.8660 -0.5000 0.0000
vn 1.0000 0.0000 0.0000
vn 1.0000 0.0000 0.0000
vn 0.8660 -0.5000 0.0000
vn 0.0000 0.0000 -1.0000
vn 0.0000 0.0000 -1.0000
vn 0.0000 0.0000 -1.0000
vn 0.0000 0.0000 -1.0000
vn 0.0000 0.0000 -1.0000
vn 0.0000 0.0000 -1.0000
vn 0.0000 0.0000 -1.0000
vn 0.0000 0.0000 -1.0000
vn 0.0000 0.0000 -1.0000
vn 0.0000 0.0000 -1.0000
vn 0.0000 0.0000 -1.0000
vn 0.0000 0.0000 -1.0000
vn 0.0000 0.0000 -1.0000
vn 0.0000 0.0000 -1.0000
vn 0.0000 0.0000 -1.0000
vn 0.0000 0.0000 -1.0000
vn 0.0000 0.0000 -1.0000
vn 0.0000 0.0000 -1.0000
vn 0.0000 0.0000 -1.0000
vn 0.0000 0.0000 -1.0000
vn 0.0000 0.0000 -1.0000
vn 0.0000 0.0000 -1.0000
vn 0.0000 0.0000 -1.0000
vn 0.0000 0.0000 -1.0000
vn 0.0000 0.0000 -1.0000
vn 0.0000 0.0000 -1.0000
vn 0.0000 0.0000 -1.0000
vn 0.0000 0.0000 -1.0000
vn 0.0000 0.0000 -1.0000
vn 0.0000 0.0000 -1.0000
vn 0.0000 0.0000 -1.0000
vn 0.0000 0.0000 -1.0000
vn 0.0000 0.0000 -1.0000
vn 0.0000 0.0000 -1.0000
vn 0.0000 0.0000 -1.0000
vn 0.0000 0.0000 -1.0000
# 256 vertex normals

vt 0.0200 0.1000 1.0000
vt 0.9800 0.1000 1.0000
vt 0.0200 0.9000 1.0000
vt 0.9800 0.9000 1.0000
vt 0.0840 0.2600 0.0000
vt 0.0840 0.7400 0.0000
vt 0.9160 0.7400 0.0000
vt 0.9160 0.2600 0.0000
vt 0.0840 0.2600 0.5000
vt 0.0840 0.7400 0.5000
vt 0.9160 0.7400 0.5000
vt 0.9160 0.2600 0.5000
vt 0.9800 0.1000 0.1250
vt 0.0200 0.1000 0.1250
vt 0.9800 0.9000 0.1250
vt 0.0200 0.9000 0.1250
vt 0.0360 0.1400 0.0000
vt 0.0360 0.8600 0.0000
vt 0.9640 0.8600 0.0000
vt 0.9640 0.1400 0.0000
vt 0.0360 0.1400 0.1250
vt 0.0360 0.8600 0.1250
vt 0.9640 0.8600 0.1250
vt 0.9640 0.1400 0.1250
vt 0.7240 0.5000 0.0000
vt 0.7154 0.5800 0.0000
vt 0.6920 0.6386 0.0000
vt 0.6600 0.6600 0.0000
vt 0.6280 0.6386 0.0000
vt 0.6046 0.5800 0.0000
vt 0.5960 0.5000 0.0000
vt 0.6046 0.4200 0.0000
vt 0.6280 0.3614 0.0000
vt 0.6600 0.3400 0.0000
vt 0.6920 0.3614 0.0000
vt 0.7154 0.4200 0.0000
vt 0.7240 0.5000 0.5000
vt 0.7154 0.5800 0.5000
vt 0.6920 0.6386 0.5000
vt 0.6600 0.6600 0.5000
vt 0.6280 0.6386 0.5000
vt 0.6046 0.5800 0.5000
vt 0.5960 0.5000 0.5000
vt 0.6046 0.4200 0.5000
vt 0.6280 0.3614 0.5000
vt 0.6600 0.3400 0.5000
vt 0.6920 0.3614 0.5000
vt 0.7154 0.4200 0.5000
vt 0.6600 0.5000 0.0000
vt 0.4040 0.5000 0.0000
vt 0.3954 0.5800 0.0000
vt 0.3720 0.6386 0.0000
vt 0.3400 0.6600 0.0000
vt 0.3080 0.6386 0.0000
vt 0.2846 0.5800 0.0000
vt 0.2760 0.5000 0.0000
vt 0.2846 0.4200 0.0000
vt 0.3080 0.3614 0.0000
vt 0.3400 0.3400 0.0000
vt 0.3720 0.3614 0.0000
vt 0.3954 0.4200 0.0000
vt 0.4040 0.5000 0.5000
vt 0.3954 0.5800 0.5000
vt 0.3720 0.6386 0.5000
vt 0.3400 0.6600 0.5000
vt 0.3080 0.6386 0.5000
vt 0.2846 0.5800 0.5000
vt 0.2760 0.5000 0.5000
vt 0.2846 0.4200 0.5000
vt 0.3080 0.3614 0.5000
vt 0.3400 0.3400 0.5000
vt 0.3720 0.3614 0.5000
vt 0.3954 0.4200 0.5000
vt 0.3400 0.5000 0.0000
# 74 texture coords

g 63864
s 1
f 9/9/1 10/10/2 11/11/3 12/12/4 
f 1/1/5 2/2/6 4/4/7 3/3/8 
s 2
f 5/5/9 6/6/10 10/10/11 9/9/12 
s 4
f 6/6/13 7/7/14 11/11/15 10/10/16 
s 2
f 7/7/17 8/8/18 12/12/19 11/11/20 
s 4
f 8/8/21 5/5/22 9/9/23 12/12/24 
s 2
f 2/2/25 1/1/26 14/14/27 13/13/28 
s 4
f 4/4/29 2/2/30 13/13/31 15/15/32 
s 2
f 3/3/33 4/4/34 15/15/35 16/16/36 
s 4
f 1/1/37 3/3/38 16/16/39 14/14/40 
s 1
f 6/6/41 5/5/42 17/17/43 18/18/44 
f 7/7/45 6/6/46 18/18/47 19/19/48 
f 8/8/49 7/7/50 19/19/51 20/20/52 
f 5/5/53 8/8/54 20/20/55 17/17/56 
s 2
f 18/18/57 17/17/58 21/21/59 22/22/60 
s 4
f 19/19/61 18/18/62 22/22/63 23/23/64 
s 2
f 20/20/65 19/19/66 23/23/67 24/24/68 
s 4
f 17/17/69 20/20/70 24/24/71 21/21/72 
s 1
f 14/14/73 16/16/74 22/22/75 21/21/76 
f 16/16/77 15/15/78 23/23/79 22/22/80 
f 15/15/81 13/13/82 24/24/83 23/23/84 
f 13/13/85 14/14/86 21/21/87 24/24/88 
f 25/25/89 26/26/90 38/38/91 37/37/92 
f 26/26/93 27/27/94 39/39/95 38/38/96 
f 27/27/97 28/28/98 40/40/99 39/39/100 
f 28/28/101 29/29/102 41/41/103 40/40/104 
f 29/29/105 30/30/106 42/42/107 41/41/108 
f 30/30/109 31/31/110 43/43/111 42/42/112 
f 31/31/113 32/32/114 44/44/115 43/43/116 
f 32/32/117 33/33/118 45/45/119 44/44/120 
f 33/33/121 34/34/122 46/46/123 45/45/124 
f 34/34/125 35/35/126 47/47/127 46/46/128 
f 35/35/129 36/36/130 48/48/131 47/47/132 
f 36/36/133 25/25/134 37/37/135 48/48/136 
s 2
f 26/26/137 25/25/138 49/49/139 
f 25/25/140 36/36/141 49/49/142 
f 36/36/143 35/35/144 49/49/145 
f 35/35/146 34/34/147 49/49/148 
f 34/34/149 33/33/150 49/49/151 
f 33/33/152 32/32/153 49/49/154 
f 32/32/155 31/31/156 49/49/157 
f 31/31/158 30/30/159 49/49/160 
f 30/30/161 29/29/162 49/49/163 
f 29/29/164 28/28/165 49/49/166 
f 28/28/167 27/27/168 49/49/169 
f 27/27/170 26/26/171 49/49/172 
s 1
f 50/50/173 51/51/174 63/63/175 62/62/176 
f 51/51/177 52/52/178 64/64/179 63/63/180 
f 52/52/181 53/53/182 65/65/183 64/64/184 
f 53/53/185 54/54/186 66/66/187 65/65/188 
f 54/54/189 55/55/190 67/67/191 66/66/192 
f 55/55/193 56/56/194 68/68/195 67/67/196 
f 56/56/197 57/57/198 69/69/199 68/68/200 
f 57/57/201 58/58/202 70/70/203 69/69/204 
f 58/58/205 59/59/206 71/71/207 70/70/208 
f 59/59/209 60/60/210 72/72/211 71/71/212 
f 60/60/213 61/61/214 73/73/215 72/72/216 
f 61/61/217 50/50/218 62/62/219 73/73/220 
s 2
f 51/51/221 50/50/222 74/74/223 
f 50/50/224 61/61/225 74/74/226 
f 61/61/227 60/60/228 74/74/229 
f 60/60/230 59/59/231 74/74/232 
f 59/59/233 58/58/234 74/74/235 
f 58/58/236 57/57/237 74/74/238 
f 57/57/239 56/56/240 74/74/241 
f 56/56/242 55/55/243 74/74/244 
f 55/55/245 54/54/246 74/74/247 
f 54/54/248 53/53/249 74/74/250 
f 53/53/251 52/52/252 74/74/253 
f 52/52/254 51/51/255 74/74/256 
# 46 polygons - 24 triangles

