# 3ds Max Wavefront OBJ Exporter v0.97b - (c)2007 guruware
# File Created: 20.03.2016 14:14:57

#
# object 87087
#

v  -10.0000 -10.0000 -24.0000
v  10.0000 -10.0000 -24.0000
v  -10.0000 10.0000 -24.0000
v  10.0000 10.0000 -24.0000
v  -10.0000 -10.0000 0.0000
v  10.0000 -10.0000 0.0000
v  -10.0000 10.0000 0.0000
v  10.0000 10.0000 0.0000
v  -5.9398 -6.0000 -24.0000
v  -6.0000 6.0000 -24.0000
v  6.0000 6.0000 -24.0000
v  6.0000 -6.0000 -24.0000
v  -6.0000 -6.0000 -4.0000
v  -6.0000 6.0000 -4.0000
v  6.0000 6.0000 -4.0000
v  6.0000 -6.0000 -4.0000
v  6.0000 -10.0000 -10.0000
v  5.1962 -10.0000 -7.0000
v  3.0000 -10.0000 -4.8038
v  0.0000 -10.0000 -4.0000
v  -3.0000 -10.0000 -4.8038
v  -5.1961 -10.0000 -7.0000
v  -6.0000 -10.0000 -10.0000
v  -5.1961 -10.0000 -13.0000
v  -3.0000 -10.0000 -15.1962
v  0.0000 -10.0000 -16.0000
v  3.0000 -10.0000 -15.1962
v  5.1962 -10.0000 -13.0000
v  3.9995 -6.0000 -10.0000
v  3.4641 -6.0000 -8.0000
v  2.0000 -6.0000 -6.5359
v  0.0000 -6.0000 -6.0005
v  -2.0000 -6.0000 -6.5359
v  -3.4641 -6.0000 -8.0000
v  -3.4641 -6.0000 -12.0000
v  -2.0000 -6.0000 -13.4641
v  2.0000 -6.0000 -13.4641
v  3.4641 -6.0000 -12.0000
v  6.0000 0.0000 0.0000
v  5.1962 3.0000 0.0000
v  3.0000 5.1962 0.0000
v  -0.0000 6.0000 0.0000
v  -3.0000 5.1962 0.0000
v  -5.1962 3.0000 0.0000
v  -6.0000 0.0000 0.0000
v  -5.1962 -3.0000 0.0000
v  -3.0000 -5.1961 0.0000
v  -0.0000 -6.0000 0.0000
v  3.0000 -5.1962 0.0000
v  5.1962 -3.0000 0.0000
v  6.0000 0.0000 4.0000
v  5.1962 3.0000 4.0000
v  3.0000 5.1962 4.0000
v  -0.0000 6.0000 4.0000
v  -3.0000 5.1962 4.0000
v  -5.1962 3.0000 4.0000
v  -6.0000 0.0000 4.0000
v  -5.1962 -3.0000 4.0000
v  -3.0000 -5.1961 4.0000
v  -0.0000 -6.0000 4.0000
v  3.0000 -5.1962 4.0000
v  5.1962 -3.0000 4.0000
v  -0.0000 0.0000 4.0000
v  0.0000 -14.0000 -4.0000
v  0.0000 -14.0000 -6.0000
v  3.0000 -14.0000 -4.8038
v  2.0000 -14.0000 -6.5359
v  5.1962 -14.0000 -7.0000
v  3.4641 -14.0000 -8.0000
v  6.0000 -14.0000 -10.0000
v  4.0000 -14.0000 -10.0000
v  5.1962 -14.0000 -13.0000
v  3.4641 -14.0000 -12.0000
v  3.0000 -14.0000 -15.1962
v  2.0000 -14.0000 -13.4641
v  0.0000 -14.0000 -16.0000
v  0.0000 -14.0000 -14.0000
v  0.0301 -6.0000 -13.9995
v  -3.0000 -14.0000 -15.1962
v  -2.0000 -14.0000 -13.4641
v  -5.1961 -14.0000 -13.0000
v  -3.4641 -14.0000 -12.0000
v  -6.0000 -14.0000 -10.0000
v  -4.0000 -14.0000 -10.0000
v  -3.9995 -6.0000 -10.0000
v  -5.1961 -14.0000 -7.0000
v  -3.4641 -14.0000 -8.0000
v  -3.0000 -14.0000 -4.8038
v  -2.0000 -14.0000 -6.5359
# 89 vertices

vn 0.0000 0.0000 -1.0000
vn 0.0000 0.0000 -1.0000
vn 0.0000 0.0000 -1.0000
vn 0.0000 0.0000 -1.0000
vn 0.0000 0.0000 1.0000
vn 0.0000 0.0000 1.0000
vn 0.0000 0.0000 1.0000
vn 0.0000 0.0000 1.0000
vn 1.0000 0.0000 0.0000
vn 1.0000 0.0000 0.0000
vn 1.0000 0.0000 0.0000
vn 1.0000 0.0000 0.0000
vn 0.0000 1.0000 0.0000
vn 0.0000 1.0000 0.0000
vn 0.0000 1.0000 0.0000
vn 0.0000 1.0000 0.0000
vn -1.0000 0.0000 0.0000
vn -1.0000 0.0000 0.0000
vn -1.0000 0.0000 0.0000
vn -1.0000 0.0000 0.0000
vn 0.0000 0.0000 -1.0000
vn 0.0000 0.0000 -1.0000
vn 0.0000 0.0000 -1.0000
vn 0.0000 0.0000 -1.0000
vn 0.0000 0.0000 -1.0000
vn 0.0000 0.0000 -1.0000
vn 0.0000 0.0000 -1.0000
vn 0.0000 0.0000 -1.0000
vn 0.0000 0.0000 -1.0000
vn 0.0000 0.0000 -1.0000
vn 0.0000 0.0000 -1.0000
vn 0.0000 0.0000 -1.0000
vn 0.0000 0.0000 -1.0000
vn 0.0000 0.0000 -1.0000
vn 0.0000 0.0000 -1.0000
vn 0.0000 0.0000 -1.0000
vn 1.0000 0.0033 0.0010
vn 1.0000 0.0050 0.0000
vn 1.0000 0.0017 0.0020
vn 1.0000 0.0000 0.0030
vn 0.0000 -1.0000 0.0000
vn 0.0000 -1.0000 0.0000
vn 0.0000 -1.0000 0.0000
vn 0.0000 -1.0000 0.0000
vn -1.0000 0.0000 0.0000
vn -1.0000 0.0000 0.0000
vn -1.0000 0.0000 0.0000
vn -1.0000 0.0000 0.0000
vn -0.0000 1.0000 0.0000
vn 0.0000 1.0000 0.0000
vn -0.0000 1.0000 -0.0000
vn 0.0000 1.0000 0.0000
vn -0.0000 1.0000 0.0000
vn 0.0000 1.0000 -0.0000
vn 0.0000 1.0000 0.0000
vn 0.0000 1.0000 -0.0000
vn -0.0000 1.0000 0.0000
vn 0.0000 1.0000 0.0000
vn 0.0000 1.0000 -0.0000
vn 0.0000 1.0000 -0.0000
vn 0.0000 1.0000 -0.0000
vn 0.0000 1.0000 0.0000
vn -0.0000 1.0000 -0.0000
vn 0.0000 1.0000 -0.0000
vn 0.0000 1.0000 0.0000
vn 0.0000 1.0000 0.0000
vn 0.0000 1.0000 -0.0000
vn -0.0000 1.0000 -0.0000
vn 0.0000 1.0000 0.0000
vn -0.0000 1.0000 -0.0000
vn 0.0000 1.0000 -0.0000
vn 0.0000 1.0000 0.0000
vn -0.0000 1.0000 -0.0000
vn -0.0000 1.0000 -0.0000
vn 0.0000 1.0000 -0.0000
vn -0.0000 1.0000 -0.0000
vn -0.0000 1.0000 0.0000
vn -0.0000 1.0000 -0.0000
vn -0.0000 1.0000 0.0000
vn -0.0000 1.0000 -0.0000
vn 0.0000 1.0000 0.0000
vn -0.0000 1.0000 0.0000
vn -0.0000 1.0000 -0.0000
vn -0.0000 1.0000 -0.0000
vn -0.0000 1.0000 -0.0000
vn 0.0000 1.0000 0.0000
vn 0.0000 1.0000 0.0000
vn 0.0000 1.0000 0.0000
vn 0.0000 1.0000 -0.0000
vn -0.0000 1.0000 -0.0000
vn 0.0000 1.0000 -0.0000
vn -0.0000 1.0000 -0.0000
vn 0.0000 1.0000 -0.0000
vn -0.0000 1.0000 0.0000
vn 0.0000 1.0000 0.0000
vn -0.0000 1.0000 -0.0000
vn -0.0000 -1.0000 -0.0000
vn -0.0000 -1.0000 -0.0000
vn -0.0000 -1.0000 -0.0000
vn 0.0000 -1.0000 -0.0000
vn 0.0000 -1.0000 -0.0000
vn -0.0000 -1.0000 -0.0000
vn 0.0000 -1.0000 -0.0000
vn 0.0000 -1.0000 -0.0000
vn 0.0000 -1.0000 -0.0000
vn 0.0000 -1.0000 -0.0000
vn 0.0000 -1.0000 0.0000
vn 0.0000 -1.0000 -0.0000
vn 0.0000 -1.0000 0.0000
vn 0.0000 -1.0000 0.0000
vn 0.0000 -1.0000 0.0000
vn 0.0000 -1.0000 0.0000
vn -0.0000 -1.0000 0.0000
vn 0.0000 -1.0000 0.0000
vn 0.0000 -1.0000 0.0000
vn 0.0000 -1.0000 0.0000
vn -0.0000 -1.0000 0.0000
vn -0.0000 -1.0000 0.0000
vn 0.0000 -1.0000 0.0000
vn 0.0000 -1.0000 0.0000
vn -0.0000 -1.0000 0.0000
vn -0.0000 -1.0000 0.0000
vn 0.0000 -1.0000 0.0000
vn -0.0000 -1.0000 0.0000
vn -0.0000 -1.0000 0.0000
vn -0.0000 -1.0000 0.0000
vn -0.0000 -1.0000 -0.0000
vn -0.0000 -1.0000 -0.0000
vn -0.0000 -1.0000 0.0000
vn -0.0000 -1.0000 -0.0000
vn -0.0000 -1.0000 -0.0000
vn -0.0000 -1.0000 -0.0000
vn -0.0000 -1.0000 -0.0000
vn 0.0000 -1.0000 -0.0000
vn -0.0000 -1.0000 -0.0000
vn -0.0000 -1.0000 0.0000
vn -0.0000 -1.0000 -0.0000
vn -0.0000 -1.0000 0.0000
vn 0.0000 -1.0000 -0.0000
vn 0.0000 -1.0000 0.0000
vn 0.0000 -1.0000 0.0000
vn 0.0000 -1.0000 0.0000
vn -0.0000 -1.0000 0.0000
vn 0.0000 -1.0000 0.0000
vn 1.0000 -0.0000 0.0000
vn 0.8660 0.5000 0.0000
vn 0.8660 0.5000 0.0000
vn 1.0000 -0.0000 0.0000
vn 0.8660 0.5000 0.0000
vn 0.5000 0.8660 0.0000
vn 0.5000 0.8660 0.0000
vn 0.8660 0.5000 0.0000
vn 0.5000 0.8660 0.0000
vn -0.0000 1.0000 0.0000
vn -0.0000 1.0000 0.0000
vn 0.5000 0.8660 0.0000
vn -0.0000 1.0000 0.0000
vn -0.5000 0.8660 0.0000
vn -0.5000 0.8660 0.0000
vn -0.0000 1.0000 0.0000
vn -0.5000 0.8660 0.0000
vn -0.8660 0.5000 0.0000
vn -0.8660 0.5000 0.0000
vn -0.5000 0.8660 0.0000
vn -0.8660 0.5000 0.0000
vn -1.0000 0.0000 0.0000
vn -1.0000 0.0000 0.0000
vn -0.8660 0.5000 0.0000
vn -1.0000 0.0000 0.0000
vn -0.8660 -0.5000 0.0000
vn -0.8660 -0.5000 0.0000
vn -1.0000 0.0000 0.0000
vn -0.8660 -0.5000 0.0000
vn -0.5000 -0.8660 0.0000
vn -0.5000 -0.8660 0.0000
vn -0.8660 -0.5000 0.0000
vn -0.5000 -0.8660 0.0000
vn -0.0000 -1.0000 0.0000
vn -0.0000 -1.0000 0.0000
vn -0.5000 -0.8660 0.0000
vn -0.0000 -1.0000 0.0000
vn 0.5000 -0.8660 0.0000
vn 0.5000 -0.8660 0.0000
vn -0.0000 -1.0000 0.0000
vn 0.5000 -0.8660 0.0000
vn 0.8660 -0.5000 0.0000
vn 0.8660 -0.5000 0.0000
vn 0.5000 -0.8660 0.0000
vn 0.8660 -0.5000 0.0000
vn 1.0000 -0.0000 0.0000
vn 1.0000 -0.0000 0.0000
vn 0.8660 -0.5000 0.0000
vn 0.0000 0.0000 1.0000
vn 0.0000 0.0000 1.0000
vn 0.0000 0.0000 1.0000
vn 0.0000 0.0000 1.0000
vn 0.0000 0.0000 1.0000
vn 0.0000 0.0000 1.0000
vn 0.0000 0.0000 1.0000
vn 0.0000 0.0000 1.0000
vn 0.0000 0.0000 1.0000
vn 0.0000 0.0000 1.0000
vn 0.0000 0.0000 1.0000
vn 0.0000 0.0000 1.0000
vn 0.0000 0.0000 1.0000
vn 0.0000 0.0000 1.0000
vn 0.0000 0.0000 1.0000
vn 0.0000 0.0000 1.0000
vn 0.0000 0.0000 1.0000
vn 0.0000 0.0000 1.0000
vn 0.0000 0.0000 1.0000
vn 0.0000 0.0000 1.0000
vn 0.0000 0.0000 1.0000
vn 0.0000 0.0000 1.0000
vn 0.0000 0.0000 1.0000
vn 0.0000 0.0000 1.0000
vn 0.0000 0.0000 1.0000
vn 0.0000 0.0000 1.0000
vn 0.0000 0.0000 1.0000
vn 0.0000 0.0000 1.0000
vn 0.0000 0.0000 1.0000
vn 0.0000 0.0000 1.0000
vn 0.0000 0.0000 1.0000
vn 0.0000 0.0000 1.0000
vn 0.0000 0.0000 1.0000
vn 0.0000 0.0000 1.0000
vn 0.0000 0.0000 1.0000
vn 0.0000 0.0000 1.0000
vn -0.0000 0.0000 1.0000
vn -0.0000 0.0000 1.0000
vn 0.5000 0.0000 0.8660
vn 0.5000 0.0000 0.8660
vn 0.0000 -1.0000 0.0000
vn 0.0000 -1.0000 0.0000
vn 0.0000 -1.0000 0.0000
vn 0.0000 -1.0000 0.0000
vn 0.0000 -0.0000 -1.0000
vn 0.0000 -0.0000 -1.0000
vn -0.4999 -0.0000 -0.8661
vn -0.5000 0.0000 -0.8660
vn 0.5000 0.0000 0.8660
vn 0.5000 0.0000 0.8660
vn 0.8660 0.0000 0.5000
vn 0.8660 0.0000 0.5000
vn 0.0000 -1.0000 0.0000
vn 0.0000 -1.0000 0.0000
vn 0.0000 -1.0000 0.0000
vn 0.0000 -1.0000 0.0000
vn -0.5000 0.0000 -0.8660
vn -0.4999 -0.0000 -0.8661
vn -0.8661 0.0000 -0.4999
vn -0.8660 -0.0000 -0.5000
vn 0.8660 0.0000 0.5000
vn 0.8660 0.0000 0.5000
vn 1.0000 0.0000 -0.0000
vn 1.0000 0.0000 -0.0000
vn 0.0000 -1.0000 0.0000
vn 0.0000 -1.0000 0.0000
vn 0.0000 -1.0000 0.0000
vn 0.0000 -1.0000 0.0000
vn -0.8660 -0.0000 -0.5000
vn -0.8661 0.0000 -0.4999
vn -1.0000 -0.0000 -0.0000
vn -1.0000 -0.0000 -0.0000
vn 1.0000 0.0000 -0.0000
vn 1.0000 0.0000 -0.0000
vn 0.8660 0.0000 -0.5000
vn 0.8660 -0.0000 -0.5000
vn 0.0000 -1.0000 0.0000
vn 0.0000 -1.0000 0.0000
vn 0.0000 -1.0000 0.0000
vn 0.0000 -1.0000 0.0000
vn -1.0000 -0.0000 -0.0000
vn -1.0000 -0.0000 -0.0000
vn -0.8661 -0.0000 0.4999
vn -0.8660 -0.0000 0.5000
vn 0.8660 -0.0000 -0.5000
vn 0.8660 0.0000 -0.5000
vn 0.5000 -0.0000 -0.8660
vn 0.5000 -0.0000 -0.8660
vn 0.0000 -1.0000 0.0000
vn 0.0000 -1.0000 0.0000
vn 0.0000 -1.0000 0.0000
vn 0.0000 -1.0000 0.0000
vn -0.8660 -0.0000 0.5000
vn -0.8661 -0.0000 0.4999
vn -0.5016 -0.0000 0.8651
vn -0.5002 0.0004 0.8659
vn 0.5000 -0.0000 -0.8660
vn 0.5000 -0.0000 -0.8660
vn 0.0000 -0.0000 -1.0000
vn -0.0000 -0.0000 -1.0000
vn 0.0000 -1.0000 0.0000
vn 0.0000 -1.0000 0.0000
vn 0.0000 -1.0000 0.0000
vn 0.0000 -1.0000 0.0000
vn -0.5002 0.0004 0.8659
vn -0.5016 -0.0000 0.8651
vn -0.0041 -0.0004 1.0000
vn 0.0003 0.0004 1.0000
vn -0.0000 -0.0000 -1.0000
vn 0.0000 -0.0000 -1.0000
vn -0.5000 -0.0000 -0.8660
vn -0.5000 0.0000 -0.8660
vn 0.0000 -1.0000 0.0000
vn 0.0000 -1.0000 0.0000
vn 0.0000 -1.0000 0.0000
vn 0.0000 -1.0000 0.0000
vn 0.0003 0.0004 1.0000
vn -0.0041 -0.0004 1.0000
vn 0.4986 -0.0004 0.8668
vn 0.5000 0.0000 0.8660
vn -0.5000 0.0000 -0.8660
vn -0.5000 -0.0000 -0.8660
vn -0.8660 0.0000 -0.5000
vn -0.8660 -0.0000 -0.5000
vn 0.0000 -1.0000 0.0000
vn 0.0000 -1.0000 0.0000
vn 0.0000 -1.0000 0.0000
vn 0.0000 -1.0000 0.0000
vn 0.5000 0.0000 0.8660
vn 0.4986 -0.0004 0.8668
vn 0.8661 0.0000 0.4999
vn 0.8660 -0.0000 0.5000
vn -0.8660 -0.0000 -0.5000
vn -0.8660 0.0000 -0.5000
vn -1.0000 -0.0000 -0.0000
vn -1.0000 -0.0000 -0.0000
vn 0.0000 -1.0000 0.0000
vn 0.0000 -1.0000 0.0000
vn 0.0000 -1.0000 0.0000
vn 0.0000 -1.0000 0.0000
vn 0.8660 -0.0000 0.5000
vn 0.8661 0.0000 0.4999
vn 1.0000 -0.0000 0.0000
vn 1.0000 -0.0000 0.0000
vn -1.0000 -0.0000 -0.0000
vn -1.0000 -0.0000 -0.0000
vn -0.8660 -0.0000 0.5000
vn -0.8660 0.0000 0.5000
vn 0.0000 -1.0000 0.0000
vn 0.0000 -1.0000 0.0000
vn 0.0000 -1.0000 0.0000
vn 0.0000 -1.0000 0.0000
vn 1.0000 -0.0000 0.0000
vn 1.0000 -0.0000 0.0000
vn 0.8661 -0.0000 -0.4999
vn 0.8660 0.0000 -0.5000
vn -0.8660 0.0000 0.5000
vn -0.8660 -0.0000 0.5000
vn -0.5000 0.0000 0.8660
vn -0.5000 0.0000 0.8660
vn 0.0000 -1.0000 0.0000
vn 0.0000 -1.0000 0.0000
vn 0.0000 -1.0000 0.0000
vn 0.0000 -1.0000 0.0000
vn 0.8660 0.0000 -0.5000
vn 0.8661 -0.0000 -0.4999
vn 0.4999 0.0000 -0.8661
vn 0.5000 -0.0000 -0.8660
vn -0.5000 0.0000 0.8660
vn -0.5000 0.0000 0.8660
vn -0.0000 0.0000 1.0000
vn -0.0000 0.0000 1.0000
vn 0.0000 -1.0000 0.0000
vn 0.0000 -1.0000 0.0000
vn 0.0000 -1.0000 0.0000
vn 0.0000 -1.0000 0.0000
vn 0.5000 -0.0000 -0.8660
vn 0.4999 0.0000 -0.8661
vn 0.0000 -0.0000 -1.0000
vn 0.0000 -0.0000 -1.0000
# 372 vertex normals

vt 0.1000 0.2156 0.0000
vt 0.9000 0.2156 0.0000
vt 0.1000 0.9267 0.0000
vt 0.9000 0.9267 0.0000
vt 0.1000 0.2156 0.8571
vt 0.9000 0.2156 0.8571
vt 0.1000 0.9267 0.8571
vt 0.9000 0.9267 0.8571
vt 0.2624 0.3578 0.0000
vt 0.2600 0.7844 0.0000
vt 0.7400 0.7844 0.0000
vt 0.7400 0.3578 0.0000
vt 0.2600 0.3578 0.7143
vt 0.2600 0.7844 0.7143
vt 0.7400 0.7844 0.7143
vt 0.7400 0.3578 0.7143
vt 0.7400 0.2156 0.5000
vt 0.7078 0.2156 0.6071
vt 0.6200 0.2156 0.6856
vt 0.5000 0.2156 0.7143
vt 0.3800 0.2156 0.6856
vt 0.2922 0.2156 0.6071
vt 0.2600 0.2156 0.5000
vt 0.2922 0.2156 0.3929
vt 0.3800 0.2156 0.3144
vt 0.5000 0.2156 0.2857
vt 0.6200 0.2156 0.3144
vt 0.7078 0.2156 0.3929
vt 0.6600 0.3578 0.5000
vt 0.6386 0.3578 0.5714
vt 0.5800 0.3578 0.6237
vt 0.5000 0.3578 0.6428
vt 0.4200 0.3578 0.6237
vt 0.3614 0.3578 0.5714
vt 0.3614 0.3578 0.4286
vt 0.4200 0.3578 0.3763
vt 0.5800 0.3578 0.3763
vt 0.6386 0.3578 0.4286
vt 0.7400 0.5711 0.8571
vt 0.7078 0.6778 0.8571
vt 0.6200 0.7559 0.8571
vt 0.5000 0.7844 0.8571
vt 0.3800 0.7559 0.8571
vt 0.2922 0.6778 0.8571
vt 0.2600 0.5711 0.8571
vt 0.2922 0.4644 0.8571
vt 0.3800 0.3864 0.8571
vt 0.5000 0.3578 0.8571
vt 0.6200 0.3864 0.8571
vt 0.7078 0.4644 0.8571
vt 0.7400 0.5711 1.0000
vt 0.7078 0.6778 1.0000
vt 0.6200 0.7559 1.0000
vt 0.5000 0.7844 1.0000
vt 0.3800 0.7559 1.0000
vt 0.2922 0.6778 1.0000
vt 0.2600 0.5711 1.0000
vt 0.2922 0.4644 1.0000
vt 0.3800 0.3864 1.0000
vt 0.5000 0.3578 1.0000
vt 0.6200 0.3864 1.0000
vt 0.7078 0.4644 1.0000
vt 0.5000 0.5711 1.0000
vt 0.5000 0.0733 0.7143
vt 0.5000 0.0733 0.6429
vt 0.6200 0.0733 0.6856
vt 0.5800 0.0733 0.6237
vt 0.7078 0.0733 0.6071
vt 0.6386 0.0733 0.5714
vt 0.7400 0.0733 0.5000
vt 0.6600 0.0733 0.5000
vt 0.7078 0.0733 0.3929
vt 0.6386 0.0733 0.4286
vt 0.6200 0.0733 0.3144
vt 0.5800 0.0733 0.3763
vt 0.5000 0.0733 0.2857
vt 0.5000 0.0733 0.3571
vt 0.5012 0.3578 0.3572
vt 0.3800 0.0733 0.3144
vt 0.4200 0.0733 0.3763
vt 0.2922 0.0733 0.3929
vt 0.3614 0.0733 0.4286
vt 0.2600 0.0733 0.5000
vt 0.3400 0.0733 0.5000
vt 0.3400 0.3578 0.5000
vt 0.2922 0.0733 0.6071
vt 0.3614 0.0733 0.5714
vt 0.3800 0.0733 0.6856
vt 0.4200 0.0733 0.6237
# 89 texture coords

g 87087
s 1
f 13/13/1 14/14/2 15/15/3 16/16/4 
f 5/5/5 6/6/6 8/8/7 7/7/8 
s 2
f 2/2/9 4/4/10 8/8/11 6/6/12 
s 4
f 4/4/13 3/3/14 7/7/15 8/8/16 
s 2
f 3/3/17 1/1/18 5/5/19 7/7/20 
s 1
f 1/1/21 3/3/22 10/10/23 9/9/24 
f 3/3/25 4/4/26 11/11/27 10/10/28 
f 4/4/29 2/2/30 12/12/31 11/11/32 
f 2/2/33 1/1/34 9/9/35 12/12/36 
s 2
f 9/9/37 10/10/38 14/14/39 13/13/40 
s 4
f 10/10/41 11/11/42 15/15/43 14/14/44 
s 2
f 11/11/45 12/12/46 16/16/47 15/15/48 
s 4
f 12/12/49 9/9/50 78/78/51 
f 9/9/52 35/35/53 36/36/54 
f 9/9/55 85/85/56 35/35/57 
f 9/9/58 13/13/59 85/85/60 
f 13/13/61 33/33/62 34/34/63 
f 13/13/64 32/32/65 33/33/66 
f 13/13/67 16/16/68 32/32/69 
f 16/16/70 30/30/71 31/31/72 
f 16/16/73 29/29/74 30/30/75 
f 16/16/76 12/12/77 29/29/78 
f 12/12/79 37/37/80 38/38/81 
f 12/12/82 78/78/83 37/37/84 
f 16/16/85 31/31/86 32/32/87 
f 9/9/88 36/36/89 78/78/90 
f 13/13/91 34/34/92 85/85/93 
f 12/12/94 38/38/95 29/29/96 
f 1/1/97 26/26/98 25/25/99 
f 2/2/100 27/27/101 26/26/102 
f 2/2/103 28/28/104 27/27/105 
f 2/2/106 17/17/107 28/28/108 
f 6/6/109 18/18/110 17/17/111 
f 6/6/112 19/19/113 18/18/114 
f 6/6/115 20/20/116 19/19/117 
f 5/5/118 21/21/119 20/20/120 
f 5/5/121 22/22/122 21/21/123 
f 5/5/124 23/23/125 22/22/126 
f 1/1/127 24/24/128 23/23/129 
f 1/1/130 25/25/131 24/24/132 
f 1/1/133 2/2/134 26/26/135 
f 5/5/136 1/1/137 23/23/138 
f 2/2/139 6/6/140 17/17/141 
f 6/6/142 5/5/143 20/20/144 
s 1
f 39/39/145 40/40/146 52/52/147 51/51/148 
f 40/40/149 41/41/150 53/53/151 52/52/152 
f 41/41/153 42/42/154 54/54/155 53/53/156 
f 42/42/157 43/43/158 55/55/159 54/54/160 
f 43/43/161 44/44/162 56/56/163 55/55/164 
f 44/44/165 45/45/166 57/57/167 56/56/168 
f 45/45/169 46/46/170 58/58/171 57/57/172 
f 46/46/173 47/47/174 59/59/175 58/58/176 
f 47/47/177 48/48/178 60/60/179 59/59/180 
f 48/48/181 49/49/182 61/61/183 60/60/184 
f 49/49/185 50/50/186 62/62/187 61/61/188 
f 50/50/189 39/39/190 51/51/191 62/62/192 
s 2
f 51/51/193 52/52/194 63/63/195 
f 52/52/196 53/53/197 63/63/198 
f 53/53/199 54/54/200 63/63/201 
f 54/54/202 55/55/203 63/63/204 
f 55/55/205 56/56/206 63/63/207 
f 56/56/208 57/57/209 63/63/210 
f 57/57/211 58/58/212 63/63/213 
f 58/58/214 59/59/215 63/63/216 
f 59/59/217 60/60/218 63/63/219 
f 60/60/220 61/61/221 63/63/222 
f 61/61/223 62/62/224 63/63/225 
f 62/62/226 51/51/227 63/63/228 
s 1
f 20/20/229 64/64/230 66/66/231 19/19/232 
s 2
f 64/64/233 65/65/234 67/67/235 66/66/236 
s 1
f 65/65/237 32/32/238 31/31/239 67/67/240 
f 19/19/241 66/66/242 68/68/243 18/18/244 
s 2
f 66/66/245 67/67/246 69/69/247 68/68/248 
s 1
f 67/67/249 31/31/250 30/30/251 69/69/252 
f 18/18/253 68/68/254 70/70/255 17/17/256 
s 2
f 68/68/257 69/69/258 71/71/259 70/70/260 
s 1
f 69/69/261 30/30/262 29/29/263 71/71/264 
f 17/17/265 70/70/266 72/72/267 28/28/268 
s 2
f 70/70/269 71/71/270 73/73/271 72/72/272 
s 1
f 71/71/273 29/29/274 38/38/275 73/73/276 
f 28/28/277 72/72/278 74/74/279 27/27/280 
s 2
f 72/72/281 73/73/282 75/75/283 74/74/284 
s 1
f 73/73/285 38/38/286 37/37/287 75/75/288 
f 27/27/289 74/74/290 76/76/291 26/26/292 
s 2
f 74/74/293 75/75/294 77/77/295 76/76/296 
s 1
f 75/75/297 37/37/298 78/78/299 77/77/300 
f 26/26/301 76/76/302 79/79/303 25/25/304 
s 2
f 76/76/305 77/77/306 80/80/307 79/79/308 
s 1
f 77/77/309 78/78/310 36/36/311 80/80/312 
f 25/25/313 79/79/314 81/81/315 24/24/316 
s 2
f 79/79/317 80/80/318 82/82/319 81/81/320 
s 1
f 80/80/321 36/36/322 35/35/323 82/82/324 
f 24/24/325 81/81/326 83/83/327 23/23/328 
s 2
f 81/81/329 82/82/330 84/84/331 83/83/332 
s 1
f 82/82/333 35/35/334 85/85/335 84/84/336 
f 23/23/337 83/83/338 86/86/339 22/22/340 
s 2
f 83/83/341 84/84/342 87/87/343 86/86/344 
s 1
f 84/84/345 85/85/346 34/34/347 87/87/348 
f 22/22/349 86/86/350 88/88/351 21/21/352 
s 2
f 86/86/353 87/87/354 89/89/355 88/88/356 
s 1
f 87/87/357 34/34/358 33/33/359 89/89/360 
f 21/21/361 88/88/362 64/64/363 20/20/364 
s 2
f 88/88/365 89/89/366 65/65/367 64/64/368 
s 1
f 89/89/369 33/33/370 32/32/371 65/65/372 
# 60 polygons - 44 triangles

