# 3ds Max Wavefront OBJ Exporter v0.97b - (c)2007 guruware
# File Created: 21.03.2016 21:36:13

#
# object 3045
#

v  -10.0000 -10.0000 0.0000
v  -10.0000 10.0000 0.0000
v  -6.0000 6.0000 -24.0000
v  -6.0000 -10.0000 -4.0000
v  -6.0000 6.0000 -4.0000
v  -10.0000 -30.0000 -24.0000
v  -10.0000 -30.0000 -20.0000
v  -6.0000 -26.0000 -24.0000
v  -6.0000 -26.0000 -20.0000
v  -5.1961 3.0000 0.0000
v  -6.0000 0.0000 0.0000
v  -5.1961 -3.0000 0.0000
v  -3.0000 -5.1961 0.0000
v  0.0000 -6.0000 0.0000
v  3.0000 -5.1962 0.0000
v  -5.1961 3.0000 4.0000
v  -6.0000 0.0000 4.0000
v  -5.1961 -3.0000 4.0000
v  -3.0000 -5.1961 4.0000
v  0.0000 -6.0000 4.0000
v  3.0000 -5.1962 4.0000
v  0.0000 0.0000 4.0000
v  14.0000 -16.9282 -24.0000
v  14.0000 -16.9282 -7.9093
v  13.0000 -15.1961 -7.9093
v  13.0000 -15.1961 -24.0000
v  10.0000 -18.0000 -24.0000
v  10.0000 -18.0000 -9.0352
v  10.0000 -16.0000 -9.0352
v  10.0000 -16.0000 -24.0000
v  6.0000 -16.9282 -24.0000
v  6.0000 -16.9282 -7.9093
v  7.0000 -15.1961 -7.9093
v  7.0000 -15.1961 -24.0000
v  3.0718 -14.0000 -24.0000
v  3.0718 -14.0000 -5.7392
v  4.8038 -13.0000 -5.7392
v  4.8038 -13.0000 -24.0000
v  2.0000 -10.0000 -24.0000
v  2.0000 -10.0000 -4.0000
v  4.0000 -10.0000 -4.0000
v  4.0000 -10.0000 -24.0000
v  3.0718 -6.0000 -24.0000
v  3.0718 -6.0000 -4.0000
v  4.8038 -7.0000 -4.0000
v  4.8038 -7.0000 -24.0000
v  10.0000 -10.0000 0.0000
v  30.0000 -30.0000 -20.0000
v  30.0000 10.0000 -20.0000
v  30.0000 10.0000 -24.0000
v  30.0000 -30.0000 -24.0000
v  -10.0000 10.0000 -24.0000
v  10.0000 10.0000 0.0000
v  10.0000 6.0000 -4.0000
v  26.0000 6.0000 -24.0000
v  26.0000 -26.0000 -24.0000
v  26.0000 6.0000 -20.0000
v  26.0000 -26.0000 -20.0000
v  10.0000 -10.0000 -4.0000
v  -3.0000 5.1961 4.0000
v  -3.0000 5.1961 0.0000
v  0.0000 6.0000 4.0000
v  0.0000 6.0000 0.0000
v  3.0000 5.1961 4.0000
v  3.0000 5.1961 0.0000
v  5.1961 3.0000 4.0000
v  5.1961 3.0000 0.0000
v  6.0000 -0.0000 4.0000
v  6.0000 -0.0000 0.0000
v  5.1962 -3.0000 4.0000
v  5.1962 -3.0000 0.0000
v  16.9282 -14.0000 -7.9093
v  16.9282 -14.0000 -24.0000
v  15.1961 -13.0000 -24.0000
v  15.1961 -13.0000 -7.9093
v  18.0000 -10.0000 -9.0352
v  18.0000 -10.0000 -24.0000
v  16.0000 -10.0000 -24.0000
v  16.0000 -10.0000 -9.0352
v  16.9282 -6.0000 -7.9093
v  16.9282 -6.0000 -24.0000
v  15.1961 -7.0000 -24.0000
v  15.1961 -7.0000 -7.9093
v  14.0000 -3.0718 -5.7392
v  14.0000 -3.0718 -24.0000
v  13.0000 -4.8038 -24.0000
v  13.0000 -4.8038 -5.7392
v  10.0000 -2.0000 -4.0000
v  10.0000 -2.0000 -24.0000
v  10.0000 -4.0000 -24.0000
v  10.0000 -4.0000 -4.0000
v  6.0000 -3.0718 -4.0000
v  6.0000 -3.0718 -24.0000
v  7.0000 -4.8038 -24.0000
v  7.0000 -4.8038 -4.0000
# 95 vertices

vn -0.0000 -1.0000 0.0000
vn -0.0000 -1.0000 0.0000
vn -0.0000 -1.0000 0.0000
vn -0.0000 -1.0000 0.0000
vn -1.0000 0.0000 0.0000
vn -1.0000 0.0000 0.0000
vn -1.0000 0.0000 0.0000
vn 1.0000 -0.0000 0.0000
vn 1.0000 -0.0000 0.0000
vn 1.0000 -0.0000 0.0000
vn -0.0000 -0.7071 0.7071
vn -0.0000 -0.7071 0.7071
vn -0.0000 -0.7071 0.7071
vn -0.0000 -0.7071 0.7071
vn -1.0000 0.0000 0.0000
vn -1.0000 0.0000 0.0000
vn -1.0000 0.0000 0.0000
vn -1.0000 0.0000 0.0000
vn 0.0000 0.0000 -1.0000
vn 0.0000 0.0000 -1.0000
vn 0.0000 0.0000 -1.0000
vn 0.0000 0.0000 -1.0000
vn 0.0000 0.0000 -1.0000
vn 0.0000 0.0000 -1.0000
vn 0.0000 0.0000 -1.0000
vn 0.0000 0.0000 -1.0000
vn 0.0000 1.0000 0.0000
vn 0.0000 1.0000 0.0000
vn 0.0000 1.0000 0.0000
vn 0.0000 1.0000 0.0000
vn 1.0000 -0.0000 0.0000
vn 1.0000 -0.0000 0.0000
vn 1.0000 -0.0000 0.0000
vn 1.0000 -0.0000 0.0000
vn 0.0000 0.7071 -0.7071
vn 0.0000 0.7071 -0.7071
vn 0.0000 0.7071 -0.7071
vn 0.0000 0.7071 -0.7071
vn -0.8660 0.5000 0.0000
vn -1.0000 0.0000 0.0000
vn -1.0000 0.0000 0.0000
vn -0.8660 0.5000 0.0000
vn -1.0000 0.0000 0.0000
vn -0.8660 -0.5000 0.0000
vn -0.8660 -0.5000 0.0000
vn -1.0000 0.0000 0.0000
vn -0.8660 -0.5000 0.0000
vn -0.5000 -0.8660 0.0000
vn -0.5000 -0.8660 0.0000
vn -0.8660 -0.5000 0.0000
vn -0.5000 -0.8660 0.0000
vn -0.0000 -1.0000 0.0000
vn -0.0000 -1.0000 0.0000
vn -0.5000 -0.8660 0.0000
vn -0.0000 -1.0000 0.0000
vn 0.5000 -0.8660 0.0000
vn 0.5000 -0.8660 0.0000
vn -0.0000 -1.0000 0.0000
vn 0.0000 0.0000 1.0000
vn 0.0000 0.0000 1.0000
vn 0.0000 0.0000 1.0000
vn 0.0000 0.0000 1.0000
vn 0.0000 0.0000 1.0000
vn 0.0000 0.0000 1.0000
vn 0.0000 0.0000 1.0000
vn 0.0000 0.0000 1.0000
vn 0.0000 0.0000 1.0000
vn 0.0000 0.0000 1.0000
vn 0.0000 0.0000 1.0000
vn 0.0000 0.0000 1.0000
vn 0.0000 0.0000 1.0000
vn 0.0000 0.0000 1.0000
vn 0.0000 0.0000 1.0000
vn 0.0000 0.0000 1.0000
vn 0.0000 0.0000 1.0000
vn 0.0000 0.0000 1.0000
vn -0.5286 0.8489 0.0000
vn -0.8489 0.5286 0.0000
vn -0.8660 0.5000 0.0000
vn -0.5000 0.8660 0.0000
vn 0.0000 0.0000 -1.0000
vn 0.0000 0.0000 -1.0000
vn 0.0000 0.0000 -1.0000
vn 0.0000 0.0000 -1.0000
vn 0.5000 -0.8660 0.0000
vn 0.5213 -0.8534 0.0000
vn 0.0000 -1.0000 0.0000
vn 0.0000 -1.0000 0.0000
vn -0.5286 0.8489 0.0000
vn -0.5000 0.8660 0.0000
vn 0.0000 1.0000 0.0000
vn 0.0000 1.0000 0.0000
vn 0.0000 0.0000 -1.0000
vn 0.0000 0.0000 -1.0000
vn 0.0000 0.0000 -1.0000
vn 0.0000 0.0000 -1.0000
vn 0.0000 -1.0000 0.0000
vn 0.0000 -1.0000 0.0000
vn -0.5507 -0.8347 0.0000
vn -0.5000 -0.8660 0.0000
vn 0.0000 1.0000 0.0000
vn 0.0000 1.0000 0.0000
vn 0.5000 0.8660 0.0000
vn 0.5637 0.8260 0.0000
vn 0.0000 0.0000 -1.0000
vn 0.0000 0.0000 -1.0000
vn 0.0000 0.0000 -1.0000
vn 0.0000 0.0000 -1.0000
vn -0.5000 -0.8660 0.0000
vn -0.5507 -0.8347 0.0000
vn -0.9019 -0.4319 0.0000
vn -0.8660 -0.5000 0.0000
vn 0.5637 0.8260 0.0000
vn 0.5000 0.8660 0.0000
vn 0.8660 0.5000 0.0000
vn 0.9109 0.4125 0.0000
vn 0.0000 0.0000 -1.0000
vn 0.0000 0.0000 -1.0000
vn 0.0000 0.0000 -1.0000
vn 0.0000 0.0000 -1.0000
vn -0.8660 -0.5000 0.0000
vn -0.9019 -0.4319 0.0000
vn -0.9992 0.0388 0.0000
vn -1.0000 0.0000 0.0000
vn 0.9109 0.4125 0.0000
vn 0.8660 0.5000 0.0000
vn 1.0000 0.0000 0.0000
vn 0.9987 -0.0519 0.0000
vn 0.0000 0.0000 -1.0000
vn 0.0000 0.0000 -1.0000
vn 0.0000 0.0000 -1.0000
vn 0.0000 0.0000 -1.0000
vn -1.0000 0.0000 0.0000
vn -0.9992 0.0388 0.0000
vn -0.8660 0.5000 0.0000
vn -0.8660 0.5000 0.0000
vn 0.9987 -0.0519 0.0000
vn 1.0000 0.0000 0.0000
vn 0.8660 -0.5000 0.0000
vn 0.8660 -0.5000 0.0000
vn 0.0000 0.0000 -1.0000
vn 0.0000 0.0000 -1.0000
vn 0.0000 0.0000 -1.0000
vn 0.0000 0.0000 -1.0000
vn 0.0000 0.0000 -1.0000
vn 0.0000 0.0000 -1.0000
vn 0.0000 0.0000 -1.0000
vn 0.0000 0.0000 -1.0000
vn 0.0000 0.0000 1.0000
vn 0.0000 0.0000 1.0000
vn 0.0000 0.0000 1.0000
vn 0.0000 0.0000 1.0000
vn 0.5000 -0.8660 0.0000
vn 0.5000 -0.8660 0.0000
vn 0.8660 -0.5000 0.0000
vn 0.8660 -0.5000 0.0000
vn -0.8660 0.5000 0.0000
vn -0.8660 0.5000 0.0000
vn -0.5000 0.8660 0.0000
vn -0.5000 0.8660 0.0000
vn 0.8660 -0.5000 0.0000
vn 0.5000 -0.8660 0.0000
vn 0.5000 -0.8660 0.0000
vn 0.8660 -0.5000 0.0000
vn 1.0000 -0.0000 0.0000
vn 1.0000 -0.0000 0.0000
vn 1.0000 -0.0000 0.0000
vn 1.0000 -0.0000 0.0000
vn 0.0000 1.0000 -0.0000
vn 0.0000 1.0000 0.0000
vn 0.0000 1.0000 -0.0000
vn -0.0000 -1.0000 0.0000
vn -0.0000 -1.0000 0.0000
vn -0.0000 -1.0000 0.0000
vn 0.7071 -0.0000 0.7071
vn 0.7071 -0.0000 0.7071
vn 0.7071 -0.0000 0.7071
vn 0.7071 -0.0000 0.7071
vn 0.0000 1.0000 -0.0000
vn 0.0000 1.0000 -0.0000
vn 0.0000 1.0000 -0.0000
vn 0.0000 1.0000 -0.0000
vn 0.0000 0.0000 -1.0000
vn 0.0000 0.0000 -1.0000
vn 0.0000 0.0000 -1.0000
vn 0.0000 0.0000 -1.0000
vn 0.0000 0.0000 -1.0000
vn 0.0000 0.0000 -1.0000
vn 0.0000 0.0000 -1.0000
vn 0.0000 0.0000 -1.0000
vn -1.0000 0.0000 0.0000
vn -1.0000 0.0000 0.0000
vn -1.0000 0.0000 0.0000
vn -1.0000 0.0000 0.0000
vn -0.0000 -1.0000 0.0000
vn -0.0000 -1.0000 0.0000
vn -0.0000 -1.0000 0.0000
vn -0.0000 -1.0000 0.0000
vn -0.7071 0.0000 -0.7071
vn -0.7071 0.0000 -0.7071
vn -0.7071 0.0000 -0.7071
vn -0.7071 0.0000 -0.7071
vn -0.5000 0.8660 0.0000
vn -0.8660 0.5000 0.0000
vn -0.8660 0.5000 0.0000
vn -0.5000 0.8660 0.0000
vn -0.5000 0.8660 0.0000
vn -0.5000 0.8660 0.0000
vn 0.0000 1.0000 0.0000
vn 0.0000 1.0000 0.0000
vn 0.0000 1.0000 0.0000
vn 0.0000 1.0000 0.0000
vn 0.5000 0.8660 0.0000
vn 0.5000 0.8660 0.0000
vn 0.5000 0.8660 0.0000
vn 0.5000 0.8660 0.0000
vn 0.8660 0.5000 0.0000
vn 0.8660 0.5000 0.0000
vn 0.8660 0.5000 0.0000
vn 0.8660 0.5000 0.0000
vn 1.0000 0.0000 0.0000
vn 1.0000 0.0000 0.0000
vn 1.0000 0.0000 0.0000
vn 1.0000 0.0000 0.0000
vn 0.8660 -0.5000 0.0000
vn 0.8660 -0.5000 0.0000
vn 0.0000 0.0000 1.0000
vn 0.0000 0.0000 1.0000
vn 0.0000 0.0000 1.0000
vn 0.0000 0.0000 1.0000
vn 0.0000 0.0000 1.0000
vn 0.0000 0.0000 1.0000
vn 0.0000 0.0000 1.0000
vn 0.0000 0.0000 1.0000
vn 0.0000 0.0000 1.0000
vn 0.0000 0.0000 1.0000
vn 0.0000 0.0000 1.0000
vn 0.0000 0.0000 1.0000
vn 0.0000 0.0000 1.0000
vn 0.0000 0.0000 1.0000
vn 0.0000 0.0000 1.0000
vn 0.8534 -0.5213 0.0000
vn 0.5213 -0.8534 0.0000
vn 0.5000 -0.8660 0.0000
vn 0.8660 -0.5000 0.0000
vn 0.8660 -0.5000 0.0000
vn 1.0000 -0.0000 0.0000
vn 1.0000 -0.0000 0.0000
vn 0.8534 -0.5213 0.0000
vn -0.8489 0.5286 0.0000
vn -1.0000 0.0000 0.0000
vn -1.0000 0.0000 0.0000
vn -0.8660 0.5000 0.0000
vn 0.0000 0.0000 -1.0000
vn 0.0000 0.0000 -1.0000
vn 0.0000 0.0000 -1.0000
vn 0.0000 0.0000 -1.0000
vn 1.0000 -0.0000 0.0000
vn 0.8660 0.5000 0.0000
vn 0.8347 0.5507 0.0000
vn 1.0000 -0.0000 0.0000
vn -1.0000 0.0000 0.0000
vn -0.8260 -0.5637 0.0000
vn -0.8660 -0.5000 0.0000
vn -1.0000 0.0000 0.0000
vn 0.0000 0.0000 -1.0000
vn 0.0000 0.0000 -1.0000
vn 0.0000 0.0000 -1.0000
vn 0.0000 0.0000 -1.0000
vn 0.8660 0.5000 0.0000
vn 0.5000 0.8660 0.0000
vn 0.4319 0.9019 0.0000
vn 0.8347 0.5507 0.0000
vn -0.8260 -0.5637 0.0000
vn -0.4125 -0.9109 0.0000
vn -0.5000 -0.8660 0.0000
vn -0.8660 -0.5000 0.0000
vn 0.0000 0.0000 -1.0000
vn 0.0000 0.0000 -1.0000
vn 0.0000 0.0000 -1.0000
vn 0.0000 0.0000 -1.0000
vn 0.5000 0.8660 0.0000
vn -0.0000 1.0000 0.0000
vn -0.0388 0.9992 0.0000
vn 0.4319 0.9019 0.0000
vn -0.4125 -0.9109 0.0000
vn 0.0519 -0.9987 0.0000
vn 0.0000 -1.0000 0.0000
vn -0.5000 -0.8660 0.0000
vn 0.0000 0.0000 -1.0000
vn 0.0000 0.0000 -1.0000
vn 0.0000 0.0000 -1.0000
vn 0.0000 0.0000 -1.0000
vn -0.0000 1.0000 0.0000
vn -0.5000 0.8660 0.0000
vn -0.5000 0.8660 0.0000
vn -0.0388 0.9992 0.0000
vn 0.0519 -0.9987 0.0000
vn 0.5000 -0.8660 0.0000
vn 0.5000 -0.8660 0.0000
vn 0.0000 -1.0000 0.0000
vn 0.0000 0.0000 -1.0000
vn 0.0000 0.0000 -1.0000
vn 0.0000 0.0000 -1.0000
vn 0.0000 0.0000 -1.0000
vn 0.0000 0.0000 1.0000
vn 0.0000 0.0000 1.0000
vn 0.0000 0.0000 1.0000
vn 0.0000 0.0000 -1.0000
vn 0.0000 0.0000 -1.0000
vn 0.0000 0.0000 -1.0000
vn 0.0000 0.0000 -1.0000
# 312 vertex normals

vt 0.0556 0.5000 0.8571
vt 0.0556 0.9444 0.8571
vt 0.1444 0.8556 -0.0000
vt 0.1444 0.5000 0.7143
vt 0.1444 0.8556 0.7143
vt 0.0556 0.0556 -0.0000
vt 0.0556 0.0556 0.1429
vt 0.1444 0.1444 -0.0000
vt 0.1444 0.1444 0.1429
vt 0.1623 0.7889 0.8571
vt 0.1444 0.7222 0.8571
vt 0.1623 0.6556 0.8571
vt 0.2111 0.6068 0.8571
vt 0.2778 0.5889 0.8571
vt 0.3444 0.6068 0.8571
vt 0.1623 0.7889 1.0000
vt 0.1444 0.7222 1.0000
vt 0.1623 0.6556 1.0000
vt 0.2111 0.6068 1.0000
vt 0.2778 0.5889 1.0000
vt 0.3444 0.6068 1.0000
vt 0.2778 0.7222 1.0000
vt 0.5889 0.3460 -0.0000
vt 0.5889 0.3460 0.5747
vt 0.5667 0.3845 0.5747
vt 0.5667 0.3845 -0.0000
vt 0.5000 0.3222 -0.0000
vt 0.5000 0.3222 0.5345
vt 0.5000 0.3667 0.5345
vt 0.5000 0.3667 -0.0000
vt 0.4111 0.3460 -0.0000
vt 0.4111 0.3460 0.5747
vt 0.4333 0.3845 0.5747
vt 0.4333 0.3845 -0.0000
vt 0.3460 0.4111 -0.0000
vt 0.3460 0.4111 0.6522
vt 0.3845 0.4333 0.6522
vt 0.3845 0.4333 -0.0000
vt 0.3222 0.5000 -0.0000
vt 0.3222 0.5000 0.7143
vt 0.3667 0.5000 0.7143
vt 0.3667 0.5000 -0.0000
vt 0.3460 0.5889 -0.0000
vt 0.3460 0.5889 0.7143
vt 0.3845 0.5667 0.7143
vt 0.3845 0.5667 -0.0000
vt 0.5000 0.5000 0.8571
vt 0.9444 0.0556 0.1429
vt 0.9444 0.9444 0.1429
vt 0.9444 0.9444 -0.0000
vt 0.9444 0.0556 -0.0000
vt 0.0556 0.9444 -0.0000
vt 0.5000 0.9444 0.8571
vt 0.5000 0.8556 0.7143
vt 0.8556 0.8556 -0.0000
vt 0.8556 0.1444 -0.0000
vt 0.8556 0.8556 0.1429
vt 0.8556 0.1444 0.1429
vt 0.5000 0.5000 0.7143
vt 0.2111 0.8377 1.0000
vt 0.2111 0.8377 0.8571
vt 0.2778 0.8556 1.0000
vt 0.2778 0.8556 0.8571
vt 0.3444 0.8377 1.0000
vt 0.3444 0.8377 0.8571
vt 0.3932 0.7889 1.0000
vt 0.3932 0.7889 0.8571
vt 0.4111 0.7222 1.0000
vt 0.4111 0.7222 0.8571
vt 0.3932 0.6556 1.0000
vt 0.3932 0.6556 0.8571
vt 0.6540 0.4111 0.5747
vt 0.6540 0.4111 -0.0000
vt 0.6155 0.4333 -0.0000
vt 0.6155 0.4333 0.5747
vt 0.6778 0.5000 0.5345
vt 0.6778 0.5000 -0.0000
vt 0.6333 0.5000 -0.0000
vt 0.6333 0.5000 0.5345
vt 0.6540 0.5889 0.5747
vt 0.6540 0.5889 -0.0000
vt 0.6155 0.5667 -0.0000
vt 0.6155 0.5667 0.5747
vt 0.5889 0.6540 0.6522
vt 0.5889 0.6540 -0.0000
vt 0.5667 0.6155 -0.0000
vt 0.5667 0.6155 0.6522
vt 0.5000 0.6778 0.7143
vt 0.5000 0.6778 -0.0000
vt 0.5000 0.6333 -0.0000
vt 0.5000 0.6333 0.7143
vt 0.4111 0.6540 0.7143
vt 0.4111 0.6540 -0.0000
vt 0.4333 0.6155 -0.0000
vt 0.4333 0.6155 0.7143
# 95 texture coords

g 3045
s 8
f 6/6/1 51/51/2 48/48/3 7/7/4 
s 2
f 52/52/5 1/1/6 2/2/7 
f 3/3/8 5/5/9 4/4/10 
s 16
f 7/7/11 48/48/12 47/47/13 1/1/14 
s 2
f 1/1/15 52/52/16 6/6/17 7/7/18 
s 1
f 51/51/19 6/6/20 8/8/21 56/56/22 
f 6/6/23 52/52/24 3/3/25 8/8/26 
s 4
f 56/56/27 8/8/28 9/9/29 58/58/30 
s 2
f 3/3/31 4/4/32 9/9/33 8/8/34 
s 1
f 9/9/35 4/4/36 59/59/37 58/58/38 
f 10/10/39 11/11/40 17/17/41 16/16/42 
f 11/11/43 12/12/44 18/18/45 17/17/46 
f 12/12/47 13/13/48 19/19/49 18/18/50 
f 13/13/51 14/14/52 20/20/53 19/19/54 
f 14/14/55 15/15/56 21/21/57 20/20/58 
s 2
f 16/16/59 17/17/60 22/22/61 
f 17/17/62 18/18/63 22/22/64 
f 18/18/65 19/19/66 22/22/67 
f 19/19/68 20/20/69 22/22/70 
f 20/20/71 21/21/72 22/22/73 
f 21/21/74 70/70/75 22/22/76 
f 25/25/77 75/75/78 74/74/79 26/26/80 
s 4
f 23/23/81 26/26/82 74/74/83 73/73/84 
s 2
f 23/23/85 24/24/86 28/28/87 27/27/88 
f 25/25/89 26/26/90 30/30/91 29/29/92 
s 4
f 26/26/93 23/23/94 27/27/95 30/30/96 
s 2
f 27/27/97 28/28/98 32/32/99 31/31/100 
f 29/29/101 30/30/102 34/34/103 33/33/104 
s 4
f 30/30/105 27/27/106 31/31/107 34/34/108 
s 2
f 31/31/109 32/32/110 36/36/111 35/35/112 
f 33/33/113 34/34/114 38/38/115 37/37/116 
s 4
f 34/34/117 31/31/118 35/35/119 38/38/120 
s 2
f 35/35/121 36/36/122 40/40/123 39/39/124 
f 37/37/125 38/38/126 42/42/127 41/41/128 
s 4
f 38/38/129 35/35/130 39/39/131 42/42/132 
s 2
f 39/39/133 40/40/134 44/44/135 43/43/136 
f 41/41/137 42/42/138 46/46/139 45/45/140 
s 4
f 42/42/141 39/39/142 43/43/143 46/46/144 
s 8
f 5/5/145 54/54/146 59/59/147 4/4/148 
f 47/47/149 53/53/150 2/2/151 1/1/152 
s 1
f 21/21/153 15/15/154 71/71/155 70/70/156 
s 2
f 43/43/157 44/44/158 92/92/159 93/93/160 
f 46/46/161 94/94/162 95/95/163 45/45/164 
f 50/50/165 49/49/166 48/48/167 51/51/168 
s 4
f 52/52/169 2/2/170 53/53/171 
f 3/3/172 54/54/173 5/5/174 
s 1
f 49/49/175 53/53/176 47/47/177 48/48/178 
s 4
f 53/53/179 49/49/180 50/50/181 52/52/182 
s 1
f 51/51/183 56/56/184 55/55/185 50/50/186 
f 50/50/187 55/55/188 3/3/189 52/52/190 
s 8
f 56/56/191 58/58/192 57/57/193 55/55/194 
s 4
f 3/3/195 55/55/196 57/57/197 54/54/198 
s 16
f 57/57/199 58/58/200 59/59/201 54/54/202 
s 1
f 61/61/203 10/10/204 16/16/205 60/60/206 
f 61/61/207 60/60/208 62/62/209 63/63/210 
f 63/63/211 62/62/212 64/64/213 65/65/214 
f 65/65/215 64/64/216 66/66/217 67/67/218 
f 67/67/219 66/66/220 68/68/221 69/69/222 
f 69/69/223 68/68/224 70/70/225 71/71/226 
s 2
f 60/60/227 22/22/228 62/62/229 
f 62/62/230 22/22/231 64/64/232 
f 64/64/233 22/22/234 66/66/235 
f 66/66/236 22/22/237 68/68/238 
f 68/68/239 22/22/240 70/70/241 
f 72/72/242 24/24/243 23/23/244 73/73/245 
f 73/73/246 77/77/247 76/76/248 72/72/249 
f 75/75/250 79/79/251 78/78/252 74/74/253 
s 4
f 74/74/254 78/78/255 77/77/256 73/73/257 
s 2
f 77/77/258 81/81/259 80/80/260 76/76/261 
f 79/79/262 83/83/263 82/82/264 78/78/265 
s 4
f 78/78/266 82/82/267 81/81/268 77/77/269 
s 2
f 81/81/270 85/85/271 84/84/272 80/80/273 
f 83/83/274 87/87/275 86/86/276 82/82/277 
s 4
f 82/82/278 86/86/279 85/85/280 81/81/281 
s 2
f 85/85/282 89/89/283 88/88/284 84/84/285 
f 87/87/286 91/91/287 90/90/288 86/86/289 
s 4
f 86/86/290 90/90/291 89/89/292 85/85/293 
s 2
f 89/89/294 93/93/295 92/92/296 88/88/297 
f 91/91/298 95/95/299 94/94/300 90/90/301 
s 4
f 90/90/302 94/94/303 93/93/304 89/89/305 
s 2
f 16/16/306 22/22/307 60/60/308 
s 4
f 43/43/309 93/93/310 94/94/311 46/46/312 
# 66 polygons - 16 triangles

