# 3ds Max Wavefront OBJ Exporter v0.97b - (c)2007 guruware
# File Created: 24.03.2016 15:16:27

#
# object 2555
#

v  -10.0000 10.0000 -8.0000
v  10.0000 10.0000 -8.0000
v  -10.0000 10.0000 0.0000
v  10.0000 10.0000 0.0000
v  -6.0000 6.0000 -8.0000
v  6.0000 6.0000 -8.0000
v  -6.0000 6.0000 -4.0000
v  6.0000 6.0000 -4.0000
v  10.0000 4.0000 0.0000
v  -10.0000 4.0000 0.0000
v  -8.0000 4.0000 10.0000
v  -4.0000 4.0000 10.0000
v  -3.7000 4.0000 7.5300
v  -4.0000 4.0000 6.0000
v  -3.7000 4.0000 4.4700
v  -2.8300 4.0000 3.1700
v  -1.5300 4.0000 2.3000
v  0.0000 4.0000 2.0000
v  1.5300 4.0000 2.3000
v  2.8300 4.0000 3.1700
v  3.7000 4.0000 4.4700
v  4.0000 4.0000 6.0000
v  3.7000 4.0000 7.5300
v  4.0000 4.0000 10.0000
v  8.0000 4.0000 10.0000
v  10.0000 -10.0000 -8.0000
v  -10.0000 -10.0000 -8.0000
v  -10.0000 -10.0000 0.0000
v  10.0000 -10.0000 0.0000
v  -10.0000 -4.0000 0.0000
v  6.0000 -6.0000 -8.0000
v  -6.0000 -6.0000 -8.0000
v  6.0000 -6.0000 -4.0000
v  -6.0000 -6.0000 -4.0000
v  10.0000 -4.0000 0.0000
v  -8.0000 -4.0000 10.0000
v  -4.0000 -4.0000 10.0000
v  -3.7000 -4.0000 7.5300
v  -4.0000 -4.0000 6.0000
v  -3.7000 -4.0000 4.4700
v  -2.8300 -4.0000 3.1700
v  -1.5300 -4.0000 2.3000
v  0.0000 -4.0000 2.0000
v  1.5300 -4.0000 2.3000
v  2.8300 -4.0000 3.1700
v  3.7000 -4.0000 4.4700
v  4.0000 -4.0000 6.0000
v  3.7000 -4.0000 7.5300
v  4.0000 -4.0000 10.0000
v  8.0000 -4.0000 10.0000
# 50 vertices

vn 0.0000 1.0000 0.0000
vn 0.0000 1.0000 0.0000
vn 0.0000 1.0000 0.0000
vn 0.0000 1.0000 0.0000
vn -1.0000 0.0000 0.0000
vn -1.0000 0.0000 0.0000
vn -1.0000 0.0000 0.0000
vn 0.0000 0.0000 -1.0000
vn 0.0000 0.0000 -1.0000
vn 0.0000 0.0000 -1.0000
vn 0.0000 0.0000 -1.0000
vn 0.0000 -1.0000 0.0000
vn 0.0000 -1.0000 0.0000
vn 0.0000 -1.0000 0.0000
vn 0.0000 -1.0000 0.0000
vn 0.0000 0.0000 1.0000
vn 0.0000 0.0000 1.0000
vn 0.0000 0.0000 1.0000
vn 0.0000 0.0000 1.0000
vn 1.0000 0.0000 0.0000
vn 1.0000 0.0000 0.0000
vn 1.0000 0.0000 0.0000
vn 1.0000 0.0000 0.0000
vn 0.9993 0.0000 -0.0364
vn 0.9993 0.0000 -0.0364
vn 1.0000 0.0000 0.0000
vn -0.7071 0.0000 0.7071
vn -0.7071 0.0000 0.7071
vn -0.3818 0.0000 0.9243
vn -0.3818 0.0000 0.9243
vn 0.0000 0.0000 1.0000
vn 0.0000 0.0000 1.0000
vn 0.0000 0.0000 1.0000
vn 0.0000 0.0000 1.0000
vn 0.9806 0.0000 0.1961
vn 0.9806 0.0000 0.1961
vn 0.9806 0.0000 0.1961
vn 0.9806 0.0000 0.1961
vn 0.0000 1.0000 0.0000
vn 0.0000 1.0000 0.0000
vn 0.0000 1.0000 0.0000
vn 0.0000 1.0000 0.0000
vn 0.0000 1.0000 0.0000
vn 0.0000 1.0000 0.0000
vn 0.0000 1.0000 0.0000
vn 0.0000 1.0000 0.0000
vn 0.0000 1.0000 0.0000
vn 1.0000 0.0000 0.0000
vn 1.0000 0.0000 0.0000
vn 1.0000 0.0000 0.0000
vn 1.0000 0.0000 0.0000
vn 0.0000 1.0000 0.0000
vn 0.0000 1.0000 0.0000
vn 0.0000 1.0000 0.0000
vn 0.0000 1.0000 0.0000
vn 0.0000 1.0000 0.0000
vn 0.0000 1.0000 0.0000
vn 0.0000 1.0000 0.0000
vn 0.0000 1.0000 0.0000
vn 0.0000 1.0000 0.0000
vn 0.0000 1.0000 0.0000
vn 0.0000 1.0000 0.0000
vn 0.0000 1.0000 0.0000
vn 0.0000 1.0000 0.0000
vn 0.0000 1.0000 0.0000
vn 0.0000 1.0000 0.0000
vn 0.0000 1.0000 0.0000
vn 0.0000 1.0000 0.0000
vn 0.0000 1.0000 0.0000
vn 0.0000 1.0000 0.0000
vn 0.0000 1.0000 0.0000
vn 0.0000 1.0000 0.0000
vn 0.0000 1.0000 0.0000
vn 0.0000 1.0000 0.0000
vn 0.0000 1.0000 0.0000
vn 0.0000 1.0000 0.0000
vn 0.0000 1.0000 0.0000
vn 0.0000 1.0000 0.0000
vn 0.0000 1.0000 0.0000
vn 0.0000 1.0000 0.0000
vn 0.0000 1.0000 0.0000
vn 0.0000 1.0000 0.0000
vn 0.0000 1.0000 0.0000
vn 0.0000 1.0000 0.0000
vn 0.0000 1.0000 0.0000
vn 0.0000 1.0000 0.0000
vn 0.0000 1.0000 0.0000
vn 0.0000 -1.0000 0.0000
vn 0.0000 -1.0000 0.0000
vn 0.0000 -1.0000 0.0000
vn 0.0000 -1.0000 0.0000
vn -1.0000 0.0000 0.0000
vn -1.0000 0.0000 0.0000
vn -1.0000 0.0000 0.0000
vn 0.0000 0.0000 -1.0000
vn 0.0000 0.0000 -1.0000
vn 0.0000 0.0000 -1.0000
vn 0.0000 0.0000 -1.0000
vn 0.0000 0.0000 -1.0000
vn 0.0000 0.0000 -1.0000
vn 0.0000 0.0000 -1.0000
vn 0.0000 0.0000 -1.0000
vn 0.0000 1.0000 0.0000
vn 0.0000 1.0000 0.0000
vn 0.0000 1.0000 0.0000
vn 0.0000 1.0000 0.0000
vn -1.0000 0.0000 0.0000
vn -1.0000 0.0000 0.0000
vn -1.0000 0.0000 0.0000
vn -1.0000 0.0000 0.0000
vn 0.0000 0.0000 1.0000
vn 0.0000 0.0000 1.0000
vn 0.0000 0.0000 1.0000
vn 0.0000 0.0000 1.0000
vn -1.0000 0.0000 0.0000
vn -1.0000 0.0000 0.0000
vn -1.0000 0.0000 0.0000
vn -1.0000 0.0000 0.0000
vn 1.0000 0.0000 0.0000
vn 1.0000 0.0000 0.0000
vn 1.0000 0.0000 0.0000
vn -0.9806 0.0000 0.1961
vn -0.9806 0.0000 0.1961
vn -0.9806 0.0000 0.1961
vn -0.9806 0.0000 0.1961
vn 0.0000 0.0000 1.0000
vn 0.0000 0.0000 1.0000
vn 0.0000 0.0000 1.0000
vn 0.0000 0.0000 1.0000
vn 0.9927 0.0000 0.1206
vn 0.9927 0.0000 0.1206
vn 0.9993 0.0000 -0.0364
vn 0.9993 0.0000 -0.0364
vn 1.0000 0.0000 0.0000
vn 1.0000 0.0000 0.0000
vn 0.9243 0.0000 0.3818
vn 0.9243 0.0000 0.3818
vn 0.9243 0.0000 0.3818
vn 0.9243 0.0000 0.3818
vn 0.7071 0.0000 0.7071
vn 0.7071 0.0000 0.7071
vn 0.7071 0.0000 0.7071
vn 0.7071 0.0000 0.7071
vn 0.3818 0.0000 0.9243
vn 0.3818 0.0000 0.9243
vn 0.3818 0.0000 0.9243
vn 0.3818 0.0000 0.9243
vn 0.0000 0.0000 1.0000
vn 0.0000 0.0000 1.0000
vn 0.0000 0.0000 1.0000
vn 0.0000 0.0000 1.0000
vn -0.3818 0.0000 0.9243
vn -0.3818 0.0000 0.9243
vn -0.9243 0.0000 0.3818
vn -0.7071 0.0000 0.7071
vn -0.7071 0.0000 0.7071
vn -0.9243 0.0000 0.3818
vn -0.9243 0.0000 0.3818
vn -0.9243 0.0000 0.3818
vn -1.0000 0.0000 0.0000
vn -1.0000 0.0000 0.0000
vn -1.0000 0.0000 0.0000
vn -1.0000 0.0000 0.0000
vn -0.9993 0.0000 -0.0364
vn -0.9993 0.0000 -0.0364
vn -0.9993 0.0000 -0.0364
vn -0.9993 0.0000 -0.0364
vn -0.9927 0.0000 0.1206
vn -0.9927 0.0000 0.1206
vn 0.0000 -1.0000 0.0000
vn 0.0000 -1.0000 0.0000
vn 0.0000 -1.0000 0.0000
vn 0.0000 -1.0000 0.0000
vn 0.0000 -1.0000 0.0000
vn 0.0000 -1.0000 0.0000
vn 0.0000 -1.0000 0.0000
vn 0.0000 -1.0000 0.0000
vn 0.0000 -1.0000 0.0000
vn 0.0000 0.0000 -1.0000
vn 0.0000 0.0000 -1.0000
vn 0.0000 0.0000 -1.0000
vn 0.0000 0.0000 -1.0000
vn 0.0000 0.0000 -1.0000
vn 0.0000 0.0000 -1.0000
vn 0.0000 0.0000 -1.0000
vn 0.0000 0.0000 -1.0000
vn 1.0000 0.0000 0.0000
vn 1.0000 0.0000 0.0000
vn 1.0000 0.0000 0.0000
vn 1.0000 0.0000 0.0000
vn 0.0000 -1.0000 0.0000
vn 0.0000 -1.0000 0.0000
vn 0.0000 -1.0000 0.0000
vn 0.0000 -1.0000 0.0000
vn 0.0000 -1.0000 0.0000
vn 0.0000 -1.0000 0.0000
vn 0.0000 -1.0000 0.0000
vn 0.0000 -1.0000 0.0000
vn 0.0000 -1.0000 0.0000
vn 0.0000 -1.0000 0.0000
vn 0.0000 -1.0000 0.0000
vn 0.0000 -1.0000 0.0000
vn 0.0000 -1.0000 0.0000
vn 0.0000 -1.0000 0.0000
vn 0.0000 -1.0000 0.0000
vn 0.0000 -1.0000 0.0000
vn 0.0000 -1.0000 0.0000
vn 0.0000 -1.0000 0.0000
vn 0.0000 -1.0000 0.0000
vn 0.0000 -1.0000 0.0000
vn 0.0000 -1.0000 0.0000
vn 0.0000 -1.0000 0.0000
vn 0.0000 -1.0000 0.0000
vn 0.0000 -1.0000 0.0000
vn 0.0000 -1.0000 0.0000
vn 0.0000 -1.0000 0.0000
vn 0.0000 -1.0000 0.0000
vn 0.0000 -1.0000 0.0000
vn 0.0000 -1.0000 0.0000
vn 0.0000 -1.0000 0.0000
vn 0.0000 -1.0000 0.0000
vn 0.0000 -1.0000 0.0000
vn 0.0000 -1.0000 0.0000
vn 0.0000 -1.0000 0.0000
vn 0.0000 -1.0000 0.0000
vn 0.0000 -1.0000 0.0000
# 226 vertex normals

vt 0.1000 0.9000 0.0000
vt 0.9000 0.9000 0.0000
vt 0.1000 0.9000 0.4444
vt 0.9000 0.9000 0.4444
vt 0.2600 0.7400 0.0000
vt 0.7400 0.7400 0.0000
vt 0.2600 0.7400 0.2222
vt 0.7400 0.7400 0.2222
vt 0.9000 0.6600 0.4444
vt 0.1000 0.6600 0.4444
vt 0.1800 0.6600 1.0000
vt 0.3400 0.6600 1.0000
vt 0.3520 0.6600 0.8628
vt 0.3400 0.6600 0.7778
vt 0.3520 0.6600 0.6928
vt 0.3868 0.6600 0.6206
vt 0.4388 0.6600 0.5722
vt 0.5000 0.6600 0.5556
vt 0.5612 0.6600 0.5722
vt 0.6132 0.6600 0.6206
vt 0.6480 0.6600 0.6928
vt 0.6600 0.6600 0.7778
vt 0.6480 0.6600 0.8628
vt 0.6600 0.6600 1.0000
vt 0.8200 0.6600 1.0000
vt 0.9000 0.1000 0.0000
vt 0.1000 0.1000 0.0000
vt 0.1000 0.1000 0.4444
vt 0.9000 0.1000 0.4444
vt 0.1000 0.3400 0.4444
vt 0.7400 0.2600 0.0000
vt 0.2600 0.2600 0.0000
vt 0.7400 0.2600 0.2222
vt 0.2600 0.2600 0.2222
vt 0.9000 0.3400 0.4444
vt 0.1800 0.3400 1.0000
vt 0.3400 0.3400 1.0000
vt 0.3520 0.3400 0.8628
vt 0.3400 0.3400 0.7778
vt 0.3520 0.3400 0.6928
vt 0.3868 0.3400 0.6206
vt 0.4388 0.3400 0.5722
vt 0.5000 0.3400 0.5556
vt 0.5612 0.3400 0.5722
vt 0.6132 0.3400 0.6206
vt 0.6480 0.3400 0.6928
vt 0.6600 0.3400 0.7778
vt 0.6480 0.3400 0.8628
vt 0.6600 0.3400 1.0000
vt 0.8200 0.3400 1.0000
# 50 texture coords

g 2555
s 1
f 3/3/1 4/4/2 2/2/3 1/1/4 
s 2
f 1/1/5 10/10/6 3/3/7 
s 4
f 6/6/8 5/5/9 1/1/10 2/2/11 
s 1
f 8/8/12 7/7/13 5/5/14 6/6/15 
s 4
f 10/10/16 9/9/17 4/4/18 3/3/19 
s 2
f 2/2/20 4/4/21 9/9/22 
s 1
f 14/14/23 13/13/24 38/38/25 39/39/26 
f 45/45/27 20/20/28 19/19/29 44/44/30 
s 4
f 50/50/31 25/25/32 24/24/33 49/49/34 
s 1
f 9/9/35 25/25/36 50/50/37 35/35/38 
s 8
f 10/10/39 18/18/40 9/9/41 
f 11/11/42 12/12/43 13/13/44 
f 23/23/45 24/24/46 25/25/47 
s 2
f 35/35/48 26/26/49 2/2/50 9/9/51 
s 8
f 21/21/52 22/22/53 9/9/54 
f 22/22/55 25/25/56 9/9/57 
f 20/20/58 21/21/59 9/9/60 
f 19/19/61 20/20/62 9/9/63 
f 10/10/64 11/11/65 14/14/66 
f 10/10/67 14/14/68 15/15/69 
f 10/10/70 15/15/71 16/16/72 
f 10/10/73 16/16/74 17/17/75 
f 18/18/76 19/19/77 9/9/78 
f 10/10/79 17/17/80 18/18/81 
f 11/11/82 13/13/83 14/14/84 
f 22/22/85 23/23/86 25/25/87 
s 1
f 28/28/88 27/27/89 26/26/90 29/29/91 
s 2
f 27/27/92 28/28/93 30/30/94 
s 4
f 31/31/95 26/26/96 27/27/97 32/32/98 
f 2/2/99 26/26/100 31/31/101 6/6/102 
s 1
f 33/33/103 31/31/104 32/32/105 34/34/106 
s 2
f 6/6/107 31/31/108 33/33/109 8/8/110 
s 4
f 30/30/111 28/28/112 29/29/113 35/35/114 
s 2
f 1/1/115 27/27/116 30/30/117 10/10/118 
f 26/26/119 35/35/120 29/29/121 
s 1
f 10/10/122 30/30/123 36/36/124 11/11/125 
s 4
f 11/11/126 36/36/127 37/37/128 12/12/129 
s 1
f 12/12/130 37/37/131 38/38/132 13/13/133 
f 14/14/134 39/39/135 40/40/136 15/15/137 
f 15/15/138 40/40/139 41/41/140 16/16/141 
f 16/16/142 41/41/143 42/42/144 17/17/145 
f 17/17/146 42/42/147 43/43/148 18/18/149 
f 18/18/150 43/43/151 44/44/152 19/19/153 
f 21/21/154 20/20/155 45/45/156 46/46/157 
f 21/21/158 46/46/159 47/47/160 22/22/161 
f 22/22/162 47/47/163 48/48/164 23/23/165 
f 23/23/166 48/48/167 49/49/168 24/24/169 
s 8
f 30/30/170 35/35/171 43/43/172 
f 36/36/173 38/38/174 37/37/175 
f 48/48/176 50/50/177 49/49/178 
s 4
f 34/34/179 7/7/180 8/8/181 33/33/182 
f 32/32/183 27/27/184 1/1/185 5/5/186 
s 2
f 32/32/187 5/5/188 7/7/189 34/34/190 
s 8
f 46/46/191 35/35/192 47/47/193 
f 47/47/194 35/35/195 50/50/196 
f 45/45/197 35/35/198 46/46/199 
f 44/44/200 35/35/201 45/45/202 
f 30/30/203 39/39/204 36/36/205 
f 30/30/206 40/40/207 39/39/208 
f 30/30/209 41/41/210 40/40/211 
f 30/30/212 42/42/213 41/41/214 
f 43/43/215 35/35/216 44/44/217 
f 30/30/218 43/43/219 42/42/220 
f 36/36/221 39/39/222 38/38/223 
f 47/47/224 50/50/225 48/48/226 
# 31 polygons - 34 triangles

