# 3ds Max Wavefront OBJ Exporter v0.97b - (c)2007 guruware
# File Created: 20.03.2016 14:05:01

#
# object 44676
#

v  -2.0000 50.0000 -40.0000
v  2.0000 50.0000 -40.0000
v  -2.0000 10.0000 0.0000
v  2.0000 10.0000 0.0000
v  -2.0000 50.0000 -22.0000
v  2.0000 50.0000 -22.0000
v  2.0000 10.0000 -8.0000
v  -2.0000 10.0000 -8.0000
v  4.0000 0.0000 -40.0000
v  2.7321 2.7321 -40.0000
v  0.0000 4.0000 -40.0000
v  -2.7320 2.7321 -40.0000
v  -4.0000 0.0000 -40.0000
v  4.0000 0.0000 -32.0000
v  2.7321 2.7321 -32.0000
v  0.0000 4.0000 -32.0000
v  -2.7320 2.7321 -32.0000
v  -4.0000 0.0000 -32.0000
v  3.5000 -4.0000 -40.0000
v  3.5000 -4.0000 -32.0000
v  -3.5000 -4.0000 -40.0000
v  -3.5000 -4.0000 -32.0000
v  -5.5000 -4.0000 -40.0000
v  -5.5000 -4.0000 -32.0000
v  -6.0000 0.0000 -40.0000
v  -6.0000 0.0000 -32.0000
v  -5.5200 2.2800 -40.0000
v  -5.5200 2.2800 -32.0000
v  -2.0000 10.0000 -40.0000
v  -2.0000 10.0000 -32.0000
v  5.5000 -4.0000 -40.0000
v  5.5000 -4.0000 -32.0000
v  6.0000 0.0000 -40.0000
v  6.0000 0.0000 -32.0000
v  5.5200 2.2800 -40.0000
v  5.5200 2.2800 -32.0000
v  2.0000 10.0000 -40.0000
v  2.0000 10.0000 -32.0000
v  4.0000 0.0000 -8.0000
v  4.0000 0.0000 0.0000
v  2.7321 2.7321 0.0000
v  2.7321 2.7321 -8.0000
v  0.0000 4.0000 0.0000
v  0.0000 4.0000 -8.0000
v  -2.7320 2.7321 0.0000
v  -2.7320 2.7321 -8.0000
v  -4.0000 0.0000 0.0000
v  -4.0000 0.0000 -8.0000
v  3.5000 -4.0000 -8.0000
v  3.5000 -4.0000 0.0000
v  -3.5000 -4.0000 0.0000
v  -3.5000 -4.0000 -8.0000
v  -5.5000 -4.0000 0.0000
v  -5.5000 -4.0000 -8.0000
v  -6.0000 0.0000 0.0000
v  -6.0000 0.0000 -8.0000
v  -5.5200 2.2800 0.0000
v  -5.5200 2.2800 -8.0000
v  5.5000 -4.0000 -8.0000
v  5.5000 -4.0000 0.0000
v  6.0000 0.0000 -8.0000
v  6.0000 0.0000 0.0000
v  5.5200 2.2800 -8.0000
v  5.5200 2.2800 0.0000
# 64 vertices

vn 0.0000 0.0000 -1.0000
vn 0.0000 0.0000 -1.0000
vn 0.0000 0.0000 -1.0000
vn 0.0000 0.0000 -1.0000
vn 0.0000 0.4819 0.8762
vn 0.0000 0.4819 0.8762
vn 0.0000 0.4819 0.8762
vn 0.0000 0.4819 0.8762
vn 0.0000 -1.0000 0.0000
vn 0.0000 -1.0000 0.0000
vn 0.0000 -1.0000 0.0000
vn 0.0000 -1.0000 0.0000
vn 1.0000 0.0000 0.0000
vn 1.0000 0.0000 0.0000
vn 1.0000 0.0000 0.0000
vn 1.0000 0.0000 0.0000
vn 0.0000 1.0000 0.0000
vn 0.0000 1.0000 0.0000
vn 0.0000 1.0000 0.0000
vn 0.0000 1.0000 0.0000
vn -1.0000 -0.0000 0.0000
vn -1.0000 -0.0000 0.0000
vn -1.0000 -0.0000 -0.0000
vn -1.0000 -0.0000 -0.0000
vn -1.0000 -0.0000 -0.0000
vn -1.0000 -0.0000 0.0000
vn -1.0000 -0.0000 -0.0000
vn 1.0000 0.0000 0.0000
vn 1.0000 0.0000 0.0000
vn 1.0000 0.0000 0.0000
vn 1.0000 0.0000 0.0000
vn 1.0000 0.0000 0.0000
vn 1.0000 0.0000 0.0000
vn -1.0000 -0.0000 -0.0000
vn -1.0000 -0.0000 -0.0000
vn -1.0000 -0.0000 -0.0000
vn -0.9880 -0.1545 0.0000
vn -0.9880 -0.1545 0.0000
vn -0.7071 -0.7071 0.0000
vn -0.7071 -0.7071 0.0000
vn -0.7071 -0.7071 0.0000
vn -0.7071 -0.7071 0.0000
vn 0.0000 -1.0000 0.0000
vn 0.0000 -1.0000 0.0000
vn 0.0000 -1.0000 0.0000
vn 0.0000 -1.0000 0.0000
vn 0.7071 -0.7071 0.0000
vn 0.7071 -0.7071 0.0000
vn 0.7071 -0.7071 0.0000
vn 0.7071 -0.7071 0.0000
vn 0.9880 -0.1545 0.0000
vn 0.9880 -0.1545 0.0000
vn -0.9880 -0.1545 0.0000
vn -0.9880 -0.1545 0.0000
vn -0.9923 0.1240 0.0000
vn -0.9923 0.1240 0.0000
vn 0.9880 -0.1545 0.0000
vn 0.9880 -0.1545 0.0000
vn 0.9923 0.1240 0.0000
vn 0.9923 0.1240 0.0000
vn 0.0000 -1.0000 0.0000
vn 0.0000 -1.0000 0.0000
vn 0.0000 -1.0000 0.0000
vn 0.0000 -1.0000 0.0000
vn -0.9923 -0.1240 0.0000
vn -0.9923 -0.1240 0.0000
vn -0.9991 0.0416 0.0000
vn -0.9991 0.0416 0.0000
vn -0.9991 0.0416 0.0000
vn -0.9991 0.0416 0.0000
vn -0.9500 0.3123 0.0000
vn -0.9500 0.3123 0.0000
vn -0.9500 0.3123 0.0000
vn -0.9500 0.3123 0.0000
vn -0.9099 0.4149 0.0000
vn -0.9099 0.4149 0.0000
vn 0.0000 -1.0000 0.0000
vn 0.0000 -1.0000 0.0000
vn 0.0000 -1.0000 0.0000
vn 0.0000 -1.0000 0.0000
vn 0.9923 -0.1240 0.0000
vn 0.9923 -0.1240 0.0000
vn 0.9991 0.0416 0.0000
vn 0.9991 0.0416 0.0000
vn 0.9991 0.0416 0.0000
vn 0.9991 0.0416 0.0000
vn 0.9500 0.3123 0.0000
vn 0.9500 0.3123 0.0000
vn 0.9500 0.3123 0.0000
vn 0.9500 0.3123 0.0000
vn 0.9099 0.4149 0.0000
vn 0.9099 0.4149 0.0000
vn 0.0000 0.0000 -1.0000
vn -0.0000 0.0000 -1.0000
vn -0.0000 0.0000 -1.0000
vn 0.0000 0.0000 1.0000
vn 0.0000 0.0000 1.0000
vn 0.0000 0.0000 1.0000
vn 0.0000 0.0000 -1.0000
vn 0.0000 0.0000 -1.0000
vn 0.0000 0.0000 -1.0000
vn 0.0000 0.0000 -1.0000
vn 0.0000 0.0000 -1.0000
vn 0.0000 0.0000 -1.0000
vn 0.0000 0.0000 -1.0000
vn 0.0000 0.0000 -1.0000
vn -0.0000 0.0000 -1.0000
vn 0.0000 0.0000 -1.0000
vn 0.0000 0.0000 -1.0000
vn -0.0000 0.0000 -1.0000
vn 0.0000 0.0000 -1.0000
vn 0.0000 0.0000 -1.0000
vn 0.0000 0.0000 -1.0000
vn 0.0000 0.0000 -1.0000
vn 0.0000 0.0000 1.0000
vn 0.0000 0.0000 1.0000
vn 0.0000 0.0000 1.0000
vn 0.0000 0.0000 1.0000
vn 0.0000 0.0000 1.0000
vn 0.0000 0.0000 1.0000
vn 0.0000 0.0000 1.0000
vn 0.0000 0.0000 1.0000
vn 0.0000 0.0000 1.0000
vn 0.0000 0.0000 1.0000
vn 0.0000 0.0000 1.0000
vn 0.0000 0.0000 1.0000
vn 0.0000 0.0000 1.0000
vn 0.0000 0.0000 1.0000
vn 0.0000 0.0000 1.0000
vn 0.0000 0.0000 1.0000
vn 0.0000 0.0000 1.0000
vn 0.0000 0.0000 1.0000
vn 0.0000 0.0000 1.0000
vn 0.0000 0.0000 1.0000
vn 0.0000 0.0000 1.0000
vn 0.0000 0.0000 1.0000
vn -0.0000 0.0000 -1.0000
vn -0.0000 0.0000 -1.0000
vn -0.0000 0.0000 -1.0000
vn 0.0000 0.0000 -1.0000
vn 0.0000 0.0000 -1.0000
vn 0.0000 0.0000 -1.0000
vn 0.0000 0.0000 1.0000
vn 0.0000 0.0000 1.0000
vn 0.0000 0.0000 1.0000
vn 0.0000 0.0000 1.0000
vn 0.0000 0.0000 1.0000
vn 0.0000 0.0000 1.0000
vn 0.0000 0.0000 -1.0000
vn 0.0000 0.0000 -1.0000
vn -0.0000 0.0000 -1.0000
vn -0.0000 0.0000 -1.0000
vn -0.0000 0.0000 -1.0000
vn -0.0000 0.0000 -1.0000
vn -0.9880 -0.1545 0.0000
vn -0.9880 -0.1545 0.0000
vn -0.7071 -0.7071 0.0000
vn -0.7071 -0.7071 0.0000
vn -0.7071 -0.7071 0.0000
vn -0.7071 -0.7071 0.0000
vn 0.0000 -1.0000 0.0000
vn 0.0000 -1.0000 0.0000
vn 0.0000 -1.0000 0.0000
vn 0.0000 -1.0000 0.0000
vn 0.7071 -0.7071 0.0000
vn 0.7071 -0.7071 0.0000
vn 0.7071 -0.7071 0.0000
vn 0.7071 -0.7071 0.0000
vn 0.9880 -0.1545 0.0000
vn 0.9880 -0.1545 0.0000
vn -0.9880 -0.1545 0.0000
vn -0.9880 -0.1545 0.0000
vn -0.9923 0.1240 0.0000
vn -0.9923 0.1240 0.0000
vn 0.9880 -0.1545 0.0000
vn 0.9880 -0.1545 0.0000
vn 0.9923 0.1240 0.0000
vn 0.9923 0.1240 0.0000
vn 0.0000 -1.0000 0.0000
vn 0.0000 -1.0000 0.0000
vn 0.0000 -1.0000 0.0000
vn 0.0000 -1.0000 0.0000
vn -0.9923 -0.1240 0.0000
vn -0.9923 -0.1240 0.0000
vn -0.9991 0.0416 0.0000
vn -0.9991 0.0416 0.0000
vn -0.9991 0.0416 0.0000
vn -0.9991 0.0416 0.0000
vn -0.9500 0.3123 0.0000
vn -0.9500 0.3123 0.0000
vn -0.9500 0.3123 0.0000
vn -0.9500 0.3123 0.0000
vn -0.9099 0.4149 0.0000
vn -0.9099 0.4149 0.0000
vn 0.0000 -1.0000 0.0000
vn 0.0000 -1.0000 0.0000
vn 0.0000 -1.0000 0.0000
vn 0.0000 -1.0000 0.0000
vn 0.9923 -0.1240 0.0000
vn 0.9923 -0.1240 0.0000
vn 0.9991 0.0416 0.0000
vn 0.9991 0.0416 0.0000
vn 0.9991 0.0416 0.0000
vn 0.9991 0.0416 0.0000
vn 0.9500 0.3123 0.0000
vn 0.9500 0.3123 0.0000
vn 0.9500 0.3123 0.0000
vn 0.9500 0.3123 0.0000
vn 0.9099 0.4149 0.0000
vn 0.9099 0.4149 0.0000
vn -0.0000 -0.0000 -1.0000
vn 0.0000 -0.0000 -1.0000
vn 0.0000 -0.0000 -1.0000
vn 0.0000 0.0000 1.0000
vn 0.0000 0.0000 1.0000
vn 0.0000 0.0000 1.0000
vn 0.0000 0.0000 -1.0000
vn 0.0000 0.0000 -1.0000
vn 0.0000 0.0000 -1.0000
vn 0.0000 0.0000 -1.0000
vn -0.0000 -0.0000 -1.0000
vn 0.0000 0.0000 -1.0000
vn 0.0000 0.0000 -1.0000
vn -0.0000 -0.0000 -1.0000
vn 0.0000 -0.0000 -1.0000
vn 0.0000 0.0000 -1.0000
vn 0.0000 0.0000 -1.0000
vn 0.0000 -0.0000 -1.0000
vn 0.0000 0.0000 -1.0000
vn 0.0000 0.0000 -1.0000
vn 0.0000 0.0000 -1.0000
vn 0.0000 0.0000 -1.0000
vn 0.0000 0.0000 1.0000
vn 0.0000 0.0000 1.0000
vn 0.0000 0.0000 1.0000
vn 0.0000 0.0000 1.0000
vn 0.0000 0.0000 1.0000
vn 0.0000 0.0000 1.0000
vn 0.0000 0.0000 1.0000
vn 0.0000 0.0000 1.0000
vn 0.0000 0.0000 1.0000
vn 0.0000 0.0000 1.0000
vn 0.0000 0.0000 1.0000
vn 0.0000 0.0000 1.0000
vn 0.0000 0.0000 1.0000
vn 0.0000 0.0000 1.0000
vn 0.0000 0.0000 1.0000
vn 0.0000 0.0000 1.0000
vn 0.0000 0.0000 1.0000
vn 0.0000 0.0000 1.0000
vn 0.0000 0.0000 1.0000
vn 0.0000 0.0000 1.0000
vn 0.0000 0.0000 1.0000
vn 0.0000 0.0000 1.0000
vn 0.0000 -0.0000 -1.0000
vn 0.0000 -0.0000 -1.0000
vn 0.0000 -0.0000 -1.0000
vn -0.0000 -0.0000 -1.0000
vn -0.0000 -0.0000 -1.0000
vn -0.0000 -0.0000 -1.0000
vn 0.0000 0.0000 1.0000
vn 0.0000 0.0000 1.0000
vn 0.0000 0.0000 1.0000
vn 0.0000 0.0000 1.0000
vn 0.0000 0.0000 1.0000
vn 0.0000 0.0000 1.0000
vn -0.0000 -0.0000 -1.0000
vn -0.0000 -0.0000 -1.0000
vn 0.0000 -0.0000 -1.0000
vn 0.0000 -0.0000 -1.0000
vn 0.0000 -0.0000 -1.0000
vn 0.0000 -0.0000 -1.0000
# 272 vertex normals

vt 0.0429 0.9800 0.6667
vt 0.0429 0.9800 0.3333
vt 0.9571 0.2689 0.6667
vt 0.9571 0.2689 0.3333
vt 0.4543 0.9800 0.6667
vt 0.4543 0.9800 0.3333
vt 0.7743 0.2689 0.3333
vt 0.7743 0.2689 0.6667
vt 0.0429 0.0911 0.1667
vt 0.0429 0.1397 0.2723
vt 0.0429 0.1622 0.5000
vt 0.0429 0.1397 0.7277
vt 0.0429 0.0911 0.8333
vt 0.2257 0.0911 0.1667
vt 0.2257 0.1397 0.2723
vt 0.2257 0.1622 0.5000
vt 0.2257 0.1397 0.7277
vt 0.2257 0.0911 0.8333
vt 0.0429 0.0200 0.2083
vt 0.2257 0.0200 0.2083
vt 0.0429 0.0200 0.7917
vt 0.2257 0.0200 0.7917
vt 0.0429 0.0200 0.9583
vt 0.2257 0.0200 0.9583
vt 0.0429 0.0911 1.0000
vt 0.2257 0.0911 1.0000
vt 0.0429 0.1316 0.9600
vt 0.2257 0.1316 0.9600
vt 0.0429 0.2689 0.6667
vt 0.2257 0.2689 0.6667
vt 0.0429 0.0200 0.0417
vt 0.2257 0.0200 0.0417
vt 0.0429 0.0911 0.0000
vt 0.2257 0.0911 0.0000
vt 0.0429 0.1316 0.0400
vt 0.2257 0.1316 0.0400
vt 0.0429 0.2689 0.3333
vt 0.2257 0.2689 0.3333
vt 0.7743 0.0911 0.1667
vt 0.9571 0.0911 0.1667
vt 0.9571 0.1397 0.2723
vt 0.7743 0.1397 0.2723
vt 0.9571 0.1622 0.5000
vt 0.7743 0.1622 0.5000
vt 0.9571 0.1397 0.7277
vt 0.7743 0.1397 0.7277
vt 0.9571 0.0911 0.8333
vt 0.7743 0.0911 0.8333
vt 0.7743 0.0200 0.2083
vt 0.9571 0.0200 0.2083
vt 0.9571 0.0200 0.7917
vt 0.7743 0.0200 0.7917
vt 0.9571 0.0200 0.9583
vt 0.7743 0.0200 0.9583
vt 0.9571 0.0911 1.0000
vt 0.7743 0.0911 1.0000
vt 0.9571 0.1316 0.9600
vt 0.7743 0.1316 0.9600
vt 0.7743 0.0200 0.0417
vt 0.9571 0.0200 0.0417
vt 0.7743 0.0911 0.0000
vt 0.9571 0.0911 0.0000
vt 0.7743 0.1316 0.0400
vt 0.9571 0.1316 0.0400
# 64 texture coords

g 44676
s 1
f 29/29/1 1/1/2 2/2/3 37/37/4 
f 3/3/5 4/4/6 6/6/7 5/5/8 
f 7/7/9 8/8/10 30/30/11 38/38/12 
s 2
f 37/37/13 2/2/14 6/6/15 38/38/16 
s 4
f 2/2/17 1/1/18 5/5/19 6/6/20 
s 2
f 1/1/21 29/29/22 30/30/23 5/5/24 
f 8/8/25 3/3/26 5/5/27 
f 6/6/28 4/4/29 7/7/30 
f 6/6/31 7/7/32 38/38/33 
f 30/30/34 8/8/35 5/5/36 
s 1
f 9/9/37 14/14/38 15/15/39 10/10/40 
f 10/10/41 15/15/42 16/16/43 11/11/44 
f 11/11/45 16/16/46 17/17/47 12/12/48 
f 12/12/49 17/17/50 18/18/51 13/13/52 
f 14/14/53 9/9/54 19/19/55 20/20/56 
f 13/13/57 18/18/58 22/22/59 21/21/60 
s 2
f 21/21/61 22/22/62 24/24/63 23/23/64 
s 4
f 23/23/65 24/24/66 26/26/67 25/25/68 
f 25/25/69 26/26/70 28/28/71 27/27/72 
f 27/27/73 28/28/74 30/30/75 29/29/76 
s 2
f 20/20/77 19/19/78 31/31/79 32/32/80 
s 4
f 32/32/81 31/31/82 33/33/83 34/34/84 
f 34/34/85 33/33/86 35/35/87 36/36/88 
f 36/36/89 35/35/90 37/37/91 38/38/92 
s 8
f 37/37/93 11/11/94 29/29/95 
f 30/30/96 16/16/97 38/38/98 
f 33/33/99 31/31/100 19/19/101 9/9/102 
f 35/35/103 33/33/104 9/9/105 10/10/106 
f 12/12/107 13/13/108 25/25/109 27/27/110 
f 13/13/111 21/21/112 23/23/113 25/25/114 
f 26/26/115 24/24/116 22/22/117 18/18/118 
f 28/28/119 26/26/120 18/18/121 17/17/122 
f 14/14/123 20/20/124 32/32/125 34/34/126 
f 14/14/127 34/34/128 36/36/129 15/15/130 
f 15/15/131 36/36/132 38/38/133 
f 30/30/134 28/28/135 17/17/136 
f 12/12/137 27/27/138 29/29/139 
f 37/37/140 35/35/141 10/10/142 
f 30/30/143 17/17/144 16/16/145 
f 16/16/146 15/15/147 38/38/148 
f 37/37/149 10/10/150 11/11/151 
f 11/11/152 12/12/153 29/29/154 
s 1
f 39/39/155 40/40/156 41/41/157 42/42/158 
f 42/42/159 41/41/160 43/43/161 44/44/162 
f 44/44/163 43/43/164 45/45/165 46/46/166 
f 46/46/167 45/45/168 47/47/169 48/48/170 
f 40/40/171 39/39/172 49/49/173 50/50/174 
f 48/48/175 47/47/176 51/51/177 52/52/178 
s 2
f 52/52/179 51/51/180 53/53/181 54/54/182 
s 4
f 54/54/183 53/53/184 55/55/185 56/56/186 
f 56/56/187 55/55/188 57/57/189 58/58/190 
f 58/58/191 57/57/192 3/3/193 8/8/194 
s 2
f 50/50/195 49/49/196 59/59/197 60/60/198 
s 4
f 60/60/199 59/59/200 61/61/201 62/62/202 
f 62/62/203 61/61/204 63/63/205 64/64/206 
f 64/64/207 63/63/208 7/7/209 4/4/210 
s 8
f 7/7/211 44/44/212 8/8/213 
f 3/3/214 43/43/215 4/4/216 
f 61/61/217 59/59/218 49/49/219 39/39/220 
f 63/63/221 61/61/222 39/39/223 42/42/224 
f 46/46/225 48/48/226 56/56/227 58/58/228 
f 48/48/229 52/52/230 54/54/231 56/56/232 
f 55/55/233 53/53/234 51/51/235 47/47/236 
f 57/57/237 55/55/238 47/47/239 45/45/240 
f 40/40/241 50/50/242 60/60/243 62/62/244 
f 40/40/245 62/62/246 64/64/247 41/41/248 
f 41/41/249 64/64/250 4/4/251 
f 3/3/252 57/57/253 45/45/254 
f 46/46/255 58/58/256 8/8/257 
f 7/7/258 63/63/259 42/42/260 
f 3/3/261 45/45/262 43/43/263 
f 43/43/264 41/41/265 4/4/266 
f 7/7/267 42/42/268 44/44/269 
f 44/44/270 46/46/271 8/8/272 
# 50 polygons - 24 triangles

