# 3ds Max Wavefront OBJ Exporter v0.97b - (c)2007 guruware
# File Created: 20.03.2016 14:12:29

#
# object 61678
#

v  -10.0000 20.0000 -16.0000
v  -10.0000 8.0977 -2.7635
v  -6.0000 16.0000 -16.0000
v  6.0000 16.0000 -16.0000
v  6.0000 -0.0000 -16.0000
v  -6.0000 -0.0000 -9.0000
v  6.0000 16.0000 -6.0000
v  6.0000 -0.0000 -9.0000
v  -6.0000 16.0000 -6.0000
v  -1.5000 -0.0000 -16.0000
v  -1.5000 -0.0000 -9.0000
v  1.5000 -0.0000 -9.0000
v  1.5000 4.0000 -16.0000
v  -1.5000 4.0000 -16.0000
v  -1.5000 4.0000 -8.2500
v  1.5000 4.0000 -8.2500
v  10.0000 -9.9231 -7.3421
v  -10.0000 -40.0000 -20.0000
v  10.0000 -40.0000 -20.0000
v  -10.0000 -40.0000 -24.0000
v  10.0000 -40.0000 -24.0000
v  -10.0000 0.0000 -16.0000
v  -10.0000 -0.0000 -24.0000
v  -6.0000 -0.0000 -16.0000
v  10.0000 -0.0000 -24.0000
v  1.5000 -0.0000 -16.0000
v  6.0000 -36.0000 -24.0000
v  -6.0000 -36.0000 -24.0000
v  -6.0000 -4.0000 -24.0000
v  6.0000 -4.0000 -24.0000
v  6.0000 -36.0000 -20.0000
v  -6.0000 -36.0000 -20.0000
v  6.0000 -4.0000 -12.0000
v  -6.0000 -32.0000 -20.0000
v  6.0000 -32.0000 -20.0000
v  6.0000 -20.0000 -16.0000
v  -6.0000 -20.0000 -16.0000
v  -6.0000 -4.0000 -12.0000
v  -10.0000 20.0000 -8.0000
v  -10.0000 40.0000 0.0000
v  10.0000 40.0000 0.0000
v  10.0000 40.0000 -8.0000
v  -10.0000 40.0000 -8.0000
v  -10.0000 -9.9231 -7.3421
v  -10.0000 25.9106 -0.6131
v  10.0000 20.0000 -8.0000
v  10.0000 25.9106 -0.6131
v  10.0000 0.0000 -16.0000
v  10.0000 8.0977 -2.7635
v  -10.0000 -26.3708 -13.4126
v  10.0000 -26.3708 -13.4126
v  6.0000 20.0000 -8.0000
v  -6.0000 20.0000 -8.0000
v  -6.0000 36.0000 -8.0000
v  6.0000 36.0000 -8.0000
v  10.0000 20.0000 -16.0000
v  6.0000 20.0000 -4.0000
v  -6.0000 20.0000 -4.0000
v  -6.0000 36.0000 -4.0000
v  6.0000 36.0000 -4.0000
v  1.5000 20.0000 -8.0000
v  -1.5000 20.0000 -8.0000
v  -1.5000 20.0000 -4.0000
v  1.5000 20.0000 -4.0000
v  1.5000 24.0000 -8.0000
v  -1.5000 24.0000 -8.0000
v  -1.5000 24.0000 -4.0000
v  1.5000 24.0000 -4.0000
v  -6.2983 -16.5000 -23.8000
v  -6.2983 -13.5000 -23.8000
v  -5.0000 -13.5000 -23.8000
v  -5.0000 -16.5000 -23.8000
v  -3.5000 -15.0000 -23.8000
v  -6.2983 -16.5000 -13.8298
v  -6.2983 -13.5000 -13.8298
v  -5.0000 -13.5000 -13.8298
v  -5.0000 -16.5000 -13.8298
v  -3.5000 -15.0000 -13.8298
v  -6.2983 -26.5000 -23.8000
v  -6.2983 -23.5000 -23.8000
v  -5.0000 -23.5000 -23.8000
v  -5.0000 -26.5000 -23.8000
v  -3.5000 -25.0000 -23.8000
v  -6.2983 -26.5000 -15.8316
v  -6.2983 -23.5000 -15.8316
v  -5.0000 -23.5000 -15.8316
v  -5.0000 -26.5000 -15.8316
v  -3.5000 -25.0000 -15.8316
v  6.2542 -13.5000 -23.8000
v  6.2542 -16.5000 -23.8000
v  5.0000 -16.5000 -23.8000
v  5.0000 -13.5000 -23.8000
v  3.5000 -15.0000 -23.8000
v  6.2542 -13.5000 -13.8298
v  6.2542 -16.5000 -13.8298
v  5.0000 -16.5000 -13.8298
v  5.0000 -13.5000 -13.8298
v  3.5000 -15.0000 -13.8298
v  6.2542 -23.5000 -23.8000
v  6.2542 -26.5000 -23.8000
v  5.0000 -26.5000 -23.8000
v  5.0000 -23.5000 -23.8000
v  3.5000 -25.0000 -23.8000
v  6.2542 -23.5000 -15.8316
v  6.2542 -26.5000 -15.8316
v  5.0000 -26.5000 -15.8316
v  5.0000 -23.5000 -15.8316
v  3.5000 -25.0000 -15.8316
# 108 vertices

vn 1.0000 -0.0000 0.0000
vn 1.0000 -0.0000 0.0000
vn 1.0000 -0.0000 -0.0000
vn 1.0000 -0.0000 0.0000
vn -0.0000 1.0000 0.0000
vn 0.0000 1.0000 0.0000
vn -0.0000 1.0000 0.0000
vn -1.0000 0.0000 0.0000
vn -1.0000 -0.0000 0.0000
vn -1.0000 -0.0000 0.0000
vn -1.0000 0.0000 0.0000
vn -0.0000 -0.0000 -1.0000
vn -0.0000 -0.0000 -1.0000
vn -0.0000 -0.0000 -1.0000
vn -0.0000 -0.0000 -1.0000
vn -0.0000 -0.0000 -1.0000
vn 0.0000 -0.0000 -1.0000
vn 0.0000 -0.0000 -1.0000
vn -0.0000 -0.0000 -1.0000
vn 0.0000 -0.0000 -1.0000
vn 0.0000 -0.0000 -1.0000
vn 0.0000 -0.0000 -1.0000
vn 0.0000 -0.0000 -1.0000
vn 1.0000 -0.0000 -0.0000
vn 1.0000 -0.0000 -0.0000
vn 1.0000 -0.0000 -0.0000
vn 1.0000 0.0000 -0.0000
vn 0.0000 -1.0000 -0.0000
vn 0.0000 -1.0000 0.0000
vn 0.0000 -1.0000 -0.0000
vn 0.0000 -1.0000 -0.0000
vn -1.0000 0.0000 0.0000
vn -1.0000 0.0000 0.0000
vn -1.0000 0.0000 0.0000
vn -1.0000 0.0000 0.0000
vn 0.0000 1.0000 0.0000
vn 0.0000 1.0000 0.0000
vn 0.0000 1.0000 0.0000
vn 0.0000 1.0000 0.0000
vn 0.0000 1.0000 -0.0000
vn 0.0000 1.0000 0.0000
vn 0.0000 1.0000 0.0000
vn 0.0000 1.0000 0.0000
vn 0.0000 1.0000 0.0000
vn -0.0000 1.0000 -0.0000
vn 0.0000 1.0000 0.0000
vn 0.0000 1.0000 0.0000
vn 0.0000 -0.0000 -1.0000
vn 0.0000 -0.0000 -1.0000
vn 0.0000 -0.0000 -1.0000
vn 0.0000 -0.0000 -1.0000
vn -1.0000 -0.0000 0.0000
vn -1.0000 -0.0000 -0.0000
vn -1.0000 -0.0000 0.0000
vn -1.0000 -0.0000 0.0000
vn 1.0000 -0.0000 -0.0000
vn 1.0000 -0.0000 -0.0000
vn 1.0000 -0.0000 -0.0000
vn 1.0000 0.0000 -0.0000
vn 0.0000 0.1843 -0.9829
vn 0.0000 0.1843 -0.9829
vn 0.0000 0.1843 -0.9829
vn 0.0000 0.1843 -0.9829
vn 0.0000 0.1843 -0.9829
vn -0.0000 0.1843 -0.9829
vn -0.0000 0.1843 -0.9829
vn 0.0000 0.1843 -0.9829
vn -0.0000 0.1843 -0.9829
vn 0.0000 0.1843 -0.9829
vn -0.0000 0.1843 -0.9829
vn -0.0000 0.1843 -0.9829
vn 0.0000 -0.3912 0.9203
vn 0.0000 -0.3912 0.9203
vn 0.0000 -0.4352 0.9003
vn 0.0000 -0.4352 0.9003
vn 0.0000 -1.0000 0.0000
vn 0.0000 -1.0000 0.0000
vn 0.0000 -1.0000 0.0000
vn 0.0000 -1.0000 0.0000
vn -1.0000 0.0000 0.0000
vn -1.0000 0.0000 -0.0000
vn -1.0000 -0.0000 0.0000
vn -1.0000 0.0000 0.0000
vn 1.0000 -0.0000 -0.0000
vn 1.0000 0.0000 0.0000
vn 1.0000 -0.0000 -0.0000
vn 1.0000 -0.0000 -0.0000
vn 0.0000 -0.0000 -1.0000
vn 0.0000 -0.0000 -1.0000
vn 0.0000 -0.0000 -1.0000
vn 0.0000 -0.0000 -1.0000
vn 0.0000 1.0000 -0.0000
vn 0.0000 1.0000 0.0000
vn 0.0000 1.0000 0.0000
vn -0.0000 1.0000 -0.0000
vn 0.0000 1.0000 -0.0000
vn 0.0000 1.0000 -0.0000
vn 0.0000 1.0000 -0.0000
vn -0.0000 1.0000 -0.0000
vn -0.0000 1.0000 -0.0000
vn -0.0000 1.0000 -0.0000
vn 0.0000 1.0000 -0.0000
vn 0.0000 1.0000 -0.0000
vn 0.0000 1.0000 0.0000
vn 0.0000 1.0000 0.0000
vn -0.0000 1.0000 -0.0000
vn -0.0000 1.0000 -0.0000
vn 1.0000 -0.0000 -0.0000
vn 1.0000 -0.0000 -0.0000
vn 1.0000 -0.0000 -0.0000
vn -1.0000 -0.0000 0.0000
vn -1.0000 0.0000 -0.0000
vn -1.0000 0.0000 -0.0000
vn 0.0000 0.0000 -1.0000
vn 0.0000 0.0000 -1.0000
vn 0.0000 0.0000 -1.0000
vn 0.0000 0.0000 -1.0000
vn 0.0000 0.0000 -1.0000
vn 0.0000 0.0000 -1.0000
vn 0.0000 0.0000 -1.0000
vn 0.0000 0.0000 -1.0000
vn 0.0000 0.0000 -1.0000
vn 0.0000 0.0000 -1.0000
vn 0.0000 0.0000 -1.0000
vn 0.0000 0.0000 -1.0000
vn 0.0000 0.0000 -1.0000
vn 0.0000 0.0000 -1.0000
vn 0.0000 0.0000 -1.0000
vn 0.0000 0.0000 -1.0000
vn 0.0000 1.0000 0.0000
vn 0.0000 1.0000 0.0000
vn 0.0000 1.0000 0.0000
vn 0.0000 1.0000 0.0000
vn 1.0000 0.0000 0.0000
vn 1.0000 0.0000 0.0000
vn 1.0000 0.0000 0.0000
vn 0.0000 -1.0000 0.0000
vn 0.0000 -1.0000 0.0000
vn 0.0000 -1.0000 0.0000
vn 0.0000 -1.0000 0.0000
vn 0.0000 0.2425 -0.9701
vn 0.0000 0.2425 -0.9701
vn 0.0000 0.2796 -0.9601
vn 0.0000 0.2796 -0.9601
vn 0.0000 0.3162 -0.9487
vn 0.0000 0.3162 -0.9487
vn 0.0000 0.2796 -0.9601
vn 0.0000 0.2796 -0.9601
vn 1.0000 0.0000 0.0000
vn 1.0000 -0.0000 0.0000
vn 1.0000 0.0000 0.0000
vn 1.0000 -0.0000 0.0000
vn 1.0000 0.0000 0.0000
vn 1.0000 -0.0000 -0.0000
vn -1.0000 0.0000 -0.0000
vn -1.0000 -0.0000 -0.0000
vn -1.0000 0.0000 -0.0000
vn -1.0000 0.0000 -0.0000
vn -1.0000 0.0000 -0.0000
vn -1.0000 0.0000 -0.0000
vn -1.0000 -0.0000 -0.0000
vn -1.0000 -0.0000 0.0000
vn -1.0000 -0.0000 -0.0000
vn -1.0000 0.0000 -0.0000
vn -1.0000 -0.0000 -0.0000
vn -1.0000 -0.0000 -0.0000
vn 1.0000 -0.0000 0.0000
vn 1.0000 -0.0000 -0.0000
vn 1.0000 0.0000 0.0000
vn 0.0000 1.0000 0.0000
vn 0.0000 1.0000 0.0000
vn 0.0000 1.0000 0.0000
vn 0.0000 1.0000 0.0000
vn -0.0000 -0.0817 0.9967
vn 0.0000 -0.0817 0.9967
vn 0.0000 -0.0435 0.9991
vn 0.0000 -0.0435 0.9991
vn 1.0000 -0.0000 0.0000
vn 1.0000 0.0000 0.0000
vn 1.0000 0.0000 0.0000
vn 1.0000 -0.0000 0.0000
vn -1.0000 0.0000 0.0000
vn -1.0000 -0.0000 0.0000
vn -1.0000 -0.0000 0.0000
vn -1.0000 0.0000 0.0000
vn -1.0000 -0.0000 0.0000
vn -1.0000 -0.0000 0.0000
vn -1.0000 0.0000 0.0000
vn -1.0000 -0.0000 0.0000
vn -1.0000 -0.0000 0.0000
vn -1.0000 0.0000 0.0000
vn 1.0000 -0.0000 0.0000
vn 1.0000 -0.0000 0.0000
vn 1.0000 -0.0000 0.0000
vn 1.0000 -0.0000 -0.0000
vn 1.0000 -0.0000 -0.0000
vn 1.0000 -0.0000 0.0000
vn -1.0000 0.0000 0.0000
vn -1.0000 -0.0000 0.0000
vn -1.0000 0.0000 -0.0000
vn 1.0000 -0.0000 -0.0000
vn 1.0000 -0.0000 -0.0000
vn 1.0000 -0.0000 -0.0000
vn -0.0000 -0.1834 0.9830
vn 0.0000 -0.2967 0.9550
vn -0.0000 -0.2967 0.9550
vn -0.0000 -0.1834 0.9830
vn -0.0000 -0.0817 0.9967
vn -0.0000 -0.1834 0.9830
vn -0.0000 -0.1834 0.9830
vn 0.0000 -0.0817 0.9967
vn 0.0000 -0.2967 0.9550
vn 0.0000 -0.3912 0.9203
vn 0.0000 -0.3912 0.9203
vn -0.0000 -0.2967 0.9550
vn 0.0000 0.0000 -1.0000
vn 0.0000 0.0000 -1.0000
vn 0.0000 0.0000 -1.0000
vn 0.0000 0.0000 -1.0000
vn 0.0000 0.0000 -1.0000
vn 0.0000 0.0000 -1.0000
vn 0.0000 0.0000 -1.0000
vn 0.0000 0.0000 -1.0000
vn 0.0000 0.0000 -1.0000
vn 0.0000 0.0000 -1.0000
vn 0.0000 0.0000 -1.0000
vn 0.0000 0.0000 -1.0000
vn 0.0000 1.0000 0.0000
vn 0.0000 1.0000 0.0000
vn 0.0000 1.0000 0.0000
vn -0.0000 1.0000 0.0000
vn -0.0000 1.0000 0.0000
vn -0.0000 1.0000 0.0000
vn 0.0000 1.0000 0.0000
vn 0.0000 1.0000 0.0000
vn 0.0000 1.0000 0.0000
vn 0.0000 1.0000 0.0000
vn 1.0000 -0.0000 -0.0000
vn 1.0000 -0.0000 -0.0000
vn 1.0000 -0.0000 -0.0000
vn 1.0000 -0.0000 0.0000
vn 0.0000 -1.0000 0.0000
vn 0.0000 -1.0000 0.0000
vn 0.0000 -1.0000 0.0000
vn 0.0000 -1.0000 0.0000
vn -1.0000 0.0000 0.0000
vn -1.0000 0.0000 0.0000
vn -1.0000 0.0000 0.0000
vn -1.0000 0.0000 0.0000
vn 0.0000 1.0000 0.0000
vn 0.0000 1.0000 0.0000
vn 0.0000 1.0000 0.0000
vn 0.0000 1.0000 0.0000
vn 0.0000 1.0000 0.0000
vn -0.0000 1.0000 0.0000
vn 0.0000 1.0000 0.0000
vn 0.0000 1.0000 0.0000
vn 0.0000 0.0000 -1.0000
vn 0.0000 0.0000 -1.0000
vn 0.0000 0.0000 -1.0000
vn 0.0000 0.0000 -1.0000
vn -1.0000 0.0000 0.0000
vn -1.0000 0.0000 0.0000
vn -1.0000 0.0000 0.0000
vn -1.0000 0.0000 0.0000
vn 1.0000 0.0000 0.0000
vn 1.0000 0.0000 0.0000
vn 1.0000 0.0000 0.0000
vn 1.0000 0.0000 0.0000
vn 0.0000 0.0000 -1.0000
vn 0.0000 0.0000 -1.0000
vn 0.0000 0.0000 -1.0000
vn 0.0000 0.0000 -1.0000
vn 0.0000 0.0000 -1.0000
vn 0.0000 0.0000 -1.0000
vn 0.0000 0.0000 -1.0000
vn 0.0000 0.0000 -1.0000
vn 0.0000 0.0000 -1.0000
vn 0.0000 0.0000 -1.0000
vn 0.0000 0.0000 -1.0000
vn 0.0000 0.0000 -1.0000
vn 0.0000 1.0000 0.0000
vn 0.0000 1.0000 0.0000
vn 0.0000 1.0000 0.0000
vn -0.0000 1.0000 0.0000
vn 0.0000 1.0000 0.0000
vn 0.0000 1.0000 0.0000
vn 0.0000 1.0000 0.0000
vn 0.0000 0.0000 -1.0000
vn 0.0000 0.0000 -1.0000
vn 0.0000 0.0000 -1.0000
vn 0.0000 0.0000 -1.0000
vn 0.0000 0.0000 -1.0000
vn 0.0000 0.0000 -1.0000
vn 0.0000 0.0000 -1.0000
vn 0.0000 1.0000 0.0000
vn 0.0000 1.0000 0.0000
vn 0.0000 1.0000 0.0000
vn 0.0000 1.0000 0.0000
vn -0.0000 -1.0000 0.0000
vn -0.0000 -1.0000 0.0000
vn -0.0000 -1.0000 0.0000
vn -0.0000 -1.0000 0.0000
vn 0.7071 0.7071 0.0000
vn 0.7071 0.7071 0.0000
vn 0.7071 0.7071 0.0000
vn 0.7071 0.7071 0.0000
vn 0.7071 -0.7071 0.0000
vn 0.7071 -0.7071 0.0000
vn 0.7071 -0.7071 0.0000
vn 0.7071 -0.7071 0.0000
vn 0.0000 0.0000 -1.0000
vn 0.0000 0.0000 -1.0000
vn 0.0000 0.0000 -1.0000
vn 0.0000 0.0000 -1.0000
vn 0.0000 0.0000 -1.0000
vn 0.0000 0.0000 -1.0000
vn 0.0000 0.0000 -1.0000
vn 0.0000 1.0000 0.0000
vn 0.0000 1.0000 0.0000
vn 0.0000 1.0000 0.0000
vn 0.0000 1.0000 0.0000
vn -0.0000 -1.0000 0.0000
vn -0.0000 -1.0000 0.0000
vn -0.0000 -1.0000 0.0000
vn -0.0000 -1.0000 0.0000
vn 0.7071 0.7071 0.0000
vn 0.7071 0.7071 0.0000
vn 0.7071 0.7071 0.0000
vn 0.7071 0.7071 0.0000
vn 0.7071 -0.7071 0.0000
vn 0.7071 -0.7071 0.0000
vn 0.7071 -0.7071 0.0000
vn 0.7071 -0.7071 0.0000
vn 0.0000 0.0000 -1.0000
vn 0.0000 0.0000 -1.0000
vn 0.0000 0.0000 -1.0000
vn 0.0000 0.0000 -1.0000
vn 0.0000 0.0000 -1.0000
vn 0.0000 0.0000 -1.0000
vn 0.0000 0.0000 -1.0000
vn -0.0000 -1.0000 0.0000
vn -0.0000 -1.0000 0.0000
vn -0.0000 -1.0000 0.0000
vn -0.0000 -1.0000 0.0000
vn 0.0000 1.0000 0.0000
vn 0.0000 1.0000 0.0000
vn 0.0000 1.0000 0.0000
vn 0.0000 1.0000 0.0000
vn -0.7071 -0.7071 0.0000
vn -0.7071 -0.7071 0.0000
vn -0.7071 -0.7071 0.0000
vn -0.7071 -0.7071 0.0000
vn -0.7071 0.7071 0.0000
vn -0.7071 0.7071 0.0000
vn -0.7071 0.7071 0.0000
vn -0.7071 0.7071 0.0000
vn 0.0000 0.0000 -1.0000
vn 0.0000 0.0000 -1.0000
vn 0.0000 0.0000 -1.0000
vn 0.0000 0.0000 -1.0000
vn 0.0000 0.0000 -1.0000
vn 0.0000 0.0000 -1.0000
vn 0.0000 0.0000 -1.0000
vn -0.0000 -1.0000 0.0000
vn -0.0000 -1.0000 0.0000
vn -0.0000 -1.0000 0.0000
vn -0.0000 -1.0000 0.0000
vn 0.0000 1.0000 0.0000
vn 0.0000 1.0000 0.0000
vn 0.0000 1.0000 0.0000
vn 0.0000 1.0000 0.0000
vn -0.7071 -0.7071 0.0000
vn -0.7071 -0.7071 0.0000
vn -0.7071 -0.7071 0.0000
vn -0.7071 -0.7071 0.0000
vn -0.7071 0.7071 -0.0000
vn -0.7071 0.7071 0.0000
vn -0.7071 0.7071 -0.0000
vn -0.7071 0.7071 -0.0000
# 380 vertex normals

vt 0.1000 0.7286 0.3333
vt 0.1000 0.5925 0.8849
vt 0.2600 0.6829 0.3333
vt 0.7400 0.6829 0.3333
vt 0.7400 0.5000 0.3333
vt 0.2600 0.5000 0.6250
vt 0.7400 0.6829 0.7500
vt 0.7400 0.5000 0.6250
vt 0.2600 0.6829 0.7500
vt 0.4400 0.5000 0.3333
vt 0.4400 0.5000 0.6250
vt 0.5600 0.5000 0.6250
vt 0.5600 0.5457 0.3333
vt 0.4400 0.5457 0.3333
vt 0.4400 0.5457 0.6563
vt 0.5600 0.5457 0.6563
vt 0.9000 0.3866 0.6941
vt 0.1000 0.0429 0.1667
vt 0.9000 0.0429 0.1667
vt 0.1000 0.0429 0.0000
vt 0.9000 0.0429 0.0000
vt 0.1000 0.5000 0.3333
vt 0.1000 0.5000 0.0000
vt 0.2600 0.5000 0.3333
vt 0.9000 0.5000 0.0000
vt 0.5600 0.5000 0.3333
vt 0.7400 0.0886 0.0000
vt 0.2600 0.0886 0.0000
vt 0.2600 0.4543 0.0000
vt 0.7400 0.4543 0.0000
vt 0.7400 0.0886 0.1667
vt 0.2600 0.0886 0.1667
vt 0.7400 0.4543 0.5000
vt 0.2600 0.1343 0.1667
vt 0.7400 0.1343 0.1667
vt 0.7400 0.2714 0.3333
vt 0.2600 0.2714 0.3333
vt 0.2600 0.4543 0.5000
vt 0.1000 0.7286 0.6667
vt 0.1000 0.9571 1.0000
vt 0.9000 0.9571 1.0000
vt 0.9000 0.9571 0.6667
vt 0.1000 0.9571 0.6667
vt 0.1000 0.3866 0.6941
vt 0.1000 0.7961 0.9745
vt 0.9000 0.7286 0.6667
vt 0.9000 0.7961 0.9745
vt 0.9000 0.5000 0.3333
vt 0.9000 0.5925 0.8849
vt 0.1000 0.1986 0.4411
vt 0.9000 0.1986 0.4411
vt 0.7400 0.7286 0.6667
vt 0.2600 0.7286 0.6667
vt 0.2600 0.9114 0.6667
vt 0.7400 0.9114 0.6667
vt 0.9000 0.7286 0.3333
vt 0.7400 0.7286 0.8333
vt 0.2600 0.7286 0.8333
vt 0.2600 0.9114 0.8333
vt 0.7400 0.9114 0.8333
vt 0.5600 0.7286 0.6667
vt 0.4400 0.7286 0.6667
vt 0.4400 0.7286 0.8333
vt 0.5600 0.7286 0.8333
vt 0.5600 0.7743 0.6667
vt 0.4400 0.7743 0.6667
vt 0.4400 0.7743 0.8333
vt 0.5600 0.7743 0.8333
vt 0.2481 0.3114 0.0083
vt 0.2481 0.3457 0.0083
vt 0.3000 0.3457 0.0083
vt 0.3000 0.3114 0.0083
vt 0.3600 0.3286 0.0083
vt 0.2481 0.3114 0.4238
vt 0.2481 0.3457 0.4238
vt 0.3000 0.3457 0.4238
vt 0.3000 0.3114 0.4238
vt 0.3600 0.3286 0.4238
vt 0.2481 0.1971 0.0083
vt 0.2481 0.2314 0.0083
vt 0.3000 0.2314 0.0083
vt 0.3000 0.1971 0.0083
vt 0.3600 0.2143 0.0083
vt 0.2481 0.1971 0.3404
vt 0.2481 0.2314 0.3404
vt 0.3000 0.2314 0.3404
vt 0.3000 0.1971 0.3404
vt 0.3600 0.2143 0.3404
vt 0.7502 0.3457 0.0083
vt 0.7502 0.3114 0.0083
vt 0.7000 0.3114 0.0083
vt 0.7000 0.3457 0.0083
vt 0.6400 0.3286 0.0083
vt 0.7502 0.3457 0.4238
vt 0.7502 0.3114 0.4238
vt 0.7000 0.3114 0.4238
vt 0.7000 0.3457 0.4238
vt 0.6400 0.3286 0.4238
vt 0.7502 0.2314 0.0083
vt 0.7502 0.1971 0.0083
vt 0.7000 0.1971 0.0083
vt 0.7000 0.2314 0.0083
vt 0.6400 0.2143 0.0083
vt 0.7502 0.2314 0.3404
vt 0.7502 0.1971 0.3404
vt 0.7000 0.1971 0.3404
vt 0.7000 0.2314 0.3404
vt 0.6400 0.2143 0.3404
# 108 texture coords

g 61678
s 1
f 46/46/1 49/49/2 48/48/3 56/56/4 
s 2
f 56/56/5 61/61/6 52/52/7 
s 1
f 1/1/8 22/22/9 2/2/10 39/39/11 
s 4
f 22/22/12 1/1/13 3/3/14 24/24/15 
f 1/1/16 56/56/17 4/4/18 3/3/19 
f 56/56/20 48/48/21 5/5/22 4/4/23 
s 1
f 24/24/24 3/3/25 9/9/26 6/6/27 
s 2
f 3/3/28 4/4/29 7/7/30 9/9/31 
s 1
f 4/4/32 5/5/33 8/8/34 7/7/35 
f 14/14/36 15/15/37 16/16/38 13/13/39 
s 2
f 24/24/40 6/6/41 11/11/42 10/10/43 
f 8/8/44 5/5/45 26/26/46 12/12/47 
s 4
f 26/26/48 10/10/49 14/14/50 13/13/51 
s 8
f 10/10/52 11/11/53 15/15/54 14/14/55 
f 12/12/56 26/26/57 13/13/58 16/16/59 
s 4
f 9/9/60 15/15/61 11/11/62 6/6/63 
f 9/9/64 7/7/65 16/16/66 15/15/67 
f 7/7/68 8/8/69 12/12/70 16/16/71 
s 2
f 51/51/72 50/50/73 18/18/74 19/19/75 
s 4
f 19/19/76 18/18/77 20/20/78 21/21/79 
s 1
f 20/20/80 18/18/81 22/22/82 23/23/83 
f 19/19/84 21/21/85 25/25/86 48/48/87 
s 8
f 32/32/88 34/34/89 35/35/90 31/31/91 
s 2
f 23/23/92 10/10/93 26/26/94 25/25/95 
f 23/23/96 22/22/97 24/24/98 
f 5/5/99 48/48/100 25/25/101 
f 23/23/102 24/24/103 10/10/104 
f 26/26/105 5/5/106 25/25/107 
s 1
f 48/48/108 51/51/109 19/19/110 
f 22/22/111 18/18/112 50/50/113 
s 8
f 21/21/114 20/20/115 28/28/116 27/27/117 
f 20/20/118 23/23/119 29/29/120 28/28/121 
f 23/23/122 25/25/123 30/30/124 29/29/125 
f 25/25/126 21/21/127 27/27/128 30/30/129 
s 2
f 27/27/130 28/28/131 32/32/132 31/31/133 
s 4
f 28/28/134 34/34/135 32/32/136 
s 2
f 29/29/137 30/30/138 33/33/139 38/38/140 
s 1
f 38/38/141 33/33/142 36/36/143 37/37/144 
f 35/35/145 34/34/146 37/37/147 36/36/148 
s 4
f 28/28/149 29/29/150 34/34/151 
f 29/29/152 38/38/153 37/37/154 
f 30/30/155 35/35/156 36/36/157 
f 30/30/158 36/36/159 33/33/160 
f 27/27/161 31/31/162 35/35/163 
f 30/30/164 27/27/165 35/35/166 
f 29/29/167 37/37/168 34/34/169 
f 40/40/170 41/41/171 42/42/172 43/43/173 
s 2
f 45/45/174 47/47/175 41/41/176 40/40/177 
s 1
f 46/46/178 42/42/179 41/41/180 47/47/181 
f 39/39/182 45/45/183 40/40/184 43/43/185 
f 2/2/186 22/22/187 44/44/188 
f 2/2/189 45/45/190 39/39/191 
f 49/49/192 46/46/193 47/47/194 
f 17/17/195 48/48/196 49/49/197 
f 44/44/198 22/22/199 50/50/200 
f 17/17/201 51/51/202 48/48/203 
s 2
f 2/2/204 44/44/205 17/17/206 49/49/207 
f 45/45/208 2/2/209 49/49/210 47/47/211 
f 44/44/212 50/50/213 51/51/214 17/17/215 
s 8
f 39/39/216 43/43/217 54/54/218 53/53/219 
f 43/43/220 42/42/221 55/55/222 54/54/223 
f 42/42/224 46/46/225 52/52/226 55/55/227 
s 2
f 1/1/228 39/39/229 53/53/230 
f 52/52/231 46/46/232 56/56/233 
s 1
f 66/66/234 67/67/235 68/68/236 65/65/237 
f 53/53/238 54/54/239 59/59/240 58/58/241 
s 2
f 54/54/242 55/55/243 60/60/244 59/59/245 
s 1
f 55/55/246 52/52/247 57/57/248 60/60/249 
s 2
f 53/53/250 58/58/251 63/63/252 62/62/253 
f 57/57/254 52/52/255 61/61/256 64/64/257 
s 4
f 61/61/258 62/62/259 66/66/260 65/65/261 
s 8
f 62/62/262 63/63/263 67/67/264 66/66/265 
f 64/64/266 61/61/267 65/65/268 68/68/269 
s 4
f 58/58/270 59/59/271 67/67/272 63/63/273 
f 60/60/274 57/57/275 64/64/276 68/68/277 
f 60/60/278 68/68/279 67/67/280 59/59/281 
s 2
f 1/1/282 62/62/283 61/61/284 56/56/285 
f 1/1/286 53/53/287 62/62/288 
s 1
f 69/69/289 70/70/290 71/71/291 72/72/292 
f 72/72/293 71/71/294 73/73/295 
s 4
f 71/71/296 70/70/297 75/75/298 76/76/299 
f 69/69/300 72/72/301 77/77/302 74/74/303 
s 2
f 73/73/304 71/71/305 76/76/306 78/78/307 
s 8
f 72/72/308 73/73/309 78/78/310 77/77/311 
s 1
f 79/79/312 80/80/313 81/81/314 82/82/315 
f 82/82/316 81/81/317 83/83/318 
s 4
f 81/81/319 80/80/320 85/85/321 86/86/322 
f 79/79/323 82/82/324 87/87/325 84/84/326 
s 2
f 83/83/327 81/81/328 86/86/329 88/88/330 
s 8
f 82/82/331 83/83/332 88/88/333 87/87/334 
s 1
f 89/89/335 90/90/336 91/91/337 92/92/338 
f 92/92/339 91/91/340 93/93/341 
s 4
f 91/91/342 90/90/343 95/95/344 96/96/345 
f 89/89/346 92/92/347 97/97/348 94/94/349 
s 2
f 93/93/350 91/91/351 96/96/352 98/98/353 
s 8
f 92/92/354 93/93/355 98/98/356 97/97/357 
s 1
f 99/99/358 100/100/359 101/101/360 102/102/361 
f 102/102/362 101/101/363 103/103/364 
s 4
f 101/101/365 100/100/366 105/105/367 106/106/368 
f 99/99/369 102/102/370 107/107/371 104/104/372 
s 2
f 103/103/373 101/101/374 106/106/375 108/108/376 
s 8
f 102/102/377 103/103/378 108/108/379 107/107/380 
# 74 polygons - 28 triangles

