# 3ds Max Wavefront OBJ Exporter v0.97b - (c)2007 guruware
# File Created: 20.03.2016 12:46:29

#
# object 6141
#

v  6.0000 0.0000 0.0000
v  5.1962 3.0000 0.0000
v  3.0000 5.1962 0.0000
v  -0.0000 6.0000 0.0000
v  -3.0000 5.1962 0.0000
v  -5.1962 3.0000 0.0000
v  -5.1962 -3.0000 0.0000
v  -3.0000 -5.1962 0.0000
v  3.0000 -5.1962 0.0000
v  5.1962 -3.0000 0.0000
v  -0.0000 0.0000 -3.0000
v  10.0000 -0.0000 0.0000
v  9.2400 3.8300 0.0000
v  7.0700 7.0700 0.0000
v  3.8300 9.2400 0.0000
v  -0.0000 10.0000 0.0000
v  -3.8300 9.2400 0.0000
v  -7.0700 7.0700 0.0000
v  -9.2400 3.8300 0.0000
v  -10.0000 0.0000 0.0000
v  -9.2400 -3.8300 0.0000
v  -7.0700 -7.0700 0.0000
v  -3.8300 -9.2400 0.0000
v  -0.0000 -10.0000 0.0000
v  3.8300 -9.2400 0.0000
v  7.0700 -7.0700 0.0000
v  9.2400 -3.8300 0.0000
v  10.0000 -0.0000 -3.0000
v  9.2400 3.8300 -3.0000
v  7.0700 7.0700 -3.0000
v  3.8300 9.2400 -3.0000
v  -0.0000 10.0000 -3.0000
v  -3.8300 9.2400 -3.0000
v  -7.0700 7.0700 -3.0000
v  -9.2400 3.8300 -3.0000
v  -10.0000 -0.0000 -3.0000
v  -9.2400 -3.8300 -3.0000
v  -7.0700 -7.0700 -3.0000
v  -3.8300 -9.2400 -3.0000
v  -0.0000 -10.0000 -3.0000
v  3.8300 -9.2400 -3.0000
v  7.0700 -7.0700 -3.0000
v  9.2400 -3.8300 -3.0000
v  6.0000 -0.0000 -3.0000
v  5.5433 2.2961 -3.0000
v  4.2426 4.2426 -3.0000
v  2.3000 5.5400 -3.0000
v  -0.0000 6.0000 -3.0000
v  -2.3000 5.5400 -3.0000
v  -4.2400 4.2400 -3.0000
v  -5.5400 2.3000 -3.0000
v  -6.0000 -0.0000 -3.0000
v  -5.5400 -2.3000 -3.0000
v  -4.2400 -4.2400 -3.0000
v  -2.3000 -5.5400 -3.0000
v  -0.0000 -6.0000 -3.0000
v  2.3000 -5.5400 -3.0000
v  4.2400 -4.2400 -3.0000
v  5.5433 -2.2961 -3.0000
v  6.0000 -0.0000 -8.0000
v  5.5433 2.2961 -8.0000
v  4.2426 4.2426 -8.0000
v  2.3000 5.5400 -8.0000
v  -0.0000 6.0000 -8.0000
v  -2.3000 5.5400 -8.0000
v  -4.2400 4.2400 -8.0000
v  -5.5400 2.3000 -8.0000
v  -6.0000 -0.0000 -8.0000
v  -5.5400 -2.3000 -8.0000
v  -4.2400 -4.2400 -8.0000
v  -2.3000 -5.5400 -8.0000
v  -0.0000 -6.0000 -8.0000
v  2.3000 -5.5400 -8.0000
v  4.2400 -4.2400 -8.0000
v  5.5433 -2.2961 -8.0000
v  8.0000 -0.0000 -8.0000
v  7.3900 3.0600 -8.0000
v  5.6600 5.6600 -8.0000
v  3.0600 7.3900 -8.0000
v  -0.0000 8.0000 -8.0000
v  -3.0600 7.3900 -8.0000
v  -5.6600 5.6600 -8.0000
v  -7.3900 3.0600 -8.0000
v  -8.0000 -0.0000 -8.0000
v  -7.3900 -3.0600 -8.0000
v  -5.6600 -5.6600 -8.0000
v  -3.0600 -7.3900 -8.0000
v  -0.0000 -8.0000 -8.0000
v  3.0600 -7.3900 -8.0000
v  5.6600 -5.6600 -8.0000
v  7.3900 -3.0600 -8.0000
v  8.0000 -0.0000 -3.0000
v  7.3900 3.0600 -3.0000
v  5.6600 5.6600 -3.0000
v  3.0600 7.3900 -3.0000
v  -0.0000 8.0000 -3.0000
v  -3.0600 7.3900 -3.0000
v  -5.6600 5.6600 -3.0000
v  -7.3900 3.0600 -3.0000
v  -8.0000 -0.0000 -3.0000
v  -7.3900 -3.0600 -3.0000
v  -5.6600 -5.6600 -3.0000
v  -3.0600 -7.3900 -3.0000
v  -0.0000 -8.0000 -3.0000
v  3.0600 -7.3900 -3.0000
v  5.6600 -5.6600 -3.0000
v  7.3900 -3.0600 -3.0000
v  -6.0000 0.0000 0.0000
v  -0.0000 -6.0000 0.0000
v  6.0000 0.0000 4.0000
v  5.1962 3.0000 4.0000
v  3.0000 5.1962 4.0000
v  -0.0000 6.0000 4.0000
v  -3.0000 5.1962 4.0000
v  -5.1962 3.0000 4.0000
v  -6.0000 0.0000 4.0000
v  -5.1962 -3.0000 4.0000
v  -3.0000 -5.1962 4.0000
v  -0.0000 -6.0000 4.0000
v  3.0000 -5.1962 4.0000
v  5.1962 -3.0000 4.0000
v  -0.0000 -0.0000 4.0000
# 122 vertices

vn 0.0000 0.0000 1.0000
vn 0.0000 -0.0000 1.0000
vn 0.0000 -0.0000 1.0000
vn 0.0000 0.0000 1.0000
vn 0.0000 0.0000 1.0000
vn 0.0000 0.0000 1.0000
vn 0.0000 0.0000 1.0000
vn 0.0000 0.0000 1.0000
vn 0.0000 0.0000 1.0000
vn 0.0000 0.0000 1.0000
vn 0.0000 0.0000 1.0000
vn 0.0000 0.0000 1.0000
vn 0.0000 0.0000 1.0000
vn 0.0000 0.0000 1.0000
vn 0.0000 0.0000 1.0000
vn -0.0000 0.0000 1.0000
vn 0.0000 0.0000 1.0000
vn 0.0000 0.0000 1.0000
vn -0.0000 0.0000 1.0000
vn -0.0000 0.0000 1.0000
vn -0.0000 0.0000 1.0000
vn -0.0000 0.0000 1.0000
vn -0.0000 0.0000 1.0000
vn -0.0000 0.0000 1.0000
vn -0.0000 0.0000 1.0000
vn -0.0000 0.0000 1.0000
vn -0.0000 0.0000 1.0000
vn -0.0000 0.0000 1.0000
vn -0.0000 0.0000 1.0000
vn -0.0000 0.0000 1.0000
vn -0.0000 -0.0000 1.0000
vn -0.0000 0.0000 1.0000
vn -0.0000 0.0000 1.0000
vn -0.0000 -0.0000 1.0000
vn -0.0000 -0.0000 1.0000
vn -0.0000 -0.0000 1.0000
vn -0.0000 -0.0000 1.0000
vn -0.0000 -0.0000 1.0000
vn -0.0000 -0.0000 1.0000
vn -0.0000 -0.0000 1.0000
vn -0.0000 -0.0000 1.0000
vn -0.0000 -0.0000 1.0000
vn -0.0000 -0.0000 1.0000
vn -0.0000 -0.0000 1.0000
vn -0.0000 -0.0000 1.0000
vn 0.0000 -0.0000 1.0000
vn -0.0000 -0.0000 1.0000
vn -0.0000 -0.0000 1.0000
vn 0.0000 -0.0000 1.0000
vn 0.0000 -0.0000 1.0000
vn 0.0000 -0.0000 1.0000
vn 0.0000 -0.0000 1.0000
vn 0.0000 -0.0000 1.0000
vn 0.0000 -0.0000 1.0000
vn 0.0000 -0.0000 1.0000
vn 0.0000 -0.0000 1.0000
vn 0.0000 -0.0000 1.0000
vn 0.0000 -0.0000 1.0000
vn 0.0000 -0.0000 1.0000
vn 0.0000 -0.0000 1.0000
vn 0.9238 0.3830 -0.0000
vn 1.0000 0.0000 0.0000
vn 1.0000 0.0000 0.0000
vn 0.9238 0.3830 -0.0000
vn 0.7071 0.7071 -0.0000
vn 0.9238 0.3830 -0.0000
vn 0.9238 0.3830 -0.0000
vn 0.7071 0.7071 -0.0000
vn 0.3830 0.9238 -0.0000
vn 0.7071 0.7071 -0.0000
vn 0.7071 0.7071 -0.0000
vn 0.3830 0.9238 -0.0000
vn 0.0000 1.0000 -0.0000
vn 0.3830 0.9238 -0.0000
vn 0.3830 0.9238 -0.0000
vn 0.0000 1.0000 -0.0000
vn -0.3830 0.9238 -0.0000
vn 0.0000 1.0000 -0.0000
vn 0.0000 1.0000 -0.0000
vn -0.3830 0.9238 -0.0000
vn -0.7071 0.7071 -0.0000
vn -0.3830 0.9238 -0.0000
vn -0.3830 0.9238 -0.0000
vn -0.7071 0.7071 -0.0000
vn -0.9238 0.3830 -0.0000
vn -0.7071 0.7071 -0.0000
vn -0.7071 0.7071 -0.0000
vn -0.9238 0.3830 -0.0000
vn -1.0000 0.0000 -0.0000
vn -0.9238 0.3830 -0.0000
vn -0.9238 0.3830 -0.0000
vn -1.0000 0.0000 0.0000
vn -0.9238 -0.3830 0.0000
vn -1.0000 0.0000 -0.0000
vn -1.0000 0.0000 0.0000
vn -0.9238 -0.3830 0.0000
vn -0.7071 -0.7071 0.0000
vn -0.9238 -0.3830 0.0000
vn -0.9238 -0.3830 0.0000
vn -0.7071 -0.7071 0.0000
vn -0.3830 -0.9238 0.0000
vn -0.7071 -0.7071 0.0000
vn -0.7071 -0.7071 0.0000
vn -0.3830 -0.9238 0.0000
vn -0.0000 -1.0000 0.0000
vn -0.3830 -0.9238 0.0000
vn -0.3830 -0.9238 0.0000
vn -0.0000 -1.0000 0.0000
vn 0.3830 -0.9238 0.0000
vn -0.0000 -1.0000 0.0000
vn -0.0000 -1.0000 0.0000
vn 0.3830 -0.9238 0.0000
vn 0.7071 -0.7071 0.0000
vn 0.3830 -0.9238 0.0000
vn 0.3830 -0.9238 0.0000
vn 0.7071 -0.7071 0.0000
vn 0.9238 -0.3830 0.0000
vn 0.7071 -0.7071 0.0000
vn 0.7071 -0.7071 0.0000
vn 0.9238 -0.3830 0.0000
vn 1.0000 0.0000 0.0000
vn 0.9238 -0.3830 0.0000
vn 0.9238 -0.3830 0.0000
vn 1.0000 0.0000 0.0000
vn -0.0000 -0.0000 -1.0000
vn 0.0000 -0.0000 -1.0000
vn 0.0000 0.0000 -1.0000
vn -0.0000 -0.0000 -1.0000
vn 0.0000 -0.0000 -1.0000
vn 0.0000 -0.0000 -1.0000
vn -0.0000 -0.0000 -1.0000
vn -0.0000 -0.0000 -1.0000
vn 0.0000 -0.0000 -1.0000
vn -0.0000 -0.0000 -1.0000
vn -0.0000 0.0000 -1.0000
vn -0.0000 -0.0000 -1.0000
vn -0.0000 -0.0000 -1.0000
vn 0.0000 -0.0000 -1.0000
vn -0.0000 0.0000 -1.0000
vn -0.0000 -0.0000 -1.0000
vn -0.0000 -0.0000 -1.0000
vn 0.0000 -0.0000 -1.0000
vn -0.0000 -0.0000 -1.0000
vn -0.0000 -0.0000 -1.0000
vn -0.0000 -0.0000 -1.0000
vn -0.0000 -0.0000 -1.0000
vn -0.0000 0.0000 -1.0000
vn -0.0000 -0.0000 -1.0000
vn -0.0000 -0.0000 -1.0000
vn 0.0000 0.0000 -1.0000
vn -0.0000 0.0000 -1.0000
vn -0.0000 -0.0000 -1.0000
vn 0.0000 -0.0000 -1.0000
vn 0.0000 0.0000 -1.0000
vn -0.0000 -0.0000 -1.0000
vn 0.0000 0.0000 -1.0000
vn 0.0000 -0.0000 -1.0000
vn -0.0000 -0.0000 -1.0000
vn 0.0000 0.0000 -1.0000
vn 0.0000 0.0000 -1.0000
vn -0.0000 -0.0000 -1.0000
vn 0.0000 0.0000 -1.0000
vn 0.0000 0.0000 -1.0000
vn -0.0000 -0.0000 -1.0000
vn -0.0000 -0.0000 -1.0000
vn 0.0000 0.0000 -1.0000
vn -0.0000 -0.0000 -1.0000
vn -0.0000 0.0000 -1.0000
vn -0.0000 -0.0000 -1.0000
vn -0.0000 -0.0000 -1.0000
vn 0.0000 0.0000 -1.0000
vn -0.0000 0.0000 -1.0000
vn -1.0000 -0.0000 0.0000
vn -0.9239 -0.3827 -0.0000
vn -0.9239 -0.3827 -0.0000
vn -1.0000 -0.0000 -0.0000
vn -0.9239 -0.3827 -0.0000
vn -0.7070 -0.7072 -0.0000
vn -0.7070 -0.7072 -0.0000
vn -0.9239 -0.3827 -0.0000
vn -0.7070 -0.7072 -0.0000
vn -0.3831 -0.9237 -0.0000
vn -0.3831 -0.9237 -0.0000
vn -0.7070 -0.7072 -0.0000
vn -0.3831 -0.9237 -0.0000
vn -0.0000 -1.0000 -0.0000
vn -0.0000 -1.0000 -0.0000
vn -0.3831 -0.9237 -0.0000
vn -0.0000 -1.0000 -0.0000
vn 0.3838 -0.9234 -0.0000
vn 0.3838 -0.9234 -0.0000
vn -0.0000 -1.0000 -0.0000
vn 0.3838 -0.9234 -0.0000
vn 0.7071 -0.7071 0.0000
vn 0.7071 -0.7071 -0.0000
vn 0.3838 -0.9234 -0.0000
vn 0.7071 -0.7071 0.0000
vn 0.9234 -0.3838 -0.0000
vn 0.9234 -0.3838 0.0000
vn 0.7071 -0.7071 -0.0000
vn 0.9234 -0.3838 -0.0000
vn 1.0000 -0.0000 -0.0000
vn 1.0000 -0.0000 0.0000
vn 0.9234 -0.3838 0.0000
vn 1.0000 -0.0000 -0.0000
vn 0.9234 0.3838 0.0000
vn 0.9234 0.3838 0.0000
vn 1.0000 -0.0000 0.0000
vn 0.9234 0.3838 0.0000
vn 0.7071 0.7071 0.0000
vn 0.7071 0.7071 0.0000
vn 0.9234 0.3838 0.0000
vn 0.7071 0.7071 0.0000
vn 0.3838 0.9234 0.0000
vn 0.3838 0.9234 0.0000
vn 0.7071 0.7071 0.0000
vn 0.3838 0.9234 0.0000
vn -0.0000 1.0000 0.0000
vn -0.0000 1.0000 0.0000
vn 0.3838 0.9234 0.0000
vn -0.0000 1.0000 0.0000
vn -0.3838 0.9234 0.0000
vn -0.3838 0.9234 0.0000
vn -0.0000 1.0000 0.0000
vn -0.3838 0.9234 0.0000
vn -0.7070 0.7072 0.0000
vn -0.7070 0.7072 0.0000
vn -0.3838 0.9234 0.0000
vn -0.7070 0.7072 0.0000
vn -0.9236 0.3834 0.0000
vn -0.9236 0.3834 0.0000
vn -0.7070 0.7072 0.0000
vn -0.9236 0.3834 0.0000
vn -1.0000 -0.0000 0.0000
vn -1.0000 -0.0000 -0.0000
vn -0.9236 0.3834 0.0000
vn 0.0000 0.0000 -1.0000
vn 0.0000 0.0000 -1.0000
vn 0.0000 0.0000 -1.0000
vn 0.0000 0.0000 -1.0000
vn 0.0000 0.0000 -1.0000
vn 0.0000 0.0000 -1.0000
vn 0.0000 0.0000 -1.0000
vn 0.0000 0.0000 -1.0000
vn 0.0000 0.0000 -1.0000
vn 0.0000 0.0000 -1.0000
vn 0.0000 0.0000 -1.0000
vn 0.0000 0.0000 -1.0000
vn 0.0000 0.0000 -1.0000
vn 0.0000 0.0000 -1.0000
vn 0.0000 0.0000 -1.0000
vn 0.0000 0.0000 -1.0000
vn 0.0000 0.0000 -1.0000
vn 0.0000 0.0000 -1.0000
vn 0.0000 0.0000 -1.0000
vn 0.0000 0.0000 -1.0000
vn 0.0000 0.0000 -1.0000
vn 0.0000 0.0000 -1.0000
vn 0.0000 0.0000 -1.0000
vn 0.0000 0.0000 -1.0000
vn 0.0000 0.0000 -1.0000
vn 0.0000 0.0000 -1.0000
vn 0.0000 0.0000 -1.0000
vn 0.0000 0.0000 -1.0000
vn 0.0000 0.0000 -1.0000
vn 0.0000 0.0000 -1.0000
vn 0.0000 0.0000 -1.0000
vn 0.0000 0.0000 -1.0000
vn 0.0000 0.0000 -1.0000
vn 0.0000 0.0000 -1.0000
vn 0.0000 0.0000 -1.0000
vn 0.0000 0.0000 -1.0000
vn 0.0000 0.0000 -1.0000
vn 0.0000 0.0000 -1.0000
vn 0.0000 0.0000 -1.0000
vn 0.0000 0.0000 -1.0000
vn 0.0000 0.0000 -1.0000
vn 0.0000 0.0000 -1.0000
vn 0.0000 0.0000 -1.0000
vn 0.0000 0.0000 -1.0000
vn 0.0000 0.0000 -1.0000
vn 0.0000 0.0000 -1.0000
vn 0.0000 0.0000 -1.0000
vn 0.0000 0.0000 -1.0000
vn 0.0000 0.0000 -1.0000
vn 0.0000 0.0000 -1.0000
vn 0.0000 0.0000 -1.0000
vn 0.0000 0.0000 -1.0000
vn 0.0000 0.0000 -1.0000
vn 0.0000 0.0000 -1.0000
vn 0.0000 0.0000 -1.0000
vn 0.0000 0.0000 -1.0000
vn 0.0000 0.0000 -1.0000
vn 0.0000 0.0000 -1.0000
vn 0.0000 0.0000 -1.0000
vn 0.0000 0.0000 -1.0000
vn 0.0000 0.0000 -1.0000
vn 0.0000 0.0000 -1.0000
vn 0.0000 0.0000 -1.0000
vn 0.0000 0.0000 -1.0000
vn 1.0000 0.0000 0.0000
vn 0.9242 0.3820 0.0000
vn 0.9242 0.3820 0.0000
vn 1.0000 0.0000 0.0000
vn 0.9242 0.3820 0.0000
vn 0.7071 0.7071 0.0000
vn 0.7071 0.7071 0.0000
vn 0.9242 0.3820 0.0000
vn 0.7071 0.7071 0.0000
vn 0.3820 0.9242 0.0000
vn 0.3820 0.9242 0.0000
vn 0.7071 0.7071 0.0000
vn 0.3820 0.9242 0.0000
vn 0.0000 1.0000 0.0000
vn 0.0000 1.0000 0.0000
vn 0.3820 0.9242 0.0000
vn 0.0000 1.0000 0.0000
vn -0.3820 0.9242 0.0000
vn -0.3820 0.9242 0.0000
vn 0.0000 1.0000 0.0000
vn -0.3820 0.9242 0.0000
vn -0.7071 0.7071 0.0000
vn -0.7071 0.7071 0.0000
vn -0.3820 0.9242 0.0000
vn -0.7071 0.7071 0.0000
vn -0.9242 0.3820 0.0000
vn -0.9242 0.3820 0.0000
vn -0.7071 0.7071 0.0000
vn -0.9242 0.3820 0.0000
vn -1.0000 -0.0000 0.0000
vn -1.0000 -0.0000 0.0000
vn -0.9242 0.3820 0.0000
vn -1.0000 -0.0000 0.0000
vn -0.9242 -0.3820 0.0000
vn -0.9242 -0.3820 0.0000
vn -1.0000 -0.0000 0.0000
vn -0.9242 -0.3820 0.0000
vn -0.7071 -0.7071 0.0000
vn -0.7071 -0.7071 0.0000
vn -0.9242 -0.3820 0.0000
vn -0.7071 -0.7071 0.0000
vn -0.3820 -0.9242 0.0000
vn -0.3820 -0.9242 0.0000
vn -0.7071 -0.7071 0.0000
vn -0.3820 -0.9242 0.0000
vn 0.0000 -1.0000 0.0000
vn 0.0000 -1.0000 0.0000
vn -0.3820 -0.9242 0.0000
vn 0.0000 -1.0000 0.0000
vn 0.3820 -0.9242 0.0000
vn 0.3820 -0.9242 0.0000
vn 0.0000 -1.0000 0.0000
vn 0.3820 -0.9242 0.0000
vn 0.7071 -0.7071 0.0000
vn 0.7071 -0.7071 0.0000
vn 0.3820 -0.9242 0.0000
vn 0.7071 -0.7071 0.0000
vn 0.9242 -0.3820 0.0000
vn 0.9242 -0.3820 0.0000
vn 0.7071 -0.7071 0.0000
vn 0.9242 -0.3820 0.0000
vn 1.0000 0.0000 0.0000
vn 1.0000 0.0000 0.0000
vn 0.9242 -0.3820 0.0000
vn -0.0000 0.0000 -1.0000
vn -0.0000 0.0000 -1.0000
vn -0.0000 0.0000 -1.0000
vn -0.0000 0.0000 -1.0000
vn -0.0000 0.0000 -1.0000
vn -0.0000 0.0000 -1.0000
vn -0.0000 0.0000 -1.0000
vn -0.0000 0.0000 -1.0000
vn -0.0000 0.0000 -1.0000
vn -0.0000 0.0000 -1.0000
vn -0.0000 0.0000 -1.0000
vn -0.0000 0.0000 -1.0000
vn -0.0000 0.0000 -1.0000
vn 0.0000 0.0000 -1.0000
vn 0.0000 0.0000 -1.0000
vn -0.0000 0.0000 -1.0000
vn 0.0000 0.0000 -1.0000
vn 0.0000 0.0000 -1.0000
vn 0.0000 0.0000 -1.0000
vn 0.0000 0.0000 -1.0000
vn 0.0000 0.0000 -1.0000
vn 0.0000 0.0000 -1.0000
vn 0.0000 0.0000 -1.0000
vn 0.0000 0.0000 -1.0000
vn 0.0000 0.0000 -1.0000
vn 0.0000 0.0000 -1.0000
vn 0.0000 0.0000 -1.0000
vn 0.0000 0.0000 -1.0000
vn 0.0000 0.0000 -1.0000
vn 0.0000 -0.0000 -1.0000
vn 0.0000 -0.0000 -1.0000
vn 0.0000 0.0000 -1.0000
vn 0.0000 -0.0000 -1.0000
vn 0.0000 -0.0000 -1.0000
vn 0.0000 -0.0000 -1.0000
vn 0.0000 -0.0000 -1.0000
vn 0.0000 -0.0000 -1.0000
vn 0.0000 -0.0000 -1.0000
vn 0.0000 -0.0000 -1.0000
vn 0.0000 -0.0000 -1.0000
vn 0.0000 -0.0000 -1.0000
vn 0.0000 -0.0000 -1.0000
vn 0.0000 -0.0000 -1.0000
vn 0.0000 -0.0000 -1.0000
vn 0.0000 -0.0000 -1.0000
vn -0.0000 -0.0000 -1.0000
vn -0.0000 -0.0000 -1.0000
vn 0.0000 -0.0000 -1.0000
vn -0.0000 -0.0000 -1.0000
vn -0.0000 -0.0000 -1.0000
vn -0.0000 -0.0000 -1.0000
vn -0.0000 -0.0000 -1.0000
vn -0.0000 -0.0000 -1.0000
vn -0.0000 -0.0000 -1.0000
vn -0.0000 -0.0000 -1.0000
vn -0.0000 -0.0000 -1.0000
vn -0.0000 -0.0000 -1.0000
vn -0.0000 -0.0000 -1.0000
vn -0.0000 -0.0000 -1.0000
vn -0.0000 -0.0000 -1.0000
vn -0.0000 -0.0000 -1.0000
vn -0.0000 0.0000 -1.0000
vn -0.0000 0.0000 -1.0000
vn -0.0000 -0.0000 -1.0000
vn 1.0000 -0.0000 -0.0000
vn 0.8660 0.5000 0.0000
vn 0.8660 0.5000 0.0000
vn 1.0000 -0.0000 0.0000
vn 0.8660 0.5000 0.0000
vn 0.5000 0.8660 0.0000
vn 0.5000 0.8660 0.0000
vn 0.8660 0.5000 0.0000
vn 0.5000 0.8660 0.0000
vn -0.0000 1.0000 0.0000
vn -0.0000 1.0000 0.0000
vn 0.5000 0.8660 0.0000
vn -0.0000 1.0000 0.0000
vn -0.5000 0.8660 0.0000
vn -0.5000 0.8660 0.0000
vn -0.0000 1.0000 0.0000
vn -0.5000 0.8660 0.0000
vn -0.8660 0.5000 0.0000
vn -0.8660 0.5000 0.0000
vn -0.5000 0.8660 0.0000
vn -0.8660 0.5000 0.0000
vn -1.0000 0.0000 0.0000
vn -1.0000 0.0000 -0.0000
vn -0.8660 0.5000 0.0000
vn -1.0000 0.0000 0.0000
vn -0.8660 -0.5000 0.0000
vn -0.8660 -0.5000 -0.0000
vn -1.0000 0.0000 -0.0000
vn -0.8660 -0.5000 0.0000
vn -0.5000 -0.8660 -0.0000
vn -0.5000 -0.8660 0.0000
vn -0.8660 -0.5000 -0.0000
vn -0.5000 -0.8660 -0.0000
vn -0.0000 -1.0000 -0.0000
vn -0.0000 -1.0000 -0.0000
vn -0.5000 -0.8660 0.0000
vn -0.0000 -1.0000 -0.0000
vn 0.5000 -0.8660 0.0000
vn 0.5000 -0.8660 -0.0000
vn -0.0000 -1.0000 -0.0000
vn 0.5000 -0.8660 0.0000
vn 0.8660 -0.5000 -0.0000
vn 0.8660 -0.5000 0.0000
vn 0.5000 -0.8660 -0.0000
vn 0.8660 -0.5000 -0.0000
vn 1.0000 -0.0000 -0.0000
vn 1.0000 -0.0000 0.0000
vn 0.8660 -0.5000 0.0000
vn 0.0000 -0.0000 1.0000
vn 0.0000 0.0000 1.0000
vn -0.0000 0.0000 1.0000
vn 0.0000 0.0000 1.0000
vn 0.0000 0.0000 1.0000
vn -0.0000 0.0000 1.0000
vn 0.0000 0.0000 1.0000
vn -0.0000 0.0000 1.0000
vn -0.0000 0.0000 1.0000
vn -0.0000 0.0000 1.0000
vn -0.0000 0.0000 1.0000
vn -0.0000 0.0000 1.0000
vn -0.0000 0.0000 1.0000
vn -0.0000 0.0000 1.0000
vn -0.0000 0.0000 1.0000
vn -0.0000 0.0000 1.0000
vn -0.0000 0.0000 1.0000
vn -0.0000 0.0000 1.0000
vn -0.0000 0.0000 1.0000
vn -0.0000 -0.0000 1.0000
vn -0.0000 0.0000 1.0000
vn -0.0000 -0.0000 1.0000
vn -0.0000 -0.0000 1.0000
vn -0.0000 0.0000 1.0000
vn -0.0000 -0.0000 1.0000
vn -0.0000 -0.0000 1.0000
vn -0.0000 0.0000 1.0000
vn -0.0000 -0.0000 1.0000
vn 0.0000 -0.0000 1.0000
vn -0.0000 0.0000 1.0000
vn 0.0000 -0.0000 1.0000
vn 0.0000 -0.0000 1.0000
vn -0.0000 0.0000 1.0000
vn 0.0000 -0.0000 1.0000
vn 0.0000 -0.0000 1.0000
vn -0.0000 0.0000 1.0000
# 512 vertex normals

vt 0.7400 0.5000 0.6667
vt 0.7078 0.6200 0.6667
vt 0.6200 0.7078 0.6667
vt 0.5000 0.7400 0.6667
vt 0.3800 0.7078 0.6667
vt 0.2922 0.6200 0.6667
vt 0.2922 0.3800 0.6667
vt 0.3800 0.2922 0.6667
vt 0.6200 0.2922 0.6667
vt 0.7078 0.3800 0.6667
vt 0.5000 0.5000 0.4167
vt 0.9000 0.5000 0.6667
vt 0.8696 0.6532 0.6667
vt 0.7828 0.7828 0.6667
vt 0.6532 0.8696 0.6667
vt 0.5000 0.9000 0.6667
vt 0.3468 0.8696 0.6667
vt 0.2172 0.7828 0.6667
vt 0.1304 0.6532 0.6667
vt 0.1000 0.5000 0.6667
vt 0.1304 0.3468 0.6667
vt 0.2172 0.2172 0.6667
vt 0.3468 0.1304 0.6667
vt 0.5000 0.1000 0.6667
vt 0.6532 0.1304 0.6667
vt 0.7828 0.2172 0.6667
vt 0.8696 0.3468 0.6667
vt 0.9000 0.5000 0.4167
vt 0.8696 0.6532 0.4167
vt 0.7828 0.7828 0.4167
vt 0.6532 0.8696 0.4167
vt 0.5000 0.9000 0.4167
vt 0.3468 0.8696 0.4167
vt 0.2172 0.7828 0.4167
vt 0.1304 0.6532 0.4167
vt 0.1000 0.5000 0.4167
vt 0.1304 0.3468 0.4167
vt 0.2172 0.2172 0.4167
vt 0.3468 0.1304 0.4167
vt 0.5000 0.1000 0.4167
vt 0.6532 0.1304 0.4167
vt 0.7828 0.2172 0.4167
vt 0.8696 0.3468 0.4167
vt 0.7400 0.5000 0.4167
vt 0.7217 0.5918 0.4167
vt 0.6697 0.6697 0.4167
vt 0.5920 0.7216 0.4167
vt 0.5000 0.7400 0.4167
vt 0.4080 0.7216 0.4167
vt 0.3304 0.6696 0.4167
vt 0.2784 0.5920 0.4167
vt 0.2600 0.5000 0.4167
vt 0.2784 0.4080 0.4167
vt 0.3304 0.3304 0.4167
vt 0.4080 0.2784 0.4167
vt 0.5000 0.2600 0.4167
vt 0.5920 0.2784 0.4167
vt 0.6696 0.3304 0.4167
vt 0.7217 0.4082 0.4167
vt 0.7400 0.5000 0.0000
vt 0.7217 0.5918 0.0000
vt 0.6697 0.6697 0.0000
vt 0.5920 0.7216 0.0000
vt 0.5000 0.7400 0.0000
vt 0.4080 0.7216 0.0000
vt 0.3304 0.6696 0.0000
vt 0.2784 0.5920 0.0000
vt 0.2600 0.5000 0.0000
vt 0.2784 0.4080 0.0000
vt 0.3304 0.3304 0.0000
vt 0.4080 0.2784 0.0000
vt 0.5000 0.2600 0.0000
vt 0.5920 0.2784 0.0000
vt 0.6696 0.3304 0.0000
vt 0.7217 0.4082 0.0000
vt 0.8200 0.5000 0.0000
vt 0.7956 0.6224 0.0000
vt 0.7264 0.7264 0.0000
vt 0.6224 0.7956 0.0000
vt 0.5000 0.8200 0.0000
vt 0.3776 0.7956 0.0000
vt 0.2736 0.7264 0.0000
vt 0.2044 0.6224 0.0000
vt 0.1800 0.5000 0.0000
vt 0.2044 0.3776 0.0000
vt 0.2736 0.2736 0.0000
vt 0.3776 0.2044 0.0000
vt 0.5000 0.1800 0.0000
vt 0.6224 0.2044 0.0000
vt 0.7264 0.2736 0.0000
vt 0.7956 0.3776 0.0000
vt 0.8200 0.5000 0.4167
vt 0.7956 0.6224 0.4167
vt 0.7264 0.7264 0.4167
vt 0.6224 0.7956 0.4167
vt 0.5000 0.8200 0.4167
vt 0.3776 0.7956 0.4167
vt 0.2736 0.7264 0.4167
vt 0.2044 0.6224 0.4167
vt 0.1800 0.5000 0.4167
vt 0.2044 0.3776 0.4167
vt 0.2736 0.2736 0.4167
vt 0.3776 0.2044 0.4167
vt 0.5000 0.1800 0.4167
vt 0.6224 0.2044 0.4167
vt 0.7264 0.2736 0.4167
vt 0.7956 0.3776 0.4167
vt 0.2600 0.5000 0.6667
vt 0.5000 0.2600 0.6667
vt 0.7400 0.5000 1.0000
vt 0.7078 0.6200 1.0000
vt 0.6200 0.7078 1.0000
vt 0.5000 0.7400 1.0000
vt 0.3800 0.7078 1.0000
vt 0.2922 0.6200 1.0000
vt 0.2600 0.5000 1.0000
vt 0.2922 0.3800 1.0000
vt 0.3800 0.2922 1.0000
vt 0.5000 0.2600 1.0000
vt 0.6200 0.2922 1.0000
vt 0.7078 0.3800 1.0000
vt 0.5000 0.5000 1.0000
# 122 texture coords

g 6141
s 1
f 2/2/1 1/1/2 12/12/3 13/13/4 
f 3/3/5 2/2/6 13/13/7 14/14/8 
f 3/3/9 14/14/10 15/15/11 
f 4/4/12 3/3/13 15/15/14 16/16/15 
f 5/5/16 4/4/17 16/16/18 17/17/19 
f 5/5/20 17/17/21 18/18/22 
f 6/6/23 5/5/24 18/18/25 19/19/26 
f 108/108/27 6/6/28 19/19/29 20/20/30 
f 7/7/31 108/108/32 20/20/33 21/21/34 
f 8/8/35 7/7/36 21/21/37 22/22/38 
f 8/8/39 22/22/40 23/23/41 
f 109/109/42 8/8/43 23/23/44 24/24/45 
f 9/9/46 109/109/47 24/24/48 25/25/49 
f 9/9/50 25/25/51 26/26/52 
f 10/10/53 9/9/54 26/26/55 27/27/56 
f 1/1/57 10/10/58 27/27/59 12/12/60 
s 2
f 13/13/61 12/12/62 28/28/63 29/29/64 
f 14/14/65 13/13/66 29/29/67 30/30/68 
f 15/15/69 14/14/70 30/30/71 31/31/72 
f 16/16/73 15/15/74 31/31/75 32/32/76 
f 17/17/77 16/16/78 32/32/79 33/33/80 
f 18/18/81 17/17/82 33/33/83 34/34/84 
f 19/19/85 18/18/86 34/34/87 35/35/88 
f 20/20/89 19/19/90 35/35/91 36/36/92 
f 21/21/93 20/20/94 36/36/95 37/37/96 
f 22/22/97 21/21/98 37/37/99 38/38/100 
f 23/23/101 22/22/102 38/38/103 39/39/104 
f 24/24/105 23/23/106 39/39/107 40/40/108 
f 25/25/109 24/24/110 40/40/111 41/41/112 
f 26/26/113 25/25/114 41/41/115 42/42/116 
f 27/27/117 26/26/118 42/42/119 43/43/120 
f 12/12/121 27/27/122 43/43/123 28/28/124 
s 1
f 11/11/125 45/45/126 44/44/127 
f 11/11/128 46/46/129 45/45/130 
f 11/11/131 47/47/132 46/46/133 
f 11/11/134 48/48/135 47/47/136 
f 11/11/137 49/49/138 48/48/139 
f 11/11/140 50/50/141 49/49/142 
f 11/11/143 51/51/144 50/50/145 
f 11/11/146 52/52/147 51/51/148 
f 11/11/149 53/53/150 52/52/151 
f 11/11/152 54/54/153 53/53/154 
f 11/11/155 55/55/156 54/54/157 
f 11/11/158 56/56/159 55/55/160 
f 11/11/161 57/57/162 56/56/163 
f 11/11/164 58/58/165 57/57/166 
f 11/11/167 59/59/168 58/58/169 
f 11/11/170 44/44/171 59/59/172 
s 2
f 44/44/173 45/45/174 61/61/175 60/60/176 
f 45/45/177 46/46/178 62/62/179 61/61/180 
f 46/46/181 47/47/182 63/63/183 62/62/184 
f 47/47/185 48/48/186 64/64/187 63/63/188 
f 48/48/189 49/49/190 65/65/191 64/64/192 
f 49/49/193 50/50/194 66/66/195 65/65/196 
f 50/50/197 51/51/198 67/67/199 66/66/200 
f 51/51/201 52/52/202 68/68/203 67/67/204 
f 52/52/205 53/53/206 69/69/207 68/68/208 
f 53/53/209 54/54/210 70/70/211 69/69/212 
f 54/54/213 55/55/214 71/71/215 70/70/216 
f 55/55/217 56/56/218 72/72/219 71/71/220 
f 56/56/221 57/57/222 73/73/223 72/72/224 
f 57/57/225 58/58/226 74/74/227 73/73/228 
f 58/58/229 59/59/230 75/75/231 74/74/232 
f 59/59/233 44/44/234 60/60/235 75/75/236 
s 1
f 60/60/237 61/61/238 77/77/239 76/76/240 
f 61/61/241 62/62/242 78/78/243 77/77/244 
f 62/62/245 63/63/246 79/79/247 78/78/248 
f 63/63/249 64/64/250 80/80/251 79/79/252 
f 64/64/253 65/65/254 81/81/255 80/80/256 
f 65/65/257 66/66/258 82/82/259 81/81/260 
f 66/66/261 67/67/262 83/83/263 82/82/264 
f 67/67/265 68/68/266 84/84/267 83/83/268 
f 68/68/269 69/69/270 85/85/271 84/84/272 
f 69/69/273 70/70/274 86/86/275 85/85/276 
f 70/70/277 71/71/278 87/87/279 86/86/280 
f 71/71/281 72/72/282 88/88/283 87/87/284 
f 72/72/285 73/73/286 89/89/287 88/88/288 
f 73/73/289 74/74/290 90/90/291 89/89/292 
f 74/74/293 75/75/294 91/91/295 90/90/296 
f 75/75/297 60/60/298 76/76/299 91/91/300 
s 2
f 76/76/301 77/77/302 93/93/303 92/92/304 
f 77/77/305 78/78/306 94/94/307 93/93/308 
f 78/78/309 79/79/310 95/95/311 94/94/312 
f 79/79/313 80/80/314 96/96/315 95/95/316 
f 80/80/317 81/81/318 97/97/319 96/96/320 
f 81/81/321 82/82/322 98/98/323 97/97/324 
f 82/82/325 83/83/326 99/99/327 98/98/328 
f 83/83/329 84/84/330 100/100/331 99/99/332 
f 84/84/333 85/85/334 101/101/335 100/100/336 
f 85/85/337 86/86/338 102/102/339 101/101/340 
f 86/86/341 87/87/342 103/103/343 102/102/344 
f 87/87/345 88/88/346 104/104/347 103/103/348 
f 88/88/349 89/89/350 105/105/351 104/104/352 
f 89/89/353 90/90/354 106/106/355 105/105/356 
f 90/90/357 91/91/358 107/107/359 106/106/360 
f 91/91/361 76/76/362 92/92/363 107/107/364 
s 1
f 28/28/365 43/43/366 107/107/367 92/92/368 
f 43/43/369 42/42/370 106/106/371 107/107/372 
f 42/42/373 41/41/374 105/105/375 106/106/376 
f 41/41/377 40/40/378 104/104/379 105/105/380 
f 40/40/381 39/39/382 103/103/383 104/104/384 
f 39/39/385 38/38/386 102/102/387 103/103/388 
f 38/38/389 37/37/390 101/101/391 102/102/392 
f 37/37/393 36/36/394 100/100/395 101/101/396 
f 36/36/397 35/35/398 99/99/399 100/100/400 
f 35/35/401 34/34/402 98/98/403 99/99/404 
f 34/34/405 33/33/406 97/97/407 98/98/408 
f 33/33/409 32/32/410 96/96/411 97/97/412 
f 32/32/413 31/31/414 95/95/415 96/96/416 
f 31/31/417 30/30/418 94/94/419 95/95/420 
f 30/30/421 29/29/422 93/93/423 94/94/424 
f 29/29/425 28/28/426 92/92/427 93/93/428 
s 2
f 1/1/429 2/2/430 111/111/431 110/110/432 
f 2/2/433 3/3/434 112/112/435 111/111/436 
f 3/3/437 4/4/438 113/113/439 112/112/440 
f 4/4/441 5/5/442 114/114/443 113/113/444 
f 5/5/445 6/6/446 115/115/447 114/114/448 
f 6/6/449 108/108/450 116/116/451 115/115/452 
f 108/108/453 7/7/454 117/117/455 116/116/456 
f 7/7/457 8/8/458 118/118/459 117/117/460 
f 8/8/461 109/109/462 119/119/463 118/118/464 
f 109/109/465 9/9/466 120/120/467 119/119/468 
f 9/9/469 10/10/470 121/121/471 120/120/472 
f 10/10/473 1/1/474 110/110/475 121/121/476 
s 1
f 110/110/477 111/111/478 122/122/479 
f 111/111/480 112/112/481 122/122/482 
f 112/112/483 113/113/484 122/122/485 
f 113/113/486 114/114/487 122/122/488 
f 114/114/489 115/115/490 122/122/491 
f 115/115/492 116/116/493 122/122/494 
f 116/116/495 117/117/496 122/122/497 
f 117/117/498 118/118/499 122/122/500 
f 118/118/501 119/119/502 122/122/503 
f 119/119/504 120/120/505 122/122/506 
f 120/120/507 121/121/508 122/122/509 
f 121/121/510 110/110/511 122/122/512 
# 104 polygons - 32 triangles

