# 3ds Max Wavefront OBJ Exporter v0.97b - (c)2007 guruware
# File Created: 20.03.2016 14:15:25

#
# object 87580
#

v  -20.0000 -20.0000 -0.0000
v  20.0000 -20.0000 -0.0000
v  -20.0000 20.0000 -0.0000
v  20.0000 20.0000 -0.0000
v  -16.0000 -16.0000 -8.0000
v  -16.0000 16.0000 -8.0000
v  16.0000 16.0000 -8.0000
v  16.0000 -16.0000 -8.0000
v  -16.0000 -16.0000 -4.0000
v  -16.0000 16.0000 -4.0000
v  16.0000 16.0000 -4.0000
v  16.0000 -16.0000 -4.0000
v  20.0000 -20.0000 -7.0000
v  -20.0000 -20.0000 -7.0000
v  20.0000 20.0000 -7.0000
v  -20.0000 20.0000 -7.0000
v  -19.0000 -19.0000 -8.0000
v  -19.0000 19.0000 -8.0000
v  19.0000 19.0000 -8.0000
v  19.0000 -19.0000 -8.0000
v  -19.0000 -19.0000 -7.0000
v  -19.0000 19.0000 -7.0000
v  19.0000 19.0000 -7.0000
v  19.0000 -19.0000 -7.0000
v  0.0000 6.0000 -0.0000
v  0.0000 6.0000 4.0000
v  0.0000 4.0000 4.0000
v  0.0000 4.0000 -0.0000
v  3.0000 5.1961 -0.0000
v  3.0000 5.1961 4.0000
v  2.0000 3.4641 4.0000
v  2.0000 3.4641 -0.0000
v  5.1962 3.0000 -0.0000
v  5.1962 3.0000 4.0000
v  3.4641 2.0000 4.0000
v  3.4641 2.0000 -0.0000
v  6.0000 -0.0000 -0.0000
v  6.0000 -0.0000 4.0000
v  4.0000 -0.0000 4.0000
v  4.0000 -0.0000 -0.0000
v  5.1962 -3.0000 -0.0000
v  5.1962 -3.0000 4.0000
v  3.4641 -2.0000 4.0000
v  3.4641 -2.0000 -0.0000
v  3.0000 -5.1962 -0.0000
v  3.0000 -5.1962 4.0000
v  2.0000 -3.4641 4.0000
v  2.0000 -3.4641 -0.0000
v  0.0000 -6.0000 -0.0000
v  0.0000 -6.0000 4.0000
v  0.0000 -4.0000 4.0000
v  0.0000 -4.0000 -0.0000
v  -3.0000 -5.1962 -0.0000
v  -3.0000 -5.1962 4.0000
v  -2.0000 -3.4641 4.0000
v  -2.0000 -3.4641 -0.0000
v  -5.1962 -3.0000 -0.0000
v  -5.1962 -3.0000 4.0000
v  -3.4641 -2.0000 4.0000
v  -3.4641 -2.0000 -0.0000
v  -6.0000 -0.0000 -0.0000
v  -6.0000 -0.0000 4.0000
v  -4.0000 -0.0000 4.0000
v  -4.0000 -0.0000 -0.0000
v  -5.1962 3.0000 -0.0000
v  -5.1962 3.0000 4.0000
v  -3.4641 2.0000 4.0000
v  -3.4641 2.0000 -0.0000
v  -3.0000 5.1961 -0.0000
v  -3.0000 5.1961 4.0000
v  -2.0000 3.4641 4.0000
v  -2.0000 3.4641 -0.0000
v  0.0000 8.0000 -8.0000
v  0.0000 8.0000 -4.0000
v  0.0000 6.0000 -4.0000
v  0.0000 6.0000 -8.0000
v  4.0000 6.9282 -8.0000
v  4.0000 6.9282 -4.0000
v  3.0000 5.1961 -4.0000
v  3.0000 5.1961 -8.0000
v  6.9282 4.0000 -8.0000
v  6.9282 4.0000 -4.0000
v  5.1962 3.0000 -4.0000
v  5.1962 3.0000 -8.0000
v  8.0000 -0.0000 -8.0000
v  8.0000 -0.0000 -4.0000
v  6.0000 -0.0000 -4.0000
v  6.0000 -0.0000 -8.0000
v  6.9282 -4.0000 -8.0000
v  6.9282 -4.0000 -4.0000
v  5.1962 -3.0000 -4.0000
v  5.1962 -3.0000 -8.0000
v  4.0000 -6.9282 -8.0000
v  4.0000 -6.9282 -4.0000
v  3.0000 -5.1962 -4.0000
v  3.0000 -5.1962 -8.0000
v  0.0000 -8.0000 -8.0000
v  0.0000 -8.0000 -4.0000
v  0.0000 -6.0000 -4.0000
v  0.0000 -6.0000 -8.0000
v  -4.0000 -6.9282 -8.0000
v  -4.0000 -6.9282 -4.0000
v  -3.0000 -5.1962 -4.0000
v  -3.0000 -5.1962 -8.0000
v  -6.9282 -4.0000 -8.0000
v  -6.9282 -4.0000 -4.0000
v  -5.1962 -3.0000 -4.0000
v  -5.1962 -3.0000 -8.0000
v  -8.0000 -0.0000 -8.0000
v  -8.0000 -0.0000 -4.0000
v  -6.0000 -0.0000 -4.0000
v  -6.0000 -0.0000 -8.0000
v  -6.9282 4.0000 -8.0000
v  -6.9282 4.0000 -4.0000
v  -5.1962 3.0000 -4.0000
v  -5.1962 3.0000 -8.0000
v  -4.0000 6.9282 -8.0000
v  -4.0000 6.9282 -4.0000
v  -3.0000 5.1961 -4.0000
v  -3.0000 5.1961 -8.0000
# 120 vertices

vn 0.0000 0.0000 -1.0000
vn 0.0000 0.0000 -1.0000
vn 0.0000 0.0000 -1.0000
vn 0.0000 0.0000 -1.0000
vn 0.0000 0.0000 1.0000
vn 0.0000 0.0000 1.0000
vn 0.0000 0.0000 1.0000
vn 0.0000 0.0000 1.0000
vn 1.0000 0.0000 0.0000
vn 1.0000 0.0000 0.0000
vn 1.0000 0.0000 0.0000
vn 1.0000 0.0000 0.0000
vn 0.0000 -1.0000 0.0000
vn 0.0000 -1.0000 0.0000
vn 0.0000 -1.0000 0.0000
vn 0.0000 -1.0000 0.0000
vn -1.0000 0.0000 0.0000
vn -1.0000 0.0000 0.0000
vn -1.0000 0.0000 0.0000
vn -1.0000 0.0000 0.0000
vn 0.0000 1.0000 0.0000
vn 0.0000 1.0000 0.0000
vn 0.0000 1.0000 0.0000
vn 0.0000 1.0000 0.0000
vn 0.0000 -1.0000 0.0000
vn 0.0000 -1.0000 0.0000
vn 0.0000 -1.0000 0.0000
vn 0.0000 -1.0000 0.0000
vn 1.0000 0.0000 0.0000
vn 1.0000 0.0000 0.0000
vn 1.0000 0.0000 0.0000
vn 1.0000 0.0000 0.0000
vn 0.0000 1.0000 -0.0000
vn 0.0000 1.0000 0.0000
vn 0.0000 1.0000 -0.0000
vn 0.0000 1.0000 -0.0000
vn -1.0000 0.0000 0.0000
vn -1.0000 0.0000 0.0000
vn -1.0000 0.0000 0.0000
vn -1.0000 0.0000 0.0000
vn 0.0000 0.0000 -1.0000
vn 0.0000 0.0000 -1.0000
vn 0.0000 0.0000 -1.0000
vn 0.0000 0.0000 -1.0000
vn 0.0000 0.0000 -1.0000
vn 0.0000 0.0000 -1.0000
vn 0.0000 0.0000 -1.0000
vn 0.0000 0.0000 -1.0000
vn 0.0000 0.0000 -1.0000
vn 0.0000 0.0000 -1.0000
vn 0.0000 0.0000 -1.0000
vn 0.0000 0.0000 -1.0000
vn 0.0000 0.0000 -1.0000
vn 0.0000 0.0000 -1.0000
vn 0.0000 0.0000 -1.0000
vn 0.0000 0.0000 -1.0000
vn -1.0000 0.0000 0.0000
vn -1.0000 0.0000 0.0000
vn -1.0000 0.0000 0.0000
vn -1.0000 0.0000 0.0000
vn 0.0000 1.0000 0.0000
vn 0.0000 1.0000 0.0000
vn 0.0000 1.0000 0.0000
vn 0.0000 1.0000 0.0000
vn 1.0000 0.0000 0.0000
vn 1.0000 0.0000 0.0000
vn 1.0000 0.0000 0.0000
vn 1.0000 0.0000 0.0000
vn 0.0000 -1.0000 0.0000
vn 0.0000 -1.0000 0.0000
vn 0.0000 -1.0000 0.0000
vn 0.0000 -1.0000 0.0000
vn -0.0000 -0.0000 -1.0000
vn -0.0000 0.0000 -1.0000
vn -0.0000 0.0000 -1.0000
vn -0.0000 -0.0000 -1.0000
vn -0.0000 0.0000 -1.0000
vn 0.0000 0.0000 -1.0000
vn 0.0000 0.0000 -1.0000
vn -0.0000 0.0000 -1.0000
vn 0.0000 0.0000 -1.0000
vn 0.0000 -0.0000 -1.0000
vn 0.0000 -0.0000 -1.0000
vn 0.0000 0.0000 -1.0000
vn 0.0000 -0.0000 -1.0000
vn -0.0000 -0.0000 -1.0000
vn -0.0000 -0.0000 -1.0000
vn 0.0000 -0.0000 -1.0000
vn -0.0000 1.0000 0.0000
vn -0.0000 1.0000 0.0000
vn 0.5000 0.8660 0.0000
vn 0.5000 0.8660 0.0000
vn 0.0000 0.0000 1.0000
vn 0.0000 0.0000 1.0000
vn 0.0000 0.0000 1.0000
vn 0.0000 0.0000 1.0000
vn 0.0000 -1.0000 0.0000
vn 0.0000 -1.0000 0.0000
vn -0.5000 -0.8660 0.0000
vn -0.5000 -0.8660 0.0000
vn 0.5000 0.8660 0.0000
vn 0.5000 0.8660 0.0000
vn 0.8660 0.5000 0.0000
vn 0.8660 0.5000 0.0000
vn 0.0000 0.0000 1.0000
vn 0.0000 0.0000 1.0000
vn 0.0000 0.0000 1.0000
vn 0.0000 0.0000 1.0000
vn -0.5000 -0.8660 0.0000
vn -0.5000 -0.8660 0.0000
vn -0.8660 -0.5000 0.0000
vn -0.8660 -0.5000 0.0000
vn 0.8660 0.5000 0.0000
vn 0.8660 0.5000 0.0000
vn 1.0000 0.0000 0.0000
vn 1.0000 -0.0000 0.0000
vn 0.0000 0.0000 1.0000
vn 0.0000 0.0000 1.0000
vn 0.0000 0.0000 1.0000
vn 0.0000 0.0000 1.0000
vn -0.8660 -0.5000 0.0000
vn -0.8660 -0.5000 0.0000
vn -1.0000 0.0000 0.0000
vn -1.0000 0.0000 0.0000
vn 1.0000 -0.0000 0.0000
vn 1.0000 0.0000 0.0000
vn 0.8660 -0.5000 0.0000
vn 0.8660 -0.5000 0.0000
vn 0.0000 0.0000 1.0000
vn 0.0000 0.0000 1.0000
vn 0.0000 0.0000 1.0000
vn 0.0000 0.0000 1.0000
vn -1.0000 0.0000 0.0000
vn -1.0000 0.0000 0.0000
vn -0.8660 0.5000 0.0000
vn -0.8660 0.5000 0.0000
vn 0.8660 -0.5000 0.0000
vn 0.8660 -0.5000 0.0000
vn 0.5000 -0.8660 0.0000
vn 0.5000 -0.8660 0.0000
vn 0.0000 0.0000 1.0000
vn 0.0000 0.0000 1.0000
vn 0.0000 0.0000 1.0000
vn 0.0000 0.0000 1.0000
vn -0.8660 0.5000 0.0000
vn -0.8660 0.5000 0.0000
vn -0.5000 0.8660 0.0000
vn -0.5000 0.8660 0.0000
vn 0.5000 -0.8660 0.0000
vn 0.5000 -0.8660 0.0000
vn -0.0000 -1.0000 0.0000
vn -0.0000 -1.0000 0.0000
vn 0.0000 0.0000 1.0000
vn 0.0000 0.0000 1.0000
vn 0.0000 0.0000 1.0000
vn 0.0000 0.0000 1.0000
vn -0.5000 0.8660 0.0000
vn -0.5000 0.8660 0.0000
vn 0.0000 1.0000 0.0000
vn 0.0000 1.0000 0.0000
vn -0.0000 -1.0000 0.0000
vn -0.0000 -1.0000 0.0000
vn -0.5000 -0.8660 0.0000
vn -0.5000 -0.8660 0.0000
vn 0.0000 0.0000 1.0000
vn 0.0000 0.0000 1.0000
vn 0.0000 0.0000 1.0000
vn 0.0000 0.0000 1.0000
vn 0.0000 1.0000 0.0000
vn 0.0000 1.0000 0.0000
vn 0.5000 0.8660 0.0000
vn 0.5000 0.8660 0.0000
vn -0.5000 -0.8660 0.0000
vn -0.5000 -0.8660 0.0000
vn -0.8660 -0.5000 0.0000
vn -0.8660 -0.5000 0.0000
vn 0.0000 0.0000 1.0000
vn 0.0000 0.0000 1.0000
vn 0.0000 0.0000 1.0000
vn 0.0000 0.0000 1.0000
vn 0.5000 0.8660 0.0000
vn 0.5000 0.8660 0.0000
vn 0.8660 0.5000 0.0000
vn 0.8660 0.5000 0.0000
vn -0.8660 -0.5000 0.0000
vn -0.8660 -0.5000 0.0000
vn -1.0000 -0.0000 0.0000
vn -1.0000 -0.0000 0.0000
vn 0.0000 0.0000 1.0000
vn 0.0000 0.0000 1.0000
vn 0.0000 0.0000 1.0000
vn 0.0000 0.0000 1.0000
vn 0.8660 0.5000 0.0000
vn 0.8660 0.5000 0.0000
vn 1.0000 0.0000 0.0000
vn 1.0000 0.0000 0.0000
vn -1.0000 -0.0000 0.0000
vn -1.0000 -0.0000 0.0000
vn -0.8660 0.5000 0.0000
vn -0.8660 0.5000 0.0000
vn 0.0000 0.0000 1.0000
vn 0.0000 0.0000 1.0000
vn 0.0000 0.0000 1.0000
vn 0.0000 0.0000 1.0000
vn 1.0000 0.0000 0.0000
vn 1.0000 0.0000 0.0000
vn 0.8660 -0.5000 0.0000
vn 0.8660 -0.5000 0.0000
vn -0.8660 0.5000 0.0000
vn -0.8660 0.5000 0.0000
vn -0.5000 0.8660 0.0000
vn -0.5000 0.8660 0.0000
vn 0.0000 0.0000 1.0000
vn 0.0000 0.0000 1.0000
vn 0.0000 0.0000 1.0000
vn 0.0000 0.0000 1.0000
vn 0.8660 -0.5000 0.0000
vn 0.8660 -0.5000 0.0000
vn 0.5000 -0.8660 0.0000
vn 0.5000 -0.8660 0.0000
vn -0.5000 0.8660 0.0000
vn -0.5000 0.8660 0.0000
vn -0.0000 1.0000 0.0000
vn -0.0000 1.0000 0.0000
vn 0.0000 0.0000 1.0000
vn 0.0000 0.0000 1.0000
vn 0.0000 0.0000 1.0000
vn 0.0000 0.0000 1.0000
vn 0.5000 -0.8660 0.0000
vn 0.5000 -0.8660 0.0000
vn 0.0000 -1.0000 0.0000
vn 0.0000 -1.0000 0.0000
vn -0.0000 1.0000 -0.0000
vn -0.0000 1.0000 -0.0000
vn 0.5000 0.8660 -0.0000
vn 0.5000 0.8660 -0.0000
vn 0.0000 -1.0000 0.0000
vn 0.0000 -1.0000 0.0000
vn -0.5000 -0.8660 0.0000
vn -0.5000 -0.8660 0.0000
vn 0.0000 0.0000 -1.0000
vn 0.0000 0.0000 -1.0000
vn 0.0000 0.0000 -1.0000
vn 0.0000 0.0000 -1.0000
vn 0.5000 0.8660 -0.0000
vn 0.5000 0.8660 -0.0000
vn 0.8660 0.5000 -0.0000
vn 0.8660 0.5000 -0.0000
vn -0.5000 -0.8660 0.0000
vn -0.5000 -0.8660 0.0000
vn -0.8660 -0.5000 0.0000
vn -0.8660 -0.5000 0.0000
vn 0.0000 0.0000 -1.0000
vn 0.0000 0.0000 -1.0000
vn 0.0000 0.0000 -1.0000
vn 0.0000 0.0000 -1.0000
vn 0.8660 0.5000 -0.0000
vn 0.8660 0.5000 -0.0000
vn 1.0000 0.0000 0.0000
vn 1.0000 -0.0000 0.0000
vn -0.8660 -0.5000 0.0000
vn -0.8660 -0.5000 0.0000
vn -1.0000 0.0000 0.0000
vn -1.0000 -0.0000 0.0000
vn 0.0000 0.0000 -1.0000
vn 0.0000 0.0000 -1.0000
vn 0.0000 0.0000 -1.0000
vn 0.0000 0.0000 -1.0000
vn 1.0000 -0.0000 0.0000
vn 1.0000 0.0000 0.0000
vn 0.8660 -0.5000 0.0000
vn 0.8660 -0.5000 0.0000
vn -1.0000 -0.0000 0.0000
vn -1.0000 0.0000 0.0000
vn -0.8660 0.5000 -0.0000
vn -0.8660 0.5000 -0.0000
vn 0.0000 0.0000 -1.0000
vn 0.0000 0.0000 -1.0000
vn 0.0000 0.0000 -1.0000
vn 0.0000 0.0000 -1.0000
vn 0.8660 -0.5000 0.0000
vn 0.8660 -0.5000 0.0000
vn 0.5000 -0.8660 0.0000
vn 0.5000 -0.8660 0.0000
vn -0.8660 0.5000 -0.0000
vn -0.8660 0.5000 -0.0000
vn -0.5000 0.8660 -0.0000
vn -0.5000 0.8660 -0.0000
vn 0.0000 0.0000 -1.0000
vn 0.0000 0.0000 -1.0000
vn 0.0000 0.0000 -1.0000
vn 0.0000 0.0000 -1.0000
vn 0.5000 -0.8660 0.0000
vn 0.5000 -0.8660 0.0000
vn 0.0000 -1.0000 0.0000
vn -0.0000 -1.0000 0.0000
vn -0.5000 0.8660 -0.0000
vn -0.5000 0.8660 -0.0000
vn -0.0000 1.0000 -0.0000
vn 0.0000 1.0000 -0.0000
vn 0.0000 0.0000 -1.0000
vn 0.0000 0.0000 -1.0000
vn 0.0000 0.0000 -1.0000
vn 0.0000 0.0000 -1.0000
vn -0.0000 -1.0000 0.0000
vn 0.0000 -1.0000 0.0000
vn -0.5000 -0.8660 0.0000
vn -0.5000 -0.8660 0.0000
vn 0.0000 1.0000 -0.0000
vn -0.0000 1.0000 -0.0000
vn 0.5000 0.8660 -0.0000
vn 0.5000 0.8660 -0.0000
vn 0.0000 0.0000 -1.0000
vn 0.0000 0.0000 -1.0000
vn 0.0000 0.0000 -1.0000
vn 0.0000 0.0000 -1.0000
vn -0.5000 -0.8660 0.0000
vn -0.5000 -0.8660 0.0000
vn -0.8660 -0.5000 0.0000
vn -0.8660 -0.5000 0.0000
vn 0.5000 0.8660 -0.0000
vn 0.5000 0.8660 -0.0000
vn 0.8660 0.5000 -0.0000
vn 0.8660 0.5000 -0.0000
vn 0.0000 0.0000 -1.0000
vn 0.0000 0.0000 -1.0000
vn 0.0000 0.0000 -1.0000
vn 0.0000 0.0000 -1.0000
vn -0.8660 -0.5000 0.0000
vn -0.8660 -0.5000 0.0000
vn -1.0000 -0.0000 -0.0000
vn -1.0000 -0.0000 0.0000
vn 0.8660 0.5000 -0.0000
vn 0.8660 0.5000 -0.0000
vn 1.0000 0.0000 -0.0000
vn 1.0000 0.0000 -0.0000
vn 0.0000 0.0000 -1.0000
vn 0.0000 0.0000 -1.0000
vn 0.0000 0.0000 -1.0000
vn 0.0000 0.0000 -1.0000
vn -1.0000 -0.0000 0.0000
vn -1.0000 -0.0000 -0.0000
vn -0.8660 0.5000 -0.0000
vn -0.8660 0.5000 -0.0000
vn 1.0000 0.0000 -0.0000
vn 1.0000 0.0000 -0.0000
vn 0.8660 -0.5000 0.0000
vn 0.8660 -0.5000 0.0000
vn 0.0000 0.0000 -1.0000
vn 0.0000 0.0000 -1.0000
vn 0.0000 0.0000 -1.0000
vn 0.0000 0.0000 -1.0000
vn -0.8660 0.5000 -0.0000
vn -0.8660 0.5000 -0.0000
vn -0.5000 0.8660 -0.0000
vn -0.5000 0.8660 -0.0000
vn 0.8660 -0.5000 0.0000
vn 0.8660 -0.5000 0.0000
vn 0.5000 -0.8660 0.0000
vn 0.5000 -0.8660 0.0000
vn 0.0000 0.0000 -1.0000
vn 0.0000 0.0000 -1.0000
vn 0.0000 0.0000 -1.0000
vn 0.0000 0.0000 -1.0000
vn -0.5000 0.8660 -0.0000
vn -0.5000 0.8660 -0.0000
vn -0.0000 1.0000 -0.0000
vn -0.0000 1.0000 -0.0000
vn 0.5000 -0.8660 0.0000
vn 0.5000 -0.8660 0.0000
vn 0.0000 -1.0000 0.0000
vn 0.0000 -1.0000 0.0000
vn 0.0000 0.0000 -1.0000
vn 0.0000 0.0000 -1.0000
vn 0.0000 0.0000 -1.0000
vn 0.0000 0.0000 -1.0000
# 376 vertex normals

vt 0.0429 0.0429 0.6667
vt 0.9571 0.0429 0.6667
vt 0.0429 0.9571 0.6667
vt 0.9571 0.9571 0.6667
vt 0.1343 0.1343 0.0000
vt 0.1343 0.8657 0.0000
vt 0.8657 0.8657 0.0000
vt 0.8657 0.1343 0.0000
vt 0.1343 0.1343 0.3333
vt 0.1343 0.8657 0.3333
vt 0.8657 0.8657 0.3333
vt 0.8657 0.1343 0.3333
vt 0.9571 0.0429 0.0833
vt 0.0429 0.0429 0.0833
vt 0.9571 0.9571 0.0833
vt 0.0429 0.9571 0.0833
vt 0.0657 0.0657 0.0000
vt 0.0657 0.9343 0.0000
vt 0.9343 0.9343 0.0000
vt 0.9343 0.0657 0.0000
vt 0.0657 0.0657 0.0833
vt 0.0657 0.9343 0.0833
vt 0.9343 0.9343 0.0833
vt 0.9343 0.0657 0.0833
vt 0.5000 0.6371 0.6667
vt 0.5000 0.6371 1.0000
vt 0.5000 0.5914 1.0000
vt 0.5000 0.5914 0.6667
vt 0.5686 0.6188 0.6667
vt 0.5686 0.6188 1.0000
vt 0.5457 0.5792 1.0000
vt 0.5457 0.5792 0.6667
vt 0.6188 0.5686 0.6667
vt 0.6188 0.5686 1.0000
vt 0.5792 0.5457 1.0000
vt 0.5792 0.5457 0.6667
vt 0.6371 0.5000 0.6667
vt 0.6371 0.5000 1.0000
vt 0.5914 0.5000 1.0000
vt 0.5914 0.5000 0.6667
vt 0.6188 0.4314 0.6667
vt 0.6188 0.4314 1.0000
vt 0.5792 0.4543 1.0000
vt 0.5792 0.4543 0.6667
vt 0.5686 0.3812 0.6667
vt 0.5686 0.3812 1.0000
vt 0.5457 0.4208 1.0000
vt 0.5457 0.4208 0.6667
vt 0.5000 0.3629 0.6667
vt 0.5000 0.3629 1.0000
vt 0.5000 0.4086 1.0000
vt 0.5000 0.4086 0.6667
vt 0.4314 0.3812 0.6667
vt 0.4314 0.3812 1.0000
vt 0.4543 0.4208 1.0000
vt 0.4543 0.4208 0.6667
vt 0.3812 0.4314 0.6667
vt 0.3812 0.4314 1.0000
vt 0.4208 0.4543 1.0000
vt 0.4208 0.4543 0.6667
vt 0.3629 0.5000 0.6667
vt 0.3629 0.5000 1.0000
vt 0.4086 0.5000 1.0000
vt 0.4086 0.5000 0.6667
vt 0.3812 0.5686 0.6667
vt 0.3812 0.5686 1.0000
vt 0.4208 0.5457 1.0000
vt 0.4208 0.5457 0.6667
vt 0.4314 0.6188 0.6667
vt 0.4314 0.6188 1.0000
vt 0.4543 0.5792 1.0000
vt 0.4543 0.5792 0.6667
vt 0.5000 0.6829 0.0000
vt 0.5000 0.6829 0.3333
vt 0.5000 0.6371 0.3333
vt 0.5000 0.6371 0.0000
vt 0.5914 0.6584 0.0000
vt 0.5914 0.6584 0.3333
vt 0.5686 0.6188 0.3333
vt 0.5686 0.6188 0.0000
vt 0.6584 0.5914 0.0000
vt 0.6584 0.5914 0.3333
vt 0.6188 0.5686 0.3333
vt 0.6188 0.5686 0.0000
vt 0.6829 0.5000 0.0000
vt 0.6829 0.5000 0.3333
vt 0.6371 0.5000 0.3333
vt 0.6371 0.5000 0.0000
vt 0.6584 0.4086 0.0000
vt 0.6584 0.4086 0.3333
vt 0.6188 0.4314 0.3333
vt 0.6188 0.4314 0.0000
vt 0.5914 0.3416 0.0000
vt 0.5914 0.3416 0.3333
vt 0.5686 0.3812 0.3333
vt 0.5686 0.3812 0.0000
vt 0.5000 0.3171 0.0000
vt 0.5000 0.3171 0.3333
vt 0.5000 0.3629 0.3333
vt 0.5000 0.3629 0.0000
vt 0.4086 0.3416 0.0000
vt 0.4086 0.3416 0.3333
vt 0.4314 0.3812 0.3333
vt 0.4314 0.3812 0.0000
vt 0.3416 0.4086 0.0000
vt 0.3416 0.4086 0.3333
vt 0.3812 0.4314 0.3333
vt 0.3812 0.4314 0.0000
vt 0.3171 0.5000 0.0000
vt 0.3171 0.5000 0.3333
vt 0.3629 0.5000 0.3333
vt 0.3629 0.5000 0.0000
vt 0.3416 0.5914 0.0000
vt 0.3416 0.5914 0.3333
vt 0.3812 0.5686 0.3333
vt 0.3812 0.5686 0.0000
vt 0.4086 0.6584 0.0000
vt 0.4086 0.6584 0.3333
vt 0.4314 0.6188 0.3333
vt 0.4314 0.6188 0.0000
# 120 texture coords

g 87580
s 1
f 9/9/1 10/10/2 11/11/3 12/12/4 
f 1/1/5 2/2/6 4/4/7 3/3/8 
s 2
f 5/5/9 6/6/10 10/10/11 9/9/12 
s 4
f 6/6/13 7/7/14 11/11/15 10/10/16 
s 2
f 7/7/17 8/8/18 12/12/19 11/11/20 
s 4
f 8/8/21 5/5/22 9/9/23 12/12/24 
s 2
f 2/2/25 1/1/26 14/14/27 13/13/28 
s 4
f 4/4/29 2/2/30 13/13/31 15/15/32 
s 2
f 3/3/33 4/4/34 15/15/35 16/16/36 
s 4
f 1/1/37 3/3/38 16/16/39 14/14/40 
s 1
f 6/6/41 5/5/42 17/17/43 18/18/44 
f 7/7/45 6/6/46 18/18/47 19/19/48 
f 8/8/49 7/7/50 19/19/51 20/20/52 
f 5/5/53 8/8/54 20/20/55 17/17/56 
s 2
f 18/18/57 17/17/58 21/21/59 22/22/60 
s 4
f 19/19/61 18/18/62 22/22/63 23/23/64 
s 2
f 20/20/65 19/19/66 23/23/67 24/24/68 
s 4
f 17/17/69 20/20/70 24/24/71 21/21/72 
s 1
f 14/14/73 16/16/74 22/22/75 21/21/76 
f 16/16/77 15/15/78 23/23/79 22/22/80 
f 15/15/81 13/13/82 24/24/83 23/23/84 
f 13/13/85 14/14/86 21/21/87 24/24/88 
f 25/25/89 26/26/90 30/30/91 29/29/92 
s 2
f 26/26/93 27/27/94 31/31/95 30/30/96 
s 1
f 27/27/97 28/28/98 32/32/99 31/31/100 
f 29/29/101 30/30/102 34/34/103 33/33/104 
s 2
f 30/30/105 31/31/106 35/35/107 34/34/108 
s 1
f 31/31/109 32/32/110 36/36/111 35/35/112 
f 33/33/113 34/34/114 38/38/115 37/37/116 
s 2
f 34/34/117 35/35/118 39/39/119 38/38/120 
s 1
f 35/35/121 36/36/122 40/40/123 39/39/124 
f 37/37/125 38/38/126 42/42/127 41/41/128 
s 2
f 38/38/129 39/39/130 43/43/131 42/42/132 
s 1
f 39/39/133 40/40/134 44/44/135 43/43/136 
f 41/41/137 42/42/138 46/46/139 45/45/140 
s 2
f 42/42/141 43/43/142 47/47/143 46/46/144 
s 1
f 43/43/145 44/44/146 48/48/147 47/47/148 
f 45/45/149 46/46/150 50/50/151 49/49/152 
s 2
f 46/46/153 47/47/154 51/51/155 50/50/156 
s 1
f 47/47/157 48/48/158 52/52/159 51/51/160 
f 49/49/161 50/50/162 54/54/163 53/53/164 
s 2
f 50/50/165 51/51/166 55/55/167 54/54/168 
s 1
f 51/51/169 52/52/170 56/56/171 55/55/172 
f 53/53/173 54/54/174 58/58/175 57/57/176 
s 2
f 54/54/177 55/55/178 59/59/179 58/58/180 
s 1
f 55/55/181 56/56/182 60/60/183 59/59/184 
f 57/57/185 58/58/186 62/62/187 61/61/188 
s 2
f 58/58/189 59/59/190 63/63/191 62/62/192 
s 1
f 59/59/193 60/60/194 64/64/195 63/63/196 
f 61/61/197 62/62/198 66/66/199 65/65/200 
s 2
f 62/62/201 63/63/202 67/67/203 66/66/204 
s 1
f 63/63/205 64/64/206 68/68/207 67/67/208 
f 65/65/209 66/66/210 70/70/211 69/69/212 
s 2
f 66/66/213 67/67/214 71/71/215 70/70/216 
s 1
f 67/67/217 68/68/218 72/72/219 71/71/220 
f 69/69/221 70/70/222 26/26/223 25/25/224 
s 2
f 70/70/225 71/71/226 27/27/227 26/26/228 
s 1
f 71/71/229 72/72/230 28/28/231 27/27/232 
s 2
f 73/73/233 74/74/234 78/78/235 77/77/236 
f 75/75/237 76/76/238 80/80/239 79/79/240 
s 4
f 76/76/241 73/73/242 77/77/243 80/80/244 
s 2
f 77/77/245 78/78/246 82/82/247 81/81/248 
f 79/79/249 80/80/250 84/84/251 83/83/252 
s 4
f 80/80/253 77/77/254 81/81/255 84/84/256 
s 2
f 81/81/257 82/82/258 86/86/259 85/85/260 
f 83/83/261 84/84/262 88/88/263 87/87/264 
s 4
f 84/84/265 81/81/266 85/85/267 88/88/268 
s 2
f 85/85/269 86/86/270 90/90/271 89/89/272 
f 87/87/273 88/88/274 92/92/275 91/91/276 
s 4
f 88/88/277 85/85/278 89/89/279 92/92/280 
s 2
f 89/89/281 90/90/282 94/94/283 93/93/284 
f 91/91/285 92/92/286 96/96/287 95/95/288 
s 4
f 92/92/289 89/89/290 93/93/291 96/96/292 
s 2
f 93/93/293 94/94/294 98/98/295 97/97/296 
f 95/95/297 96/96/298 100/100/299 99/99/300 
s 4
f 96/96/301 93/93/302 97/97/303 100/100/304 
s 2
f 97/97/305 98/98/306 102/102/307 101/101/308 
f 99/99/309 100/100/310 104/104/311 103/103/312 
s 4
f 100/100/313 97/97/314 101/101/315 104/104/316 
s 2
f 101/101/317 102/102/318 106/106/319 105/105/320 
f 103/103/321 104/104/322 108/108/323 107/107/324 
s 4
f 104/104/325 101/101/326 105/105/327 108/108/328 
s 2
f 105/105/329 106/106/330 110/110/331 109/109/332 
f 107/107/333 108/108/334 112/112/335 111/111/336 
s 4
f 108/108/337 105/105/338 109/109/339 112/112/340 
s 2
f 109/109/341 110/110/342 114/114/343 113/113/344 
f 111/111/345 112/112/346 116/116/347 115/115/348 
s 4
f 112/112/349 109/109/350 113/113/351 116/116/352 
s 2
f 113/113/353 114/114/354 118/118/355 117/117/356 
f 115/115/357 116/116/358 120/120/359 119/119/360 
s 4
f 116/116/361 113/113/362 117/117/363 120/120/364 
s 2
f 117/117/365 118/118/366 74/74/367 73/73/368 
f 119/119/369 120/120/370 76/76/371 75/75/372 
s 4
f 120/120/373 117/117/374 73/73/375 76/76/376 
# 94 polygons

