# 3ds Max Wavefront OBJ Exporter v0.97b - (c)2007 guruware
# File Created: 18.03.2016 20:27:47

#
# object 3623
#

v  -30.0000 -10.0000 -8.0000
v  30.0000 -10.0000 -8.0000
v  -30.0000 10.0000 -8.0000
v  30.0000 10.0000 -8.0000
v  -30.0000 -10.0000 0.0000
v  30.0000 -10.0000 0.0000
v  -30.0000 10.0000 0.0000
v  30.0000 10.0000 0.0000
v  -26.0000 -6.0000 -8.0000
v  -26.0000 6.0000 -8.0000
v  26.0000 6.0000 -8.0000
v  26.0000 -6.0000 -8.0000
v  -26.0000 -6.0000 -4.0000
v  -26.0000 6.0000 -4.0000
v  26.0000 6.0000 -4.0000
v  26.0000 -6.0000 -4.0000
v  -14.0000 0.0000 0.0000
v  -14.8039 3.0000 0.0000
v  -17.0000 5.1961 0.0000
v  -20.0000 6.0000 0.0000
v  -23.0000 5.1961 0.0000
v  -25.1962 3.0000 0.0000
v  -26.0000 0.0000 0.0000
v  -25.1962 -3.0000 0.0000
v  -23.0000 -5.1962 0.0000
v  -20.0000 -6.0000 0.0000
v  -17.0000 -5.1962 0.0000
v  -14.8039 -3.0000 0.0000
v  -14.0000 0.0000 4.0000
v  -14.8039 3.0000 4.0000
v  -17.0000 5.1961 4.0000
v  -20.0000 6.0000 4.0000
v  -23.0000 5.1961 4.0000
v  -25.1962 3.0000 4.0000
v  -26.0000 0.0000 4.0000
v  -25.1962 -3.0000 4.0000
v  -23.0000 -5.1962 4.0000
v  -20.0000 -6.0000 4.0000
v  -17.0000 -5.1962 4.0000
v  -14.8039 -3.0000 4.0000
v  -20.0000 0.0000 4.0000
v  6.0000 0.0000 0.0000
v  5.1961 3.0000 0.0000
v  3.0000 5.1961 0.0000
v  0.0000 6.0000 0.0000
v  -3.0000 5.1961 0.0000
v  -5.1962 3.0000 0.0000
v  -6.0000 0.0000 0.0000
v  -5.1962 -3.0000 0.0000
v  -3.0000 -5.1962 0.0000
v  0.0000 -6.0000 0.0000
v  3.0000 -5.1962 0.0000
v  5.1961 -3.0000 0.0000
v  6.0000 0.0000 4.0000
v  5.1961 3.0000 4.0000
v  3.0000 5.1961 4.0000
v  0.0000 6.0000 4.0000
v  -3.0000 5.1961 4.0000
v  -5.1962 3.0000 4.0000
v  -6.0000 0.0000 4.0000
v  -5.1962 -3.0000 4.0000
v  -3.0000 -5.1962 4.0000
v  0.0000 -6.0000 4.0000
v  3.0000 -5.1962 4.0000
v  5.1961 -3.0000 4.0000
v  0.0000 0.0000 4.0000
v  26.0000 0.0000 0.0000
v  25.1961 3.0000 0.0000
v  23.0000 5.1961 0.0000
v  20.0000 6.0000 0.0000
v  17.0000 5.1961 0.0000
v  14.8038 3.0000 0.0000
v  14.0000 0.0000 0.0000
v  14.8038 -3.0000 0.0000
v  17.0000 -5.1962 0.0000
v  20.0000 -6.0000 0.0000
v  23.0000 -5.1962 0.0000
v  25.1961 -3.0000 0.0000
v  26.0000 0.0000 4.0000
v  25.1961 3.0000 4.0000
v  23.0000 5.1961 4.0000
v  20.0000 6.0000 4.0000
v  17.0000 5.1961 4.0000
v  14.8038 3.0000 4.0000
v  14.0000 0.0000 4.0000
v  14.8038 -3.0000 4.0000
v  17.0000 -5.1962 4.0000
v  20.0000 -6.0000 4.0000
v  23.0000 -5.1962 4.0000
v  25.1961 -3.0000 4.0000
v  20.0000 0.0000 4.0000
v  -6.0000 0.0000 -8.0000
v  -6.5359 2.0000 -8.0000
v  -8.0000 3.4641 -8.0000
v  -10.0000 4.0000 -8.0000
v  -12.0000 3.4641 -8.0000
v  -13.4641 2.0000 -8.0000
v  -14.0000 0.0000 -8.0000
v  -13.4641 -2.0000 -8.0000
v  -12.0000 -3.4641 -8.0000
v  -10.0000 -4.0000 -8.0000
v  -8.0000 -3.4641 -8.0000
v  -6.5359 -2.0000 -8.0000
v  -6.0000 0.0000 -4.0000
v  -6.5359 2.0000 -4.0000
v  -8.0000 3.4641 -4.0000
v  -10.0000 4.0000 -4.0000
v  -12.0000 3.4641 -4.0000
v  -13.4641 2.0000 -4.0000
v  -14.0000 0.0000 -4.0000
v  -13.4641 -2.0000 -4.0000
v  -12.0000 -3.4641 -4.0000
v  -10.0000 -4.0000 -4.0000
v  -8.0000 -3.4641 -4.0000
v  -6.5359 -2.0000 -4.0000
v  -10.0000 0.0000 -8.0000
v  14.0000 0.0000 -8.0000
v  13.4641 2.0000 -8.0000
v  12.0000 3.4641 -8.0000
v  10.0000 4.0000 -8.0000
v  8.0000 3.4641 -8.0000
v  6.5359 2.0000 -8.0000
v  6.0000 0.0000 -8.0000
v  6.5359 -2.0000 -8.0000
v  8.0000 -3.4641 -8.0000
v  10.0000 -4.0000 -8.0000
v  12.0000 -3.4641 -8.0000
v  13.4641 -2.0000 -8.0000
v  14.0000 0.0000 -4.0000
v  13.4641 2.0000 -4.0000
v  12.0000 3.4641 -4.0000
v  10.0000 4.0000 -4.0000
v  8.0000 3.4641 -4.0000
v  6.5359 2.0000 -4.0000
v  6.0000 0.0000 -4.0000
v  6.5359 -2.0000 -4.0000
v  8.0000 -3.4641 -4.0000
v  10.0000 -4.0000 -4.0000
v  12.0000 -3.4641 -4.0000
v  13.4641 -2.0000 -4.0000
v  10.0000 0.0000 -8.0000
# 141 vertices

vn 0.0000 0.0000 -1.0000
vn 0.0000 0.0000 -1.0000
vn 0.0000 0.0000 -1.0000
vn 0.0000 0.0000 -1.0000
vn 0.0000 0.0000 1.0000
vn 0.0000 0.0000 1.0000
vn 0.0000 0.0000 1.0000
vn 0.0000 0.0000 1.0000
vn 0.0000 -1.0000 0.0000
vn 0.0000 -1.0000 0.0000
vn 0.0000 -1.0000 0.0000
vn 0.0000 -1.0000 0.0000
vn 1.0000 0.0000 0.0000
vn 1.0000 0.0000 0.0000
vn 1.0000 0.0000 0.0000
vn 1.0000 0.0000 0.0000
vn 0.0000 1.0000 0.0000
vn 0.0000 1.0000 0.0000
vn 0.0000 1.0000 0.0000
vn 0.0000 1.0000 0.0000
vn -1.0000 0.0000 0.0000
vn -1.0000 0.0000 0.0000
vn -1.0000 0.0000 0.0000
vn -1.0000 0.0000 0.0000
vn 0.0000 0.0000 -1.0000
vn 0.0000 0.0000 -1.0000
vn 0.0000 0.0000 -1.0000
vn 0.0000 0.0000 -1.0000
vn 0.0000 0.0000 -1.0000
vn 0.0000 0.0000 -1.0000
vn 0.0000 0.0000 -1.0000
vn 0.0000 0.0000 -1.0000
vn 0.0000 0.0000 -1.0000
vn 0.0000 0.0000 -1.0000
vn 0.0000 0.0000 -1.0000
vn 0.0000 0.0000 -1.0000
vn 0.0000 0.0000 -1.0000
vn 0.0000 0.0000 -1.0000
vn 0.0000 0.0000 -1.0000
vn 0.0000 0.0000 -1.0000
vn 1.0000 0.0000 0.0000
vn 1.0000 0.0000 0.0000
vn 1.0000 0.0000 0.0000
vn 1.0000 0.0000 0.0000
vn 0.0000 -1.0000 0.0000
vn 0.0000 -1.0000 0.0000
vn 0.0000 -1.0000 0.0000
vn 0.0000 -1.0000 0.0000
vn -1.0000 0.0000 0.0000
vn -1.0000 0.0000 0.0000
vn -1.0000 0.0000 0.0000
vn -1.0000 0.0000 0.0000
vn 0.0000 1.0000 0.0000
vn 0.0000 1.0000 0.0000
vn 0.0000 1.0000 0.0000
vn 0.0000 1.0000 0.0000
vn 0.8660 0.5000 0.0000
vn 1.0000 0.0000 0.0000
vn 1.0000 0.0000 0.0000
vn 0.8660 0.5000 0.0000
vn 0.5000 0.8660 0.0000
vn 0.8660 0.5000 0.0000
vn 0.8660 0.5000 0.0000
vn 0.5000 0.8660 0.0000
vn 0.0000 1.0000 0.0000
vn 0.5000 0.8660 0.0000
vn 0.5000 0.8660 0.0000
vn 0.0000 1.0000 0.0000
vn -0.5000 0.8660 0.0000
vn 0.0000 1.0000 0.0000
vn 0.0000 1.0000 0.0000
vn -0.5000 0.8660 0.0000
vn -0.8660 0.5000 0.0000
vn -0.5000 0.8660 0.0000
vn -0.5000 0.8660 0.0000
vn -0.8660 0.5000 0.0000
vn -1.0000 0.0000 0.0000
vn -0.8660 0.5000 0.0000
vn -0.8660 0.5000 0.0000
vn -1.0000 0.0000 0.0000
vn -0.8660 -0.5000 0.0000
vn -1.0000 0.0000 0.0000
vn -1.0000 0.0000 0.0000
vn -0.8660 -0.5000 0.0000
vn -0.5000 -0.8660 0.0000
vn -0.8660 -0.5000 0.0000
vn -0.8660 -0.5000 0.0000
vn -0.5000 -0.8660 0.0000
vn 0.0000 -1.0000 0.0000
vn -0.5000 -0.8660 0.0000
vn -0.5000 -0.8660 0.0000
vn 0.0000 -1.0000 0.0000
vn 0.5000 -0.8660 0.0000
vn 0.0000 -1.0000 0.0000
vn 0.0000 -1.0000 0.0000
vn 0.5000 -0.8660 0.0000
vn 0.8660 -0.5000 0.0000
vn 0.5000 -0.8660 0.0000
vn 0.5000 -0.8660 0.0000
vn 0.8660 -0.5000 0.0000
vn 1.0000 0.0000 0.0000
vn 0.8660 -0.5000 0.0000
vn 0.8660 -0.5000 0.0000
vn 1.0000 0.0000 0.0000
vn 0.0000 0.0000 1.0000
vn 0.0000 0.0000 1.0000
vn 0.0000 0.0000 1.0000
vn 0.0000 0.0000 1.0000
vn 0.0000 0.0000 1.0000
vn 0.0000 0.0000 1.0000
vn 0.0000 0.0000 1.0000
vn 0.0000 0.0000 1.0000
vn 0.0000 0.0000 1.0000
vn 0.0000 0.0000 1.0000
vn 0.0000 0.0000 1.0000
vn 0.0000 0.0000 1.0000
vn 0.0000 0.0000 1.0000
vn 0.0000 0.0000 1.0000
vn 0.0000 0.0000 1.0000
vn 0.0000 0.0000 1.0000
vn 0.0000 0.0000 1.0000
vn 0.0000 0.0000 1.0000
vn 0.0000 0.0000 1.0000
vn 0.0000 0.0000 1.0000
vn 0.0000 0.0000 1.0000
vn 0.0000 0.0000 1.0000
vn 0.0000 0.0000 1.0000
vn 0.0000 0.0000 1.0000
vn 0.0000 0.0000 1.0000
vn 0.0000 0.0000 1.0000
vn 0.0000 0.0000 1.0000
vn 0.0000 0.0000 1.0000
vn 0.0000 0.0000 1.0000
vn 0.0000 0.0000 1.0000
vn 0.0000 0.0000 1.0000
vn 0.0000 0.0000 1.0000
vn 0.0000 0.0000 1.0000
vn 0.0000 0.0000 1.0000
vn 0.0000 0.0000 1.0000
vn 0.0000 0.0000 1.0000
vn 0.8660 0.5000 0.0000
vn 1.0000 0.0000 0.0000
vn 1.0000 0.0000 0.0000
vn 0.8660 0.5000 0.0000
vn 0.5000 0.8660 0.0000
vn 0.8660 0.5000 0.0000
vn 0.8660 0.5000 0.0000
vn 0.5000 0.8660 0.0000
vn 0.0000 1.0000 0.0000
vn 0.5000 0.8660 0.0000
vn 0.5000 0.8660 0.0000
vn 0.0000 1.0000 0.0000
vn -0.5000 0.8660 0.0000
vn 0.0000 1.0000 0.0000
vn 0.0000 1.0000 0.0000
vn -0.5000 0.8660 0.0000
vn -0.8660 0.5000 0.0000
vn -0.5000 0.8660 0.0000
vn -0.5000 0.8660 0.0000
vn -0.8660 0.5000 0.0000
vn -1.0000 0.0000 0.0000
vn -0.8660 0.5000 0.0000
vn -0.8660 0.5000 0.0000
vn -1.0000 0.0000 0.0000
vn -0.8660 -0.5000 0.0000
vn -1.0000 0.0000 0.0000
vn -1.0000 0.0000 0.0000
vn -0.8660 -0.5000 0.0000
vn -0.5000 -0.8660 0.0000
vn -0.8660 -0.5000 0.0000
vn -0.8660 -0.5000 0.0000
vn -0.5000 -0.8660 0.0000
vn 0.0000 -1.0000 0.0000
vn -0.5000 -0.8660 0.0000
vn -0.5000 -0.8660 0.0000
vn 0.0000 -1.0000 0.0000
vn 0.5000 -0.8660 0.0000
vn 0.0000 -1.0000 0.0000
vn 0.0000 -1.0000 0.0000
vn 0.5000 -0.8660 0.0000
vn 0.8660 -0.5000 0.0000
vn 0.5000 -0.8660 0.0000
vn 0.5000 -0.8660 0.0000
vn 0.8660 -0.5000 0.0000
vn 1.0000 0.0000 0.0000
vn 0.8660 -0.5000 0.0000
vn 0.8660 -0.5000 0.0000
vn 1.0000 0.0000 0.0000
vn 0.0000 0.0000 1.0000
vn 0.0000 0.0000 1.0000
vn 0.0000 0.0000 1.0000
vn 0.0000 0.0000 1.0000
vn 0.0000 0.0000 1.0000
vn 0.0000 0.0000 1.0000
vn 0.0000 0.0000 1.0000
vn 0.0000 0.0000 1.0000
vn 0.0000 0.0000 1.0000
vn 0.0000 0.0000 1.0000
vn 0.0000 0.0000 1.0000
vn 0.0000 0.0000 1.0000
vn 0.0000 0.0000 1.0000
vn 0.0000 0.0000 1.0000
vn 0.0000 0.0000 1.0000
vn 0.0000 0.0000 1.0000
vn 0.0000 0.0000 1.0000
vn 0.0000 0.0000 1.0000
vn 0.0000 0.0000 1.0000
vn 0.0000 0.0000 1.0000
vn 0.0000 0.0000 1.0000
vn 0.0000 0.0000 1.0000
vn 0.0000 0.0000 1.0000
vn 0.0000 0.0000 1.0000
vn 0.0000 0.0000 1.0000
vn 0.0000 0.0000 1.0000
vn 0.0000 0.0000 1.0000
vn 0.0000 0.0000 1.0000
vn 0.0000 0.0000 1.0000
vn 0.0000 0.0000 1.0000
vn 0.0000 0.0000 1.0000
vn 0.0000 0.0000 1.0000
vn 0.0000 0.0000 1.0000
vn 0.0000 0.0000 1.0000
vn 0.0000 0.0000 1.0000
vn 0.0000 0.0000 1.0000
vn 0.8660 0.5000 0.0000
vn 1.0000 0.0000 0.0000
vn 1.0000 0.0000 0.0000
vn 0.8660 0.5000 0.0000
vn 0.5000 0.8660 0.0000
vn 0.8660 0.5000 0.0000
vn 0.8660 0.5000 0.0000
vn 0.5000 0.8660 0.0000
vn 0.0000 1.0000 0.0000
vn 0.5000 0.8660 0.0000
vn 0.5000 0.8660 0.0000
vn 0.0000 1.0000 0.0000
vn -0.5000 0.8660 0.0000
vn 0.0000 1.0000 0.0000
vn 0.0000 1.0000 0.0000
vn -0.5000 0.8660 0.0000
vn -0.8660 0.5000 0.0000
vn -0.5000 0.8660 0.0000
vn -0.5000 0.8660 0.0000
vn -0.8660 0.5000 0.0000
vn -1.0000 0.0000 0.0000
vn -0.8660 0.5000 0.0000
vn -0.8660 0.5000 0.0000
vn -1.0000 0.0000 0.0000
vn -0.8660 -0.5000 0.0000
vn -1.0000 0.0000 0.0000
vn -1.0000 0.0000 0.0000
vn -0.8660 -0.5000 0.0000
vn -0.5000 -0.8660 0.0000
vn -0.8660 -0.5000 0.0000
vn -0.8660 -0.5000 0.0000
vn -0.5000 -0.8660 0.0000
vn 0.0000 -1.0000 0.0000
vn -0.5000 -0.8660 0.0000
vn -0.5000 -0.8660 0.0000
vn 0.0000 -1.0000 0.0000
vn 0.5000 -0.8660 0.0000
vn 0.0000 -1.0000 0.0000
vn 0.0000 -1.0000 0.0000
vn 0.5000 -0.8660 0.0000
vn 0.8660 -0.5000 0.0000
vn 0.5000 -0.8660 0.0000
vn 0.5000 -0.8660 0.0000
vn 0.8660 -0.5000 0.0000
vn 1.0000 0.0000 0.0000
vn 0.8660 -0.5000 0.0000
vn 0.8660 -0.5000 0.0000
vn 1.0000 0.0000 0.0000
vn 0.0000 0.0000 1.0000
vn 0.0000 0.0000 1.0000
vn 0.0000 0.0000 1.0000
vn 0.0000 0.0000 1.0000
vn 0.0000 0.0000 1.0000
vn 0.0000 0.0000 1.0000
vn 0.0000 0.0000 1.0000
vn 0.0000 0.0000 1.0000
vn 0.0000 0.0000 1.0000
vn 0.0000 0.0000 1.0000
vn 0.0000 0.0000 1.0000
vn 0.0000 0.0000 1.0000
vn 0.0000 0.0000 1.0000
vn 0.0000 0.0000 1.0000
vn 0.0000 0.0000 1.0000
vn 0.0000 0.0000 1.0000
vn 0.0000 0.0000 1.0000
vn 0.0000 0.0000 1.0000
vn 0.0000 0.0000 1.0000
vn 0.0000 0.0000 1.0000
vn 0.0000 0.0000 1.0000
vn 0.0000 0.0000 1.0000
vn 0.0000 0.0000 1.0000
vn 0.0000 0.0000 1.0000
vn 0.0000 0.0000 1.0000
vn 0.0000 0.0000 1.0000
vn 0.0000 0.0000 1.0000
vn 0.0000 0.0000 1.0000
vn 0.0000 0.0000 1.0000
vn 0.0000 0.0000 1.0000
vn 0.0000 0.0000 1.0000
vn 0.0000 0.0000 1.0000
vn 0.0000 0.0000 1.0000
vn 0.0000 0.0000 1.0000
vn 0.0000 0.0000 1.0000
vn 0.0000 0.0000 1.0000
vn 0.8660 0.5000 0.0000
vn 1.0000 0.0000 0.0000
vn 1.0000 0.0000 0.0000
vn 0.8660 0.5000 0.0000
vn 0.5000 0.8660 0.0000
vn 0.8660 0.5000 0.0000
vn 0.8660 0.5000 0.0000
vn 0.5000 0.8660 0.0000
vn 0.0000 1.0000 0.0000
vn 0.5000 0.8660 0.0000
vn 0.5000 0.8660 0.0000
vn 0.0000 1.0000 0.0000
vn -0.5000 0.8660 0.0000
vn 0.0000 1.0000 0.0000
vn 0.0000 1.0000 0.0000
vn -0.5000 0.8660 0.0000
vn -0.8660 0.5000 0.0000
vn -0.5000 0.8660 0.0000
vn -0.5000 0.8660 0.0000
vn -0.8660 0.5000 0.0000
vn -1.0000 0.0000 0.0000
vn -0.8660 0.5000 0.0000
vn -0.8660 0.5000 0.0000
vn -1.0000 0.0000 0.0000
vn -0.8660 -0.5000 0.0000
vn -1.0000 0.0000 0.0000
vn -1.0000 0.0000 0.0000
vn -0.8660 -0.5000 0.0000
vn -0.5000 -0.8660 0.0000
vn -0.8660 -0.5000 0.0000
vn -0.8660 -0.5000 0.0000
vn -0.5000 -0.8660 0.0000
vn 0.0000 -1.0000 0.0000
vn -0.5000 -0.8660 0.0000
vn -0.5000 -0.8660 0.0000
vn 0.0000 -1.0000 0.0000
vn 0.5000 -0.8660 0.0000
vn 0.0000 -1.0000 0.0000
vn 0.0000 -1.0000 0.0000
vn 0.5000 -0.8660 0.0000
vn 0.8660 -0.5000 0.0000
vn 0.5000 -0.8660 0.0000
vn 0.5000 -0.8660 0.0000
vn 0.8660 -0.5000 0.0000
vn 1.0000 0.0000 0.0000
vn 0.8660 -0.5000 0.0000
vn 0.8660 -0.5000 0.0000
vn 1.0000 0.0000 0.0000
vn 0.0000 0.0000 -1.0000
vn 0.0000 0.0000 -1.0000
vn 0.0000 0.0000 -1.0000
vn 0.0000 0.0000 -1.0000
vn 0.0000 0.0000 -1.0000
vn 0.0000 0.0000 -1.0000
vn 0.0000 0.0000 -1.0000
vn 0.0000 0.0000 -1.0000
vn 0.0000 0.0000 -1.0000
vn 0.0000 0.0000 -1.0000
vn 0.0000 0.0000 -1.0000
vn 0.0000 0.0000 -1.0000
vn 0.0000 0.0000 -1.0000
vn 0.0000 0.0000 -1.0000
vn 0.0000 0.0000 -1.0000
vn 0.0000 0.0000 -1.0000
vn 0.0000 0.0000 -1.0000
vn 0.0000 0.0000 -1.0000
vn 0.0000 0.0000 -1.0000
vn 0.0000 0.0000 -1.0000
vn 0.0000 0.0000 -1.0000
vn 0.0000 0.0000 -1.0000
vn 0.0000 0.0000 -1.0000
vn 0.0000 0.0000 -1.0000
vn 0.0000 0.0000 -1.0000
vn 0.0000 0.0000 -1.0000
vn 0.0000 0.0000 -1.0000
vn 0.0000 0.0000 -1.0000
vn 0.0000 0.0000 -1.0000
vn 0.0000 0.0000 -1.0000
vn 0.0000 0.0000 -1.0000
vn 0.0000 0.0000 -1.0000
vn 0.0000 0.0000 -1.0000
vn 0.0000 0.0000 -1.0000
vn 0.0000 0.0000 -1.0000
vn 0.0000 0.0000 -1.0000
vn 0.8660 0.5000 0.0000
vn 1.0000 0.0000 0.0000
vn 1.0000 0.0000 0.0000
vn 0.8660 0.5000 0.0000
vn 0.5000 0.8660 0.0000
vn 0.8660 0.5000 0.0000
vn 0.8660 0.5000 0.0000
vn 0.5000 0.8660 0.0000
vn 0.0000 1.0000 0.0000
vn 0.5000 0.8660 0.0000
vn 0.5000 0.8660 0.0000
vn 0.0000 1.0000 0.0000
vn -0.5000 0.8660 0.0000
vn 0.0000 1.0000 0.0000
vn 0.0000 1.0000 0.0000
vn -0.5000 0.8660 0.0000
vn -0.8660 0.5000 0.0000
vn -0.5000 0.8660 0.0000
vn -0.5000 0.8660 0.0000
vn -0.8660 0.5000 0.0000
vn -1.0000 0.0000 0.0000
vn -0.8660 0.5000 0.0000
vn -0.8660 0.5000 0.0000
vn -1.0000 0.0000 0.0000
vn -0.8660 -0.5000 0.0000
vn -1.0000 0.0000 0.0000
vn -1.0000 0.0000 0.0000
vn -0.8660 -0.5000 0.0000
vn -0.5000 -0.8660 0.0000
vn -0.8660 -0.5000 0.0000
vn -0.8660 -0.5000 0.0000
vn -0.5000 -0.8660 0.0000
vn 0.0000 -1.0000 0.0000
vn -0.5000 -0.8660 0.0000
vn -0.5000 -0.8660 0.0000
vn 0.0000 -1.0000 0.0000
vn 0.5000 -0.8660 0.0000
vn 0.0000 -1.0000 0.0000
vn 0.0000 -1.0000 0.0000
vn 0.5000 -0.8660 0.0000
vn 0.8660 -0.5000 0.0000
vn 0.5000 -0.8660 0.0000
vn 0.5000 -0.8660 0.0000
vn 0.8660 -0.5000 0.0000
vn 1.0000 0.0000 0.0000
vn 0.8660 -0.5000 0.0000
vn 0.8660 -0.5000 0.0000
vn 1.0000 0.0000 0.0000
vn 0.0000 0.0000 -1.0000
vn 0.0000 0.0000 -1.0000
vn 0.0000 0.0000 -1.0000
vn 0.0000 0.0000 -1.0000
vn 0.0000 0.0000 -1.0000
vn 0.0000 0.0000 -1.0000
vn 0.0000 0.0000 -1.0000
vn 0.0000 0.0000 -1.0000
vn 0.0000 0.0000 -1.0000
vn 0.0000 0.0000 -1.0000
vn 0.0000 0.0000 -1.0000
vn 0.0000 0.0000 -1.0000
vn 0.0000 0.0000 -1.0000
vn 0.0000 0.0000 -1.0000
vn 0.0000 0.0000 -1.0000
vn 0.0000 0.0000 -1.0000
vn 0.0000 0.0000 -1.0000
vn 0.0000 0.0000 -1.0000
vn 0.0000 0.0000 -1.0000
vn 0.0000 0.0000 -1.0000
vn 0.0000 0.0000 -1.0000
vn 0.0000 0.0000 -1.0000
vn 0.0000 0.0000 -1.0000
vn 0.0000 0.0000 -1.0000
vn 0.0000 0.0000 -1.0000
vn 0.0000 0.0000 -1.0000
vn 0.0000 0.0000 -1.0000
vn 0.0000 0.0000 -1.0000
vn 0.0000 0.0000 -1.0000
vn 0.0000 0.0000 -1.0000
vn 0.0000 0.0000 -1.0000
vn 0.0000 0.0000 -1.0000
vn 0.0000 0.0000 -1.0000
vn 0.0000 0.0000 -1.0000
vn 0.0000 0.0000 -1.0000
vn 0.0000 0.0000 -1.0000
# 476 vertex normals

vt 0.0200 0.1000 0.0000
vt 0.9800 0.1000 0.0000
vt 0.0200 0.9000 0.0000
vt 0.9800 0.9000 0.0000
vt 0.0200 0.1000 0.6667
vt 0.9800 0.1000 0.6667
vt 0.0200 0.9000 0.6667
vt 0.9800 0.9000 0.6667
vt 0.0840 0.2600 0.0000
vt 0.0840 0.7400 0.0000
vt 0.9160 0.7400 0.0000
vt 0.9160 0.2600 0.0000
vt 0.0840 0.2600 0.3333
vt 0.0840 0.7400 0.3333
vt 0.9160 0.7400 0.3333
vt 0.9160 0.2600 0.3333
vt 0.2760 0.5000 0.6667
vt 0.2631 0.6200 0.6667
vt 0.2280 0.7078 0.6667
vt 0.1800 0.7400 0.6667
vt 0.1320 0.7078 0.6667
vt 0.0969 0.6200 0.6667
vt 0.0840 0.5000 0.6667
vt 0.0969 0.3800 0.6667
vt 0.1320 0.2922 0.6667
vt 0.1800 0.2600 0.6667
vt 0.2280 0.2922 0.6667
vt 0.2631 0.3800 0.6667
vt 0.2760 0.5000 1.0000
vt 0.2631 0.6200 1.0000
vt 0.2280 0.7078 1.0000
vt 0.1800 0.7400 1.0000
vt 0.1320 0.7078 1.0000
vt 0.0969 0.6200 1.0000
vt 0.0840 0.5000 1.0000
vt 0.0969 0.3800 1.0000
vt 0.1320 0.2922 1.0000
vt 0.1800 0.2600 1.0000
vt 0.2280 0.2922 1.0000
vt 0.2631 0.3800 1.0000
vt 0.1800 0.5000 1.0000
vt 0.5960 0.5000 0.6667
vt 0.5831 0.6200 0.6667
vt 0.5480 0.7078 0.6667
vt 0.5000 0.7400 0.6667
vt 0.4520 0.7078 0.6667
vt 0.4169 0.6200 0.6667
vt 0.4040 0.5000 0.6667
vt 0.4169 0.3800 0.6667
vt 0.4520 0.2922 0.6667
vt 0.5000 0.2600 0.6667
vt 0.5480 0.2922 0.6667
vt 0.5831 0.3800 0.6667
vt 0.5960 0.5000 1.0000
vt 0.5831 0.6200 1.0000
vt 0.5480 0.7078 1.0000
vt 0.5000 0.7400 1.0000
vt 0.4520 0.7078 1.0000
vt 0.4169 0.6200 1.0000
vt 0.4040 0.5000 1.0000
vt 0.4169 0.3800 1.0000
vt 0.4520 0.2922 1.0000
vt 0.5000 0.2600 1.0000
vt 0.5480 0.2922 1.0000
vt 0.5831 0.3800 1.0000
vt 0.5000 0.5000 1.0000
vt 0.9160 0.5000 0.6667
vt 0.9031 0.6200 0.6667
vt 0.8680 0.7078 0.6667
vt 0.8200 0.7400 0.6667
vt 0.7720 0.7078 0.6667
vt 0.7369 0.6200 0.6667
vt 0.7240 0.5000 0.6667
vt 0.7369 0.3800 0.6667
vt 0.7720 0.2922 0.6667
vt 0.8200 0.2600 0.6667
vt 0.8680 0.2922 0.6667
vt 0.9031 0.3800 0.6667
vt 0.9160 0.5000 1.0000
vt 0.9031 0.6200 1.0000
vt 0.8680 0.7078 1.0000
vt 0.8200 0.7400 1.0000
vt 0.7720 0.7078 1.0000
vt 0.7369 0.6200 1.0000
vt 0.7240 0.5000 1.0000
vt 0.7369 0.3800 1.0000
vt 0.7720 0.2922 1.0000
vt 0.8200 0.2600 1.0000
vt 0.8680 0.2922 1.0000
vt 0.9031 0.3800 1.0000
vt 0.8200 0.5000 1.0000
vt 0.4040 0.5000 0.0000
vt 0.3954 0.5800 0.0000
vt 0.3720 0.6386 0.0000
vt 0.3400 0.6600 0.0000
vt 0.3080 0.6386 0.0000
vt 0.2846 0.5800 0.0000
vt 0.2760 0.5000 0.0000
vt 0.2846 0.4200 0.0000
vt 0.3080 0.3614 0.0000
vt 0.3400 0.3400 0.0000
vt 0.3720 0.3614 0.0000
vt 0.3954 0.4200 0.0000
vt 0.4040 0.5000 0.3333
vt 0.3954 0.5800 0.3333
vt 0.3720 0.6386 0.3333
vt 0.3400 0.6600 0.3333
vt 0.3080 0.6386 0.3333
vt 0.2846 0.5800 0.3333
vt 0.2760 0.5000 0.3333
vt 0.2846 0.4200 0.3333
vt 0.3080 0.3614 0.3333
vt 0.3400 0.3400 0.3333
vt 0.3720 0.3614 0.3333
vt 0.3954 0.4200 0.3333
vt 0.3400 0.5000 0.0000
vt 0.7240 0.5000 0.0000
vt 0.7154 0.5800 0.0000
vt 0.6920 0.6386 0.0000
vt 0.6600 0.6600 0.0000
vt 0.6280 0.6386 0.0000
vt 0.6046 0.5800 0.0000
vt 0.5960 0.5000 0.0000
vt 0.6046 0.4200 0.0000
vt 0.6280 0.3614 0.0000
vt 0.6600 0.3400 0.0000
vt 0.6920 0.3614 0.0000
vt 0.7154 0.4200 0.0000
vt 0.7240 0.5000 0.3333
vt 0.7154 0.5800 0.3333
vt 0.6920 0.6386 0.3333
vt 0.6600 0.6600 0.3333
vt 0.6280 0.6386 0.3333
vt 0.6046 0.5800 0.3333
vt 0.5960 0.5000 0.3333
vt 0.6046 0.4200 0.3333
vt 0.6280 0.3614 0.3333
vt 0.6600 0.3400 0.3333
vt 0.6920 0.3614 0.3333
vt 0.7154 0.4200 0.3333
vt 0.6600 0.5000 0.0000
# 141 texture coords

g 3623
s 1
f 15/15/1 16/16/2 13/13/3 14/14/4 
f 8/8/5 7/7/6 5/5/7 6/6/8 
s 2
f 6/6/9 5/5/10 1/1/11 2/2/12 
s 4
f 8/8/13 6/6/14 2/2/15 4/4/16 
s 2
f 7/7/17 8/8/18 4/4/19 3/3/20 
s 4
f 5/5/21 7/7/22 3/3/23 1/1/24 
s 1
f 10/10/25 9/9/26 1/1/27 3/3/28 
f 11/11/29 10/10/30 3/3/31 4/4/32 
f 12/12/33 11/11/34 4/4/35 2/2/36 
f 9/9/37 12/12/38 2/2/39 1/1/40 
s 2
f 14/14/41 13/13/42 9/9/43 10/10/44 
s 4
f 15/15/45 14/14/46 10/10/47 11/11/48 
s 2
f 16/16/49 15/15/50 11/11/51 12/12/52 
s 4
f 13/13/53 16/16/54 12/12/55 9/9/56 
s 1
f 30/30/57 29/29/58 17/17/59 18/18/60 
f 31/31/61 30/30/62 18/18/63 19/19/64 
f 32/32/65 31/31/66 19/19/67 20/20/68 
f 33/33/69 32/32/70 20/20/71 21/21/72 
f 34/34/73 33/33/74 21/21/75 22/22/76 
f 35/35/77 34/34/78 22/22/79 23/23/80 
f 36/36/81 35/35/82 23/23/83 24/24/84 
f 37/37/85 36/36/86 24/24/87 25/25/88 
f 38/38/89 37/37/90 25/25/91 26/26/92 
f 39/39/93 38/38/94 26/26/95 27/27/96 
f 40/40/97 39/39/98 27/27/99 28/28/100 
f 29/29/101 40/40/102 28/28/103 17/17/104 
s 2
f 29/29/105 30/30/106 41/41/107 
f 30/30/108 31/31/109 41/41/110 
f 31/31/111 32/32/112 41/41/113 
f 32/32/114 33/33/115 41/41/116 
f 33/33/117 34/34/118 41/41/119 
f 34/34/120 35/35/121 41/41/122 
f 35/35/123 36/36/124 41/41/125 
f 36/36/126 37/37/127 41/41/128 
f 37/37/129 38/38/130 41/41/131 
f 38/38/132 39/39/133 41/41/134 
f 39/39/135 40/40/136 41/41/137 
f 40/40/138 29/29/139 41/41/140 
s 1
f 55/55/141 54/54/142 42/42/143 43/43/144 
f 56/56/145 55/55/146 43/43/147 44/44/148 
f 57/57/149 56/56/150 44/44/151 45/45/152 
f 58/58/153 57/57/154 45/45/155 46/46/156 
f 59/59/157 58/58/158 46/46/159 47/47/160 
f 60/60/161 59/59/162 47/47/163 48/48/164 
f 61/61/165 60/60/166 48/48/167 49/49/168 
f 62/62/169 61/61/170 49/49/171 50/50/172 
f 63/63/173 62/62/174 50/50/175 51/51/176 
f 64/64/177 63/63/178 51/51/179 52/52/180 
f 65/65/181 64/64/182 52/52/183 53/53/184 
f 54/54/185 65/65/186 53/53/187 42/42/188 
s 2
f 54/54/189 55/55/190 66/66/191 
f 55/55/192 56/56/193 66/66/194 
f 56/56/195 57/57/196 66/66/197 
f 57/57/198 58/58/199 66/66/200 
f 58/58/201 59/59/202 66/66/203 
f 59/59/204 60/60/205 66/66/206 
f 60/60/207 61/61/208 66/66/209 
f 61/61/210 62/62/211 66/66/212 
f 62/62/213 63/63/214 66/66/215 
f 63/63/216 64/64/217 66/66/218 
f 64/64/219 65/65/220 66/66/221 
f 65/65/222 54/54/223 66/66/224 
s 1
f 80/80/225 79/79/226 67/67/227 68/68/228 
f 81/81/229 80/80/230 68/68/231 69/69/232 
f 82/82/233 81/81/234 69/69/235 70/70/236 
f 83/83/237 82/82/238 70/70/239 71/71/240 
f 84/84/241 83/83/242 71/71/243 72/72/244 
f 85/85/245 84/84/246 72/72/247 73/73/248 
f 86/86/249 85/85/250 73/73/251 74/74/252 
f 87/87/253 86/86/254 74/74/255 75/75/256 
f 88/88/257 87/87/258 75/75/259 76/76/260 
f 89/89/261 88/88/262 76/76/263 77/77/264 
f 90/90/265 89/89/266 77/77/267 78/78/268 
f 79/79/269 90/90/270 78/78/271 67/67/272 
s 2
f 79/79/273 80/80/274 91/91/275 
f 80/80/276 81/81/277 91/91/278 
f 81/81/279 82/82/280 91/91/281 
f 82/82/282 83/83/283 91/91/284 
f 83/83/285 84/84/286 91/91/287 
f 84/84/288 85/85/289 91/91/290 
f 85/85/291 86/86/292 91/91/293 
f 86/86/294 87/87/295 91/91/296 
f 87/87/297 88/88/298 91/91/299 
f 88/88/300 89/89/301 91/91/302 
f 89/89/303 90/90/304 91/91/305 
f 90/90/306 79/79/307 91/91/308 
s 1
f 105/105/309 104/104/310 92/92/311 93/93/312 
f 106/106/313 105/105/314 93/93/315 94/94/316 
f 107/107/317 106/106/318 94/94/319 95/95/320 
f 108/108/321 107/107/322 95/95/323 96/96/324 
f 109/109/325 108/108/326 96/96/327 97/97/328 
f 110/110/329 109/109/330 97/97/331 98/98/332 
f 111/111/333 110/110/334 98/98/335 99/99/336 
f 112/112/337 111/111/338 99/99/339 100/100/340 
f 113/113/341 112/112/342 100/100/343 101/101/344 
f 114/114/345 113/113/346 101/101/347 102/102/348 
f 115/115/349 114/114/350 102/102/351 103/103/352 
f 104/104/353 115/115/354 103/103/355 92/92/356 
s 2
f 93/93/357 92/92/358 116/116/359 
f 92/92/360 103/103/361 116/116/362 
f 103/103/363 102/102/364 116/116/365 
f 102/102/366 101/101/367 116/116/368 
f 101/101/369 100/100/370 116/116/371 
f 100/100/372 99/99/373 116/116/374 
f 99/99/375 98/98/376 116/116/377 
f 98/98/378 97/97/379 116/116/380 
f 97/97/381 96/96/382 116/116/383 
f 96/96/384 95/95/385 116/116/386 
f 95/95/387 94/94/388 116/116/389 
f 94/94/390 93/93/391 116/116/392 
s 1
f 130/130/393 129/129/394 117/117/395 118/118/396 
f 131/131/397 130/130/398 118/118/399 119/119/400 
f 132/132/401 131/131/402 119/119/403 120/120/404 
f 133/133/405 132/132/406 120/120/407 121/121/408 
f 134/134/409 133/133/410 121/121/411 122/122/412 
f 135/135/413 134/134/414 122/122/415 123/123/416 
f 136/136/417 135/135/418 123/123/419 124/124/420 
f 137/137/421 136/136/422 124/124/423 125/125/424 
f 138/138/425 137/137/426 125/125/427 126/126/428 
f 139/139/429 138/138/430 126/126/431 127/127/432 
f 140/140/433 139/139/434 127/127/435 128/128/436 
f 129/129/437 140/140/438 128/128/439 117/117/440 
s 2
f 118/118/441 117/117/442 141/141/443 
f 117/117/444 128/128/445 141/141/446 
f 128/128/447 127/127/448 141/141/449 
f 127/127/450 126/126/451 141/141/452 
f 126/126/453 125/125/454 141/141/455 
f 125/125/456 124/124/457 141/141/458 
f 124/124/459 123/123/460 141/141/461 
f 123/123/462 122/122/463 141/141/464 
f 122/122/465 121/121/466 141/141/467 
f 121/121/468 120/120/469 141/141/470 
f 120/120/471 119/119/472 141/141/473 
f 119/119/474 118/118/475 141/141/476 
# 74 polygons - 60 triangles

