# 3ds Max Wavefront OBJ Exporter v0.97b - (c)2007 guruware
# File Created: 18.03.2016 18:10:22

#
# object 3063b
#

v  30.0000 10.0000 -24.0000
v  30.0000 10.0000 -0.0000
v  10.0000 10.0000 -0.0000
v  10.0000 10.0000 -24.0000
v  28.6370 -0.3528 -24.0000
v  28.6370 -0.3528 -0.0000
v  8.3195 2.4118 -0.0000
v  8.3195 2.4118 -24.0000
v  24.6410 -10.0000 -24.0000
v  24.6410 -10.0000 -0.0000
v  18.2843 -18.2843 -0.0000
v  4.1421 -4.1421 -0.0000
v  4.1421 -4.1421 -24.0000
v  10.0000 -24.6410 -24.0000
v  10.0000 -24.6410 -0.0000
v  -2.4118 -8.3195 -0.0000
v  -2.4118 -8.3195 -24.0000
v  0.3528 -28.6370 -24.0000
v  0.3528 -28.6370 -0.0000
v  -10.0000 -30.0000 -24.0000
v  -10.0000 -30.0000 -0.0000
v  -10.0000 -10.0000 -0.0000
v  -10.0000 -10.0000 -24.0000
v  14.8300 6.0000 -24.0000
v  27.0373 6.0000 -24.0000
v  26.3232 0.2672 -24.0000
v  22.5665 -8.8023 -24.0000
v  8.8023 -22.5665 -24.0000
v  -0.2672 -26.3232 -24.0000
v  -6.0000 -27.0725 -24.0000
v  -6.0000 -14.8300 -24.0000
v  -0.1900 -13.6700 -24.0000
v  8.1200 -8.1200 -24.0000
v  13.6700 0.1900 -24.0000
v  14.8300 6.0000 -4.0000
v  27.0373 6.0000 -4.0000
v  26.3232 0.2672 -4.0000
v  22.5665 -8.8023 -4.0000
v  16.5904 -16.5904 -4.0000
v  8.8023 -22.5665 -4.0000
v  -0.2672 -26.3232 -4.0000
v  -6.0000 -27.0725 -4.0000
v  -6.0000 -14.8300 -4.0000
v  -0.1900 -13.6700 -4.0000
v  8.1200 -8.1200 -4.0000
v  13.6700 0.1900 -4.0000
v  13.2916 -22.1153 -24.0000
v  11.5925 -20.4255 -24.0000
v  22.1208 -13.2844 -24.0000
v  20.4196 -11.6001 -24.0000
v  18.2843 -18.2843 -20.0000
v  13.2916 -22.1153 -20.0000
v  11.5925 -20.4255 -20.0000
v  16.5904 -16.5904 -20.0000
v  20.4196 -11.6001 -20.0000
v  22.1208 -13.2844 -20.0000
v  6.0000 -20.0000 0.0000
v  5.1962 -17.0000 0.0000
v  3.0000 -14.8038 0.0000
v  0.0000 -14.0000 0.0000
v  -3.0000 -14.8038 0.0000
v  -5.1962 -17.0000 0.0000
v  -6.0000 -20.0000 0.0000
v  -5.1962 -23.0000 0.0000
v  -3.0000 -25.1961 0.0000
v  -0.0000 -26.0000 0.0000
v  3.0000 -25.1962 0.0000
v  5.1962 -23.0000 0.0000
v  6.0000 -20.0000 4.0000
v  5.1962 -17.0000 4.0000
v  3.0000 -14.8038 4.0000
v  0.0000 -14.0000 4.0000
v  -3.0000 -14.8038 4.0000
v  -5.1962 -17.0000 4.0000
v  -6.0000 -20.0000 4.0000
v  -5.1962 -23.0000 4.0000
v  -3.0000 -25.1961 4.0000
v  -0.0000 -26.0000 4.0000
v  3.0000 -25.1962 4.0000
v  5.1962 -23.0000 4.0000
v  -0.0000 -20.0000 4.0000
v  26.0000 0.0000 0.0000
v  25.1962 3.0000 0.0000
v  23.0000 5.1962 0.0000
v  20.0000 6.0000 0.0000
v  17.0000 5.1962 0.0000
v  14.8038 3.0000 0.0000
v  14.0000 0.0000 0.0000
v  14.8038 -3.0000 0.0000
v  17.0000 -5.1962 0.0000
v  20.0000 -6.0000 0.0000
v  23.0000 -5.1962 0.0000
v  25.1962 -3.0000 0.0000
v  26.0000 0.0000 4.0000
v  25.1962 3.0000 4.0000
v  23.0000 5.1962 4.0000
v  20.0000 6.0000 4.0000
v  17.0000 5.1962 4.0000
v  14.8038 3.0000 4.0000
v  14.0000 0.0000 4.0000
v  14.8038 -3.0000 4.0000
v  17.0000 -5.1962 4.0000
v  20.0000 -6.0000 4.0000
v  23.0000 -5.1962 4.0000
v  25.1962 -3.0000 4.0000
v  20.0000 0.0000 4.0000
# 106 vertices

vn 0.9914 -0.1305 0.0000
vn 0.9914 -0.1305 0.0000
vn 0.9659 -0.2588 0.0000
vn 0.9659 -0.2588 0.0000
vn 0.0000 0.0000 1.0000
vn 0.0000 0.0000 1.0000
vn 0.0000 0.0000 1.0000
vn 0.0000 0.0000 1.0000
vn -0.9763 0.2162 0.0000
vn -0.9763 0.2162 0.0000
vn -0.9239 0.3827 0.0000
vn -0.9239 0.3827 0.0000
vn -0.0000 -0.0000 -1.0000
vn 0.0000 0.0000 -1.0000
vn -0.0000 -0.0000 -1.0000
vn -0.0000 -0.0000 -1.0000
vn 0.9659 -0.2588 0.0000
vn 0.9659 -0.2588 0.0000
vn 0.8660 -0.5000 0.0000
vn 0.8660 -0.5000 0.0000
vn 0.0000 0.0000 1.0000
vn 0.0000 0.0000 1.0000
vn 0.0000 0.0000 1.0000
vn -0.0000 -0.0000 -1.0000
vn -0.0000 -0.0000 -1.0000
vn -0.0000 0.0000 -1.0000
vn 0.0000 0.0000 1.0000
vn 0.0000 0.0000 1.0000
vn 0.0000 0.0000 1.0000
vn 0.0000 0.0000 1.0000
vn -0.9239 0.3827 0.0000
vn -0.9239 0.3827 0.0000
vn -0.7071 0.7071 0.0000
vn -0.7071 0.7071 0.0000
vn -0.0000 -0.0000 -1.0000
vn -0.0000 0.0000 -1.0000
vn -0.0000 0.0000 -1.0000
vn -0.0000 0.0000 -1.0000
vn 0.0000 0.0000 1.0000
vn 0.0000 0.0000 1.0000
vn 0.0000 0.0000 1.0000
vn 0.0000 0.0000 1.0000
vn -0.7071 0.7071 0.0000
vn -0.7071 0.7071 0.0000
vn -0.3827 0.9239 0.0000
vn -0.3827 0.9239 0.0000
vn -0.0000 0.0000 -1.0000
vn -0.0000 0.0000 -1.0000
vn -0.0000 0.0000 -1.0000
vn 0.0000 0.0000 -1.0000
vn 0.5000 -0.8660 0.0000
vn 0.5000 -0.8660 0.0000
vn 0.2588 -0.9659 0.0000
vn 0.2588 -0.9659 0.0000
vn 0.0000 0.0000 1.0000
vn 0.0000 0.0000 1.0000
vn 0.0000 0.0000 1.0000
vn 0.0000 0.0000 -1.0000
vn -0.0000 0.0000 -1.0000
vn -0.0000 0.0000 -1.0000
vn 0.2588 -0.9659 0.0000
vn 0.2588 -0.9659 0.0000
vn 0.1305 -0.9914 0.0000
vn 0.1305 -0.9914 0.0000
vn 0.0000 0.0000 1.0000
vn 0.0000 0.0000 1.0000
vn 0.0000 0.0000 1.0000
vn 0.0000 0.0000 1.0000
vn -0.3827 0.9239 0.0000
vn -0.3827 0.9239 0.0000
vn -0.2162 0.9763 0.0000
vn -0.2162 0.9763 0.0000
vn 0.0000 0.0000 -1.0000
vn -0.0000 0.0000 -1.0000
vn 0.0000 0.0000 -1.0000
vn 0.0000 0.0000 -1.0000
vn 0.0000 1.0000 0.0000
vn 0.0000 1.0000 0.0000
vn 0.0000 1.0000 0.0000
vn 0.0000 1.0000 0.0000
vn -1.0000 -0.0000 0.0000
vn -1.0000 -0.0000 0.0000
vn -1.0000 -0.0000 0.0000
vn -1.0000 -0.0000 0.0000
vn 0.0000 0.0000 -1.0000
vn 0.0000 0.0000 -1.0000
vn 0.0000 0.0000 -1.0000
vn 0.0000 -0.0000 -1.0000
vn 0.0000 0.0000 -1.0000
vn 0.0000 0.0000 -1.0000
vn 0.0000 0.0000 -1.0000
vn 0.0000 0.0000 -1.0000
vn 0.0000 0.0000 -1.0000
vn 0.0000 0.0000 -1.0000
vn 0.0000 0.0000 -1.0000
vn 0.0000 0.0000 -1.0000
vn 0.0000 0.0000 -1.0000
vn 0.0000 0.0000 -1.0000
vn 0.0000 0.0000 -1.0000
vn 0.0000 0.0000 -1.0000
vn 0.0000 0.0000 -1.0000
vn 0.0000 0.0000 -1.0000
vn 0.0000 0.0000 -1.0000
vn 0.0000 0.0000 -1.0000
vn 0.0000 0.0000 -1.0000
vn 0.0000 0.0000 -1.0000
vn 0.0000 0.0000 -1.0000
vn 0.0000 0.0000 -1.0000
vn 0.0000 0.0000 -1.0000
vn 0.0000 0.0000 -1.0000
vn 0.0000 0.0000 -1.0000
vn 0.0000 0.0000 -1.0000
vn 0.0000 0.0000 -1.0000
vn 0.0000 -0.0000 -1.0000
vn 0.0000 0.0000 -1.0000
vn 0.0000 0.0000 -1.0000
vn 0.0000 -0.0000 -1.0000
vn 0.0000 -0.0000 -1.0000
vn 0.0000 -0.0000 -1.0000
vn 0.0000 0.0000 -1.0000
vn 0.0000 -0.0000 -1.0000
vn 0.0000 0.0000 -1.0000
vn 0.0000 -0.0000 -1.0000
vn 0.0000 -0.0000 -1.0000
vn 0.0000 0.0000 -1.0000
vn 0.0000 -0.0000 -1.0000
vn 0.0000 -0.0000 -1.0000
vn 0.0000 -0.0000 -1.0000
vn 0.0000 -0.0000 -1.0000
vn 0.0000 0.0000 -1.0000
vn 0.0000 -0.0000 -1.0000
vn 0.0000 -0.0000 -1.0000
vn 0.0000 -1.0000 0.0000
vn 0.0000 -1.0000 0.0000
vn 0.0000 -1.0000 0.0000
vn 0.0000 -1.0000 0.0000
vn -0.9923 0.1236 0.0000
vn -0.9668 0.2555 0.0000
vn -0.9668 0.2555 0.0000
vn -0.9923 0.1236 0.0000
vn -0.9668 0.2555 0.0000
vn -0.8660 0.5000 0.0000
vn -0.8660 0.5000 -0.0000
vn -0.9668 0.2555 0.0000
vn -0.5000 0.8660 0.0000
vn -0.2584 0.9660 0.0000
vn -0.2584 0.9660 0.0000
vn -0.5000 0.8660 0.0000
vn -0.2584 0.9660 0.0000
vn -0.1296 0.9916 0.0000
vn -0.1296 0.9916 0.0000
vn -0.2584 0.9660 0.0000
vn 1.0000 0.0000 0.0000
vn 1.0000 0.0000 0.0000
vn 1.0000 0.0000 0.0000
vn 1.0000 0.0000 0.0000
vn 0.1958 -0.9806 -0.0000
vn 0.3829 -0.9238 -0.0000
vn 0.3829 -0.9238 -0.0000
vn 0.1958 -0.9806 0.0000
vn 0.3829 -0.9238 -0.0000
vn 0.7071 -0.7071 -0.0000
vn 0.7071 -0.7071 -0.0000
vn 0.3829 -0.9238 -0.0000
vn 0.7071 -0.7071 -0.0000
vn 0.9238 -0.3829 -0.0000
vn 0.9238 -0.3829 -0.0000
vn 0.7071 -0.7071 -0.0000
vn 0.9238 -0.3829 -0.0000
vn 0.9806 -0.1958 0.0000
vn 0.9806 -0.1958 -0.0000
vn 0.9238 -0.3829 -0.0000
vn 0.0000 0.0000 -1.0000
vn 0.0000 0.0000 -1.0000
vn 0.0000 0.0000 -1.0000
vn 0.0000 0.0000 -1.0000
vn 0.0000 0.0000 -1.0000
vn 0.0000 0.0000 -1.0000
vn 0.0000 0.0000 -1.0000
vn 0.0000 0.0000 -1.0000
vn 0.7052 0.7090 0.0000
vn 0.7052 0.7090 0.0000
vn 0.7052 0.7090 0.0000
vn 0.7052 0.7090 0.0000
vn -0.7035 -0.7107 0.0000
vn -0.7035 -0.7107 0.0000
vn -0.7035 -0.7107 0.0000
vn -0.7035 -0.7107 0.0000
vn 0.8660 -0.5000 0.0000
vn 0.7934 -0.6088 0.0000
vn 0.7934 -0.6088 0.0000
vn 0.8660 -0.5000 0.0000
vn -0.7934 0.6088 0.0000
vn -0.7934 0.6088 -0.0000
vn -0.8660 0.5000 -0.0000
vn -0.8660 0.5000 0.0000
vn -0.6088 0.7934 0.0000
vn -0.5000 0.8660 0.0000
vn -0.7071 0.7071 0.0000
vn -0.7071 0.7071 0.0000
vn 0.7071 -0.7071 0.0000
vn 0.5000 -0.8660 0.0000
vn 0.6088 -0.7934 0.0000
vn 0.7071 -0.7071 0.0000
vn 0.5000 -0.8660 0.0000
vn 0.6088 -0.7934 0.0000
vn 0.6088 -0.7934 0.0000
vn 0.5000 -0.8660 0.0000
vn 0.8660 -0.5000 0.0000
vn 0.7071 -0.7071 0.0000
vn 0.7071 -0.7071 0.0000
vn 0.7934 -0.6088 0.0000
vn -0.6088 0.7934 0.0000
vn -0.6088 0.7934 0.0000
vn -0.5000 0.8660 0.0000
vn -0.5000 0.8660 0.0000
vn -0.7934 0.6088 -0.0000
vn -0.7071 0.7071 0.0000
vn -0.7071 0.7071 0.0000
vn -0.8660 0.5000 -0.0000
vn 1.0000 0.0000 0.0000
vn 0.8660 0.5000 0.0000
vn 0.8660 0.5000 0.0000
vn 1.0000 0.0000 0.0000
vn 0.8660 0.5000 0.0000
vn 0.5000 0.8660 0.0000
vn 0.5000 0.8660 0.0000
vn 0.8660 0.5000 0.0000
vn 0.5000 0.8660 0.0000
vn -0.0000 1.0000 0.0000
vn -0.0000 1.0000 0.0000
vn 0.5000 0.8660 0.0000
vn -0.0000 1.0000 0.0000
vn -0.5000 0.8660 0.0000
vn -0.5000 0.8660 0.0000
vn -0.0000 1.0000 0.0000
vn -0.5000 0.8660 0.0000
vn -0.8660 0.5000 0.0000
vn -0.8660 0.5000 0.0000
vn -0.5000 0.8660 0.0000
vn -0.8660 0.5000 0.0000
vn -1.0000 0.0000 0.0000
vn -1.0000 0.0000 0.0000
vn -0.8660 0.5000 0.0000
vn -1.0000 0.0000 0.0000
vn -0.8660 -0.5000 0.0000
vn -0.8660 -0.5000 0.0000
vn -1.0000 0.0000 0.0000
vn -0.8660 -0.5000 0.0000
vn -0.5000 -0.8660 0.0000
vn -0.5000 -0.8660 0.0000
vn -0.8660 -0.5000 0.0000
vn -0.5000 -0.8660 0.0000
vn -0.0000 -1.0000 0.0000
vn -0.0000 -1.0000 0.0000
vn -0.5000 -0.8660 0.0000
vn -0.0000 -1.0000 0.0000
vn 0.5000 -0.8660 0.0000
vn 0.5000 -0.8660 0.0000
vn -0.0000 -1.0000 0.0000
vn 0.5000 -0.8660 0.0000
vn 0.8660 -0.5000 0.0000
vn 0.8660 -0.5000 0.0000
vn 0.5000 -0.8660 0.0000
vn 0.8660 -0.5000 0.0000
vn 1.0000 0.0000 0.0000
vn 1.0000 0.0000 0.0000
vn 0.8660 -0.5000 0.0000
vn 0.0000 0.0000 1.0000
vn 0.0000 0.0000 1.0000
vn 0.0000 0.0000 1.0000
vn 0.0000 0.0000 1.0000
vn 0.0000 0.0000 1.0000
vn 0.0000 0.0000 1.0000
vn 0.0000 0.0000 1.0000
vn 0.0000 0.0000 1.0000
vn 0.0000 0.0000 1.0000
vn 0.0000 0.0000 1.0000
vn 0.0000 0.0000 1.0000
vn 0.0000 0.0000 1.0000
vn 0.0000 0.0000 1.0000
vn 0.0000 0.0000 1.0000
vn 0.0000 0.0000 1.0000
vn 0.0000 0.0000 1.0000
vn 0.0000 0.0000 1.0000
vn 0.0000 0.0000 1.0000
vn 0.0000 0.0000 1.0000
vn 0.0000 0.0000 1.0000
vn 0.0000 0.0000 1.0000
vn 0.0000 0.0000 1.0000
vn 0.0000 0.0000 1.0000
vn 0.0000 0.0000 1.0000
vn 0.0000 0.0000 1.0000
vn 0.0000 0.0000 1.0000
vn 0.0000 0.0000 1.0000
vn 0.0000 0.0000 1.0000
vn 0.0000 0.0000 1.0000
vn 0.0000 0.0000 1.0000
vn 0.0000 0.0000 1.0000
vn 0.0000 0.0000 1.0000
vn 0.0000 0.0000 1.0000
vn 0.0000 0.0000 1.0000
vn 0.0000 0.0000 1.0000
vn 0.0000 0.0000 1.0000
vn 1.0000 0.0000 0.0000
vn 0.8660 0.5000 0.0000
vn 0.8660 0.5000 0.0000
vn 1.0000 0.0000 0.0000
vn 0.8660 0.5000 0.0000
vn 0.5000 0.8660 0.0000
vn 0.5000 0.8660 0.0000
vn 0.8660 0.5000 0.0000
vn 0.5000 0.8660 0.0000
vn -0.0000 1.0000 0.0000
vn -0.0000 1.0000 0.0000
vn 0.5000 0.8660 0.0000
vn -0.0000 1.0000 0.0000
vn -0.5000 0.8660 0.0000
vn -0.5000 0.8660 0.0000
vn -0.0000 1.0000 0.0000
vn -0.5000 0.8660 0.0000
vn -0.8660 0.5000 0.0000
vn -0.8660 0.5000 0.0000
vn -0.5000 0.8660 0.0000
vn -0.8660 0.5000 0.0000
vn -1.0000 0.0000 0.0000
vn -1.0000 0.0000 0.0000
vn -0.8660 0.5000 0.0000
vn -1.0000 0.0000 0.0000
vn -0.8660 -0.5000 0.0000
vn -0.8660 -0.5000 0.0000
vn -1.0000 0.0000 0.0000
vn -0.8660 -0.5000 0.0000
vn -0.5000 -0.8660 0.0000
vn -0.5000 -0.8660 0.0000
vn -0.8660 -0.5000 0.0000
vn -0.5000 -0.8660 0.0000
vn -0.0000 -1.0000 0.0000
vn -0.0000 -1.0000 0.0000
vn -0.5000 -0.8660 0.0000
vn -0.0000 -1.0000 0.0000
vn 0.5000 -0.8660 0.0000
vn 0.5000 -0.8660 0.0000
vn -0.0000 -1.0000 0.0000
vn 0.5000 -0.8660 0.0000
vn 0.8660 -0.5000 0.0000
vn 0.8660 -0.5000 0.0000
vn 0.5000 -0.8660 0.0000
vn 0.8660 -0.5000 0.0000
vn 1.0000 0.0000 0.0000
vn 1.0000 0.0000 0.0000
vn 0.8660 -0.5000 0.0000
vn 0.0000 0.0000 1.0000
vn 0.0000 0.0000 1.0000
vn 0.0000 0.0000 1.0000
vn 0.0000 0.0000 1.0000
vn 0.0000 0.0000 1.0000
vn 0.0000 0.0000 1.0000
vn 0.0000 0.0000 1.0000
vn 0.0000 0.0000 1.0000
vn 0.0000 0.0000 1.0000
vn 0.0000 0.0000 1.0000
vn 0.0000 0.0000 1.0000
vn 0.0000 0.0000 1.0000
vn 0.0000 0.0000 1.0000
vn 0.0000 0.0000 1.0000
vn 0.0000 0.0000 1.0000
vn 0.0000 0.0000 1.0000
vn 0.0000 0.0000 1.0000
vn 0.0000 0.0000 1.0000
vn 0.0000 0.0000 1.0000
vn 0.0000 0.0000 1.0000
vn 0.0000 0.0000 1.0000
vn 0.0000 0.0000 1.0000
vn 0.0000 0.0000 1.0000
vn 0.0000 0.0000 1.0000
vn 0.0000 0.0000 1.0000
vn 0.0000 0.0000 1.0000
vn 0.0000 0.0000 1.0000
vn 0.0000 0.0000 1.0000
vn 0.0000 0.0000 1.0000
vn 0.0000 0.0000 1.0000
vn 0.0000 0.0000 1.0000
vn 0.0000 0.0000 1.0000
vn 0.0000 0.0000 1.0000
vn 0.0000 0.0000 1.0000
vn 0.0000 0.0000 1.0000
vn 0.0000 0.0000 1.0000
# 388 vertex normals

vt 0.9571 0.9571 0.0000
vt 0.9571 0.9571 0.8571
vt 0.5000 0.9571 0.8571
vt 0.5000 0.9571 0.0000
vt 0.9260 0.7205 0.0000
vt 0.9260 0.7205 0.8571
vt 0.4616 0.7837 0.8571
vt 0.4616 0.7837 0.0000
vt 0.8347 0.5000 0.0000
vt 0.8347 0.5000 0.8571
vt 0.6894 0.3106 0.8571
vt 0.3661 0.6339 0.8571
vt 0.3661 0.6339 0.0000
vt 0.5000 0.1653 0.0000
vt 0.5000 0.1653 0.8571
vt 0.2163 0.5384 0.8571
vt 0.2163 0.5384 0.0000
vt 0.2795 0.0740 0.0000
vt 0.2795 0.0740 0.8571
vt 0.0429 0.0429 0.0000
vt 0.0429 0.0429 0.8571
vt 0.0429 0.5000 0.8571
vt 0.0429 0.5000 0.0000
vt 0.6104 0.8657 0.0000
vt 0.8894 0.8657 0.0000
vt 0.8731 0.7347 0.0000
vt 0.7872 0.5274 0.0000
vt 0.4726 0.2128 0.0000
vt 0.2653 0.1269 0.0000
vt 0.1343 0.1098 0.0000
vt 0.1343 0.3896 0.0000
vt 0.2671 0.4161 0.0000
vt 0.4570 0.5430 0.0000
vt 0.5839 0.7329 0.0000
vt 0.6104 0.8657 0.7143
vt 0.8894 0.8657 0.7143
vt 0.8731 0.7347 0.7143
vt 0.7872 0.5274 0.7143
vt 0.6506 0.3494 0.7143
vt 0.4726 0.2128 0.7143
vt 0.2653 0.1269 0.7143
vt 0.1343 0.1098 0.7143
vt 0.1343 0.3896 0.7143
vt 0.2671 0.4161 0.7143
vt 0.4570 0.5430 0.7143
vt 0.5839 0.7329 0.7143
vt 0.5752 0.2231 0.0000
vt 0.5364 0.2617 0.0000
vt 0.7770 0.4249 0.0000
vt 0.7382 0.4634 0.0000
vt 0.6894 0.3106 0.1429
vt 0.5752 0.2231 0.1429
vt 0.5364 0.2617 0.1429
vt 0.6506 0.3494 0.1429
vt 0.7382 0.4634 0.1429
vt 0.7770 0.4249 0.1429
vt 0.4086 0.2714 0.8571
vt 0.3902 0.3400 0.8571
vt 0.3400 0.3902 0.8571
vt 0.2714 0.4086 0.8571
vt 0.2029 0.3902 0.8571
vt 0.1527 0.3400 0.8571
vt 0.1343 0.2714 0.8571
vt 0.1527 0.2029 0.8571
vt 0.2029 0.1527 0.8571
vt 0.2714 0.1343 0.8571
vt 0.3400 0.1527 0.8571
vt 0.3902 0.2029 0.8571
vt 0.4086 0.2714 1.0000
vt 0.3902 0.3400 1.0000
vt 0.3400 0.3902 1.0000
vt 0.2714 0.4086 1.0000
vt 0.2029 0.3902 1.0000
vt 0.1527 0.3400 1.0000
vt 0.1343 0.2714 1.0000
vt 0.1527 0.2029 1.0000
vt 0.2029 0.1527 1.0000
vt 0.2714 0.1343 1.0000
vt 0.3400 0.1527 1.0000
vt 0.3902 0.2029 1.0000
vt 0.2714 0.2714 1.0000
vt 0.8657 0.7286 0.8571
vt 0.8473 0.7971 0.8571
vt 0.7971 0.8473 0.8571
vt 0.7286 0.8657 0.8571
vt 0.6600 0.8473 0.8571
vt 0.6098 0.7971 0.8571
vt 0.5914 0.7286 0.8571
vt 0.6098 0.6600 0.8571
vt 0.6600 0.6098 0.8571
vt 0.7286 0.5914 0.8571
vt 0.7971 0.6098 0.8571
vt 0.8473 0.6600 0.8571
vt 0.8657 0.7286 1.0000
vt 0.8473 0.7971 1.0000
vt 0.7971 0.8473 1.0000
vt 0.7286 0.8657 1.0000
vt 0.6600 0.8473 1.0000
vt 0.6098 0.7971 1.0000
vt 0.5914 0.7286 1.0000
vt 0.6098 0.6600 1.0000
vt 0.6600 0.6098 1.0000
vt 0.7286 0.5914 1.0000
vt 0.7971 0.6098 1.0000
vt 0.8473 0.6600 1.0000
vt 0.7286 0.7286 1.0000
# 106 texture coords

g 3063b
s 1
f 1/1/1 2/2/2 6/6/3 5/5/4 
s 2
f 2/2/5 3/3/6 7/7/7 6/6/8 
s 1
f 3/3/9 4/4/10 8/8/11 7/7/12 
f 35/35/13 36/36/14 37/37/15 46/46/16 
f 5/5/17 6/6/18 10/10/19 9/9/20 
s 2
f 6/6/21 7/7/22 10/10/23 
s 1
f 46/46/24 37/37/25 38/38/26 
s 2
f 10/10/27 7/7/28 12/12/29 11/11/30 
s 1
f 7/7/31 8/8/32 13/13/33 12/12/34 
f 46/46/35 38/38/36 39/39/37 45/45/38 
s 2
f 11/11/39 12/12/40 16/16/41 15/15/42 
s 1
f 12/12/43 13/13/44 17/17/45 16/16/46 
f 45/45/47 39/39/48 40/40/49 44/44/50 
f 14/14/51 15/15/52 19/19/53 18/18/54 
s 2
f 15/15/55 16/16/56 19/19/57 
s 1
f 44/44/58 40/40/59 41/41/60 
f 18/18/61 19/19/62 21/21/63 20/20/64 
s 2
f 19/19/65 16/16/66 22/22/67 21/21/68 
s 1
f 16/16/69 17/17/70 23/23/71 22/22/72 
f 44/44/73 41/41/74 42/42/75 43/43/76 
s 4
f 4/4/77 3/3/78 2/2/79 1/1/80 
f 22/22/81 23/23/82 20/20/83 21/21/84 
s 2
f 4/4/85 1/1/86 25/25/87 24/24/88 
f 1/1/89 5/5/90 26/26/91 25/25/92 
f 5/5/93 9/9/94 27/27/95 26/26/96 
f 49/49/97 50/50/98 27/27/99 9/9/100 
f 52/52/101 53/53/102 54/54/103 51/51/104 
f 14/14/105 18/18/106 29/29/107 28/28/108 
f 18/18/109 20/20/110 30/30/111 29/29/112 
f 20/20/113 23/23/114 31/31/115 30/30/116 
f 23/23/117 17/17/118 32/32/119 31/31/120 
f 17/17/121 13/13/122 33/33/123 32/32/124 
f 13/13/125 8/8/126 34/34/127 33/33/128 
f 8/8/129 4/4/130 24/24/131 34/34/132 
s 4
f 24/24/133 25/25/134 36/36/135 35/35/136 
s 8
f 25/25/137 26/26/138 37/37/139 36/36/140 
f 26/26/141 27/27/142 38/38/143 37/37/144 
f 28/28/145 29/29/146 41/41/147 40/40/148 
f 29/29/149 30/30/150 42/42/151 41/41/152 
s 4
f 30/30/153 31/31/154 43/43/155 42/42/156 
s 8
f 31/31/157 32/32/158 44/44/159 43/43/160 
f 32/32/161 33/33/162 45/45/163 44/44/164 
f 33/33/165 34/34/166 46/46/167 45/45/168 
f 34/34/169 24/24/170 35/35/171 46/46/172 
s 2
f 47/47/173 14/14/174 28/28/175 48/48/176 
f 56/56/177 51/51/178 54/54/179 55/55/180 
s 4
f 47/47/181 48/48/182 53/53/183 52/52/184 
f 50/50/185 49/49/186 56/56/187 55/55/188 
s 1
f 10/10/189 56/56/190 49/49/191 9/9/192 
s 8
f 50/50/193 55/55/194 38/38/195 27/27/196 
f 53/53/197 40/40/198 39/39/199 54/54/200 
s 1
f 11/11/201 15/15/202 52/52/203 51/51/204 
f 14/14/205 47/47/206 52/52/207 15/15/208 
f 10/10/209 11/11/210 51/51/211 56/56/212 
s 8
f 53/53/213 48/48/214 28/28/215 40/40/216 
f 55/55/217 54/54/218 39/39/219 38/38/220 
s 1
f 57/57/221 58/58/222 70/70/223 69/69/224 
f 58/58/225 59/59/226 71/71/227 70/70/228 
f 59/59/229 60/60/230 72/72/231 71/71/232 
f 60/60/233 61/61/234 73/73/235 72/72/236 
f 61/61/237 62/62/238 74/74/239 73/73/240 
f 62/62/241 63/63/242 75/75/243 74/74/244 
f 63/63/245 64/64/246 76/76/247 75/75/248 
f 64/64/249 65/65/250 77/77/251 76/76/252 
f 65/65/253 66/66/254 78/78/255 77/77/256 
f 66/66/257 67/67/258 79/79/259 78/78/260 
f 67/67/261 68/68/262 80/80/263 79/79/264 
f 68/68/265 57/57/266 69/69/267 80/80/268 
s 2
f 69/69/269 70/70/270 81/81/271 
f 70/70/272 71/71/273 81/81/274 
f 71/71/275 72/72/276 81/81/277 
f 72/72/278 73/73/279 81/81/280 
f 73/73/281 74/74/282 81/81/283 
f 74/74/284 75/75/285 81/81/286 
f 75/75/287 76/76/288 81/81/289 
f 76/76/290 77/77/291 81/81/292 
f 77/77/293 78/78/294 81/81/295 
f 78/78/296 79/79/297 81/81/298 
f 79/79/299 80/80/300 81/81/301 
f 80/80/302 69/69/303 81/81/304 
s 1
f 82/82/305 83/83/306 95/95/307 94/94/308 
f 83/83/309 84/84/310 96/96/311 95/95/312 
f 84/84/313 85/85/314 97/97/315 96/96/316 
f 85/85/317 86/86/318 98/98/319 97/97/320 
f 86/86/321 87/87/322 99/99/323 98/98/324 
f 87/87/325 88/88/326 100/100/327 99/99/328 
f 88/88/329 89/89/330 101/101/331 100/100/332 
f 89/89/333 90/90/334 102/102/335 101/101/336 
f 90/90/337 91/91/338 103/103/339 102/102/340 
f 91/91/341 92/92/342 104/104/343 103/103/344 
f 92/92/345 93/93/346 105/105/347 104/104/348 
f 93/93/349 82/82/350 94/94/351 105/105/352 
s 2
f 94/94/353 95/95/354 106/106/355 
f 95/95/356 96/96/357 106/106/358 
f 96/96/359 97/97/360 106/106/361 
f 97/97/362 98/98/363 106/106/364 
f 98/98/365 99/99/366 106/106/367 
f 99/99/368 100/100/369 106/106/370 
f 100/100/371 101/101/372 106/106/373 
f 101/101/374 102/102/375 106/106/376 
f 102/102/377 103/103/378 106/106/379 
f 103/103/380 104/104/381 106/106/382 
f 104/104/383 105/105/384 106/106/385 
f 105/105/386 94/94/387 106/106/388 
# 76 polygons - 28 triangles

