# 3ds Max Wavefront OBJ Exporter v0.97b - (c)2007 guruware
# File Created: 20.03.2016 12:37:29

#
# object 4286
#

v  -10.0000 -10.0000 -24.0000
v  10.0000 -10.0000 -24.0000
v  -10.0000 10.0000 -24.0000
v  10.0000 10.0000 -24.0000
v  -10.0000 -10.0000 0.0000
v  10.0000 -10.0000 0.0000
v  -10.0000 10.0000 0.0000
v  10.0000 10.0000 0.0000
v  -6.0000 -6.0000 -24.0000
v  -6.0000 6.0000 -24.0000
v  6.0000 6.0000 -24.0000
v  6.0000 -6.0000 -24.0000
v  -6.0000 -6.0000 -4.0000
v  -6.0000 6.0000 -4.0000
v  6.0000 6.0000 -4.0000
v  6.0000 -6.0000 -4.0000
v  -10.0000 -50.0000 -24.0000
v  10.0000 -50.0000 -24.0000
v  10.0000 -50.0000 -20.0000
v  -10.0000 -50.0000 -20.0000
v  -6.0000 -10.0000 -24.0000
v  6.0000 -10.0000 -24.0000
v  6.0000 -46.0000 -24.0000
v  -6.0000 -46.0000 -24.0000
v  -6.0000 -10.0000 -4.0000
v  6.0000 -10.0000 -4.0000
v  6.0000 -46.0000 -20.0000
v  -6.0000 -46.0000 -20.0000
v  6.0000 -42.0000 -20.0000
v  -6.0000 -42.0000 -20.0000
v  -2.0000 -10.0000 -24.0000
v  2.0000 -10.0000 -24.0000
v  -2.0000 -10.0000 -4.0000
v  2.0000 -10.0000 -4.0000
v  -2.0000 -14.0000 -24.0000
v  2.0000 -14.0000 -24.0000
v  2.0000 -14.0000 -6.0000
v  -2.0000 -14.0000 -6.0000
v  6.0000 0.0000 0.0000
v  5.1961 3.0000 0.0000
v  3.0000 5.1962 0.0000
v  -0.0000 6.0000 0.0000
v  -3.0000 5.1962 0.0000
v  -5.1962 3.0000 0.0000
v  -6.0000 0.0000 0.0000
v  -5.1962 -3.0000 0.0000
v  -3.0000 -5.1961 0.0000
v  -0.0000 -6.0000 0.0000
v  3.0000 -5.1961 0.0000
v  5.1961 -3.0000 0.0000
v  6.0000 0.0000 4.0000
v  5.1961 3.0000 4.0000
v  3.0000 5.1962 4.0000
v  -0.0000 6.0000 4.0000
v  -3.0000 5.1962 4.0000
v  -5.1962 3.0000 4.0000
v  -6.0000 0.0000 4.0000
v  -5.1962 -3.0000 4.0000
v  -3.0000 -5.1961 4.0000
v  -0.0000 -6.0000 4.0000
v  3.0000 -5.1961 4.0000
v  5.1961 -3.0000 4.0000
v  -0.0000 0.0000 4.0000
v  4.0000 -30.0000 -24.0000
v  3.4641 -28.0000 -24.0000
v  2.0000 -26.5359 -24.0000
v  -0.0000 -26.0000 -24.0000
v  -2.0000 -26.5359 -24.0000
v  -3.4641 -28.0000 -24.0000
v  -4.0000 -30.0000 -24.0000
v  -3.4641 -32.0000 -24.0000
v  -2.0000 -33.4641 -24.0000
v  -0.0000 -34.0000 -24.0000
v  2.0000 -33.4641 -24.0000
v  3.4641 -32.0000 -24.0000
v  4.0000 -30.0000 -12.0529
v  3.4641 -28.0000 -11.1475
v  2.0000 -26.5359 -10.4253
v  -0.0000 -26.0000 -10.1479
v  -2.0000 -26.5359 -10.4253
v  -3.4641 -28.0000 -11.1475
v  -4.0000 -30.0000 -12.0529
v  -3.4641 -32.0000 -13.0744
v  -2.0000 -33.4641 -13.8512
v  -0.0000 -34.0000 -14.0781
v  2.0000 -33.4641 -13.8512
v  3.4641 -32.0000 -13.0744
v  -0.0000 -30.0000 -24.0000
# 88 vertices

vn 0.0000 0.0000 -1.0000
vn 0.0000 0.0000 -1.0000
vn 0.0000 0.0000 -1.0000
vn 0.0000 0.0000 -1.0000
vn 0.0000 0.0000 1.0000
vn 0.0000 0.0000 1.0000
vn 0.0000 0.0000 1.0000
vn 0.0000 0.0000 1.0000
vn 0.0000 -1.0000 0.0000
vn 0.0000 -1.0000 0.0000
vn 0.0000 -1.0000 0.0000
vn 0.0000 -1.0000 0.0000
vn 1.0000 0.0000 0.0000
vn 1.0000 0.0000 0.0000
vn 1.0000 0.0000 0.0000
vn 1.0000 0.0000 0.0000
vn 0.0000 1.0000 0.0000
vn 0.0000 1.0000 0.0000
vn 0.0000 1.0000 0.0000
vn 0.0000 1.0000 0.0000
vn -1.0000 0.0000 0.0000
vn -1.0000 0.0000 0.0000
vn -1.0000 0.0000 0.0000
vn -1.0000 0.0000 0.0000
vn 0.0000 0.0000 -1.0000
vn 0.0000 0.0000 -1.0000
vn 0.0000 0.0000 -1.0000
vn 0.0000 0.0000 -1.0000
vn 0.0000 0.0000 -1.0000
vn 0.0000 0.0000 -1.0000
vn 0.0000 0.0000 -1.0000
vn 0.0000 0.0000 -1.0000
vn 0.0000 0.0000 -1.0000
vn 0.0000 0.0000 -1.0000
vn 0.0000 0.0000 -1.0000
vn 0.0000 0.0000 -1.0000
vn 1.0000 0.0000 0.0000
vn 1.0000 0.0000 0.0000
vn 1.0000 0.0000 0.0000
vn 1.0000 0.0000 0.0000
vn 0.0000 -1.0000 0.0000
vn 0.0000 -1.0000 0.0000
vn 0.0000 -1.0000 0.0000
vn 0.0000 -1.0000 0.0000
vn -1.0000 0.0000 0.0000
vn -1.0000 0.0000 0.0000
vn -1.0000 0.0000 0.0000
vn -1.0000 0.0000 0.0000
vn 0.0000 1.0000 0.0000
vn 0.0000 1.0000 0.0000
vn 0.0000 1.0000 0.0000
vn 0.0000 1.0000 0.0000
vn 1.0000 0.0000 0.0000
vn 1.0000 0.0000 0.0000
vn 1.0000 0.0000 0.0000
vn 1.0000 0.0000 0.0000
vn 0.0000 -0.4472 0.8944
vn 0.0000 -0.4472 0.8944
vn 0.0000 -0.4472 0.8944
vn 0.0000 -0.4472 0.8944
vn -1.0000 0.0000 0.0000
vn -1.0000 0.0000 0.0000
vn -1.0000 0.0000 0.0000
vn -1.0000 0.0000 0.0000
vn 0.0000 0.0000 -1.0000
vn 0.0000 0.0000 -1.0000
vn 0.0000 0.0000 -1.0000
vn 0.0000 0.0000 -1.0000
vn 0.0000 0.0000 -1.0000
vn 0.0000 0.0000 -1.0000
vn 0.0000 0.0000 -1.0000
vn 0.0000 0.0000 -1.0000
vn 0.0000 0.0000 -1.0000
vn 0.0000 0.0000 -1.0000
vn 0.0000 0.0000 -1.0000
vn 0.0000 0.0000 -1.0000
vn 0.0000 0.0000 -1.0000
vn 0.0000 0.0000 -1.0000
vn 0.0000 0.0000 -1.0000
vn 0.0000 0.0000 -1.0000
vn 0.0000 0.0000 -1.0000
vn 0.0000 0.0000 -1.0000
vn 0.0000 0.0000 -1.0000
vn 0.0000 0.0000 -1.0000
vn 0.0000 0.0000 -1.0000
vn 0.0000 0.0000 -1.0000
vn 0.0000 0.0000 -1.0000
vn 0.0000 0.0000 -1.0000
vn 0.0000 0.0000 -1.0000
vn 0.0000 0.0000 -1.0000
vn 0.0000 -1.0000 -0.0000
vn 0.0000 -1.0000 -0.0000
vn 0.0000 -1.0000 -0.0000
vn 0.0000 -1.0000 -0.0000
vn -1.0000 0.0000 0.0000
vn -1.0000 0.0000 0.0000
vn -1.0000 0.0000 0.0000
vn 0.0000 1.0000 0.0000
vn 0.0000 1.0000 0.0000
vn 0.0000 1.0000 0.0000
vn 0.0000 1.0000 0.0000
vn 1.0000 0.0000 0.0000
vn 1.0000 0.0000 0.0000
vn 1.0000 0.0000 0.0000
vn 0.0000 -0.0000 -1.0000
vn 0.0000 -0.0000 -1.0000
vn 0.0000 -0.0000 -1.0000
vn 0.0000 -0.0000 -1.0000
vn 1.0000 0.0000 0.0000
vn 1.0000 0.0000 0.0000
vn 1.0000 0.0000 0.0000
vn -1.0000 0.0000 0.0000
vn -1.0000 0.0000 0.0000
vn -1.0000 0.0000 0.0000
vn -1.0000 0.0000 0.0000
vn -1.0000 0.0000 0.0000
vn -1.0000 0.0000 0.0000
vn 1.0000 0.0000 0.0000
vn 1.0000 0.0000 0.0000
vn 1.0000 0.0000 0.0000
vn 0.0000 -1.0000 -0.0000
vn 0.0000 -1.0000 -0.0000
vn 0.0000 -1.0000 -0.0000
vn 0.0000 -1.0000 -0.0000
vn 0.0000 -1.0000 -0.0000
vn 0.0000 -1.0000 -0.0000
vn 0.0000 -1.0000 -0.0000
vn 0.0000 -1.0000 -0.0000
vn 0.0000 0.0000 -1.0000
vn 0.0000 0.0000 -1.0000
vn 0.0000 0.0000 -1.0000
vn 0.0000 0.0000 -1.0000
vn 1.0000 0.0000 0.0000
vn 1.0000 0.0000 0.0000
vn 1.0000 0.0000 0.0000
vn 1.0000 0.0000 0.0000
vn -1.0000 0.0000 0.0000
vn -1.0000 0.0000 0.0000
vn -1.0000 0.0000 0.0000
vn -1.0000 0.0000 0.0000
vn -0.0000 0.4472 -0.8944
vn -0.0000 0.4472 -0.8944
vn -0.0000 0.4472 -0.8944
vn 0.0000 0.4472 -0.8944
vn 0.0000 0.4472 -0.8944
vn 0.0000 0.4472 -0.8944
vn -0.0000 0.4472 -0.8944
vn -0.0000 0.4472 -0.8944
vn 0.0000 0.4472 -0.8944
vn 0.0000 0.4472 -0.8944
vn 0.0000 0.4472 -0.8944
vn 0.0000 0.4472 -0.8944
vn 1.0000 -0.0000 0.0000
vn 0.8660 0.5000 0.0000
vn 0.8660 0.5000 0.0000
vn 1.0000 -0.0000 0.0000
vn 0.8660 0.5000 0.0000
vn 0.5000 0.8660 0.0000
vn 0.5000 0.8660 0.0000
vn 0.8660 0.5000 0.0000
vn 0.5000 0.8660 0.0000
vn -0.0000 1.0000 0.0000
vn -0.0000 1.0000 0.0000
vn 0.5000 0.8660 0.0000
vn -0.0000 1.0000 0.0000
vn -0.5000 0.8660 0.0000
vn -0.5000 0.8660 0.0000
vn -0.0000 1.0000 0.0000
vn -0.5000 0.8660 0.0000
vn -0.8660 0.5000 0.0000
vn -0.8660 0.5000 0.0000
vn -0.5000 0.8660 0.0000
vn -0.8660 0.5000 0.0000
vn -1.0000 0.0000 0.0000
vn -1.0000 0.0000 0.0000
vn -0.8660 0.5000 0.0000
vn -1.0000 0.0000 0.0000
vn -0.8660 -0.5000 0.0000
vn -0.8660 -0.5000 0.0000
vn -1.0000 0.0000 0.0000
vn -0.8660 -0.5000 0.0000
vn -0.5000 -0.8660 0.0000
vn -0.5000 -0.8660 0.0000
vn -0.8660 -0.5000 0.0000
vn -0.5000 -0.8660 0.0000
vn -0.0000 -1.0000 0.0000
vn -0.0000 -1.0000 0.0000
vn -0.5000 -0.8660 0.0000
vn -0.0000 -1.0000 0.0000
vn 0.5000 -0.8660 0.0000
vn 0.5000 -0.8660 0.0000
vn -0.0000 -1.0000 0.0000
vn 0.5000 -0.8660 0.0000
vn 0.8660 -0.5000 0.0000
vn 0.8660 -0.5000 0.0000
vn 0.5000 -0.8660 0.0000
vn 0.8660 -0.5000 0.0000
vn 1.0000 -0.0000 0.0000
vn 1.0000 -0.0000 0.0000
vn 0.8660 -0.5000 0.0000
vn 0.0000 0.0000 1.0000
vn 0.0000 0.0000 1.0000
vn 0.0000 0.0000 1.0000
vn 0.0000 0.0000 1.0000
vn 0.0000 0.0000 1.0000
vn 0.0000 0.0000 1.0000
vn 0.0000 0.0000 1.0000
vn 0.0000 0.0000 1.0000
vn 0.0000 0.0000 1.0000
vn 0.0000 0.0000 1.0000
vn 0.0000 0.0000 1.0000
vn 0.0000 0.0000 1.0000
vn 0.0000 0.0000 1.0000
vn 0.0000 0.0000 1.0000
vn 0.0000 0.0000 1.0000
vn 0.0000 0.0000 1.0000
vn 0.0000 0.0000 1.0000
vn 0.0000 0.0000 1.0000
vn 0.0000 0.0000 1.0000
vn 0.0000 0.0000 1.0000
vn 0.0000 0.0000 1.0000
vn 0.0000 0.0000 1.0000
vn 0.0000 0.0000 1.0000
vn 0.0000 0.0000 1.0000
vn 0.0000 0.0000 1.0000
vn 0.0000 0.0000 1.0000
vn 0.0000 0.0000 1.0000
vn 0.0000 0.0000 1.0000
vn 0.0000 0.0000 1.0000
vn 0.0000 0.0000 1.0000
vn 0.0000 0.0000 1.0000
vn 0.0000 0.0000 1.0000
vn 0.0000 0.0000 1.0000
vn 0.0000 0.0000 1.0000
vn 0.0000 0.0000 1.0000
vn 0.0000 0.0000 1.0000
vn 1.0000 0.0000 0.0000
vn 0.8660 0.5000 0.0000
vn 0.8316 0.5554 0.0000
vn 0.9972 0.0751 -0.0000
vn 0.8660 0.5000 0.0000
vn 0.5000 0.8660 0.0000
vn 0.4626 0.8866 0.0000
vn 0.8316 0.5554 0.0000
vn 0.5000 0.8660 0.0000
vn 0.0000 1.0000 0.0000
vn 0.0000 1.0000 0.0000
vn 0.4626 0.8866 0.0000
vn 0.0000 1.0000 0.0000
vn -0.5000 0.8660 0.0000
vn -0.4626 0.8866 0.0000
vn 0.0000 1.0000 0.0000
vn -0.5000 0.8660 0.0000
vn -0.8660 0.5000 0.0000
vn -0.8316 0.5554 0.0000
vn -0.4626 0.8866 0.0000
vn -0.8660 0.5000 0.0000
vn -1.0000 -0.0000 0.0000
vn -0.9972 0.0751 0.0000
vn -0.8316 0.5554 0.0000
vn -1.0000 -0.0000 0.0000
vn -0.8660 -0.5000 0.0000
vn -0.8978 -0.4405 0.0000
vn -0.9972 0.0751 0.0000
vn -0.8660 -0.5000 0.0000
vn -0.5000 -0.8660 0.0000
vn -0.5317 -0.8470 0.0000
vn -0.8978 -0.4405 0.0000
vn -0.5000 -0.8660 0.0000
vn -0.0000 -1.0000 0.0000
vn -0.0000 -1.0000 0.0000
vn -0.5317 -0.8470 0.0000
vn -0.0000 -1.0000 0.0000
vn 0.5000 -0.8660 -0.0000
vn 0.5317 -0.8470 0.0000
vn -0.0000 -1.0000 0.0000
vn 0.5000 -0.8660 -0.0000
vn 0.8660 -0.5000 -0.0000
vn 0.8978 -0.4405 -0.0000
vn 0.5317 -0.8470 0.0000
vn 0.8660 -0.5000 -0.0000
vn 1.0000 0.0000 0.0000
vn 0.9972 0.0751 -0.0000
vn 0.8978 -0.4405 -0.0000
vn 0.0000 0.0000 -1.0000
vn 0.0000 0.0000 -1.0000
vn 0.0000 0.0000 -1.0000
vn 0.0000 0.0000 -1.0000
vn 0.0000 0.0000 -1.0000
vn 0.0000 0.0000 -1.0000
vn 0.0000 0.0000 -1.0000
vn 0.0000 0.0000 -1.0000
vn 0.0000 0.0000 -1.0000
vn 0.0000 0.0000 -1.0000
vn 0.0000 0.0000 -1.0000
vn 0.0000 0.0000 -1.0000
vn 0.0000 0.0000 -1.0000
vn 0.0000 0.0000 -1.0000
vn 0.0000 0.0000 -1.0000
vn 0.0000 0.0000 -1.0000
vn 0.0000 0.0000 -1.0000
vn 0.0000 0.0000 -1.0000
vn 0.0000 0.0000 -1.0000
vn 0.0000 0.0000 -1.0000
vn 0.0000 0.0000 -1.0000
vn 0.0000 0.0000 -1.0000
vn 0.0000 0.0000 -1.0000
vn 0.0000 0.0000 -1.0000
vn 0.0000 0.0000 -1.0000
vn 0.0000 0.0000 -1.0000
vn 0.0000 0.0000 -1.0000
vn 0.0000 0.0000 -1.0000
vn 0.0000 0.0000 -1.0000
vn 0.0000 0.0000 -1.0000
vn 0.0000 0.0000 -1.0000
vn 0.0000 0.0000 -1.0000
vn 0.0000 0.0000 -1.0000
vn 0.0000 0.0000 -1.0000
vn 0.0000 0.0000 -1.0000
vn 0.0000 0.0000 -1.0000
# 320 vertex normals

vt 0.1000 0.6600 0.0000
vt 0.9000 0.6600 0.0000
vt 0.1000 0.9800 0.0000
vt 0.9000 0.9800 0.0000
vt 0.1000 0.6600 0.8571
vt 0.9000 0.6600 0.8571
vt 0.1000 0.9800 0.8571
vt 0.9000 0.9800 0.8571
vt 0.2600 0.7240 0.0000
vt 0.2600 0.9160 0.0000
vt 0.7400 0.9160 0.0000
vt 0.7400 0.7240 0.0000
vt 0.2600 0.7240 0.7143
vt 0.2600 0.9160 0.7143
vt 0.7400 0.9160 0.7143
vt 0.7400 0.7240 0.7143
vt 0.1000 0.0200 0.0000
vt 0.9000 0.0200 0.0000
vt 0.9000 0.0200 0.1429
vt 0.1000 0.0200 0.1429
vt 0.2600 0.6600 0.0000
vt 0.7400 0.6600 0.0000
vt 0.7400 0.0840 0.0000
vt 0.2600 0.0840 0.0000
vt 0.2600 0.6600 0.7143
vt 0.7400 0.6600 0.7143
vt 0.7400 0.0840 0.1429
vt 0.2600 0.0840 0.1429
vt 0.7400 0.1480 0.1429
vt 0.2600 0.1480 0.1429
vt 0.4200 0.6600 0.0000
vt 0.5800 0.6600 0.0000
vt 0.4200 0.6600 0.7143
vt 0.5800 0.6600 0.7143
vt 0.4200 0.5960 0.0000
vt 0.5800 0.5960 0.0000
vt 0.5800 0.5960 0.6429
vt 0.4200 0.5960 0.6429
vt 0.7400 0.8200 0.8571
vt 0.7078 0.8680 0.8571
vt 0.6200 0.9031 0.8571
vt 0.5000 0.9160 0.8571
vt 0.3800 0.9031 0.8571
vt 0.2922 0.8680 0.8571
vt 0.2600 0.8200 0.8571
vt 0.2922 0.7720 0.8571
vt 0.3800 0.7369 0.8571
vt 0.5000 0.7240 0.8571
vt 0.6200 0.7369 0.8571
vt 0.7078 0.7720 0.8571
vt 0.7400 0.8200 1.0000
vt 0.7078 0.8680 1.0000
vt 0.6200 0.9031 1.0000
vt 0.5000 0.9160 1.0000
vt 0.3800 0.9031 1.0000
vt 0.2922 0.8680 1.0000
vt 0.2600 0.8200 1.0000
vt 0.2922 0.7720 1.0000
vt 0.3800 0.7369 1.0000
vt 0.5000 0.7240 1.0000
vt 0.6200 0.7369 1.0000
vt 0.7078 0.7720 1.0000
vt 0.5000 0.8200 1.0000
vt 0.6600 0.3400 -0.0000
vt 0.6386 0.3720 -0.0000
vt 0.5800 0.3954 -0.0000
vt 0.5000 0.4040 -0.0000
vt 0.4200 0.3954 -0.0000
vt 0.3614 0.3720 -0.0000
vt 0.3400 0.3400 -0.0000
vt 0.3614 0.3080 -0.0000
vt 0.4200 0.2846 -0.0000
vt 0.5000 0.2760 -0.0000
vt 0.5800 0.2846 -0.0000
vt 0.6386 0.3080 -0.0000
vt 0.6600 0.3400 0.4267
vt 0.6386 0.3720 0.4590
vt 0.5800 0.3954 0.4848
vt 0.5000 0.4040 0.4947
vt 0.4200 0.3954 0.4848
vt 0.3614 0.3720 0.4590
vt 0.3400 0.3400 0.4267
vt 0.3614 0.3080 0.3902
vt 0.4200 0.2846 0.3625
vt 0.5000 0.2760 0.3544
vt 0.5800 0.2846 0.3625
vt 0.6386 0.3080 0.3902
vt 0.5000 0.3400 -0.0000
# 88 texture coords

g 4286
s 1
f 13/13/1 14/14/2 15/15/3 16/16/4 
s 8
f 5/5/5 6/6/6 8/8/7 7/7/8 
s 2
f 17/17/9 18/18/10 19/19/11 20/20/12 
s 4
f 2/2/13 4/4/14 8/8/15 6/6/16 
s 2
f 4/4/17 3/3/18 7/7/19 8/8/20 
s 4
f 3/3/21 1/1/22 5/5/23 7/7/24 
s 1
f 1/1/25 3/3/26 10/10/27 9/9/28 
f 3/3/29 4/4/30 11/11/31 10/10/32 
f 4/4/33 2/2/34 12/12/35 11/11/36 
s 2
f 9/9/37 10/10/38 14/14/39 13/13/40 
s 4
f 10/10/41 11/11/42 15/15/43 14/14/44 
s 2
f 11/11/45 12/12/46 16/16/47 15/15/48 
s 4
f 12/12/49 9/9/50 13/13/51 16/16/52 
f 2/2/53 6/6/54 19/19/55 18/18/56 
s 1
f 6/6/57 5/5/58 20/20/59 19/19/60 
s 4
f 5/5/61 1/1/62 17/17/63 20/20/64 
s 1
f 2/2/65 18/18/66 23/23/67 22/22/68 
f 18/18/69 17/17/70 24/24/71 23/23/72 
f 17/17/73 1/1/74 21/21/75 24/24/76 
f 31/31/77 21/21/78 9/9/79 32/32/80 
f 22/22/81 32/32/82 9/9/83 12/12/84 
f 12/12/85 2/2/86 22/22/87 
f 21/21/88 1/1/89 9/9/90 
s 2
f 36/36/91 37/37/92 38/38/93 35/35/94 
f 22/22/95 29/29/96 26/26/97 
s 4
f 23/23/98 24/24/99 28/28/100 27/27/101 
s 2
f 24/24/102 30/30/103 28/28/104 
s 8
f 27/27/105 28/28/106 30/30/107 29/29/108 
s 2
f 24/24/109 21/21/110 30/30/111 
f 23/23/112 27/27/113 29/29/114 
f 22/22/115 23/23/116 29/29/117 
f 21/21/118 25/25/119 30/30/120 
s 4
f 22/22/121 26/26/122 34/34/123 32/32/124 
f 25/25/125 21/21/126 31/31/127 33/33/128 
s 1
f 31/31/129 32/32/130 36/36/131 35/35/132 
s 8
f 32/32/133 34/34/134 37/37/135 36/36/136 
f 33/33/137 31/31/138 35/35/139 38/38/140 
s 1
f 33/33/141 38/38/142 30/30/143 25/25/144 
f 37/37/145 29/29/146 30/30/147 38/38/148 
f 37/37/149 34/34/150 26/26/151 29/29/152 
f 39/39/153 40/40/154 52/52/155 51/51/156 
f 40/40/157 41/41/158 53/53/159 52/52/160 
f 41/41/161 42/42/162 54/54/163 53/53/164 
f 42/42/165 43/43/166 55/55/167 54/54/168 
f 43/43/169 44/44/170 56/56/171 55/55/172 
f 44/44/173 45/45/174 57/57/175 56/56/176 
f 45/45/177 46/46/178 58/58/179 57/57/180 
f 46/46/181 47/47/182 59/59/183 58/58/184 
f 47/47/185 48/48/186 60/60/187 59/59/188 
f 48/48/189 49/49/190 61/61/191 60/60/192 
f 49/49/193 50/50/194 62/62/195 61/61/196 
f 50/50/197 39/39/198 51/51/199 62/62/200 
s 2
f 51/51/201 52/52/202 63/63/203 
f 52/52/204 53/53/205 63/63/206 
f 53/53/207 54/54/208 63/63/209 
f 54/54/210 55/55/211 63/63/212 
f 55/55/213 56/56/214 63/63/215 
f 56/56/216 57/57/217 63/63/218 
f 57/57/219 58/58/220 63/63/221 
f 58/58/222 59/59/223 63/63/224 
f 59/59/225 60/60/226 63/63/227 
f 60/60/228 61/61/229 63/63/230 
f 61/61/231 62/62/232 63/63/233 
f 62/62/234 51/51/235 63/63/236 
s 1
f 64/64/237 65/65/238 77/77/239 76/76/240 
f 65/65/241 66/66/242 78/78/243 77/77/244 
f 66/66/245 67/67/246 79/79/247 78/78/248 
f 67/67/249 68/68/250 80/80/251 79/79/252 
f 68/68/253 69/69/254 81/81/255 80/80/256 
f 69/69/257 70/70/258 82/82/259 81/81/260 
f 70/70/261 71/71/262 83/83/263 82/82/264 
f 71/71/265 72/72/266 84/84/267 83/83/268 
f 72/72/269 73/73/270 85/85/271 84/84/272 
f 73/73/273 74/74/274 86/86/275 85/85/276 
f 74/74/277 75/75/278 87/87/279 86/86/280 
f 75/75/281 64/64/282 76/76/283 87/87/284 
s 2
f 65/65/285 64/64/286 88/88/287 
f 64/64/288 75/75/289 88/88/290 
f 75/75/291 74/74/292 88/88/293 
f 74/74/294 73/73/295 88/88/296 
f 73/73/297 72/72/298 88/88/299 
f 72/72/300 71/71/301 88/88/302 
f 71/71/303 70/70/304 88/88/305 
f 70/70/306 69/69/307 88/88/308 
f 69/69/309 68/68/310 88/88/311 
f 68/68/312 67/67/313 88/88/314 
f 67/67/315 66/66/316 88/88/317 
f 66/66/318 65/65/319 88/88/320 
# 56 polygons - 32 triangles

